<svg width="2141" height="1598" viewBox="0 0 2141 1598" fill="none" xmlns="http://www.w3.org/2000/svg">
<rect x="23" y="4" width="2118" height="1326" fill="white"/>
<rect x="9" width="12" height="1322" fill="#950202"/>
<path d="M108.75 205.65L110.25 205.65C126 205.65 140.7 196.05 140.7 162.15L140.7 85.5L36 85.5L36 162.15C36 196.05 50.7 205.65 66.45 205.65L67.95 205.65C78 205.65 84.3 201.15 88.35 195.15C92.4 201.15 98.7 205.65 108.75 205.65ZM116.4 119.1L116.4 156.9C116.4 166.95 111.45 169.2 106.95 169.2L106.35 169.2C101.7 169.2 97.8 166.95 97.8 156.9L97.8 119.1L116.4 119.1ZM69.75 169.2C65.25 169.2 60.3 166.95 60.3 156.9L60.3 119.1L78.9 119.1L78.9 156.9C78.9 166.95 75 169.2 70.35 169.2L69.75 169.2ZM54.15 239.885L54.15 295.235L35.85 303.335L35.85 339.335L140.7 290.135L140.7 245.735L35.85 198.185L35.85 231.785L54.15 239.885ZM116.4 267.335L77.25 284.885L77.25 250.085L116.4 267.335ZM114.3 361.09L35.85 361.09L35.85 394.54L114.3 394.54L114.3 440.44L140.7 440.44L140.7 315.34L114.3 315.34L114.3 361.09ZM114.3 478.799L35.85 478.799L35.85 512.249L114.3 512.249L114.3 558.149L140.7 558.149L140.7 433.049L114.3 433.049L114.3 478.799ZM63.3 591.108L140.7 591.108L140.7 557.508L36 557.508L36 654.558L63.3 654.558L63.3 591.108ZM140.7 754.473L140.7 654.123L35.85 654.123L35.85 755.373L60.3 755.373L60.3 687.423L76.5 687.423L76.5 754.923L101.4 754.923L101.4 687.423L116.7 687.423L116.7 754.473L140.7 754.473ZM103.95 914.916L105.75 914.916C126.3 914.916 140.7 904.566 140.7 868.566L140.7 794.766L35.85 794.766L35.85 828.366L68.4 828.366L68.4 856.116L35.85 875.616L35.85 914.916L71.85 893.316C77.4 909.366 89.4 914.916 103.95 914.916ZM115.5 828.366L115.5 865.716C115.5 876.216 111 879.966 104.85 879.966L104.4 879.966C97.8 879.966 93.45 876.216 93.45 865.716L93.45 828.366L115.5 828.366ZM142.65 984.659L142.65 978.209C142.65 925.859 113.25 913.109 90.9 913.109L86.7 913.109C64.8 913.109 34.5 925.859 34.5 978.209L34.5 984.659C34.5 1037.16 64.8 1049.91 86.7 1049.91L90.9 1049.91C113.25 1049.91 142.65 1037.01 142.65 984.659ZM89.85 1014.81L88.05 1014.81C76.5 1014.81 60.9 1009.41 60.9 981.509C60.9 954.059 76.5 948.059 88.05 948.059L89.85 948.059C101.25 948.059 116.4 953.459 116.4 981.509C116.4 1009.41 101.25 1014.81 89.85 1014.81ZM73.8 1086.59L35.85 1086.59L35.85 1120.04L73.65 1120.04L140.7 1171.79L140.7 1134.89L101.4 1104.59L140.7 1074.44L140.7 1033.19L73.8 1086.59ZM54.15 1186.77L54.15 1242.12L35.85 1250.22L35.85 1286.22L140.7 1237.02L140.7 1192.62L35.85 1145.07L35.85 1178.67L54.15 1186.77ZM116.4 1214.22L77.25 1231.77L77.25 1196.97L116.4 1214.22ZM63.3 1317.81L140.7 1317.81L140.7 1284.21L36 1284.21L35.9999 1381.26L63.3 1381.26L63.3 1317.81ZM140.7 1481.17L140.7 1380.82L35.8499 1380.82L35.8499 1482.07L60.2999 1482.07L60.2999 1414.12L76.4999 1414.12L76.4999 1481.62L101.4 1481.62L101.4 1414.12L116.7 1414.12L116.7 1481.17L140.7 1481.17Z" fill="#CECECE" fill-opacity="0.21"/>
<path d="M140.7 85.5L144.7 85.5L144.7 81.5L140.7 81.5L140.7 85.5ZM36 85.5L36 81.5L32 81.5L32 85.5L36 85.5ZM88.35 195.15L91.6654 192.912L88.35 188L85.0346 192.912L88.35 195.15ZM116.4 119.1L120.4 119.1L120.4 115.1L116.4 115.1L116.4 119.1ZM97.8 119.1L97.8 115.1L93.8 115.1L93.8 119.1L97.8 119.1ZM60.3 119.1L60.3 115.1L56.3 115.1L56.3 119.1L60.3 119.1ZM78.9 119.1L82.9 119.1L82.9 115.1L78.9 115.1L78.9 119.1ZM108.75 209.65L110.25 209.65L110.25 201.65L108.75 201.65L108.75 209.65ZM110.25 209.65C118.96 209.65 127.83 206.964 134.429 199.204C140.93 191.558 144.7 179.592 144.7 162.15L136.7 162.15C136.7 178.608 133.12 188.392 128.334 194.021C123.645 199.536 117.29 201.65 110.25 201.65L110.25 209.65ZM144.7 162.15L144.7 85.5L136.7 85.5L136.7 162.15L144.7 162.15ZM140.7 81.5L36 81.5L36 89.5L140.7 89.5L140.7 81.5ZM32 85.5L32 162.15L40 162.15L40 85.5L32 85.5ZM32 162.15C32 179.592 35.7703 191.558 42.2714 199.204C48.8698 206.964 57.7398 209.65 66.45 209.65L66.45 201.65C59.4102 201.65 53.0552 199.536 48.3661 194.021C43.5797 188.392 40 178.608 40 162.15L32 162.15ZM66.45 209.65L67.95 209.65L67.95 201.65L66.45 201.65L66.45 209.65ZM67.95 209.65C79.4671 209.65 86.9523 204.37 91.6654 197.388L85.0346 192.912C81.6477 197.93 76.5329 201.65 67.95 201.65L67.95 209.65ZM85.0346 197.388C89.7477 204.37 97.2329 209.65 108.75 209.65L108.75 201.65C100.167 201.65 95.0523 197.93 91.6654 192.912L85.0346 197.388ZM112.4 119.1L112.4 156.9L120.4 156.9L120.4 119.1L112.4 119.1ZM112.4 156.9C112.4 161.324 111.311 163.205 110.519 164.005C109.737 164.796 108.581 165.2 106.95 165.2L106.95 173.2C109.819 173.2 113.388 172.479 116.206 169.632C119.014 166.795 120.4 162.526 120.4 156.9L112.4 156.9ZM106.95 165.2L106.35 165.2L106.35 173.2L106.95 173.2L106.95 165.2ZM106.35 165.2C104.648 165.2 103.872 164.805 103.37 164.218C102.727 163.466 101.8 161.547 101.8 156.9L93.8 156.9C93.8 162.303 94.8231 166.534 97.292 169.419C99.9028 172.47 103.402 173.2 106.35 173.2L106.35 165.2ZM101.8 156.9L101.8 119.1L93.8 119.1L93.8 156.9L101.8 156.9ZM97.8 123.1L116.4 123.1L116.4 115.1L97.8 115.1L97.8 123.1ZM69.75 165.2C68.119 165.2 66.9633 164.796 66.1805 164.005C65.3889 163.205 64.3 161.324 64.3 156.9L56.3 156.9C56.3 162.526 57.6861 166.795 60.4945 169.632C63.3117 172.479 66.881 173.2 69.75 173.2L69.75 165.2ZM64.3 156.9L64.3 119.1L56.3 119.1L56.3 156.9L64.3 156.9ZM60.3 123.1L78.9 123.1L78.9 115.1L60.3 115.1L60.3 123.1ZM74.9 119.1L74.9 156.9L82.9 156.9L82.9 119.1L74.9 119.1ZM74.9 156.9C74.9 161.547 73.9731 163.466 73.3295 164.218C72.8278 164.805 72.0516 165.2 70.35 165.2L70.35 173.2C73.2984 173.2 76.7972 172.47 79.408 169.419C81.8769 166.534 82.9 162.303 82.9 156.9L74.9 156.9ZM70.35 165.2L69.75 165.2L69.75 173.2L70.35 173.2L70.35 165.2ZM54.15 239.885L58.15 239.885L58.15 237.281L55.769 236.227L54.15 239.885ZM54.15 295.235L55.769 298.893L58.15 297.839L58.15 295.235L54.15 295.235ZM35.85 303.335L34.231 299.677L31.85 300.731L31.85 303.335L35.85 303.335ZM35.85 339.335L31.85 339.335L31.85 345.631L37.5492 342.956L35.85 339.335ZM140.7 290.135L142.399 293.756L144.7 292.677L144.7 290.135L140.7 290.135ZM140.7 245.735L144.7 245.735L144.7 243.157L142.352 242.092L140.7 245.735ZM35.85 198.185L37.5021 194.542L31.85 191.979L31.85 198.185L35.85 198.185ZM35.85 231.785L31.85 231.785L31.85 234.389L34.231 235.443L35.85 231.785ZM116.4 267.335L118.036 270.985L126.249 267.304L118.013 263.675L116.4 267.335ZM77.25 284.885L73.25 284.885L73.25 291.062L78.8862 288.535L77.25 284.885ZM77.25 250.085L78.8628 246.425L73.25 243.952L73.25 250.085L77.25 250.085ZM50.15 239.885L50.15 295.235L58.15 295.235L58.15 239.885L50.15 239.885ZM52.531 291.577L34.231 299.677L37.469 306.993L55.769 298.893L52.531 291.577ZM31.85 303.335L31.85 339.335L39.85 339.335L39.85 303.335L31.85 303.335ZM37.5492 342.956L142.399 293.756L139.001 286.514L34.1508 335.714L37.5492 342.956ZM144.7 290.135L144.7 245.735L136.7 245.735L136.7 290.135L144.7 290.135ZM142.352 242.092L37.5021 194.542L34.1979 201.828L139.048 249.378L142.352 242.092ZM31.85 198.185L31.85 231.785L39.85 231.785L39.85 198.185L31.85 198.185ZM34.231 235.443L52.531 243.543L55.769 236.227L37.469 228.127L34.231 235.443ZM114.764 263.685L75.6138 281.235L78.8862 288.535L118.036 270.985L114.764 263.685ZM81.25 284.885L81.25 250.085L73.25 250.085L73.25 284.885L81.25 284.885ZM75.6372 253.746L114.787 270.996L118.013 263.675L78.8628 246.425L75.6372 253.746ZM114.3 361.09L114.3 365.09L118.3 365.09L118.3 361.09L114.3 361.09ZM35.85 361.09L35.85 357.09L31.85 357.09L31.85 361.09L35.85 361.09ZM35.85 394.54L31.85 394.54L31.85 398.54L35.85 398.54L35.85 394.54ZM114.3 394.54L118.3 394.54L118.3 390.54L114.3 390.54L114.3 394.54ZM114.3 440.44L110.3 440.44L110.3 444.44L114.3 444.44L114.3 440.44ZM140.7 440.44L140.7 444.44L144.7 444.44L144.7 440.44L140.7 440.44ZM140.7 315.34L144.7 315.34L144.7 311.34L140.7 311.34L140.7 315.34ZM114.3 315.34L114.3 311.34L110.3 311.34L110.3 315.34L114.3 315.34ZM114.3 357.09L35.85 357.09L35.85 365.09L114.3 365.09L114.3 357.09ZM31.85 361.09L31.85 394.54L39.85 394.54L39.85 361.09L31.85 361.09ZM35.85 398.54L114.3 398.54L114.3 390.54L35.85 390.54L35.85 398.54ZM110.3 394.54L110.3 440.44L118.3 440.44L118.3 394.54L110.3 394.54ZM114.3 444.44L140.7 444.44L140.7 436.44L114.3 436.44L114.3 444.44ZM144.7 440.44L144.7 315.34L136.7 315.34L136.7 440.44L144.7 440.44ZM140.7 311.34L114.3 311.34L114.3 319.34L140.7 319.34L140.7 311.34ZM110.3 315.34L110.3 361.09L118.3 361.09L118.3 315.34L110.3 315.34ZM114.3 478.799L114.3 482.799L118.3 482.799L118.3 478.799L114.3 478.799ZM35.85 478.799L35.85 474.799L31.85 474.799L31.85 478.799L35.85 478.799ZM35.85 512.249L31.85 512.249L31.85 516.249L35.85 516.249L35.85 512.249ZM114.3 512.249L118.3 512.249L118.3 508.249L114.3 508.249L114.3 512.249ZM114.3 558.149L110.3 558.149L110.3 562.149L114.3 562.149L114.3 558.149ZM140.7 558.149L140.7 562.149L144.7 562.149L144.7 558.149L140.7 558.149ZM140.7 433.049L144.7 433.049L144.7 429.049L140.7 429.049L140.7 433.049ZM114.3 433.049L114.3 429.049L110.3 429.049L110.3 433.049L114.3 433.049ZM114.3 474.799L35.85 474.799L35.85 482.799L114.3 482.799L114.3 474.799ZM31.85 478.799L31.85 512.249L39.85 512.249L39.85 478.799L31.85 478.799ZM35.85 516.249L114.3 516.249L114.3 508.249L35.85 508.249L35.85 516.249ZM110.3 512.249L110.3 558.149L118.3 558.149L118.3 512.249L110.3 512.249ZM114.3 562.149L140.7 562.149L140.7 554.149L114.3 554.149L114.3 562.149ZM144.7 558.149L144.7 433.049L136.7 433.049L136.7 558.149L144.7 558.149ZM140.7 429.049L114.3 429.049L114.3 437.049L140.7 437.049L140.7 429.049ZM110.3 433.049L110.3 478.799L118.3 478.799L118.3 433.049L110.3 433.049ZM63.3 591.108L63.3 587.108L59.3 587.108L59.3 591.108L63.3 591.108ZM140.7 591.108L140.7 595.108L144.7 595.108L144.7 591.108L140.7 591.108ZM140.7 557.508L144.7 557.508L144.7 553.508L140.7 553.508L140.7 557.508ZM36 557.508L36 553.508L32 553.508L32 557.508L36 557.508ZM36 654.558L32 654.558L32 658.558L36 658.558L36 654.558ZM63.3 654.558L63.3 658.558L67.3 658.558L67.3 654.558L63.3 654.558ZM63.3 595.108L140.7 595.108L140.7 587.108L63.3 587.108L63.3 595.108ZM144.7 591.108L144.7 557.508L136.7 557.508L136.7 591.108L144.7 591.108ZM140.7 553.508L36 553.508L36 561.508L140.7 561.508L140.7 553.508ZM32 557.508L32 654.558L40 654.558L40 557.508L32 557.508ZM36 658.558L63.3 658.558L63.3 650.558L36 650.558L36 658.558ZM67.3 654.558L67.3 591.108L59.3 591.108L59.3 654.558L67.3 654.558ZM140.7 754.473L140.7 758.473L144.7 758.473L144.7 754.473L140.7 754.473ZM140.7 654.123L144.7 654.123L144.7 650.123L140.7 650.123L140.7 654.123ZM35.85 654.123L35.85 650.123L31.85 650.123L31.85 654.123L35.85 654.123ZM35.85 755.373L31.85 755.373L31.85 759.373L35.85 759.373L35.85 755.373ZM60.3 755.373L60.3 759.373L64.3 759.373L64.3 755.373L60.3 755.373ZM60.3 687.423L60.3 683.423L56.3 683.423L56.3 687.423L60.3 687.423ZM76.5 687.423L80.5 687.423L80.5 683.423L76.5 683.423L76.5 687.423ZM76.5 754.923L72.5 754.923L72.5 758.923L76.5 758.923L76.5 754.923ZM101.4 754.923L101.4 758.923L105.4 758.923L105.4 754.923L101.4 754.923ZM101.4 687.423L101.4 683.423L97.4 683.423L97.4 687.423L101.4 687.423ZM116.7 687.423L120.7 687.423L120.7 683.423L116.7 683.423L116.7 687.423ZM116.7 754.473L112.7 754.473L112.7 758.473L116.7 758.473L116.7 754.473ZM144.7 754.473L144.7 654.123L136.7 654.123L136.7 754.473L144.7 754.473ZM140.7 650.123L35.85 650.123L35.85 658.123L140.7 658.123L140.7 650.123ZM31.85 654.123L31.85 755.373L39.85 755.373L39.85 654.123L31.85 654.123ZM35.85 759.373L60.3 759.373L60.3 751.373L35.85 751.373L35.85 759.373ZM64.3 755.373L64.3 687.423L56.3 687.423L56.3 755.373L64.3 755.373ZM60.3 691.423L76.5 691.423L76.5 683.423L60.3 683.423L60.3 691.423ZM72.5 687.423L72.5 754.923L80.5 754.923L80.5 687.423L72.5 687.423ZM76.5 758.923L101.4 758.923L101.4 750.923L76.5 750.923L76.5 758.923ZM105.4 754.923L105.4 687.423L97.4 687.423L97.4 754.923L105.4 754.923ZM101.4 691.423L116.7 691.423L116.7 683.423L101.4 683.423L101.4 691.423ZM112.7 687.423L112.7 754.473L120.7 754.473L120.7 687.423L112.7 687.423ZM116.7 758.473L140.7 758.473L140.7 750.473L116.7 750.473L116.7 758.473ZM140.7 794.766L144.7 794.766L144.7 790.766L140.7 790.766L140.7 794.766ZM35.85 794.766L35.85 790.766L31.85 790.766L31.85 794.766L35.85 794.766ZM35.85 828.366L31.85 828.366L31.85 832.366L35.85 832.366L35.85 828.366ZM68.4 828.366L72.4 828.366L72.4 824.366L68.4 824.366L68.4 828.366ZM68.4 856.116L70.4556 859.547L72.4 858.382L72.4 856.116L68.4 856.116ZM35.85 875.616L33.7943 872.184L31.85 873.349L31.85 875.616L35.85 875.616ZM35.85 914.916L31.85 914.916L31.85 921.98L37.9079 918.346L35.85 914.916ZM71.85 893.316L75.6303 892.008L74.0192 887.349L69.792 889.886L71.85 893.316ZM115.5 828.366L119.5 828.366L119.5 824.366L115.5 824.366L115.5 828.366ZM93.45 828.366L93.45 824.366L89.45 824.366L89.45 828.366L93.45 828.366ZM103.95 918.916L105.75 918.916L105.75 910.916L103.95 910.916L103.95 918.916ZM105.75 918.916C116.67 918.916 126.738 916.151 133.948 907.867C141.04 899.718 144.7 886.972 144.7 868.566L136.7 868.566C136.7 886.159 133.159 896.588 127.914 902.615C122.787 908.506 115.38 910.916 105.75 910.916L105.75 918.916ZM144.7 868.566L144.7 794.766L136.7 794.766L136.7 868.566L144.7 868.566ZM140.7 790.766L35.85 790.766L35.85 798.766L140.7 798.766L140.7 790.766ZM31.85 794.766L31.85 828.366L39.85 828.366L39.85 794.766L31.85 794.766ZM35.85 832.366L68.4 832.366L68.4 824.366L35.85 824.366L35.85 832.366ZM64.4 828.366L64.4 856.116L72.4 856.116L72.4 828.366L64.4 828.366ZM66.3443 852.684L33.7943 872.184L37.9056 879.047L70.4556 859.547L66.3443 852.684ZM31.85 875.616L31.85 914.916L39.85 914.916L39.85 875.616L31.85 875.616ZM37.9079 918.346L73.908 896.746L69.792 889.886L33.792 911.486L37.9079 918.346ZM68.0696 894.623C71.1064 903.405 76.0302 909.602 82.4279 913.541C88.7605 917.439 96.1941 918.916 103.95 918.916L103.95 910.916C97.1558 910.916 91.3144 909.617 86.622 906.728C81.9947 903.879 78.1436 899.276 75.6303 892.008L68.0696 894.623ZM111.5 828.366L111.5 865.716L119.5 865.716L119.5 828.366L111.5 828.366ZM111.5 865.716C111.5 870.484 110.466 872.961 109.421 874.202C108.481 875.319 107.084 875.966 104.85 875.966L104.85 883.966C108.766 883.966 112.694 882.737 115.542 879.354C118.284 876.095 119.5 871.448 119.5 865.716L111.5 865.716ZM104.85 875.966L104.4 875.966L104.4 883.966L104.85 883.966L104.85 875.966ZM104.4 875.966C101.866 875.966 100.421 875.274 99.4977 874.188C98.4612 872.968 97.45 870.518 97.45 865.716L89.45 865.716C89.45 871.413 90.6137 876.088 93.4022 879.369C96.3039 882.782 100.334 883.966 104.4 883.966L104.4 875.966ZM97.45 865.716L97.45 828.366L89.45 828.366L89.45 865.716L97.45 865.716ZM93.45 832.366L115.5 832.366L115.5 824.366L93.45 824.366L93.45 832.366ZM146.65 984.659L146.65 978.209L138.65 978.209L138.65 984.659L146.65 984.659ZM146.65 978.209C146.65 951.283 139.07 933.833 127.925 923.141C116.83 912.497 102.78 909.109 90.9 909.109L90.9 917.109C101.37 917.109 113.195 920.096 122.387 928.914C131.53 937.685 138.65 952.784 138.65 978.209L146.65 978.209ZM90.9 909.109L86.7 909.109L86.7 917.109L90.9 917.109L90.9 909.109ZM86.7 909.109C75.0367 909.109 60.8941 912.5 49.6422 923.118C38.3259 933.797 30.5 951.247 30.5 978.209L38.5 978.209C38.5 952.82 45.824 937.721 55.1327 928.937C64.5059 920.092 76.4632 917.109 86.7 917.109L86.7 909.109ZM30.5 978.209L30.5 984.659L38.5 984.659L38.5 978.209L30.5 978.209ZM30.5 984.659C30.5 1011.69 38.3238 1029.18 49.6394 1039.88C60.8919 1050.52 75.0363 1053.91 86.7 1053.91L86.7 1045.91C76.4637 1045.91 64.508 1042.93 55.1355 1034.06C45.8261 1025.26 38.5 1010.13 38.5 984.659L30.5 984.659ZM86.7 1053.91L90.9 1053.91L90.9 1045.91L86.7 1045.91L86.7 1053.91ZM90.9 1053.91C102.79 1053.91 116.839 1050.48 127.931 1039.8C139.07 1029.07 146.65 1011.58 146.65 984.659L138.65 984.659C138.65 1010.08 131.529 1025.22 122.382 1034.03C113.186 1042.89 101.36 1045.91 90.9 1045.91L90.9 1053.91ZM89.85 1010.81L88.05 1010.81L88.05 1018.81L89.85 1018.81L89.85 1010.81ZM88.05 1010.81C82.8202 1010.81 77.1614 1009.58 72.8282 1005.66C68.5727 1001.8 64.9 994.718 64.9 981.509L56.9 981.509C56.9 996.199 61.0272 1005.76 67.4592 1011.59C73.8135 1017.34 81.7297 1018.81 88.05 1018.81L88.05 1010.81ZM64.9 981.509C64.9 968.546 68.5614 961.393 72.8564 957.429C77.2218 953.401 82.8983 952.059 88.05 952.059L88.05 944.059C81.6516 944.059 73.7532 945.716 67.431 951.55C61.0385 957.449 56.9 967.021 56.9 981.509L64.9 981.509ZM88.05 952.059L89.85 952.059L89.85 944.059L88.05 944.059L88.05 952.059ZM89.85 952.059C94.9896 952.059 100.476 953.281 104.673 957.192C108.816 961.051 112.4 968.184 112.4 981.509L120.4 981.509C120.4 966.784 116.409 957.191 110.127 951.338C103.899 945.536 96.1104 944.059 89.85 944.059L89.85 952.059ZM112.4 981.509C112.4 994.752 108.819 1001.85 104.679 1005.69C100.481 1009.59 94.9904 1010.81 89.85 1010.81L89.85 1018.81C96.1095 1018.81 103.894 1017.33 110.121 1011.55C116.406 1005.72 120.4 996.165 120.4 981.509L112.4 981.509ZM73.8 1086.59L73.8 1090.59L75.2006 1090.59L76.2953 1089.72L73.8 1086.59ZM35.85 1086.59L35.85 1082.59L31.85 1082.59L31.85 1086.59L35.85 1086.59ZM35.85 1120.04L31.85 1120.04L31.85 1124.04L35.85 1124.04L35.85 1120.04ZM73.65 1120.04L76.0939 1116.88L75.0141 1116.04L73.65 1116.04L73.65 1120.04ZM140.7 1171.79L138.256 1174.96L144.7 1179.93L144.7 1171.79L140.7 1171.79ZM140.7 1134.89L144.7 1134.89L144.7 1132.92L143.142 1131.72L140.7 1134.89ZM101.4 1104.59L98.9652 1101.42L94.8387 1104.58L98.9576 1107.76L101.4 1104.59ZM140.7 1074.44L143.135 1077.62L144.7 1076.41L144.7 1074.44L140.7 1074.44ZM140.7 1033.19L144.7 1033.19L144.7 1024.88L138.205 1030.07L140.7 1033.19ZM73.8 1082.59L35.85 1082.59L35.85 1090.59L73.8 1090.59L73.8 1082.59ZM31.85 1086.59L31.85 1120.04L39.85 1120.04L39.85 1086.59L31.85 1086.59ZM35.85 1124.04L73.65 1124.04L73.65 1116.04L35.85 1116.04L35.85 1124.04ZM71.206 1123.21L138.256 1174.96L143.144 1168.63L76.0939 1116.88L71.206 1123.21ZM144.7 1171.79L144.7 1134.89L136.7 1134.89L136.7 1171.79L144.7 1171.79ZM143.142 1131.72L103.842 1101.42L98.9576 1107.76L138.258 1138.06L143.142 1131.72ZM103.835 1107.77L143.135 1077.62L138.265 1071.27L98.9652 1101.42L103.835 1107.77ZM144.7 1074.44L144.7 1033.19L136.7 1033.19L136.7 1074.44L144.7 1074.44ZM138.205 1030.07L71.3046 1083.47L76.2953 1089.72L143.195 1036.32L138.205 1030.07ZM54.15 1186.77L58.15 1186.77L58.15 1184.16L55.7689 1183.11L54.15 1186.77ZM54.15 1242.12L55.7689 1245.77L58.15 1244.72L58.15 1242.12L54.15 1242.12ZM35.85 1250.22L34.231 1246.56L31.85 1247.61L31.85 1250.22L35.85 1250.22ZM35.85 1286.22L31.85 1286.22L31.85 1292.51L37.5491 1289.84L35.85 1286.22ZM140.7 1237.02L142.399 1240.64L144.7 1239.56L144.7 1237.02L140.7 1237.02ZM140.7 1192.62L144.7 1192.62L144.7 1190.04L142.352 1188.97L140.7 1192.62ZM35.85 1145.07L37.502 1141.42L31.85 1138.86L31.85 1145.07L35.85 1145.07ZM35.85 1178.67L31.85 1178.67L31.85 1181.27L34.231 1182.32L35.85 1178.67ZM116.4 1214.22L118.036 1217.87L126.249 1214.18L118.013 1210.56L116.4 1214.22ZM77.25 1231.77L73.25 1231.77L73.25 1237.94L78.8862 1235.42L77.25 1231.77ZM77.25 1196.97L78.8628 1193.31L73.25 1190.83L73.25 1196.97L77.25 1196.97ZM50.15 1186.77L50.15 1242.12L58.15 1242.12L58.15 1186.77L50.15 1186.77ZM52.531 1238.46L34.231 1246.56L37.4689 1253.87L55.7689 1245.77L52.531 1238.46ZM31.85 1250.22L31.85 1286.22L39.85 1286.22L39.85 1250.22L31.85 1250.22ZM37.5491 1289.84L142.399 1240.64L139.001 1233.39L34.1508 1282.59L37.5491 1289.84ZM144.7 1237.02L144.7 1192.62L136.7 1192.62L136.7 1237.02L144.7 1237.02ZM142.352 1188.97L37.502 1141.42L34.1979 1148.71L139.048 1196.26L142.352 1188.97ZM31.85 1145.07L31.85 1178.67L39.85 1178.67L39.85 1145.07L31.85 1145.07ZM34.231 1182.32L52.531 1190.42L55.7689 1183.11L37.4689 1175.01L34.231 1182.32ZM114.764 1210.57L75.6137 1228.12L78.8862 1235.42L118.036 1217.87L114.764 1210.57ZM81.25 1231.77L81.25 1196.97L73.25 1196.97L73.25 1231.77L81.25 1231.77ZM75.6371 1200.63L114.787 1217.88L118.013 1210.56L78.8628 1193.31L75.6371 1200.63ZM63.3 1317.81L63.3 1313.81L59.3 1313.81L59.3 1317.81L63.3 1317.81ZM140.7 1317.81L140.7 1321.81L144.7 1321.81L144.7 1317.81L140.7 1317.81ZM140.7 1284.21L144.7 1284.21L144.7 1280.21L140.7 1280.21L140.7 1284.21ZM36 1284.21L36 1280.21L32 1280.21L32 1284.21L36 1284.21ZM35.9999 1381.26L31.9999 1381.26L31.9999 1385.26L35.9999 1385.26L35.9999 1381.26ZM63.3 1381.26L63.3 1385.26L67.3 1385.26L67.3 1381.26L63.3 1381.26ZM63.3 1321.81L140.7 1321.81L140.7 1313.81L63.3 1313.81L63.3 1321.81ZM144.7 1317.81L144.7 1284.21L136.7 1284.21L136.7 1317.81L144.7 1317.81ZM140.7 1280.21L36 1280.21L36 1288.21L140.7 1288.21L140.7 1280.21ZM32 1284.21L31.9999 1381.26L39.9999 1381.26L40 1284.21L32 1284.21ZM35.9999 1385.26L63.3 1385.26L63.3 1377.26L35.9999 1377.26L35.9999 1385.26ZM67.3 1381.26L67.3 1317.81L59.3 1317.81L59.3 1381.26L67.3 1381.26ZM140.7 1481.17L140.7 1485.17L144.7 1485.17L144.7 1481.17L140.7 1481.17ZM140.7 1380.82L144.7 1380.82L144.7 1376.82L140.7 1376.82L140.7 1380.82ZM35.8499 1380.82L35.8499 1376.82L31.8499 1376.82L31.8499 1380.82L35.8499 1380.82ZM35.8499 1482.07L31.8499 1482.07L31.8499 1486.07L35.8499 1486.07L35.8499 1482.07ZM60.2999 1482.07L60.2999 1486.07L64.2999 1486.07L64.2999 1482.07L60.2999 1482.07ZM60.2999 1414.12L60.2999 1410.12L56.2999 1410.12L56.2999 1414.12L60.2999 1414.12ZM76.4999 1414.12L80.4999 1414.12L80.4999 1410.12L76.4999 1410.12L76.4999 1414.12ZM76.4999 1481.62L72.4999 1481.62L72.4999 1485.62L76.4999 1485.62L76.4999 1481.62ZM101.4 1481.62L101.4 1485.62L105.4 1485.62L105.4 1481.62L101.4 1481.62ZM101.4 1414.12L101.4 1410.12L97.4 1410.12L97.4 1414.12L101.4 1414.12ZM116.7 1414.12L120.7 1414.12L120.7 1410.12L116.7 1410.12L116.7 1414.12ZM116.7 1481.17L112.7 1481.17L112.7 1485.17L116.7 1485.17L116.7 1481.17ZM144.7 1481.17L144.7 1380.82L136.7 1380.82L136.7 1481.17L144.7 1481.17ZM140.7 1376.82L35.8499 1376.82L35.8499 1384.82L140.7 1384.82L140.7 1376.82ZM31.8499 1380.82L31.8499 1482.07L39.8499 1482.07L39.8499 1380.82L31.8499 1380.82ZM35.8499 1486.07L60.2999 1486.07L60.2999 1478.07L35.8499 1478.07L35.8499 1486.07ZM64.2999 1482.07L64.2999 1414.12L56.2999 1414.12L56.2999 1482.07L64.2999 1482.07ZM60.2999 1418.12L76.4999 1418.12L76.4999 1410.12L60.2999 1410.12L60.2999 1418.12ZM72.4999 1414.12L72.4999 1481.62L80.4999 1481.62L80.4999 1414.12L72.4999 1414.12ZM76.4999 1485.62L101.4 1485.62L101.4 1477.62L76.4999 1477.62L76.4999 1485.62ZM105.4 1481.62L105.4 1414.12L97.4 1414.12L97.3999 1481.62L105.4 1481.62ZM101.4 1418.12L116.7 1418.12L116.7 1410.12L101.4 1410.12L101.4 1418.12ZM112.7 1414.12L112.7 1481.17L120.7 1481.17L120.7 1414.12L112.7 1414.12ZM116.7 1485.17L140.7 1485.17L140.7 1477.17L116.7 1477.17L116.7 1485.17Z" fill="#ECECEE" fill-opacity="0.27"/>
</svg>
