<svg width="419" height="88" viewBox="0 0 419 88" fill="none" xmlns="http://www.w3.org/2000/svg">
<g filter="url(#filter0_d_174_2359)">
<path d="M23.4453 79.7031C17.8496 79.7031 13.3379 77.96 9.91016 74.4736C6.51172 70.9873 4.8125 66.1094 4.8125 59.8398V24.1562C4.8125 16.6562 6.29199 10.9141 9.25098 6.92969C12.2393 2.94531 17.0879 0.953125 23.7969 0.953125C27.459 0.953125 30.7109 1.62695 33.5527 2.97461C36.4238 4.32227 38.6797 6.34375 40.3203 9.03906C41.9609 11.7051 42.7812 15.0742 42.7812 19.1465V32.5059H27.4004V21.0801C27.4004 18.7656 27.1074 17.2129 26.5215 16.4219C25.9355 15.6016 25.0273 15.1914 23.7969 15.1914C22.3613 15.1914 21.3945 15.7188 20.8965 16.7734C20.3984 17.7988 20.1494 19.1758 20.1494 20.9043V59.6201C20.1494 61.7588 20.457 63.2676 21.0723 64.1465C21.7168 65.0254 22.625 65.4648 23.7969 65.4648C25.1152 65.4648 26.0381 64.9229 26.5654 63.8389C27.1221 62.7549 27.4004 61.3486 27.4004 59.6201V45.6895H42.957V60.3232C42.957 67.1201 41.2432 72.0566 37.8154 75.1328C34.3877 78.1797 29.5977 79.7031 23.4453 79.7031ZM66.5996 79.7031C60.418 79.7031 55.6865 77.8428 52.4053 74.1221C49.1533 70.3721 47.5273 64.9668 47.5273 57.9062V21.168C47.5273 14.5469 49.1387 9.52246 52.3613 6.09473C55.6133 2.66699 60.3594 0.953125 66.5996 0.953125C72.8398 0.953125 77.5713 2.66699 80.7939 6.09473C84.0459 9.52246 85.6719 14.5469 85.6719 21.168V57.9062C85.6719 64.9668 84.0312 70.3721 80.75 74.1221C77.498 77.8428 72.7812 79.7031 66.5996 79.7031ZM66.7314 65.4648C69.0752 65.4648 70.2471 63.1943 70.2471 58.6533V20.9043C70.2471 17.0957 69.1045 15.1914 66.8193 15.1914C64.2412 15.1914 62.9521 17.1396 62.9521 21.0361V58.7412C62.9521 61.1436 63.2451 62.8721 63.8311 63.9268C64.417 64.9521 65.3838 65.4648 66.7314 65.4648ZM109.798 79.7031C103.353 79.7031 98.6064 77.9014 95.5596 74.2979C92.5127 70.665 90.9893 65.333 90.9893 58.3018V1.65625H106.019V57.6865C106.019 58.9756 106.092 60.2207 106.238 61.4219C106.385 62.5938 106.722 63.5605 107.249 64.3223C107.776 65.084 108.626 65.4648 109.798 65.4648C110.999 65.4648 111.863 65.0986 112.391 64.3662C112.918 63.6045 113.24 62.623 113.357 61.4219C113.504 60.2207 113.577 58.9756 113.577 57.6865V1.65625H128.606V58.3018C128.606 65.333 127.083 70.665 124.036 74.2979C120.989 77.9014 116.243 79.7031 109.798 79.7031ZM134.539 79V1.65625H150.447L157.566 38.7021V1.65625H172.508V79H157.391L149.656 40.3281V79H134.539ZM185.999 79V16.5098H176.814V1.65625H210.652V16.5098H201.468V79H185.999ZM224.319 79V53.5557L211.971 1.65625H227.308L231.614 27.8477L235.921 1.65625H251.214L238.909 53.5557V79H224.319ZM294.588 79.7031C287.527 79.7031 282.43 77.9453 279.295 74.4297C276.189 70.9141 274.637 65.3184 274.637 57.6426V50.084H289.93V59.752C289.93 61.5391 290.193 62.9453 290.721 63.9707C291.277 64.9668 292.229 65.4648 293.577 65.4648C294.983 65.4648 295.95 65.0547 296.478 64.2344C297.034 63.4141 297.312 62.0664 297.312 60.1914C297.312 57.8184 297.078 55.8408 296.609 54.2588C296.141 52.6475 295.32 51.124 294.148 49.6885C293.006 48.2236 291.409 46.5244 289.358 44.5908L282.415 37.999C277.229 33.1064 274.637 27.5107 274.637 21.2119C274.637 14.6201 276.16 9.5957 279.207 6.13867C282.283 2.68164 286.722 0.953125 292.522 0.953125C299.612 0.953125 304.637 2.84277 307.596 6.62207C310.584 10.4014 312.078 16.1436 312.078 23.8486H296.346V18.5312C296.346 17.4766 296.038 16.6562 295.423 16.0703C294.837 15.4844 294.031 15.1914 293.006 15.1914C291.775 15.1914 290.867 15.543 290.281 16.2461C289.725 16.9199 289.446 17.7988 289.446 18.8828C289.446 19.9668 289.739 21.1387 290.325 22.3984C290.911 23.6582 292.068 25.1084 293.797 26.749L302.718 35.3184C304.505 37.0176 306.146 38.8193 307.64 40.7236C309.134 42.5986 310.335 44.7959 311.243 47.3154C312.151 49.8057 312.605 52.8525 312.605 56.4561C312.605 63.7217 311.258 69.4199 308.562 73.5508C305.896 77.6523 301.238 79.7031 294.588 79.7031ZM317.088 79V1.65625H332.029V79H317.088ZM338.182 79V1.65625H359.451C365.018 1.65625 369.207 3.20898 372.02 6.31445C374.832 9.39062 376.238 13.9023 376.238 19.8496V56.0605C376.238 63.3848 374.949 69.0391 372.371 73.0234C369.822 77.0078 365.34 79 358.924 79H338.182ZM353.738 65.333H356.419C359.261 65.333 360.682 63.9561 360.682 61.2021V21.2998C360.682 18.7217 360.33 17.0664 359.627 16.334C358.953 15.5723 357.562 15.1914 355.452 15.1914H353.738V65.333ZM382.566 79V1.65625H413.504V16.5977H398.299V31.6709H412.889V46.2168H398.299V63.9268H414.515V79H382.566Z" fill="#BB3232"/>
</g>
<defs>
<filter id="filter0_d_174_2359" x="0.8125" y="0.953125" width="417.702" height="86.75" filterUnits="userSpaceOnUse" color-interpolation-filters="sRGB">
<feFlood flood-opacity="0" result="BackgroundImageFix"/>
<feColorMatrix in="SourceAlpha" type="matrix" values="0 0 0 0 0 0 0 0 0 0 0 0 0 0 0 0 0 0 127 0" result="hardAlpha"/>
<feOffset dy="4"/>
<feGaussianBlur stdDeviation="2"/>
<feComposite in2="hardAlpha" operator="out"/>
<feColorMatrix type="matrix" values="0 0 0 0 0 0 0 0 0 0 0 0 0 0 0 0 0 0 0.25 0"/>
<feBlend mode="normal" in2="BackgroundImageFix" result="effect1_dropShadow_174_2359"/>
<feBlend mode="normal" in="SourceGraphic" in2="effect1_dropShadow_174_2359" result="shape"/>
</filter>
</defs>
</svg>
