<svg width="232" height="78" viewBox="0 0 232 78" fill="none" xmlns="http://www.w3.org/2000/svg">
<path d="M0.427734 78V0.65625H31.3652V15.7295H15.9844V28.0342H30.5742V42.9316H15.9844V78H0.427734ZM33.4746 78L40.9453 0.65625H67.1807L74.5195 78H59.8857L58.7871 65.5195H49.4707L48.5039 78H33.4746ZM50.5693 53.1709H57.6006L54.2168 13.8398H53.5137L50.5693 53.1709ZM84.4512 78L74.915 0.612305H89.6367L95.3057 53.2588L100.359 0.612305H115.081L105.545 78H84.4512ZM119.607 78V0.65625H150.545V15.5977H135.34V30.6709H149.93V45.2168H135.34V62.9268H151.556V78H119.607ZM156.697 78V0.65625H172.166V64.8164H188.074V78H156.697ZM190.359 78L197.83 0.65625H224.065L231.404 78H216.771L215.672 65.5195H206.355L205.389 78H190.359ZM207.454 53.1709H214.485L211.102 13.8398H210.398L207.454 53.1709Z" fill="#BB3232"/>
</svg>
