<svg width="244" height="80" viewBox="0 0 244 80" fill="none" xmlns="http://www.w3.org/2000/svg">
<path d="M0.724609 79V1.65625H15.666V79H0.724609ZM39.8359 79.7031C34.2402 79.7031 29.7285 77.96 26.3008 74.4736C22.9023 70.9873 21.2031 66.1094 21.2031 59.8398V24.1562C21.2031 16.6562 22.6826 10.9141 25.6416 6.92969C28.6299 2.94531 33.4785 0.953125 40.1875 0.953125C43.8496 0.953125 47.1016 1.62695 49.9434 2.97461C52.8145 4.32227 55.0703 6.34375 56.7109 9.03906C58.3516 11.7051 59.1719 15.0742 59.1719 19.1465V32.5059H43.791V21.0801C43.791 18.7656 43.498 17.2129 42.9121 16.4219C42.3262 15.6016 41.418 15.1914 40.1875 15.1914C38.752 15.1914 37.7852 15.7188 37.2871 16.7734C36.7891 17.7988 36.54 19.1758 36.54 20.9043V59.6201C36.54 61.7588 36.8477 63.2676 37.4629 64.1465C38.1074 65.0254 39.0156 65.4648 40.1875 65.4648C41.5059 65.4648 42.4287 64.9229 42.9561 63.8389C43.5127 62.7549 43.791 61.3486 43.791 59.6201V45.6895H59.3477V60.3232C59.3477 67.1201 57.6338 72.0566 54.2061 75.1328C50.7783 78.1797 45.9883 79.7031 39.8359 79.7031ZM64.5332 79V1.65625H95.4707V16.5977H80.2656V31.6709H94.8555V46.2168H80.2656V63.9268H96.4814V79H64.5332ZM122.717 79V1.65625H143.679C149.304 1.65625 153.391 3.0332 155.939 5.78711C158.518 8.51172 159.807 13.0234 159.807 19.3223V22.7061C159.807 26.3389 159.147 29.2832 157.829 31.5391C156.54 33.7949 154.562 35.2744 151.896 35.9775C155.383 36.8564 157.712 38.9219 158.884 42.1738C160.085 45.3965 160.686 49.3369 160.686 53.9951C160.686 59.0049 160.217 63.3848 159.279 67.1348C158.342 70.8848 156.643 73.7998 154.182 75.8799C151.721 77.96 148.22 79 143.679 79H122.717ZM137.834 30.792H140.998C142.434 30.792 143.356 30.2354 143.767 29.1221C144.177 28.0088 144.382 26.6758 144.382 25.123V17.3447C144.382 14.8545 143.283 13.6094 141.086 13.6094H137.834V30.792ZM139.372 65.377C143.386 65.377 145.393 63.4727 145.393 59.6641V49.9961C145.393 47.7988 145.056 46.0703 144.382 44.8105C143.737 43.5215 142.507 42.877 140.69 42.877H137.834V65.2891C138.479 65.3477 138.991 65.377 139.372 65.377ZM163.674 79L171.145 1.65625H197.38L204.719 79H190.085L188.986 66.5195H179.67L178.703 79H163.674ZM180.769 54.1709H187.8L184.416 14.8398H183.713L180.769 54.1709ZM216.716 79V53.5557L204.367 1.65625H219.704L224.011 27.8477L228.317 1.65625H243.61L231.306 53.5557V79H216.716Z" fill="#BB3232"/>
</svg>
