<svg width="293" height="80" viewBox="0 0 293 80" fill="none" xmlns="http://www.w3.org/2000/svg">
<path d="M20.7969 79.7031C13.7363 79.7031 8.63867 77.9453 5.50391 74.4297C2.39844 70.9141 0.845703 65.3184 0.845703 57.6426V50.084H16.1387V59.752C16.1387 61.5391 16.4023 62.9453 16.9297 63.9707C17.4863 64.9668 18.4385 65.4648 19.7861 65.4648C21.1924 65.4648 22.1592 65.0547 22.6865 64.2344C23.2432 63.4141 23.5215 62.0664 23.5215 60.1914C23.5215 57.8184 23.2871 55.8408 22.8184 54.2588C22.3496 52.6475 21.5293 51.124 20.3574 49.6885C19.2148 48.2236 17.6182 46.5244 15.5674 44.5908L8.62402 37.999C3.43848 33.1064 0.845703 27.5107 0.845703 21.2119C0.845703 14.6201 2.36914 9.5957 5.41602 6.13867C8.49219 2.68164 12.9307 0.953125 18.7314 0.953125C25.8213 0.953125 30.8457 2.84277 33.8047 6.62207C36.793 10.4014 38.2871 16.1436 38.2871 23.8486H22.5547V18.5312C22.5547 17.4766 22.2471 16.6562 21.6318 16.0703C21.0459 15.4844 20.2402 15.1914 19.2148 15.1914C17.9844 15.1914 17.0762 15.543 16.4902 16.2461C15.9336 16.9199 15.6553 17.7988 15.6553 18.8828C15.6553 19.9668 15.9482 21.1387 16.5342 22.3984C17.1201 23.6582 18.2773 25.1084 20.0059 26.749L28.9268 35.3184C30.7139 37.0176 32.3545 38.8193 33.8486 40.7236C35.3428 42.5986 36.5439 44.7959 37.4521 47.3154C38.3604 49.8057 38.8145 52.8525 38.8145 56.4561C38.8145 63.7217 37.4668 69.4199 34.7715 73.5508C32.1055 77.6523 27.4473 79.7031 20.7969 79.7031ZM44 79V1.65625H59.3809V29.2979H66.6758V1.65625H82.0566V79H66.6758V43.9316H59.3809V79H44ZM88.209 79V1.65625H103.15V79H88.209ZM109.303 79V1.65625H129.737C134.015 1.65625 137.398 2.6084 139.889 4.5127C142.408 6.41699 144.21 9.12695 145.294 12.6426C146.378 16.1582 146.92 20.3477 146.92 25.2109C146.92 29.8984 146.466 33.9854 145.558 37.4717C144.649 40.9287 143.023 43.6094 140.68 45.5137C138.365 47.418 135.069 48.3701 130.792 48.3701H124.508V79H109.303ZM124.508 34.4834H125.387C128.258 34.4834 130.016 33.6777 130.66 32.0664C131.305 30.4551 131.627 28.082 131.627 24.9473C131.627 22.0176 131.305 19.7617 130.66 18.1797C130.045 16.5684 128.565 15.7627 126.222 15.7627H124.508V34.4834ZM157.906 79L149.601 1.65625H164.718L168.98 50.4795L173.331 1.65625H187.745L191.876 50.4795L196.007 1.65625H211.3L202.862 79H184.317L180.45 41.7783L176.759 79H157.906ZM212.574 79L220.045 1.65625H246.28L253.619 79H238.985L237.887 66.5195H228.57L227.604 79H212.574ZM229.669 54.1709H236.7L233.316 14.8398H232.613L229.669 54.1709ZM265.616 79V53.5557L253.268 1.65625H268.604L272.911 27.8477L277.218 1.65625H292.511L280.206 53.5557V79H265.616Z" fill="#BB3232"/>
</svg>
