<svg width="1920" height="1653" viewBox="0 0 1920 1653" fill="none" xmlns="http://www.w3.org/2000/svg">
<ellipse rx="11.5" ry="10.5" transform="matrix(0.672074 -0.740484 0.740477 0.672082 15.5039 1153.13)" fill="black" fill-opacity="0.1"/>
<ellipse rx="11.5" ry="10.5" transform="matrix(0.67208 -0.740479 0.740482 0.672076 59.8614 1104.26)" fill="black" fill-opacity="0.1"/>
<ellipse rx="11.5" ry="10.5" transform="matrix(0.672079 -0.740479 0.740482 0.672076 48.8262 1183.38)" fill="black" fill-opacity="0.1"/>
<ellipse rx="11.5" ry="10.5" transform="matrix(0.67208 -0.740479 0.740482 0.672076 93.1827 1134.5)" fill="black" fill-opacity="0.1"/>
<ellipse rx="11.5" ry="10.5" transform="matrix(0.672079 -0.740479 0.740482 0.672076 82.1475 1213.62)" fill="black" fill-opacity="0.1"/>
<ellipse rx="11.5" ry="10.5" transform="matrix(0.672074 -0.740484 0.740477 0.672082 126.505 1164.75)" fill="black" fill-opacity="0.1"/>
<ellipse rx="11.5" ry="10.5" transform="matrix(0.672074 -0.740484 0.740477 0.672082 115.469 1243.86)" fill="black" fill-opacity="0.1"/>
<ellipse rx="11.5" ry="10.5" transform="matrix(0.67208 -0.740479 0.740482 0.672076 159.826 1194.99)" fill="black" fill-opacity="0.1"/>
<ellipse rx="11.5" ry="10.5" transform="matrix(0.67208 -0.740479 0.740482 0.672076 148.791 1274.11)" fill="black" fill-opacity="0.1"/>
<ellipse rx="11.5" ry="10.5" transform="matrix(0.67208 -0.740479 0.740482 0.672076 193.148 1225.23)" fill="black" fill-opacity="0.1"/>
<ellipse rx="11.5" ry="10.5" transform="matrix(0.672079 -0.740479 0.740482 0.672076 182.112 1304.35)" fill="black" fill-opacity="0.1"/>
<ellipse rx="11.5" ry="10.5" transform="matrix(0.672074 -0.740484 0.740477 0.672081 226.47 1255.48)" fill="black" fill-opacity="0.1"/>
<ellipse rx="11.5" ry="10.5" transform="matrix(0.672074 -0.740484 0.740477 0.672082 215.434 1334.59)" fill="black" fill-opacity="0.1"/>
<ellipse rx="11.5" ry="10.5" transform="matrix(0.672079 -0.740479 0.740482 0.672076 259.791 1285.72)" fill="black" fill-opacity="0.1"/>
<ellipse rx="11.5" ry="10.5" transform="matrix(0.67208 -0.740479 0.740482 0.672076 248.756 1364.84)" fill="black" fill-opacity="0.1"/>
<ellipse rx="11.5" ry="10.5" transform="matrix(0.672079 -0.740479 0.740482 0.672076 293.112 1315.97)" fill="black" fill-opacity="0.1"/>
<ellipse rx="11.5" ry="10.5" transform="matrix(0.672079 -0.740479 0.740482 0.672076 282.077 1395.08)" fill="black" fill-opacity="0.1"/>
<ellipse rx="11.5" ry="10.5" transform="matrix(0.67208 -0.740479 0.740482 0.672076 326.435 1346.21)" fill="black" fill-opacity="0.1"/>
<ellipse rx="11.5" ry="10.5" transform="matrix(0.672074 -0.740484 0.740477 0.672082 315.398 1425.32)" fill="black" fill-opacity="0.1"/>
<ellipse rx="11.5" ry="10.5" transform="matrix(0.672074 -0.740484 0.740477 0.672082 359.756 1376.45)" fill="black" fill-opacity="0.1"/>
<ellipse rx="11.5" ry="10.5" transform="matrix(0.67208 -0.740479 0.740482 0.672076 348.721 1455.57)" fill="black" fill-opacity="0.1"/>
<ellipse rx="11.5" ry="10.5" transform="matrix(0.672079 -0.740479 0.740482 0.672076 393.077 1406.7)" fill="black" fill-opacity="0.1"/>
<ellipse rx="11.5" ry="10.5" transform="matrix(0.672079 -0.740479 0.740482 0.672076 382.042 1485.81)" fill="black" fill-opacity="0.1"/>
<ellipse rx="11.5" ry="10.5" transform="matrix(0.672079 -0.740479 0.740482 0.672076 426.399 1436.94)" fill="black" fill-opacity="0.1"/>
<ellipse rx="11.5" ry="10.5" transform="matrix(0.672079 -0.740479 0.740482 0.672076 415.363 1516.05)" fill="black" fill-opacity="0.1"/>
<ellipse rx="11.5" ry="10.5" transform="matrix(0.672073 -0.740485 0.740477 0.672082 459.721 1467.18)" fill="black" fill-opacity="0.1"/>
<ellipse rx="11.5" ry="10.5" transform="matrix(0.672073 -0.740485 0.740477 0.672082 448.685 1546.3)" fill="black" fill-opacity="0.1"/>
<ellipse cx="493.042" cy="1497.43" rx="11.5" ry="10.5" transform="rotate(-47.7724 493.042 1497.43)" fill="black" fill-opacity="0.1"/>
<ellipse cx="482.007" cy="1576.54" rx="11.5" ry="10.5" transform="rotate(-47.7724 482.007 1576.54)" fill="black" fill-opacity="0.1"/>
<ellipse rx="11.5" ry="10.5" transform="matrix(0.672079 -0.740479 0.740482 0.672076 526.364 1527.67)" fill="black" fill-opacity="0.1"/>
<ellipse rx="11.5" ry="10.5" transform="matrix(0.67208 -0.740479 0.740482 0.672076 515.328 1606.79)" fill="black" fill-opacity="0.1"/>
<ellipse rx="11.5" ry="10.5" transform="matrix(0.672073 -0.740485 0.740477 0.672082 559.685 1557.91)" fill="black" fill-opacity="0.1"/>
<ellipse rx="11.5" ry="10.5" transform="matrix(0.672073 -0.740485 0.740477 0.672082 548.65 1637.03)" fill="black" fill-opacity="0.1"/>
<ellipse rx="11.5" ry="10.5" transform="matrix(0.672074 -0.740484 0.740477 0.672082 99.5136 1060.57)" fill="black" fill-opacity="0.1"/>
<ellipse rx="11.5" ry="10.5" transform="matrix(0.67208 -0.740479 0.740482 0.672076 132.835 1090.82)" fill="black" fill-opacity="0.1"/>
<ellipse rx="11.5" ry="10.5" transform="matrix(0.672079 -0.740479 0.740482 0.672076 166.157 1121.06)" fill="black" fill-opacity="0.1"/>
<ellipse rx="11.5" ry="10.5" transform="matrix(0.672074 -0.740484 0.740477 0.672082 199.478 1151.3)" fill="black" fill-opacity="0.1"/>
<ellipse rx="11.5" ry="10.5" transform="matrix(0.67208 -0.740479 0.740482 0.672076 232.8 1181.55)" fill="black" fill-opacity="0.1"/>
<ellipse rx="11.5" ry="10.5" transform="matrix(0.672079 -0.740479 0.740482 0.672076 266.122 1211.79)" fill="black" fill-opacity="0.1"/>
<ellipse rx="11.5" ry="10.5" transform="matrix(0.672074 -0.740484 0.740477 0.672081 299.443 1242.03)" fill="black" fill-opacity="0.1"/>
<ellipse rx="11.5" ry="10.5" transform="matrix(0.67208 -0.740479 0.740482 0.672076 332.766 1272.28)" fill="black" fill-opacity="0.1"/>
<ellipse rx="11.5" ry="10.5" transform="matrix(0.67208 -0.740479 0.740482 0.672076 366.087 1302.52)" fill="black" fill-opacity="0.1"/>
<ellipse rx="11.5" ry="10.5" transform="matrix(0.672074 -0.740484 0.740477 0.672082 399.408 1332.76)" fill="black" fill-opacity="0.1"/>
<ellipse rx="11.5" ry="10.5" transform="matrix(0.672079 -0.740479 0.740482 0.672076 432.731 1363.01)" fill="black" fill-opacity="0.1"/>
<ellipse rx="11.5" ry="10.5" transform="matrix(0.672079 -0.740479 0.740482 0.672076 466.052 1393.25)" fill="black" fill-opacity="0.1"/>
<ellipse cx="499.373" cy="1423.49" rx="11.5" ry="10.5" transform="rotate(-47.7724 499.373 1423.49)" fill="black" fill-opacity="0.1"/>
<ellipse rx="11.5" ry="10.5" transform="matrix(0.672079 -0.740479 0.740482 0.672076 532.695 1453.74)" fill="black" fill-opacity="0.1"/>
<ellipse rx="11.5" ry="10.5" transform="matrix(0.67208 -0.740479 0.740482 0.672076 566.017 1483.98)" fill="black" fill-opacity="0.1"/>
<ellipse rx="11.5" ry="10.5" transform="matrix(0.672079 -0.740479 0.740482 0.672076 599.338 1514.23)" fill="black" fill-opacity="0.1"/>
<ellipse rx="11.5" ry="10.5" transform="matrix(0.672074 -0.740484 0.740477 0.672082 186.504 1058.13)" fill="black" fill-opacity="0.1"/>
<ellipse rx="11.5" ry="10.5" transform="matrix(0.67208 -0.740479 0.740482 0.672076 230.861 1009.26)" fill="black" fill-opacity="0.1"/>
<ellipse rx="11.5" ry="10.5" transform="matrix(0.67208 -0.740479 0.740482 0.672076 219.826 1088.38)" fill="black" fill-opacity="0.1"/>
<ellipse rx="11.5" ry="10.5" transform="matrix(0.672079 -0.740479 0.740482 0.672076 264.183 1039.5)" fill="black" fill-opacity="0.1"/>
<ellipse rx="11.5" ry="10.5" transform="matrix(0.672079 -0.740479 0.740482 0.672076 253.148 1118.62)" fill="black" fill-opacity="0.1"/>
<ellipse rx="11.5" ry="10.5" transform="matrix(0.672074 -0.740484 0.740477 0.672081 297.505 1069.75)" fill="black" fill-opacity="0.1"/>
<ellipse rx="11.5" ry="10.5" transform="matrix(0.672074 -0.740484 0.740477 0.672082 286.469 1148.86)" fill="black" fill-opacity="0.1"/>
<ellipse rx="11.5" ry="10.5" transform="matrix(0.672079 -0.740479 0.740482 0.672076 330.826 1099.99)" fill="black" fill-opacity="0.1"/>
<ellipse rx="11.5" ry="10.5" transform="matrix(0.67208 -0.740479 0.740482 0.672076 319.791 1179.11)" fill="black" fill-opacity="0.1"/>
<ellipse rx="11.5" ry="10.5" transform="matrix(0.672079 -0.740479 0.740482 0.672076 364.148 1130.23)" fill="black" fill-opacity="0.1"/>
<ellipse rx="11.5" ry="10.5" transform="matrix(0.672079 -0.740479 0.740482 0.672076 353.112 1209.35)" fill="black" fill-opacity="0.1"/>
<ellipse rx="11.5" ry="10.5" transform="matrix(0.672074 -0.740484 0.740477 0.672082 397.47 1160.48)" fill="black" fill-opacity="0.1"/>
<ellipse rx="11.5" ry="10.5" transform="matrix(0.672074 -0.740484 0.740477 0.672082 386.434 1239.59)" fill="black" fill-opacity="0.1"/>
<ellipse rx="11.5" ry="10.5" transform="matrix(0.672079 -0.740479 0.740482 0.672076 430.791 1190.72)" fill="black" fill-opacity="0.1"/>
<ellipse rx="11.5" ry="10.5" transform="matrix(0.672079 -0.740479 0.740482 0.672076 419.756 1269.84)" fill="black" fill-opacity="0.1"/>
<ellipse rx="11.5" ry="10.5" transform="matrix(0.67208 -0.740479 0.740483 0.672076 464.112 1220.97)" fill="black" fill-opacity="0.1"/>
<ellipse rx="11.5" ry="10.5" transform="matrix(0.67208 -0.740479 0.740483 0.672076 453.077 1300.08)" fill="black" fill-opacity="0.1"/>
<ellipse rx="11.5" ry="10.5" transform="matrix(0.672079 -0.740479 0.740482 0.672076 497.435 1251.21)" fill="black" fill-opacity="0.1"/>
<ellipse rx="11.5" ry="10.5" transform="matrix(0.672074 -0.740484 0.740477 0.672081 486.398 1330.32)" fill="black" fill-opacity="0.1"/>
<ellipse rx="11.5" ry="10.5" transform="matrix(0.672074 -0.740484 0.740477 0.672082 530.756 1281.45)" fill="black" fill-opacity="0.1"/>
<ellipse rx="11.5" ry="10.5" transform="matrix(0.672079 -0.740479 0.740482 0.672076 519.721 1360.57)" fill="black" fill-opacity="0.1"/>
<ellipse rx="11.5" ry="10.5" transform="matrix(0.672079 -0.740479 0.740482 0.672076 564.077 1311.7)" fill="black" fill-opacity="0.1"/>
<ellipse rx="11.5" ry="10.5" transform="matrix(0.672079 -0.740479 0.740482 0.672076 553.042 1390.81)" fill="black" fill-opacity="0.1"/>
<ellipse rx="11.5" ry="10.5" transform="matrix(0.672079 -0.740479 0.740482 0.672076 597.399 1341.94)" fill="black" fill-opacity="0.1"/>
<ellipse rx="11.5" ry="10.5" transform="matrix(0.672079 -0.740479 0.740482 0.672076 586.363 1421.05)" fill="black" fill-opacity="0.1"/>
<ellipse rx="11.5" ry="10.5" transform="matrix(0.672073 -0.740485 0.740477 0.672082 630.721 1372.18)" fill="black" fill-opacity="0.1"/>
<ellipse rx="11.5" ry="10.5" transform="matrix(0.672074 -0.740484 0.740477 0.672082 619.685 1451.3)" fill="black" fill-opacity="0.1"/>
<ellipse cx="664.042" cy="1402.43" rx="11.5" ry="10.5" transform="rotate(-47.7724 664.042 1402.43)" fill="black" fill-opacity="0.1"/>
<ellipse cx="653.007" cy="1481.54" rx="11.5" ry="10.5" transform="rotate(-47.7724 653.007 1481.54)" fill="black" fill-opacity="0.1"/>
<ellipse rx="11.5" ry="10.5" transform="matrix(0.672079 -0.740479 0.740482 0.672076 697.364 1432.67)" fill="black" fill-opacity="0.1"/>
<ellipse rx="11.5" ry="10.5" transform="matrix(0.672079 -0.740479 0.740482 0.672076 686.328 1511.79)" fill="black" fill-opacity="0.1"/>
<ellipse rx="11.5" ry="10.5" transform="matrix(0.672073 -0.740485 0.740477 0.672082 730.685 1462.91)" fill="black" fill-opacity="0.1"/>
<ellipse rx="11.5" ry="10.5" transform="matrix(0.672073 -0.740485 0.740477 0.672082 719.65 1542.03)" fill="black" fill-opacity="0.1"/>
<ellipse rx="11.5" ry="10.5" transform="matrix(0.672074 -0.740484 0.740477 0.672081 270.514 965.573)" fill="black" fill-opacity="0.1"/>
<ellipse rx="11.5" ry="10.5" transform="matrix(0.67208 -0.740479 0.740482 0.672076 303.835 995.816)" fill="black" fill-opacity="0.1"/>
<ellipse rx="11.5" ry="10.5" transform="matrix(0.672079 -0.740479 0.740482 0.672076 337.157 1026.06)" fill="black" fill-opacity="0.1"/>
<ellipse rx="11.5" ry="10.5" transform="matrix(0.672074 -0.740484 0.740477 0.672081 370.478 1056.3)" fill="black" fill-opacity="0.1"/>
<ellipse rx="11.5" ry="10.5" transform="matrix(0.672079 -0.740479 0.740482 0.672076 403.8 1086.55)" fill="black" fill-opacity="0.1"/>
<ellipse rx="11.5" ry="10.5" transform="matrix(0.672079 -0.740479 0.740482 0.672076 437.122 1116.79)" fill="black" fill-opacity="0.1"/>
<ellipse rx="11.5" ry="10.5" transform="matrix(0.672074 -0.740484 0.740477 0.672082 470.443 1147.03)" fill="black" fill-opacity="0.1"/>
<ellipse rx="11.5" ry="10.5" transform="matrix(0.672079 -0.740479 0.740482 0.672076 503.766 1177.28)" fill="black" fill-opacity="0.1"/>
<ellipse rx="11.5" ry="10.5" transform="matrix(0.67208 -0.740479 0.740483 0.672076 537.087 1207.52)" fill="black" fill-opacity="0.1"/>
<ellipse rx="11.5" ry="10.5" transform="matrix(0.672074 -0.740484 0.740477 0.672082 570.408 1237.76)" fill="black" fill-opacity="0.1"/>
<ellipse rx="11.5" ry="10.5" transform="matrix(0.672079 -0.740479 0.740482 0.672076 603.731 1268.01)" fill="black" fill-opacity="0.1"/>
<ellipse rx="11.5" ry="10.5" transform="matrix(0.67208 -0.740478 0.740483 0.672075 637.052 1298.25)" fill="black" fill-opacity="0.1"/>
<ellipse cx="670.373" cy="1328.49" rx="11.5" ry="10.5" transform="rotate(-47.7724 670.373 1328.49)" fill="black" fill-opacity="0.1"/>
<ellipse rx="11.5" ry="10.5" transform="matrix(0.672079 -0.740479 0.740482 0.672076 703.695 1358.74)" fill="black" fill-opacity="0.1"/>
<ellipse rx="11.5" ry="10.5" transform="matrix(0.672079 -0.740479 0.740482 0.672076 737.017 1388.98)" fill="black" fill-opacity="0.1"/>
<ellipse rx="11.5" ry="10.5" transform="matrix(0.672079 -0.740479 0.740482 0.672076 770.338 1419.23)" fill="black" fill-opacity="0.1"/>
<circle cx="1883.15" cy="1072.15" r="4.14634" fill="black" fill-opacity="0.1"/>
<circle cx="1889.37" cy="1084.59" r="4.14634" fill="black" fill-opacity="0.1"/>
<circle cx="1899.73" cy="1092.88" r="4.14634" fill="black" fill-opacity="0.1"/>
<circle cx="1914.24" cy="1099.1" r="4.14634" fill="black" fill-opacity="0.1"/>
<circle cx="1922.54" cy="1117.76" r="4.14634" fill="black" fill-opacity="0.1"/>
<ellipse cx="1902.84" cy="1076.29" rx="9.32927" ry="8.29268" fill="black" fill-opacity="0.1"/>
<rect width="12" height="1472" fill="#001E45"/>
<path d="M344.3 112.6V108.6H341.769L340.686 110.887L344.3 112.6ZM275.9 256.9L272.062 258.025L275.016 268.104L279.514 258.613L275.9 256.9ZM233.6 112.6L237.438 111.475L236.596 108.6H233.6V112.6ZM159.2 112.6V108.6H156.21L155.364 111.467L159.2 112.6ZM116.6 256.9L112.986 258.613L117.471 268.076L120.436 258.033L116.6 256.9ZM48.2 112.6L51.8145 110.887L50.7306 108.6H48.2V112.6ZM-23.8 112.6V108.6H-30.0585L-27.4302 114.28L-23.8 112.6ZM73.1 322L69.4698 323.68L70.5435 326H73.1V322ZM151.4 322V326H154.361L155.226 323.168L151.4 322ZM193.7 183.4L197.523 182.225L193.686 169.741L189.874 182.232L193.7 183.4ZM236.3 322L232.477 323.175L233.345 326H236.3V322ZM315.5 322V326H318.077L319.142 323.654L315.5 322ZM410.6 112.6L414.242 114.254L416.81 108.6H410.6V112.6ZM340.686 110.887L272.286 255.187L279.514 258.613L347.915 114.313L340.686 110.887ZM279.738 255.775L237.438 111.475L229.762 113.725L272.062 258.025L279.738 255.775ZM233.6 108.6L159.2 108.6V116.6L233.6 116.6V108.6ZM155.364 111.467L112.764 255.767L120.436 258.033L163.036 113.733L155.364 111.467ZM120.214 255.187L51.8145 110.887L44.5855 114.313L112.986 258.613L120.214 255.187ZM48.2 108.6L-23.8 108.6V116.6L48.2 116.6V108.6ZM-27.4302 114.28L69.4698 323.68L76.7302 320.32L-20.1698 110.92L-27.4302 114.28ZM73.1 326L151.4 326V318L73.1 318V326ZM155.226 323.168L197.526 184.568L189.874 182.232L147.574 320.832L155.226 323.168ZM189.877 184.575L232.477 323.175L240.123 320.825L197.523 182.225L189.877 184.575ZM236.3 326H315.5V318H236.3V326ZM319.142 323.654L414.242 114.254L406.958 110.946L311.858 320.346L319.142 323.654ZM410.6 108.6L344.3 108.6V116.6L410.6 116.6V108.6ZM421.262 112.6V108.6H417.262V112.6H421.262ZM421.262 322.3H417.262V326.3H421.262V322.3ZM488.462 322.3V326.3H492.462V322.3H488.462ZM488.462 257.2V253.2H484.462V257.2H488.462ZM543.962 257.2L547.393 255.144L546.228 253.2H543.962V257.2ZM582.962 322.3L579.53 324.356L580.695 326.3H582.962V322.3ZM661.562 322.3V326.3H668.626L664.992 320.242L661.562 322.3ZM618.362 250.3L617.055 246.52L612.395 248.131L614.932 252.358L618.362 250.3ZM488.462 163V159H484.462V163H488.462ZM488.462 207.1H484.462V211.1H488.462V207.1ZM665.562 186.1V182.5H657.562V186.1H665.562ZM665.562 182.5C665.562 161.305 660.209 142.499 644.838 129.12C629.602 115.859 605.268 108.6 568.862 108.6V116.6C604.455 116.6 626.471 123.741 639.586 135.155C652.564 146.451 657.562 162.595 657.562 182.5H665.562ZM568.862 108.6L421.262 108.6V116.6L568.862 116.6V108.6ZM417.262 112.6L417.262 322.3H425.262L425.262 112.6H417.262ZM421.262 326.3H488.462V318.3H421.262V326.3ZM492.462 322.3V257.2H484.462V322.3H492.462ZM488.462 261.2L543.962 261.2V253.2H488.462V261.2ZM540.53 259.256L579.53 324.356L586.393 320.244L547.393 255.144L540.53 259.256ZM582.962 326.3H661.562V318.3H582.962V326.3ZM664.992 320.242L621.792 248.242L614.932 252.358L658.132 324.358L664.992 320.242ZM619.669 254.08C636.476 248.269 648.073 238.957 655.405 227.047C662.698 215.202 665.562 201.131 665.562 186.1H657.562C657.562 200.169 654.876 212.648 648.593 222.853C642.35 232.993 632.347 241.231 617.055 246.52L619.669 254.08ZM488.462 167H563.162V159H488.462V167ZM563.162 167C573.18 167 579.22 169.159 582.711 172.098C586.077 174.931 587.662 178.991 587.662 184.3L595.662 184.3C595.662 177.309 593.496 170.719 587.862 165.977C582.354 161.341 574.144 159 563.162 159V167ZM587.662 184.3V185.2L595.662 185.2V184.3L587.662 184.3ZM587.662 185.2C587.662 191.034 586.032 195.216 582.696 198.052C579.227 201.001 573.214 203.1 563.162 203.1V211.1C574.109 211.1 582.347 208.849 587.877 204.148C593.541 199.334 595.662 192.566 595.662 185.2L587.662 185.2ZM563.162 203.1H488.462V211.1H563.162V203.1ZM492.462 207.1V163H484.462V207.1H492.462ZM746.94 285.7V281.7H744.345L743.287 284.07L746.94 285.7ZM857.64 285.7L861.298 284.081L860.244 281.7H857.64V285.7ZM873.84 322.3L870.182 323.919L871.236 326.3H873.84V322.3ZM945.84 322.3V326.3H952.135L949.461 320.601L945.84 322.3ZM847.44 112.6L851.061 110.901L849.981 108.6H847.44V112.6ZM758.64 112.6V108.6H756.063L754.998 110.946L758.64 112.6ZM663.54 322L659.898 320.346L657.33 326H663.54V322ZM730.74 322V326H733.335L734.393 323.63L730.74 322ZM801.84 161.2L805.49 159.564L801.808 151.351L798.179 159.587L801.84 161.2ZM836.94 239.5V243.5H843.116L840.59 237.864L836.94 239.5ZM767.34 239.5L763.679 237.887L761.206 243.5L767.34 243.5V239.5ZM746.94 289.7L857.64 289.7V281.7L746.94 281.7V289.7ZM853.982 287.319L870.182 323.919L877.498 320.681L861.298 284.081L853.982 287.319ZM873.84 326.3H945.84V318.3H873.84V326.3ZM949.461 320.601L851.061 110.901L843.819 114.299L942.219 323.999L949.461 320.601ZM847.44 108.6L758.64 108.6V116.6L847.44 116.6V108.6ZM754.998 110.946L659.898 320.346L667.182 323.654L762.282 114.254L754.998 110.946ZM663.54 326H730.74V318H663.54V326ZM734.393 323.63L750.593 287.33L743.287 284.07L727.087 320.37L734.393 323.63ZM798.19 162.836L833.29 241.136L840.59 237.864L805.49 159.564L798.19 162.836ZM836.94 235.5H767.34V243.5H836.94V235.5ZM771 241.113L805.5 162.813L798.179 159.587L763.679 237.887L771 241.113ZM956.844 322.3H952.844V326.3H956.844V322.3ZM1024.04 322.3V326.3H1028.04V322.3H1024.04ZM1024.04 112.6H1028.04V108.6H1024.04V112.6ZM956.844 112.6V108.6H952.844V112.6H956.844ZM956.844 326.3H1024.04V318.3H956.844V326.3ZM1028.04 322.3V112.6H1020.04V322.3H1028.04ZM1024.04 108.6L956.844 108.6V116.6L1024.04 116.6V108.6ZM952.844 112.6V322.3H960.844V112.6H952.844ZM1129.57 165.4H1133.57V161.4H1129.57V165.4ZM1129.57 322.3H1125.57V326.3H1129.57V322.3ZM1196.47 322.3V326.3H1200.47V322.3H1196.47ZM1196.47 165.4V161.4H1192.47V165.4H1196.47ZM1288.27 165.4V169.4H1292.27V165.4H1288.27ZM1288.27 112.6H1292.27V108.6H1288.27V112.6ZM1038.07 112.6V108.6H1034.07V112.6H1038.07ZM1038.07 165.4H1034.07V169.4H1038.07V165.4ZM1125.57 165.4V322.3H1133.57V165.4H1125.57ZM1129.57 326.3H1196.47V318.3H1129.57V326.3ZM1200.47 322.3V165.4H1192.47V322.3H1200.47ZM1196.47 169.4H1288.27V161.4H1196.47V169.4ZM1292.27 165.4V112.6H1284.27V165.4H1292.27ZM1288.27 108.6L1038.07 108.6V116.6L1288.27 116.6V108.6ZM1034.07 112.6V165.4H1042.07V112.6H1034.07ZM1038.07 169.4L1129.57 169.4V161.4L1038.07 161.4V169.4ZM1302.29 112.6V108.6H1298.29V112.6H1302.29ZM1302.29 322.3H1298.29V326.3H1302.29V322.3ZM1369.49 322.3V326.3H1373.49V322.3H1369.49ZM1369.49 240.4V236.4H1365.49V240.4H1369.49ZM1480.79 240.4H1484.79V236.4H1480.79V240.4ZM1480.79 322.3H1476.79V326.3H1480.79V322.3ZM1548.29 322.3V326.3H1552.29V322.3H1548.29ZM1548.29 112.6H1552.29V108.6H1548.29V112.6ZM1480.79 112.6V108.6H1476.79V112.6H1480.79ZM1480.79 191.2V195.2H1484.79V191.2H1480.79ZM1369.49 191.2H1365.49V195.2H1369.49V191.2ZM1369.49 112.6H1373.49V108.6H1369.49V112.6ZM1298.29 112.6V322.3H1306.29V112.6H1298.29ZM1302.29 326.3H1369.49V318.3H1302.29V326.3ZM1373.49 322.3V240.4H1365.49V322.3H1373.49ZM1369.49 244.4L1480.79 244.4V236.4L1369.49 236.4V244.4ZM1476.79 240.4V322.3H1484.79V240.4H1476.79ZM1480.79 326.3H1548.29V318.3H1480.79V326.3ZM1552.29 322.3V112.6H1544.29V322.3H1552.29ZM1548.29 108.6L1480.79 108.6V116.6L1548.29 116.6V108.6ZM1476.79 112.6V191.2H1484.79V112.6H1476.79ZM1480.79 187.2L1369.49 187.2V195.2L1480.79 195.2V187.2ZM1373.49 191.2V112.6H1365.49V191.2H1373.49ZM1369.49 108.6L1302.29 108.6V116.6L1369.49 116.6V108.6Z" fill="#ECECEE"/>
</svg>
