<svg width="1923" height="996" viewBox="0 0 1923 996" fill="none" xmlns="http://www.w3.org/2000/svg">
<g clip-path="url(#clip0_514_1578)">
<rect x="609" y="112" width="40" height="4" fill="#FF0000"/>
<path d="M1127.35 263.725V259.725H1124.75L1123.69 262.106L1127.35 263.725ZM1228.83 263.725L1232.48 262.106L1231.43 259.725H1228.83V263.725ZM1243.68 297.275L1240.02 298.894L1241.07 301.275H1243.68V297.275ZM1309.68 297.275V301.275H1315.97L1313.3 295.576L1309.68 297.275ZM1219.48 105.05L1223.1 103.351L1222.02 101.05H1219.48V105.05ZM1138.08 105.05V101.05H1135.5L1134.43 103.398L1138.08 105.05ZM1050.9 297.275L1047.26 295.623L1044.69 301.275H1050.9V297.275ZM1112.5 297.275V301.275H1115.1L1116.16 298.894L1112.5 297.275ZM1177.68 149.6L1181.33 147.964L1177.64 139.751L1174.01 147.987L1177.68 149.6ZM1209.85 221.375V225.375H1216.03L1213.5 219.739L1209.85 221.375ZM1146.05 221.375L1142.39 219.762L1139.92 225.375L1146.05 225.375V221.375ZM1127.35 267.725L1228.83 267.725V259.725L1127.35 259.725V267.725ZM1225.17 265.344L1240.02 298.894L1247.33 295.656L1232.48 262.106L1225.17 265.344ZM1243.68 301.275H1309.68V293.275H1243.68V301.275ZM1313.3 295.576L1223.1 103.351L1215.85 106.749L1306.05 298.974L1313.3 295.576ZM1219.48 101.05L1138.08 101.05V109.05L1219.48 109.05V101.05ZM1134.43 103.398L1047.26 295.623L1054.54 298.927L1141.72 106.702L1134.43 103.398ZM1050.9 301.275H1112.5V293.275H1050.9V301.275ZM1116.16 298.894L1131.01 265.344L1123.69 262.106L1108.84 295.656L1116.16 298.894ZM1174.02 151.236L1206.2 223.011L1213.5 219.739L1181.33 147.964L1174.02 151.236ZM1209.85 217.375H1146.05V225.375H1209.85V217.375ZM1149.71 222.988L1181.34 151.213L1174.01 147.987L1142.39 219.762L1149.71 222.988ZM1318.36 105.05V101.05H1314.36V105.05H1318.36ZM1318.36 297H1314.36V301H1318.36V297ZM1379.96 250.8H1375.96V254.8H1379.96V250.8ZM1379.96 150.975V146.975H1375.96V150.975H1379.96ZM1314.36 105.05V297H1322.36V105.05H1314.36ZM1318.36 301H1412.96V293H1318.36V301ZM1412.96 301C1466.76 301 1499.4 287.936 1518.55 268.677C1537.7 249.411 1542.64 224.672 1542.64 202.95H1534.64C1534.64 223.578 1529.95 245.864 1512.87 263.036C1495.79 280.214 1465.59 293 1412.96 293V301ZM1542.64 202.95V194.975H1534.64V202.95H1542.64ZM1542.64 194.975C1542.64 173.623 1536.65 149.923 1516.96 131.614C1497.31 113.349 1464.68 101.05 1412.69 101.05V109.05C1463.55 109.05 1493.89 121.088 1511.51 137.473C1529.08 153.814 1534.64 175.077 1534.64 194.975H1542.64ZM1412.69 101.05L1318.36 101.05V109.05L1412.69 109.05V101.05ZM1383.96 250.8V150.975H1375.96V250.8H1383.96ZM1379.96 154.975H1407.46V146.975H1379.96V154.975ZM1407.46 154.975C1437.18 154.975 1452.59 162.007 1460.66 170.505C1468.74 179.006 1470.29 189.815 1470.29 199.375H1478.29C1478.29 189.135 1476.67 175.744 1466.46 164.995C1456.25 154.243 1438.25 146.975 1407.46 146.975V154.975ZM1470.29 199.375V201.025H1478.29V199.375H1470.29ZM1470.29 201.025C1470.29 211.047 1468.79 222.203 1460.73 230.933C1452.69 239.637 1437.31 246.8 1407.46 246.8V254.8C1438.4 254.8 1456.42 247.388 1466.61 236.36C1476.76 225.36 1478.29 211.628 1478.29 201.025H1470.29ZM1407.46 246.8H1379.96V254.8H1407.46V246.8ZM1738.84 105.05H1742.84V101.05H1738.84V105.05ZM1554.86 105.05V101.05H1550.86V105.05H1554.86ZM1554.86 297.275H1550.86V301.275H1554.86V297.275ZM1740.49 297.275V301.275H1744.49V297.275H1740.49ZM1740.49 252.45H1744.49V248.45H1740.49V252.45ZM1615.91 252.45H1611.91V256.45H1615.91V252.45ZM1615.91 222.75V218.75H1611.91V222.75H1615.91ZM1739.66 222.75V226.75H1743.66V222.75H1739.66ZM1739.66 177.1H1743.66V173.1H1739.66V177.1ZM1615.91 177.1H1611.91V181.1H1615.91V177.1ZM1615.91 149.05V145.05H1611.91V149.05H1615.91ZM1738.84 149.05V153.05H1742.84V149.05H1738.84ZM1738.84 101.05L1554.86 101.05V109.05L1738.84 109.05V101.05ZM1550.86 105.05V297.275H1558.86V105.05H1550.86ZM1554.86 301.275L1740.49 301.275V293.275L1554.86 293.275V301.275ZM1744.49 297.275V252.45H1736.49V297.275H1744.49ZM1740.49 248.45L1615.91 248.45V256.45H1740.49V248.45ZM1619.91 252.45V222.75H1611.91V252.45H1619.91ZM1615.91 226.75L1739.66 226.75V218.75L1615.91 218.75V226.75ZM1743.66 222.75V177.1H1735.66V222.75H1743.66ZM1739.66 173.1L1615.91 173.1V181.1L1739.66 181.1V173.1ZM1619.91 177.1V149.05H1611.91V177.1H1619.91ZM1615.91 153.05L1738.84 153.05V145.05L1615.91 145.05V153.05ZM1742.84 149.05V105.05H1734.84V149.05H1742.84ZM1872.65 235.125L1875.71 232.552L1872.66 228.916L1869.59 232.544L1872.65 235.125ZM1924.62 297L1921.56 299.573L1922.76 301H1924.62V297ZM1998.87 297V301H2007.37L2001.95 294.45L1998.87 297ZM1917.2 198.275L1914.12 195.722L1912 198.273L1914.12 200.825L1917.2 198.275ZM1994.47 105.05L1997.55 107.603L2002.98 101.05H1994.47V105.05ZM1923.8 105.05V101.05H1921.92L1920.72 102.496L1923.8 105.05ZM1875.67 163.075L1872.6 165.637L1875.68 169.33L1878.75 165.629L1875.67 163.075ZM1827.27 105.05L1830.34 102.488L1829.14 101.05H1827.27V105.05ZM1750 105.05V101.05H1741.39L1746.94 107.63L1750 105.05ZM1828.92 198.55L1832.01 201.094L1834.13 198.519L1831.98 195.97L1828.92 198.55ZM1747.8 297L1744.71 294.456L1739.32 301H1747.8V297ZM1820.4 297V301H1822.25L1823.45 299.581L1820.4 297ZM1869.58 237.698L1921.56 299.573L1927.69 294.427L1875.71 232.552L1869.58 237.698ZM1924.62 301L1998.87 301V293L1924.62 293V301ZM2001.95 294.45L1920.28 195.725L1914.12 200.825L1995.79 299.55L2001.95 294.45ZM1920.28 200.828L1997.55 107.603L1991.39 102.497L1914.12 195.722L1920.28 200.828ZM1994.47 101.05L1923.8 101.05V109.05L1994.47 109.05V101.05ZM1920.72 102.496L1872.59 160.521L1878.75 165.629L1926.88 107.604L1920.72 102.496ZM1878.74 160.513L1830.34 102.488L1824.2 107.612L1872.6 165.637L1878.74 160.513ZM1827.27 101.05L1750 101.05V109.05L1827.27 109.05V101.05ZM1746.94 107.63L1825.87 201.13L1831.98 195.97L1753.05 102.47L1746.94 107.63ZM1825.84 196.006L1744.71 294.456L1750.88 299.544L1832.01 201.094L1825.84 196.006ZM1747.8 301H1820.4V293H1747.8V301ZM1823.45 299.581L1875.7 237.706L1869.59 232.544L1817.34 294.419L1823.45 299.581Z" fill="#ECECEE"/>
<rect y="325" width="1927" height="669" fill="#D6D2C8"/>
<rect y="996" width="669" height="4.00003" transform="rotate(-90 0 996)" fill="#DA292A"/>
</g>
<defs>
<clipPath id="clip0_514_1578">
<rect width="1923" height="996" fill="white"/>
</clipPath>
</defs>
</svg>
