<svg width="37" height="42" viewBox="0 0 37 42" fill="none" xmlns="http://www.w3.org/2000/svg">
<path d="M14.4928 17.2512C13.3208 17.2512 12.3955 18.2793 12.3955 19.5336C12.3955 20.7878 13.3413 21.8159 14.4928 21.8159C15.6648 21.8159 16.5901 20.7878 16.5901 19.5336C16.6106 18.2793 15.6648 17.2512 14.4928 17.2512ZM21.9978 17.2512C20.8258 17.2512 19.9005 18.2793 19.9005 19.5336C19.9005 20.7878 20.8463 21.8159 21.9978 21.8159C23.1698 21.8159 24.0951 20.7878 24.0951 19.5336C24.0951 18.2793 23.1698 17.2512 21.9978 17.2512Z" fill="white"/>
<path d="M31.9903 0H4.43779C2.11432 0 0.222656 1.89167 0.222656 4.23569V32.035C0.222656 34.379 2.11432 36.2707 4.43779 36.2707H27.7546L26.6649 32.4668L29.2968 34.9136L31.7847 37.2165L36.2055 41.1232V4.23569C36.2055 1.89167 34.3138 0 31.9903 0ZM24.0536 26.8535C24.0536 26.8535 23.3133 25.9693 22.6965 25.188C25.3901 24.4272 26.4181 22.7411 26.4181 22.7411C25.5751 23.2963 24.7732 23.687 24.0536 23.9543C23.0255 24.3861 22.0385 24.6739 21.0721 24.8384C19.0982 25.2085 17.2888 25.1057 15.7467 24.8179C14.5747 24.5917 13.5671 24.2627 12.7241 23.9337C12.2512 23.7487 11.7372 23.5225 11.2231 23.2346C11.1614 23.1935 11.0997 23.1729 11.0381 23.1318C10.9969 23.1112 10.9764 23.0907 10.9558 23.0701C10.5857 22.8645 10.3801 22.7206 10.3801 22.7206C10.3801 22.7206 11.367 24.3655 13.9784 25.1468C13.3615 25.9282 12.6007 26.8535 12.6007 26.8535C8.05663 26.7095 6.32945 23.7281 6.32945 23.7281C6.32945 17.1073 9.29032 11.7407 9.29032 11.7407C12.2512 9.52002 15.0681 9.58171 15.0681 9.58171L15.2737 9.82845C11.5727 10.8977 9.86605 12.522 9.86605 12.522C9.86605 12.522 10.3184 12.2753 11.0792 11.9257C13.2793 10.9593 15.027 10.692 15.7467 10.6303C15.87 10.6098 15.9728 10.5892 16.0962 10.5892C17.3505 10.4247 18.7692 10.3836 20.2497 10.5481C22.203 10.7743 24.3003 11.35 26.4387 12.522C26.4387 12.522 24.8143 10.9799 21.3189 9.91069L21.6067 9.58171C21.6067 9.58171 24.4237 9.52002 27.3845 11.7407C27.3845 11.7407 30.3454 17.1073 30.3454 23.7281C30.3454 23.7281 28.5977 26.7095 24.0536 26.8535V26.8535Z" fill="white"/>
</svg>
