<svg width="42" height="42" viewBox="0 0 42 42" fill="none" xmlns="http://www.w3.org/2000/svg">
<path d="M20.5616 3.7066C26.0554 3.7066 26.706 3.7307 28.8666 3.82708C30.8745 3.91543 31.9588 4.25277 32.6817 4.53389C33.6375 4.90335 34.3282 5.35314 35.0431 6.06797C35.7659 6.79084 36.2077 7.47355 36.5772 8.42935C36.8583 9.15221 37.1956 10.2445 37.284 12.2445C37.3804 14.4131 37.4045 15.0637 37.4045 20.5494C37.4045 26.0433 37.3804 26.6938 37.284 28.8544C37.1956 30.8624 36.8583 31.9467 36.5772 32.6696C36.2077 33.6253 35.7579 34.3161 35.0431 35.0309C34.3202 35.7538 33.6375 36.1955 32.6817 36.565C31.9588 36.8461 30.8665 37.1835 28.8666 37.2718C26.698 37.3682 26.0474 37.3923 20.5616 37.3923C15.0678 37.3923 14.4172 37.3682 12.2566 37.2718C10.2487 37.1835 9.16437 36.8461 8.4415 36.565C7.48571 36.1955 6.79497 35.7458 6.08013 35.0309C5.35726 34.3081 4.91551 33.6253 4.54604 32.6696C4.26493 31.9467 3.92759 30.8543 3.83924 28.8544C3.74285 26.6858 3.71876 26.0352 3.71876 20.5494C3.71876 15.0556 3.74285 14.4051 3.83924 12.2445C3.92759 10.2365 4.26493 9.15221 4.54604 8.42935C4.91551 7.47355 5.36529 6.78281 6.08013 6.06797C6.803 5.3451 7.48571 4.90335 8.4415 4.53389C9.16437 4.25277 10.2567 3.91543 12.2566 3.82708C14.4172 3.7307 15.0678 3.7066 20.5616 3.7066ZM20.5616 0.00390625C14.9795 0.00390625 14.2807 0.0280019 12.088 0.124384C9.90331 0.220767 8.40134 0.574169 7.10018 1.08018C5.74279 1.61028 4.59423 2.30905 3.45371 3.45761C2.30515 4.59814 1.60638 5.7467 1.07627 7.09605C0.570263 8.40525 0.216861 9.89918 0.120478 12.0838C0.0240956 14.2846 0 14.9834 0 20.5655C0 26.1477 0.0240956 26.8464 0.120478 29.0391C0.216861 31.2238 0.570263 32.7258 1.07627 34.0269C1.60638 35.3843 2.30515 36.5329 3.45371 37.6734C4.59423 38.8139 5.74279 39.5207 7.09215 40.0428C8.40134 40.5488 9.89527 40.9022 12.0799 40.9986C14.2726 41.095 14.9714 41.1191 20.5536 41.1191C26.1357 41.1191 26.8345 41.095 29.0272 40.9986C31.2119 40.9022 32.7138 40.5488 34.015 40.0428C35.3644 39.5207 36.5129 38.8139 37.6534 37.6734C38.794 36.5329 39.5008 35.3843 40.0228 34.035C40.5289 32.7258 40.8823 31.2318 40.9786 29.0472C41.075 26.8545 41.0991 26.1557 41.0991 20.5735C41.0991 14.9914 41.075 14.2926 40.9786 12.0999C40.8823 9.91524 40.5289 8.41328 40.0228 7.11212C39.5168 5.7467 38.8181 4.59814 37.6695 3.45761C36.529 2.31709 35.3804 1.61028 34.0311 1.08821C32.7219 0.582201 31.2279 0.228799 29.0433 0.132416C26.8425 0.0280019 26.1438 0.00390625 20.5616 0.00390625Z" fill="white"/>
<path d="M20.5619 10.0037C14.7308 10.0037 10 14.7344 10 20.5656C10 26.3967 14.7308 31.1275 20.5619 31.1275C26.3931 31.1275 31.1238 26.3967 31.1238 20.5656C31.1238 14.7344 26.3931 10.0037 20.5619 10.0037ZM20.5619 27.4168C16.7789 27.4168 13.7107 24.3486 13.7107 20.5656C13.7107 16.7826 16.7789 13.7144 20.5619 13.7144C24.3449 13.7144 27.4131 16.7826 27.4131 20.5656C27.4131 24.3486 24.3449 27.4168 20.5619 27.4168Z" fill="white"/>
<path d="M34.0068 9.58591C34.0068 10.9513 32.8984 12.0517 31.541 12.0517C30.1756 12.0517 29.0752 10.9433 29.0752 9.58591C29.0752 8.22049 30.1836 7.12012 31.541 7.12012C32.8984 7.12012 34.0068 8.22852 34.0068 9.58591Z" fill="white"/>
</svg>
