<svg width="222" height="72" viewBox="0 0 222 72" fill="none" xmlns="http://www.w3.org/2000/svg">
<path d="M32.5 31L15.5 71.5H104" stroke="black"/>
<path d="M188.5 41.5L205.5 1H117" stroke="black"/>
<path d="M50.2197 8L26 65H173.471L195 8H50.2197Z" fill="#BB3232"/>
<path d="M87.8242 45V27.8125H91.2617V42.0703H94.7969V45H87.8242ZM101.375 45.1562C100.001 45.1562 98.9499 44.7428 98.2207 43.916C97.498 43.0827 97.1367 41.8815 97.1367 40.3125V32.1484C97.1367 30.6771 97.4948 29.5605 98.2109 28.7988C98.9336 28.0371 99.9883 27.6562 101.375 27.6562C102.762 27.6562 103.813 28.0371 104.529 28.7988C105.252 29.5605 105.613 30.6771 105.613 32.1484V40.3125C105.613 41.8815 105.249 43.0827 104.52 43.916C103.797 44.7428 102.749 45.1562 101.375 45.1562ZM101.404 41.9922C101.925 41.9922 102.186 41.4876 102.186 40.4785V32.0898C102.186 31.2435 101.932 30.8203 101.424 30.8203C100.851 30.8203 100.564 31.2533 100.564 32.1191V40.498C100.564 41.0319 100.63 41.416 100.76 41.6504C100.89 41.8783 101.105 41.9922 101.404 41.9922ZM112.045 45.1562C109.59 45.1562 108.363 43.3984 108.363 39.8828V32.4707C108.363 29.2611 109.77 27.6562 112.582 27.6562C113.741 27.6562 114.63 27.8906 115.248 28.3594C115.867 28.8216 116.293 29.4987 116.527 30.3906C116.762 31.2826 116.879 32.3698 116.879 33.6523H113.52V32.1289C113.52 31.7578 113.467 31.4486 113.363 31.2012C113.266 30.9473 113.057 30.8203 112.738 30.8203C112.341 30.8203 112.077 30.9538 111.947 31.2207C111.824 31.4876 111.762 31.7806 111.762 32.0996V40.4297C111.762 40.8919 111.82 41.2695 111.938 41.5625C112.061 41.849 112.299 41.9922 112.65 41.9922C113.015 41.9922 113.256 41.849 113.373 41.5625C113.497 41.2695 113.559 40.8854 113.559 40.4102V37.959H112.641V34.9902H116.84V45H115.463L114.877 43.5547C114.278 44.6224 113.334 45.1562 112.045 45.1562ZM119.551 45V27.8125H122.871V45H119.551ZM125.738 45V27.8125H129.273L130.855 36.0449V27.8125H134.176V45H130.816L129.098 36.4062V45H125.738Z" fill="white"/>
</svg>
