<svg width="1920" height="873" viewBox="0 0 1920 873" fill="none" xmlns="http://www.w3.org/2000/svg">
<g clip-path="url(#clip0_536_571)">
<rect x="1916" width="12" height="1472" fill="#001E45"/>
<path d="M260.76 499.79C243.92 503.97 240.162 518.121 237.42 528.105C236.324 532.252 244.73 534.191 248.073 530.593C252.288 526.15 257.219 521.587 262.527 517.47C266.599 514.346 272.139 511.227 272.834 506.982C273.547 502.86 268.086 497.991 260.76 499.79Z" fill="black" fill-opacity="0.03"/>
<g clip-path="url(#clip1_536_571)">
<path d="M1910.87 600.6C1910.6 600.965 1910.45 601.399 1910.43 601.85C1910.41 602.3 1910.52 602.747 1910.75 603.135C1910.98 603.523 1911.32 603.835 1911.72 604.034C1912.13 604.232 1912.58 604.307 1913.03 604.25C1913.57 604.25 1913.94 603.71 1914.43 603.5C1914.78 602.918 1914.98 602.258 1915.01 601.58C1914.87 601.235 1914.7 600.901 1914.51 600.58L1912 599.75C1911.54 599.892 1911.14 600.193 1910.87 600.6Z" fill="black" fill-opacity="0.27"/>
<path d="M1898.96 595.97C1898.72 595.978 1898.48 596.043 1898.26 596.159C1898.05 596.275 1897.86 596.44 1897.72 596.64C1897.72 596.71 1897.66 596.77 1897.56 596.72C1896.69 598.56 1897.78 599.77 1899.63 599.82C1899.9 599.588 1900.22 599.418 1900.56 599.32C1900.62 599.19 1900.64 598.98 1900.79 599C1901.06 598.561 1901.15 598.041 1901.07 597.535C1900.98 597.029 1900.71 596.572 1900.31 596.25C1899.86 596.15 1899.28 595.83 1898.96 595.97Z" fill="black" fill-opacity="0.27"/>
<path d="M1873.58 589.76C1873.58 589.565 1873.54 589.372 1873.46 589.193C1873.38 589.015 1873.27 588.856 1873.12 588.726C1872.97 588.596 1872.8 588.499 1872.62 588.441C1872.43 588.383 1872.23 588.366 1872.04 588.39C1871.37 588.39 1870.91 588.77 1870.73 589.69C1870.59 591.21 1873.43 591.83 1873.58 589.76Z" fill="black" fill-opacity="0.27"/>
<path d="M1887.11 593.83C1887.11 593.634 1887.07 593.441 1886.99 593.262C1886.91 593.083 1886.8 592.923 1886.65 592.793C1886.51 592.662 1886.33 592.564 1886.15 592.505C1885.96 592.446 1885.76 592.427 1885.57 592.45C1884.9 592.45 1884.44 592.84 1884.26 593.76C1884.11 595.28 1886.94 595.9 1887.11 593.83Z" fill="black" fill-opacity="0.27"/>
<path d="M1859.4 585.75C1859.39 585.566 1859.32 585.39 1859.2 585.254C1859.08 585.118 1858.91 585.031 1858.73 585.008C1858.54 584.985 1858.36 585.028 1858.21 585.129C1858.05 585.23 1857.94 585.383 1857.89 585.56C1857.99 585.84 1858.13 586.103 1858.31 586.34C1858.53 586.391 1858.77 586.359 1858.97 586.25C1859.17 586.141 1859.32 585.964 1859.4 585.75Z" fill="black" fill-opacity="0.27"/>
<path d="M1830.95 577.58C1831 577.613 1831.04 577.659 1831.07 577.713C1831.1 577.767 1831.12 577.828 1831.12 577.89C1831.59 578.09 1831.91 578 1832.02 577.51C1832.02 577.434 1832.01 577.357 1831.98 577.286C1831.96 577.215 1831.91 577.15 1831.86 577.097C1831.81 577.043 1831.74 577.001 1831.67 576.975C1831.6 576.948 1831.52 576.937 1831.45 576.942C1831.37 576.947 1831.3 576.968 1831.23 577.004C1831.16 577.039 1831.1 577.089 1831.05 577.149C1831.01 577.21 1830.97 577.279 1830.96 577.354C1830.94 577.428 1830.94 577.505 1830.95 577.58Z" fill="black" fill-opacity="0.27"/>
<path d="M1844.46 581.65C1844.51 581.683 1844.55 581.729 1844.58 581.783C1844.61 581.838 1844.63 581.898 1844.63 581.96C1845.1 582.16 1845.42 582.07 1845.53 581.58C1845.53 581.504 1845.52 581.428 1845.49 581.356C1845.47 581.285 1845.42 581.22 1845.37 581.167C1845.32 581.113 1845.25 581.072 1845.18 581.045C1845.11 581.018 1845.03 581.007 1844.96 581.012C1844.88 581.017 1844.8 581.038 1844.74 581.074C1844.67 581.11 1844.61 581.159 1844.56 581.22C1844.52 581.28 1844.48 581.349 1844.47 581.424C1844.45 581.498 1844.45 581.575 1844.46 581.65Z" fill="black" fill-opacity="0.27"/>
<path d="M1924.5 616.83C1923.92 616.6 1923.22 615.92 1922.5 616.1C1921.12 615.77 1920.33 616.52 1919.45 617.1C1919.09 617.589 1918.84 618.155 1918.72 618.755C1918.61 619.354 1918.64 619.972 1918.8 620.56C1919.05 621.14 1919.38 621.676 1919.8 622.15C1920.29 622.52 1920.85 622.771 1921.45 622.884C1922.05 622.997 1922.67 622.968 1923.26 622.8C1923.84 622.568 1924.37 622.247 1924.85 621.85C1925.19 621.399 1925.42 620.881 1925.54 620.331C1925.66 619.78 1925.66 619.21 1925.54 618.66C1925.34 617.978 1924.98 617.352 1924.5 616.83Z" fill="black" fill-opacity="0.27"/>
<path d="M1881.38 605.4C1881.14 605.411 1880.9 605.477 1880.68 605.593C1880.47 605.709 1880.28 605.872 1880.14 606.07C1880.14 606.14 1880.08 606.21 1879.98 606.15C1879.11 607.99 1880.2 609.2 1882.05 609.26C1882.32 609.029 1882.64 608.856 1882.98 608.75C1883.04 608.62 1883.06 608.41 1883.21 608.43C1883.48 607.991 1883.57 607.471 1883.49 606.965C1883.4 606.459 1883.13 606.003 1882.73 605.68C1882.28 605.6 1881.71 605.27 1881.38 605.4Z" fill="black" fill-opacity="0.27"/>
<path d="M1908.64 613.62C1908.26 613.582 1907.87 613.677 1907.55 613.888C1907.22 614.099 1906.98 614.413 1906.86 614.78C1906.17 616.48 1908.1 617.78 1909.54 617.15C1909.87 616.71 1910.35 616.55 1910.48 615.74C1910.48 615.329 1910.43 614.919 1910.33 614.52C1909.95 614.18 1909.4 613.4 1908.64 613.62Z" fill="black" fill-opacity="0.27"/>
<path d="M1869.8 603.62C1869.86 603.376 1869.86 603.122 1869.81 602.877C1869.76 602.632 1869.65 602.402 1869.49 602.205C1869.34 602.007 1869.14 601.848 1868.91 601.738C1868.69 601.628 1868.44 601.571 1868.19 601.57C1867.3 601.41 1866.78 601.92 1866.41 602.73C1865.68 604.9 1869.31 605.94 1869.8 603.62Z" fill="black" fill-opacity="0.27"/>
<path d="M1894.36 611.27C1894.46 611.549 1894.59 611.812 1894.77 612.05C1894.99 612.101 1895.22 612.071 1895.42 611.964C1895.62 611.857 1895.78 611.682 1895.86 611.47C1895.87 611.281 1895.8 611.096 1895.68 610.951C1895.56 610.806 1895.39 610.712 1895.2 610.687C1895.01 610.662 1894.82 610.708 1894.67 610.816C1894.51 610.924 1894.4 611.086 1894.36 611.27Z" fill="black" fill-opacity="0.27"/>
<path d="M1826.88 591.09C1826.93 591.123 1826.97 591.169 1827 591.223C1827.03 591.277 1827.05 591.338 1827.05 591.4C1827.52 591.6 1827.84 591.51 1827.95 591.02C1827.95 590.944 1827.94 590.867 1827.91 590.796C1827.89 590.725 1827.84 590.66 1827.79 590.607C1827.74 590.553 1827.67 590.511 1827.6 590.485C1827.53 590.458 1827.45 590.447 1827.38 590.452C1827.3 590.457 1827.22 590.478 1827.16 590.514C1827.09 590.549 1827.03 590.599 1826.98 590.659C1826.94 590.72 1826.9 590.789 1826.89 590.864C1826.87 590.938 1826.87 591.015 1826.88 591.09Z" fill="black" fill-opacity="0.27"/>
<path d="M1841.46 595.09C1841.46 595.014 1841.45 594.938 1841.42 594.866C1841.4 594.795 1841.35 594.73 1841.3 594.677C1841.25 594.623 1841.18 594.582 1841.11 594.555C1841.04 594.528 1840.96 594.517 1840.89 594.522C1840.81 594.527 1840.74 594.548 1840.67 594.584C1840.6 594.62 1840.54 594.669 1840.49 594.73C1840.45 594.79 1840.41 594.859 1840.4 594.934C1840.38 595.008 1840.38 595.085 1840.39 595.16C1840.44 595.193 1840.48 595.239 1840.51 595.293C1840.54 595.348 1840.56 595.408 1840.56 595.47C1841.04 595.67 1841.35 595.58 1841.46 595.09Z" fill="black" fill-opacity="0.27"/>
<path d="M1855.11 599.19C1855.11 599.12 1855.09 599.052 1855.06 598.99C1855.03 598.927 1854.98 598.871 1854.93 598.825C1854.88 598.779 1854.82 598.744 1854.75 598.722C1854.68 598.7 1854.61 598.69 1854.54 598.695C1854.48 598.7 1854.41 598.718 1854.34 598.749C1854.28 598.78 1854.23 598.822 1854.18 598.875C1854.13 598.927 1854.1 598.988 1854.08 599.054C1854.05 599.121 1854.05 599.19 1854.05 599.26C1854.1 599.295 1854.14 599.342 1854.17 599.396C1854.2 599.449 1854.21 599.509 1854.21 599.57C1854.66 599.77 1854.98 599.68 1855.11 599.19Z" fill="black" fill-opacity="0.27"/>
<path d="M1913.81 630.69C1913.34 631.654 1913.18 632.742 1913.36 633.802C1913.54 634.861 1914.04 635.836 1914.81 636.59C1915.18 636.754 1915.52 636.985 1915.81 637.27C1916.77 637.742 1917.86 637.899 1918.92 637.719C1919.98 637.54 1920.95 637.033 1921.71 636.27C1921.87 635.897 1922.1 635.557 1922.39 635.27C1922.86 634.305 1923.02 633.217 1922.84 632.159C1922.66 631.101 1922.15 630.125 1921.39 629.37C1920.57 628.769 1919.63 628.353 1918.63 628.15C1918.56 628.15 1918.49 628.15 1918.48 628.23L1918.24 628.16C1917.37 628.17 1916.52 628.357 1915.73 628.71C1914.99 629.261 1914.34 629.93 1913.81 630.69Z" fill="black" fill-opacity="0.27"/>
<path d="M1891.88 621.22C1891.81 621.22 1891.74 621.22 1891.73 621.3C1890.37 620.89 1889.6 621.57 1888.66 621.95C1888.13 622.535 1887.71 623.213 1887.42 623.95C1887.23 624.672 1887.26 625.435 1887.5 626.141C1887.75 626.846 1888.2 627.462 1888.8 627.909C1889.4 628.357 1890.12 628.615 1890.86 628.652C1891.61 628.688 1892.35 628.501 1892.99 628.114C1893.63 627.727 1894.14 627.158 1894.45 626.48C1894.76 625.802 1894.87 625.046 1894.75 624.308C1894.63 623.571 1894.29 622.886 1893.78 622.341C1893.27 621.796 1892.61 621.416 1891.88 621.25V621.22Z" fill="black" fill-opacity="0.27"/>
<path d="M1904.88 625.26C1903.94 625.149 1903 625.372 1902.21 625.89C1901.9 626.37 1901.51 626.7 1901.21 627.15C1900.21 630.04 1901.21 631.9 1904.1 632.71C1904.6 632.793 1905.12 632.775 1905.61 632.655C1906.11 632.536 1906.57 632.318 1906.98 632.015C1907.39 631.712 1907.74 631.33 1907.99 630.891C1908.25 630.452 1908.42 629.966 1908.49 629.461C1908.55 628.957 1908.52 628.443 1908.38 627.952C1908.25 627.461 1908.02 627.003 1907.7 626.603C1907.38 626.204 1906.99 625.872 1906.54 625.628C1906.1 625.383 1905.61 625.231 1905.1 625.18C1904.96 625.16 1904.89 625.15 1904.88 625.26Z" fill="black" fill-opacity="0.27"/>
<path d="M1877.89 618.31C1877.82 618.31 1877.74 618.31 1877.74 618.4C1877.21 618.3 1876.67 618.391 1876.21 618.657C1875.74 618.923 1875.39 619.346 1875.21 619.85C1874.97 620.469 1874.99 621.158 1875.26 621.765C1875.53 622.371 1876.03 622.846 1876.64 623.085C1877.26 623.324 1877.95 623.307 1878.56 623.038C1879.17 622.768 1879.64 622.269 1879.88 621.65C1880.11 620.949 1880.06 620.185 1879.74 619.52C1879.29 618.904 1878.63 618.473 1877.89 618.31Z" fill="black" fill-opacity="0.27"/>
<path d="M1838.11 608.82C1838.15 608.512 1838.08 608.2 1837.91 607.942C1837.73 607.684 1837.47 607.5 1837.17 607.424C1836.87 607.349 1836.55 607.387 1836.27 607.532C1836 607.677 1835.79 607.919 1835.68 608.21C1835.6 608.555 1835.67 608.915 1835.85 609.214C1836.04 609.513 1836.34 609.727 1836.68 609.81C1837 609.831 1837.31 609.744 1837.57 609.564C1837.83 609.384 1838.02 609.122 1838.11 608.82Z" fill="black" fill-opacity="0.27"/>
<path d="M1863.77 617.58C1863.89 617.608 1864.01 617.612 1864.13 617.592C1864.26 617.572 1864.37 617.528 1864.48 617.463C1864.58 617.398 1864.67 617.313 1864.74 617.213C1864.81 617.113 1864.86 617 1864.89 616.88C1864.91 616.766 1864.9 616.649 1864.88 616.537C1864.85 616.424 1864.8 616.319 1864.73 616.225C1864.66 616.132 1864.58 616.053 1864.48 615.993C1864.38 615.933 1864.27 615.893 1864.15 615.875C1864.04 615.857 1863.92 615.862 1863.81 615.889C1863.7 615.917 1863.59 615.966 1863.5 616.034C1863.41 616.103 1863.33 616.188 1863.27 616.287C1863.21 616.386 1863.17 616.496 1863.15 616.61C1863.14 616.816 1863.2 617.019 1863.31 617.193C1863.42 617.367 1863.58 617.502 1863.77 617.58Z" fill="black" fill-opacity="0.27"/>
<path d="M1851.02 612.7C1851.02 612.63 1851 612.562 1850.97 612.5C1850.94 612.437 1850.89 612.381 1850.84 612.336C1850.79 612.29 1850.73 612.254 1850.66 612.232C1850.59 612.21 1850.52 612.2 1850.46 612.205C1850.39 612.21 1850.32 612.228 1850.25 612.259C1850.19 612.29 1850.14 612.333 1850.09 612.385C1850.04 612.437 1850.01 612.498 1849.99 612.565C1849.96 612.631 1849.96 612.7 1849.96 612.77C1850.08 612.84 1850.1 612.96 1850.13 613.09C1850.6 613.28 1850.92 613.19 1851.02 612.7Z" fill="black" fill-opacity="0.27"/>
<path d="M1910.19 644.86C1910.09 645.22 1909.98 645.58 1909.87 645.93C1909.73 647.022 1910.03 648.124 1910.69 649.004C1911.35 649.885 1912.32 650.475 1913.41 650.65C1913.74 650.615 1914.08 650.632 1914.41 650.7C1915.32 650.563 1916.17 650.143 1916.83 649.499C1917.5 648.855 1917.94 648.019 1918.1 647.11C1918.15 646.452 1918.07 645.789 1917.85 645.165C1917.64 644.54 1917.3 643.967 1916.85 643.48C1916.21 642.991 1915.47 642.65 1914.68 642.48C1914.61 642.48 1914.54 642.48 1914.53 642.56C1912.48 642.15 1911.16 643.17 1910.19 644.86Z" fill="black" fill-opacity="0.27"/>
<path d="M1900 646.22C1900.5 646.303 1901.02 646.284 1901.51 646.165C1902.01 646.046 1902.47 645.828 1902.88 645.525C1903.29 645.222 1903.64 644.84 1903.89 644.401C1904.15 643.962 1904.32 643.476 1904.39 642.971C1904.45 642.466 1904.42 641.953 1904.28 641.462C1904.15 640.971 1903.92 640.512 1903.6 640.113C1903.28 639.714 1902.89 639.382 1902.44 639.137C1902 638.893 1901.51 638.741 1901 638.69C1900.92 638.69 1900.85 638.69 1900.84 638.77C1899.7 638.51 1899 639.07 1898.17 639.41C1897.86 639.88 1897.47 640.21 1897.17 640.66C1896.11 643.55 1897.11 645.4 1900 646.22Z" fill="black" fill-opacity="0.27"/>
<path d="M1885.67 641C1886.36 641.324 1887.16 641.369 1887.88 641.127C1888.61 640.886 1889.22 640.375 1889.58 639.7C1889.69 639.34 1889.79 638.98 1889.9 638.62C1889.92 638.042 1889.79 637.469 1889.5 636.966C1889.21 636.464 1888.79 636.053 1888.28 635.78L1887.2 635.46C1887.13 635.46 1887.06 635.46 1887.05 635.54C1886.5 635.497 1885.95 635.621 1885.47 635.896C1884.99 636.171 1884.61 636.583 1884.37 637.08L1884.04 638.16C1884.01 638.74 1884.14 639.318 1884.43 639.822C1884.72 640.326 1885.15 640.735 1885.67 641Z" fill="black" fill-opacity="0.27"/>
<path d="M1873.47 636.02C1873.91 635.987 1874.32 635.796 1874.64 635.481C1874.95 635.167 1875.13 634.751 1875.16 634.31C1875.06 633.904 1874.92 633.512 1874.73 633.14C1874.34 632.97 1873.73 632.55 1873.3 632.71C1873.08 632.704 1872.87 632.754 1872.68 632.856C1872.49 632.958 1872.33 633.107 1872.21 633.29C1872.21 633.36 1872.15 633.43 1872.05 633.38C1871.5 634.81 1871.97 635.69 1873.47 636.02Z" fill="black" fill-opacity="0.27"/>
<path d="M1833.88 622.02C1833.78 621.741 1833.64 621.478 1833.46 621.24C1833.23 621.24 1832.8 620.88 1832.71 621.14C1832.15 621.05 1831.9 621.51 1831.71 622.14C1831.72 622.282 1831.75 622.422 1831.82 622.551C1831.88 622.679 1831.96 622.794 1832.07 622.89C1832.18 622.985 1832.3 623.058 1832.44 623.105C1832.57 623.153 1832.71 623.173 1832.85 623.165C1833 623.157 1833.14 623.121 1833.27 623.059C1833.39 622.998 1833.51 622.911 1833.6 622.805C1833.7 622.698 1833.77 622.574 1833.82 622.44C1833.87 622.305 1833.89 622.162 1833.88 622.02Z" fill="black" fill-opacity="0.27"/>
<path d="M1845.89 626.28C1845.94 626.314 1845.99 626.362 1846.02 626.418C1846.05 626.474 1846.06 626.537 1846.06 626.6C1846.53 626.79 1846.85 626.7 1846.96 626.22C1846.97 626.144 1846.95 626.067 1846.93 625.995C1846.9 625.924 1846.86 625.858 1846.81 625.804C1846.75 625.749 1846.69 625.707 1846.62 625.679C1846.54 625.652 1846.47 625.64 1846.39 625.644C1846.31 625.648 1846.24 625.669 1846.17 625.704C1846.1 625.74 1846.04 625.789 1846 625.849C1845.95 625.909 1845.92 625.979 1845.9 626.053C1845.88 626.127 1845.88 626.205 1845.89 626.28Z" fill="black" fill-opacity="0.27"/>
<path d="M1859.4 630.4C1859.45 630.433 1859.49 630.479 1859.52 630.533C1859.55 630.588 1859.57 630.648 1859.57 630.71C1860.04 630.91 1860.36 630.82 1860.47 630.33C1860.47 630.254 1860.46 630.178 1860.43 630.106C1860.41 630.035 1860.36 629.97 1860.31 629.917C1860.26 629.863 1860.19 629.822 1860.12 629.795C1860.05 629.768 1859.97 629.757 1859.9 629.762C1859.82 629.767 1859.74 629.788 1859.68 629.824C1859.61 629.86 1859.55 629.909 1859.5 629.97C1859.46 630.03 1859.42 630.099 1859.41 630.174C1859.39 630.248 1859.39 630.325 1859.4 630.4Z" fill="black" fill-opacity="0.27"/>
<path d="M1910.24 665.08C1910.91 664.91 1911.56 664.69 1912.24 664.51C1912.76 664.05 1913.31 663.63 1913.82 663.16C1914.56 662.103 1914.88 660.804 1914.72 659.522C1914.55 658.24 1913.9 657.069 1912.91 656.24C1912.23 655.825 1911.48 655.512 1910.71 655.31C1910.63 655.31 1910.56 655.31 1910.55 655.39C1909.28 655.02 1908.55 655.62 1907.55 655.8C1906.92 656.197 1906.37 656.715 1905.94 657.325C1905.52 657.934 1905.21 658.622 1905.05 659.35C1905.07 659.736 1905.04 660.122 1904.96 660.5C1905.13 661.17 1905.36 661.82 1905.54 662.5C1906 663.02 1906.41 663.57 1906.89 664.08C1907.89 664.713 1909.05 665.058 1910.24 665.08Z" fill="black" fill-opacity="0.27"/>
<path d="M1871.32 648.8C1871.48 648.489 1871.55 648.143 1871.53 647.796C1871.51 647.448 1871.41 647.112 1871.22 646.819C1871.03 646.526 1870.77 646.287 1870.46 646.126C1870.15 645.965 1869.81 645.887 1869.46 645.9C1869.03 645.852 1868.6 645.943 1868.23 646.16C1867.86 646.376 1867.57 646.705 1867.4 647.1C1867.27 647.407 1867.21 647.742 1867.23 648.076C1867.24 648.41 1867.34 648.736 1867.51 649.027C1867.67 649.318 1867.9 649.566 1868.18 649.753C1868.46 649.939 1868.78 650.058 1869.11 650.1C1869.56 650.122 1870.02 650.011 1870.41 649.78C1870.8 649.549 1871.12 649.208 1871.32 648.8Z" fill="black" fill-opacity="0.27"/>
<path d="M1857.27 645.23C1857.33 645.09 1857.35 644.88 1857.5 644.9C1857.76 644.461 1857.86 643.941 1857.77 643.435C1857.69 642.93 1857.42 642.474 1857.02 642.15C1856.57 642.06 1856.02 641.73 1855.67 641.88C1855.43 641.888 1855.19 641.953 1854.97 642.069C1854.76 642.185 1854.57 642.35 1854.43 642.55C1854.43 642.62 1854.37 642.68 1854.27 642.63C1853.4 644.46 1854.49 645.63 1856.34 645.73C1856.61 645.495 1856.93 645.324 1857.27 645.23Z" fill="black" fill-opacity="0.27"/>
<path d="M1842.39 641.4C1842.83 641.365 1843.24 641.173 1843.55 640.858C1843.86 640.544 1844.04 640.13 1844.07 639.69C1843.97 639.284 1843.83 638.891 1843.64 638.52C1843.25 638.34 1842.64 637.92 1842.21 638.08C1841.99 638.076 1841.78 638.128 1841.59 638.232C1841.4 638.335 1841.24 638.486 1841.12 638.67C1841.12 638.74 1841.06 638.8 1840.96 638.75C1840.41 640.19 1840.88 641.07 1842.39 641.4Z" fill="black" fill-opacity="0.27"/>
<path d="M1894.71 655.58C1893.97 657.75 1897.61 658.8 1898.09 656.47C1898.15 656.227 1898.16 655.973 1898.1 655.728C1898.05 655.483 1897.94 655.252 1897.79 655.055C1897.64 654.857 1897.44 654.697 1897.21 654.587C1896.99 654.477 1896.74 654.42 1896.49 654.42C1895.6 654.26 1895.11 654.78 1894.71 655.58Z" fill="black" fill-opacity="0.27"/>
<path d="M1881.32 651.55C1881.23 651.981 1881.3 652.43 1881.52 652.81C1881.75 653.191 1882.1 653.476 1882.52 653.61C1882.94 653.657 1883.36 653.559 1883.71 653.333C1884.06 653.108 1884.33 652.767 1884.46 652.37C1884.52 651.97 1884.44 651.559 1884.22 651.22C1884 650.88 1883.66 650.635 1883.26 650.532C1882.87 650.43 1882.45 650.477 1882.09 650.666C1881.74 650.854 1881.46 651.169 1881.32 651.55Z" fill="black" fill-opacity="0.27"/>
<path d="M1814.68 631.62C1814.73 631.653 1814.77 631.699 1814.8 631.753C1814.83 631.808 1814.85 631.868 1814.85 631.93C1815.32 632.13 1815.64 632.04 1815.75 631.55C1815.75 631.474 1815.74 631.397 1815.71 631.326C1815.69 631.255 1815.64 631.19 1815.59 631.137C1815.54 631.083 1815.47 631.041 1815.4 631.015C1815.33 630.988 1815.25 630.977 1815.18 630.982C1815.1 630.987 1815.03 631.008 1814.96 631.044C1814.89 631.08 1814.83 631.129 1814.78 631.19C1814.74 631.25 1814.7 631.319 1814.69 631.394C1814.67 631.468 1814.67 631.545 1814.68 631.62Z" fill="black" fill-opacity="0.27"/>
<path d="M1910.54 674.04C1910.38 671.68 1909.54 669.7 1906.32 668.99C1906.24 668.99 1906.17 668.99 1906.16 669.07L1905.93 669C1903.63 669.14 1901.8 670.16 1901.11 673.29C1901.1 674.185 1901.32 675.068 1901.75 675.856C1902.17 676.644 1902.79 677.313 1903.54 677.8L1905.45 678.38C1907.84 678.23 1909.83 677.33 1910.54 674.04Z" fill="black" fill-opacity="0.27"/>
<path d="M1878.11 668.32C1878.48 668.413 1878.86 668.432 1879.23 668.378C1879.6 668.323 1879.96 668.196 1880.29 668.003C1880.61 667.81 1880.89 667.554 1881.12 667.252C1881.34 666.95 1881.51 666.606 1881.6 666.24C1881.69 665.874 1881.71 665.494 1881.66 665.12C1881.6 664.747 1881.48 664.388 1881.28 664.064C1881.09 663.74 1880.83 663.457 1880.53 663.232C1880.23 663.006 1879.89 662.843 1879.52 662.75C1879.34 662.75 1879.09 662.57 1879.01 662.75C1878.38 662.68 1877.75 662.809 1877.2 663.12C1876.78 663.64 1876.2 663.92 1876.03 664.85C1875.94 665.214 1875.92 665.594 1875.97 665.967C1876.02 666.339 1876.15 666.697 1876.34 667.02C1876.54 667.343 1876.79 667.624 1877.1 667.847C1877.4 668.07 1877.74 668.231 1878.11 668.32Z" fill="black" fill-opacity="0.27"/>
<path d="M1917.11 676.02C1916.7 676.613 1916.54 677.34 1916.65 678.051C1916.76 678.762 1917.14 679.403 1917.71 679.842C1918.28 680.281 1919 680.484 1919.72 680.409C1920.43 680.334 1921.09 679.987 1921.56 679.44C1921.89 678.852 1922.09 678.201 1922.14 677.53C1921.86 676.48 1921.22 675.09 1919.61 675.08C1918.46 674.79 1917.84 675.51 1917.11 676.02Z" fill="black" fill-opacity="0.27"/>
<path d="M1890.64 671.7C1891.21 672.106 1891.91 672.287 1892.61 672.208C1893.31 672.129 1893.95 671.795 1894.42 671.27C1894.48 671.14 1894.5 670.93 1894.64 670.95C1894.95 670.321 1895.03 669.598 1894.84 668.919C1894.66 668.24 1894.23 667.653 1893.64 667.27L1892.56 666.94C1892.49 666.94 1892.41 666.94 1892.41 667.03C1891.41 666.84 1890.82 667.44 1890.18 667.92C1889.82 668.494 1889.62 669.153 1889.61 669.83C1889.71 670.558 1890.08 671.224 1890.64 671.7Z" fill="black" fill-opacity="0.27"/>
<path d="M1864.01 663.55C1864.57 663.859 1865.23 663.948 1865.85 663.801C1866.48 663.653 1867.03 663.278 1867.39 662.75C1868.1 660.75 1867.49 659.55 1865.5 659.05C1865.42 659.05 1865.35 659.05 1865.34 659.13C1864.34 658.94 1863.78 659.58 1863.2 660.13C1862.88 660.696 1862.78 661.365 1862.93 662C1863.08 662.635 1863.47 663.189 1864.01 663.55Z" fill="black" fill-opacity="0.27"/>
<path d="M1853.49 657.78C1853.55 657.537 1853.56 657.283 1853.5 657.038C1853.45 656.793 1853.34 656.562 1853.19 656.365C1853.04 656.167 1852.84 656.007 1852.61 655.897C1852.39 655.787 1852.14 655.73 1851.89 655.73C1851 655.57 1850.48 656.08 1850.11 656.89C1849.37 659.05 1853.01 660.1 1853.49 657.78Z" fill="black" fill-opacity="0.27"/>
<path d="M1839.59 653.73C1839.7 653.349 1839.66 652.941 1839.47 652.592C1839.28 652.243 1838.97 651.98 1838.59 651.86C1838.45 651.86 1838.26 651.73 1838.2 651.86C1837.88 651.818 1837.55 651.897 1837.28 652.081C1837 652.265 1836.81 652.542 1836.73 652.86C1836.11 654.68 1839.11 655.59 1839.59 653.73Z" fill="black" fill-opacity="0.27"/>
<path d="M1810.26 645.02C1810.24 645.231 1810.3 645.441 1810.41 645.621C1810.52 645.8 1810.68 645.94 1810.88 646.02C1811 646.048 1811.12 646.052 1811.25 646.031C1811.37 646.01 1811.48 645.966 1811.59 645.9C1811.69 645.834 1811.78 645.747 1811.85 645.646C1811.92 645.545 1811.97 645.431 1812 645.31C1812.04 645.079 1811.98 644.843 1811.85 644.652C1811.71 644.462 1811.51 644.333 1811.28 644.295C1811.04 644.257 1810.81 644.311 1810.62 644.447C1810.43 644.583 1810.3 644.789 1810.26 645.02Z" fill="black" fill-opacity="0.27"/>
<path d="M1913.77 696.66C1917.07 697.27 1919.38 696.04 1920.65 692.86C1920.65 692.78 1920.65 692.7 1920.72 692.62C1921.23 689.27 1919.99 686.87 1916.41 685.72C1916.31 685.72 1916.17 685.65 1916.14 685.77C1914.76 685.523 1913.34 685.79 1912.14 686.52C1911.11 687.314 1910.33 688.391 1909.9 689.62C1909.2 693.03 1910.45 695.4 1913.77 696.66Z" fill="black" fill-opacity="0.27"/>
<path d="M1905.45 689.2C1905.62 688.64 1905.79 688.08 1905.95 687.53C1905.82 685.43 1905.07 683.66 1902.23 683.01C1902.15 683.01 1902.08 683.01 1902.07 683.1L1901.83 683.02C1901.07 683.034 1900.33 683.236 1899.68 683.608C1899.02 683.98 1898.46 684.51 1898.06 685.15C1897.9 685.71 1897.73 686.27 1897.56 686.82C1897.7 688.95 1898.47 690.75 1901.41 691.37C1902.21 691.381 1903 691.187 1903.71 690.807C1904.42 690.428 1905.02 689.875 1905.45 689.2Z" fill="black" fill-opacity="0.27"/>
<path d="M1888.27 681.29C1887.89 681.253 1887.5 681.347 1887.18 681.558C1886.85 681.769 1886.61 682.083 1886.49 682.45C1885.8 684.15 1887.73 685.45 1889.17 684.82C1889.5 684.38 1889.98 684.22 1890.11 683.41C1890.11 682.999 1890.06 682.59 1889.96 682.19C1889.58 681.85 1889.03 681.08 1888.27 681.29Z" fill="black" fill-opacity="0.27"/>
<path d="M1876.59 678.95C1876.49 678.419 1876.22 677.931 1875.84 677.55C1875.45 677.55 1874.84 677.08 1874.61 677.31C1873.96 677.16 1873.66 677.66 1873.24 677.94C1871.58 680.71 1876.45 682.18 1876.59 678.95Z" fill="black" fill-opacity="0.27"/>
<path d="M1808.11 658.6C1808.01 658.32 1807.87 658.057 1807.69 657.82C1807.46 657.82 1807.03 657.47 1806.94 657.72C1806.38 657.63 1806.13 658.09 1805.94 658.72C1805.95 658.862 1805.98 659.002 1806.05 659.131C1806.11 659.259 1806.19 659.374 1806.3 659.47C1806.41 659.565 1806.53 659.638 1806.67 659.685C1806.8 659.733 1806.94 659.753 1807.08 659.745C1807.23 659.737 1807.37 659.701 1807.5 659.639C1807.62 659.578 1807.74 659.491 1807.83 659.385C1807.93 659.278 1808 659.154 1808.05 659.02C1808.1 658.885 1808.12 658.742 1808.11 658.6Z" fill="black" fill-opacity="0.27"/>
<path d="M1929.94 707.92C1929.64 706.813 1929.1 705.787 1928.35 704.92C1928.27 704.87 1928.12 704.85 1928.15 704.73C1927.38 704.206 1926.53 703.817 1925.63 703.58C1925.55 703.58 1925.48 703.58 1925.47 703.66L1925.23 703.59C1923.93 703.394 1922.6 703.722 1921.53 704.501C1920.47 705.28 1919.76 706.448 1919.55 707.75C1919.49 708.285 1919.47 708.823 1919.49 709.36H1929.91C1929.94 708.89 1929.93 708.4 1929.94 707.92Z" fill="black" fill-opacity="0.27"/>
<path d="M1916.02 706.07C1916.04 705.565 1916.1 705.063 1916.21 704.57C1916.02 703.06 1915.27 701.674 1914.12 700.68C1913.55 700.45 1913.06 700.18 1912.52 699.93C1912.45 699.93 1912.37 699.93 1912.37 700.02C1911.21 699.55 1910.55 700.02 1909.64 700.02C1908.71 700.491 1907.86 701.117 1907.13 701.87C1906.9 702.44 1906.63 702.94 1906.38 703.47C1906.07 704.681 1906.22 705.963 1906.8 707.069C1907.38 708.176 1908.35 709.031 1909.52 709.47H1912.85C1913.6 709.184 1914.28 708.729 1914.83 708.139C1915.38 707.55 1915.79 706.842 1916.02 706.07Z" fill="black" fill-opacity="0.27"/>
<path d="M1897.82 698.51C1897.34 698.449 1896.86 698.556 1896.45 698.813C1896.04 699.07 1895.73 699.462 1895.58 699.92C1895.47 700.209 1895.42 700.517 1895.44 700.825C1895.45 701.133 1895.53 701.435 1895.67 701.711C1895.81 701.988 1896 702.233 1896.23 702.432C1896.47 702.631 1896.74 702.78 1897.04 702.869C1897.33 702.957 1897.65 702.984 1897.95 702.948C1898.26 702.911 1898.55 702.812 1898.82 702.657C1899.09 702.501 1899.32 702.292 1899.5 702.044C1899.68 701.795 1899.81 701.511 1899.88 701.21C1899.95 700.901 1899.96 700.58 1899.9 700.268C1899.84 699.956 1899.72 699.66 1899.54 699.397C1899.36 699.135 1899.13 698.913 1898.86 698.744C1898.6 698.576 1898.29 698.466 1897.98 698.42C1897.91 698.4 1897.83 698.4 1897.82 698.51Z" fill="black" fill-opacity="0.27"/>
<path d="M1883.11 696.4C1883.08 696.549 1883.07 696.703 1883.1 696.854C1883.12 697.004 1883.18 697.148 1883.27 697.275C1883.35 697.403 1883.46 697.513 1883.58 697.598C1883.71 697.682 1883.86 697.74 1884.01 697.768C1884.16 697.796 1884.31 697.793 1884.46 697.759C1884.61 697.725 1884.75 697.662 1884.87 697.572C1885 697.483 1885.1 697.369 1885.18 697.238C1885.26 697.107 1885.31 696.961 1885.33 696.81C1885.63 695.5 1883.32 694.88 1883.11 696.4Z" fill="black" fill-opacity="0.27"/>
<path d="M1844.4 684.51C1844.4 684.322 1844.34 684.139 1844.22 683.997C1844.09 683.854 1843.92 683.762 1843.74 683.738C1843.55 683.715 1843.36 683.761 1843.21 683.869C1843.05 683.976 1842.94 684.137 1842.9 684.32C1843 684.598 1843.14 684.86 1843.31 685.1C1843.53 685.139 1843.76 685.101 1843.96 684.994C1844.16 684.887 1844.31 684.717 1844.4 684.51Z" fill="black" fill-opacity="0.27"/>
<path d="M1857.91 688.58C1857.91 688.392 1857.85 688.209 1857.73 688.066C1857.6 687.924 1857.43 687.832 1857.25 687.808C1857.06 687.785 1856.87 687.831 1856.72 687.938C1856.56 688.046 1856.45 688.207 1856.41 688.39C1856.51 688.665 1856.65 688.925 1856.82 689.16C1857.04 689.213 1857.27 689.184 1857.48 689.077C1857.68 688.97 1857.83 688.793 1857.91 688.58Z" fill="black" fill-opacity="0.27"/>
<path d="M1852.37 704.4C1853 704.556 1853.67 704.471 1854.25 704.16C1854.82 703.85 1855.26 703.336 1855.48 702.72C1855.63 701.907 1855.46 701.068 1855.02 700.37C1854.54 700.19 1854.02 699.48 1853.54 699.66C1852.12 699.32 1851.3 700.1 1850.7 701.28C1850.54 701.914 1850.63 702.584 1850.94 703.16C1851.25 703.735 1851.76 704.177 1852.37 704.4Z" fill="black" fill-opacity="0.27"/>
<path d="M1865.11 708.08C1865.64 708.364 1866.26 708.448 1866.85 708.316C1867.44 708.185 1867.96 707.848 1868.32 707.365C1868.69 706.882 1868.86 706.285 1868.82 705.683C1868.78 705.081 1868.53 704.512 1868.11 704.08C1867.67 703.735 1867.12 703.567 1866.56 703.61C1866.15 703.609 1865.74 703.703 1865.37 703.885C1865 704.067 1864.67 704.332 1864.42 704.66C1863.73 706.27 1864.11 707.32 1865.11 708.08Z" fill="black" fill-opacity="0.27"/>
<path d="M1880.35 708.9L1879.88 708.75C1879.66 708.955 1879.39 709.099 1879.1 709.17C1879.06 709.243 1879.02 709.32 1878.99 709.4H1881.17C1880.96 709.09 1880.7 708.8 1880.35 708.9Z" fill="black" fill-opacity="0.27"/>
<path d="M1839.33 698.76C1839.45 698.79 1839.58 698.795 1839.7 698.776C1839.82 698.756 1839.94 698.713 1840.04 698.648C1840.15 698.582 1840.24 698.497 1840.31 698.396C1840.38 698.295 1840.43 698.181 1840.46 698.06C1840.47 697.84 1840.4 697.624 1840.26 697.453C1840.12 697.282 1839.92 697.169 1839.71 697.135C1839.49 697.102 1839.27 697.15 1839.08 697.271C1838.9 697.392 1838.77 697.577 1838.71 697.79C1838.7 697.996 1838.76 698.2 1838.87 698.373C1838.98 698.547 1839.14 698.682 1839.33 698.76Z" fill="black" fill-opacity="0.27"/>
<path d="M1812.95 689.78C1812.94 689.64 1812.88 689.508 1812.77 689.416C1812.66 689.323 1812.53 689.276 1812.38 689.285C1812.24 689.294 1812.11 689.359 1812.02 689.465C1811.93 689.571 1811.88 689.71 1811.89 689.85C1811.94 689.883 1811.98 689.929 1812.01 689.983C1812.04 690.038 1812.06 690.098 1812.06 690.16C1812.53 690.4 1812.85 690.27 1812.95 689.78Z" fill="black" fill-opacity="0.27"/>
<path d="M1807.5 703.13C1807.48 703.341 1807.54 703.551 1807.65 703.731C1807.76 703.911 1807.92 704.05 1808.12 704.13C1808.36 704.187 1808.62 704.145 1808.83 704.014C1809.04 703.883 1809.19 703.673 1809.25 703.43C1809.27 703.206 1809.21 702.982 1809.07 702.803C1808.94 702.624 1808.74 702.503 1808.51 702.465C1808.29 702.427 1808.06 702.474 1807.88 702.598C1807.69 702.721 1807.55 702.911 1807.5 703.13Z" fill="black" fill-opacity="0.27"/>
</g>
<rect x="1907" width="21" height="1472" fill="#001E45"/>
<g clip-path="url(#clip2_536_571)">
<path d="M1910.87 600.6C1910.6 600.965 1910.45 601.399 1910.43 601.85C1910.41 602.3 1910.52 602.747 1910.75 603.135C1910.98 603.523 1911.32 603.835 1911.72 604.034C1912.13 604.232 1912.58 604.307 1913.03 604.25C1913.57 604.25 1913.94 603.71 1914.43 603.5C1914.78 602.918 1914.98 602.258 1915.01 601.58C1914.87 601.235 1914.7 600.901 1914.51 600.58L1912 599.75C1911.54 599.892 1911.14 600.193 1910.87 600.6Z" fill="black" fill-opacity="0.27"/>
<path d="M1898.96 595.97C1898.72 595.978 1898.48 596.043 1898.26 596.159C1898.05 596.275 1897.86 596.44 1897.72 596.64C1897.72 596.71 1897.66 596.77 1897.56 596.72C1896.69 598.56 1897.78 599.77 1899.63 599.82C1899.9 599.588 1900.22 599.418 1900.56 599.32C1900.62 599.19 1900.64 598.98 1900.79 599C1901.06 598.561 1901.15 598.041 1901.07 597.535C1900.98 597.029 1900.71 596.572 1900.31 596.25C1899.86 596.15 1899.28 595.83 1898.96 595.97Z" fill="black" fill-opacity="0.27"/>
<path d="M1873.58 589.76C1873.58 589.565 1873.54 589.372 1873.46 589.193C1873.38 589.015 1873.27 588.856 1873.12 588.726C1872.97 588.596 1872.8 588.499 1872.62 588.441C1872.43 588.383 1872.23 588.366 1872.04 588.39C1871.37 588.39 1870.91 588.77 1870.73 589.69C1870.59 591.21 1873.43 591.83 1873.58 589.76Z" fill="black" fill-opacity="0.27"/>
<path d="M1887.11 593.83C1887.11 593.634 1887.07 593.441 1886.99 593.262C1886.91 593.083 1886.8 592.923 1886.65 592.793C1886.51 592.662 1886.33 592.564 1886.15 592.505C1885.96 592.446 1885.76 592.427 1885.57 592.45C1884.9 592.45 1884.44 592.84 1884.26 593.76C1884.11 595.28 1886.94 595.9 1887.11 593.83Z" fill="black" fill-opacity="0.27"/>
<path d="M1859.4 585.75C1859.39 585.566 1859.32 585.39 1859.2 585.254C1859.08 585.118 1858.91 585.031 1858.73 585.008C1858.54 584.985 1858.36 585.028 1858.21 585.129C1858.05 585.23 1857.94 585.383 1857.89 585.56C1857.99 585.84 1858.13 586.103 1858.31 586.34C1858.53 586.391 1858.77 586.359 1858.97 586.25C1859.17 586.141 1859.32 585.964 1859.4 585.75Z" fill="black" fill-opacity="0.27"/>
<path d="M1830.95 577.58C1831 577.613 1831.04 577.659 1831.07 577.713C1831.1 577.767 1831.12 577.828 1831.12 577.89C1831.59 578.09 1831.91 578 1832.02 577.51C1832.02 577.434 1832.01 577.357 1831.98 577.286C1831.96 577.215 1831.91 577.15 1831.86 577.097C1831.81 577.043 1831.74 577.001 1831.67 576.975C1831.6 576.948 1831.52 576.937 1831.45 576.942C1831.37 576.947 1831.3 576.968 1831.23 577.004C1831.16 577.039 1831.1 577.089 1831.05 577.149C1831.01 577.21 1830.97 577.279 1830.96 577.354C1830.94 577.428 1830.94 577.505 1830.95 577.58Z" fill="black" fill-opacity="0.27"/>
<path d="M1844.46 581.65C1844.51 581.683 1844.55 581.729 1844.58 581.783C1844.61 581.838 1844.63 581.898 1844.63 581.96C1845.1 582.16 1845.42 582.07 1845.53 581.58C1845.53 581.504 1845.52 581.428 1845.49 581.356C1845.47 581.285 1845.42 581.22 1845.37 581.167C1845.32 581.113 1845.25 581.072 1845.18 581.045C1845.11 581.018 1845.03 581.007 1844.96 581.012C1844.88 581.017 1844.8 581.038 1844.74 581.074C1844.67 581.11 1844.61 581.159 1844.56 581.22C1844.52 581.28 1844.48 581.349 1844.47 581.424C1844.45 581.498 1844.45 581.575 1844.46 581.65Z" fill="black" fill-opacity="0.27"/>
<path d="M1924.5 616.83C1923.92 616.6 1923.22 615.92 1922.5 616.1C1921.12 615.77 1920.33 616.52 1919.45 617.1C1919.09 617.589 1918.84 618.155 1918.72 618.755C1918.61 619.354 1918.64 619.972 1918.8 620.56C1919.05 621.14 1919.38 621.676 1919.8 622.15C1920.29 622.52 1920.85 622.771 1921.45 622.884C1922.05 622.997 1922.67 622.968 1923.26 622.8C1923.84 622.568 1924.37 622.247 1924.85 621.85C1925.19 621.399 1925.42 620.881 1925.54 620.331C1925.66 619.78 1925.66 619.21 1925.54 618.66C1925.34 617.978 1924.98 617.352 1924.5 616.83Z" fill="black" fill-opacity="0.27"/>
<path d="M1881.38 605.4C1881.14 605.411 1880.9 605.477 1880.68 605.593C1880.47 605.709 1880.28 605.872 1880.14 606.07C1880.14 606.14 1880.08 606.21 1879.98 606.15C1879.11 607.99 1880.2 609.2 1882.05 609.26C1882.32 609.029 1882.64 608.856 1882.98 608.75C1883.04 608.62 1883.06 608.41 1883.21 608.43C1883.48 607.991 1883.57 607.471 1883.49 606.965C1883.4 606.459 1883.13 606.003 1882.73 605.68C1882.28 605.6 1881.71 605.27 1881.38 605.4Z" fill="black" fill-opacity="0.27"/>
<path d="M1908.64 613.62C1908.26 613.582 1907.87 613.677 1907.55 613.888C1907.22 614.099 1906.98 614.413 1906.86 614.78C1906.17 616.48 1908.1 617.78 1909.54 617.15C1909.87 616.71 1910.35 616.55 1910.48 615.74C1910.48 615.329 1910.43 614.919 1910.33 614.52C1909.95 614.18 1909.4 613.4 1908.64 613.62Z" fill="black" fill-opacity="0.27"/>
<path d="M1869.8 603.62C1869.86 603.376 1869.86 603.122 1869.81 602.877C1869.76 602.632 1869.65 602.402 1869.49 602.205C1869.34 602.007 1869.14 601.848 1868.91 601.738C1868.69 601.628 1868.44 601.571 1868.19 601.57C1867.3 601.41 1866.78 601.92 1866.41 602.73C1865.68 604.9 1869.31 605.94 1869.8 603.62Z" fill="black" fill-opacity="0.27"/>
<path d="M1894.36 611.27C1894.46 611.549 1894.59 611.812 1894.77 612.05C1894.99 612.101 1895.22 612.071 1895.42 611.964C1895.62 611.857 1895.78 611.682 1895.86 611.47C1895.87 611.281 1895.8 611.096 1895.68 610.951C1895.56 610.806 1895.39 610.712 1895.2 610.687C1895.01 610.662 1894.82 610.708 1894.67 610.816C1894.51 610.924 1894.4 611.086 1894.36 611.27Z" fill="black" fill-opacity="0.27"/>
<path d="M1826.88 591.09C1826.93 591.123 1826.97 591.169 1827 591.223C1827.03 591.277 1827.05 591.338 1827.05 591.4C1827.52 591.6 1827.84 591.51 1827.95 591.02C1827.95 590.944 1827.94 590.867 1827.91 590.796C1827.89 590.725 1827.84 590.66 1827.79 590.607C1827.74 590.553 1827.67 590.511 1827.6 590.485C1827.53 590.458 1827.45 590.447 1827.38 590.452C1827.3 590.457 1827.22 590.478 1827.16 590.514C1827.09 590.549 1827.03 590.599 1826.98 590.659C1826.94 590.72 1826.9 590.789 1826.89 590.864C1826.87 590.938 1826.87 591.015 1826.88 591.09Z" fill="black" fill-opacity="0.27"/>
<path d="M1841.46 595.09C1841.46 595.014 1841.45 594.938 1841.42 594.866C1841.4 594.795 1841.35 594.73 1841.3 594.677C1841.25 594.623 1841.18 594.582 1841.11 594.555C1841.04 594.528 1840.96 594.517 1840.89 594.522C1840.81 594.527 1840.74 594.548 1840.67 594.584C1840.6 594.62 1840.54 594.669 1840.49 594.73C1840.45 594.79 1840.41 594.859 1840.4 594.934C1840.38 595.008 1840.38 595.085 1840.39 595.16C1840.44 595.193 1840.48 595.239 1840.51 595.293C1840.54 595.348 1840.56 595.408 1840.56 595.47C1841.04 595.67 1841.35 595.58 1841.46 595.09Z" fill="black" fill-opacity="0.27"/>
<path d="M1855.11 599.19C1855.11 599.12 1855.09 599.052 1855.06 598.99C1855.03 598.927 1854.98 598.871 1854.93 598.825C1854.88 598.779 1854.82 598.744 1854.75 598.722C1854.68 598.7 1854.61 598.69 1854.54 598.695C1854.48 598.7 1854.41 598.718 1854.34 598.749C1854.28 598.78 1854.23 598.822 1854.18 598.875C1854.13 598.927 1854.1 598.988 1854.08 599.054C1854.05 599.121 1854.05 599.19 1854.05 599.26C1854.1 599.295 1854.14 599.342 1854.17 599.396C1854.2 599.449 1854.21 599.509 1854.21 599.57C1854.66 599.77 1854.98 599.68 1855.11 599.19Z" fill="black" fill-opacity="0.27"/>
<path d="M1913.81 630.69C1913.34 631.654 1913.18 632.742 1913.36 633.802C1913.54 634.861 1914.04 635.836 1914.81 636.59C1915.18 636.754 1915.52 636.985 1915.81 637.27C1916.77 637.742 1917.86 637.899 1918.92 637.719C1919.98 637.54 1920.95 637.033 1921.71 636.27C1921.87 635.897 1922.1 635.557 1922.39 635.27C1922.86 634.305 1923.02 633.217 1922.84 632.159C1922.66 631.101 1922.15 630.125 1921.39 629.37C1920.57 628.769 1919.63 628.353 1918.63 628.15C1918.56 628.15 1918.49 628.15 1918.48 628.23L1918.24 628.16C1917.37 628.17 1916.52 628.357 1915.73 628.71C1914.99 629.261 1914.34 629.93 1913.81 630.69Z" fill="black" fill-opacity="0.27"/>
<path d="M1891.88 621.22C1891.81 621.22 1891.74 621.22 1891.73 621.3C1890.37 620.89 1889.6 621.57 1888.66 621.95C1888.13 622.535 1887.71 623.213 1887.42 623.95C1887.23 624.672 1887.26 625.435 1887.5 626.141C1887.75 626.846 1888.2 627.462 1888.8 627.909C1889.4 628.357 1890.12 628.615 1890.86 628.652C1891.61 628.688 1892.35 628.501 1892.99 628.114C1893.63 627.727 1894.14 627.158 1894.45 626.48C1894.76 625.802 1894.87 625.046 1894.75 624.308C1894.63 623.571 1894.29 622.886 1893.78 622.341C1893.27 621.796 1892.61 621.416 1891.88 621.25V621.22Z" fill="black" fill-opacity="0.27"/>
<path d="M1904.88 625.26C1903.94 625.149 1903 625.372 1902.21 625.89C1901.9 626.37 1901.51 626.7 1901.21 627.15C1900.21 630.04 1901.21 631.9 1904.1 632.71C1904.6 632.793 1905.12 632.775 1905.61 632.655C1906.11 632.536 1906.57 632.318 1906.98 632.015C1907.39 631.712 1907.74 631.33 1907.99 630.891C1908.25 630.452 1908.42 629.966 1908.49 629.461C1908.55 628.957 1908.52 628.443 1908.38 627.952C1908.25 627.461 1908.02 627.003 1907.7 626.603C1907.38 626.204 1906.99 625.872 1906.54 625.628C1906.1 625.383 1905.61 625.231 1905.1 625.18C1904.96 625.16 1904.89 625.15 1904.88 625.26Z" fill="black" fill-opacity="0.27"/>
<path d="M1877.89 618.31C1877.82 618.31 1877.74 618.31 1877.74 618.4C1877.21 618.3 1876.67 618.391 1876.21 618.657C1875.74 618.923 1875.39 619.346 1875.21 619.85C1874.97 620.469 1874.99 621.158 1875.26 621.765C1875.53 622.371 1876.03 622.846 1876.64 623.085C1877.26 623.324 1877.95 623.307 1878.56 623.038C1879.17 622.768 1879.64 622.269 1879.88 621.65C1880.11 620.949 1880.06 620.185 1879.74 619.52C1879.29 618.904 1878.63 618.473 1877.89 618.31Z" fill="black" fill-opacity="0.27"/>
<path d="M1838.11 608.82C1838.15 608.512 1838.08 608.2 1837.91 607.942C1837.73 607.684 1837.47 607.5 1837.17 607.424C1836.87 607.349 1836.55 607.387 1836.27 607.532C1836 607.677 1835.79 607.919 1835.68 608.21C1835.6 608.555 1835.67 608.915 1835.85 609.214C1836.04 609.513 1836.34 609.727 1836.68 609.81C1837 609.831 1837.31 609.744 1837.57 609.564C1837.83 609.384 1838.02 609.122 1838.11 608.82Z" fill="black" fill-opacity="0.27"/>
<path d="M1863.77 617.58C1863.89 617.608 1864.01 617.612 1864.13 617.592C1864.26 617.572 1864.37 617.528 1864.48 617.463C1864.58 617.398 1864.67 617.313 1864.74 617.213C1864.81 617.113 1864.86 617 1864.89 616.88C1864.91 616.766 1864.9 616.649 1864.88 616.537C1864.85 616.424 1864.8 616.319 1864.73 616.225C1864.66 616.132 1864.58 616.053 1864.48 615.993C1864.38 615.933 1864.27 615.893 1864.15 615.875C1864.04 615.857 1863.92 615.862 1863.81 615.889C1863.7 615.917 1863.59 615.966 1863.5 616.034C1863.41 616.103 1863.33 616.188 1863.27 616.287C1863.21 616.386 1863.17 616.496 1863.15 616.61C1863.14 616.816 1863.2 617.019 1863.31 617.193C1863.42 617.367 1863.58 617.502 1863.77 617.58Z" fill="black" fill-opacity="0.27"/>
<path d="M1851.02 612.7C1851.02 612.63 1851 612.562 1850.97 612.5C1850.94 612.437 1850.89 612.381 1850.84 612.336C1850.79 612.29 1850.73 612.254 1850.66 612.232C1850.59 612.21 1850.52 612.2 1850.46 612.205C1850.39 612.21 1850.32 612.228 1850.25 612.259C1850.19 612.29 1850.14 612.333 1850.09 612.385C1850.04 612.437 1850.01 612.498 1849.99 612.565C1849.96 612.631 1849.96 612.7 1849.96 612.77C1850.08 612.84 1850.1 612.96 1850.13 613.09C1850.6 613.28 1850.92 613.19 1851.02 612.7Z" fill="black" fill-opacity="0.27"/>
<path d="M1910.19 644.86C1910.09 645.22 1909.98 645.58 1909.87 645.93C1909.73 647.022 1910.03 648.124 1910.69 649.004C1911.35 649.885 1912.32 650.475 1913.41 650.65C1913.74 650.615 1914.08 650.632 1914.41 650.7C1915.32 650.563 1916.17 650.143 1916.83 649.499C1917.5 648.855 1917.94 648.019 1918.1 647.11C1918.15 646.452 1918.07 645.789 1917.85 645.165C1917.64 644.54 1917.3 643.967 1916.85 643.48C1916.21 642.991 1915.47 642.65 1914.68 642.48C1914.61 642.48 1914.54 642.48 1914.53 642.56C1912.48 642.15 1911.16 643.17 1910.19 644.86Z" fill="black" fill-opacity="0.27"/>
<path d="M1900 646.22C1900.5 646.303 1901.02 646.284 1901.51 646.165C1902.01 646.046 1902.47 645.828 1902.88 645.525C1903.29 645.222 1903.64 644.84 1903.89 644.401C1904.15 643.962 1904.32 643.476 1904.39 642.971C1904.45 642.466 1904.42 641.953 1904.28 641.462C1904.15 640.971 1903.92 640.512 1903.6 640.113C1903.28 639.714 1902.89 639.382 1902.44 639.137C1902 638.893 1901.51 638.741 1901 638.69C1900.92 638.69 1900.85 638.69 1900.84 638.77C1899.7 638.51 1899 639.07 1898.17 639.41C1897.86 639.88 1897.47 640.21 1897.17 640.66C1896.11 643.55 1897.11 645.4 1900 646.22Z" fill="black" fill-opacity="0.27"/>
<path d="M1885.67 641C1886.36 641.324 1887.16 641.369 1887.88 641.127C1888.61 640.886 1889.22 640.375 1889.58 639.7C1889.69 639.34 1889.79 638.98 1889.9 638.62C1889.92 638.042 1889.79 637.469 1889.5 636.966C1889.21 636.464 1888.79 636.053 1888.28 635.78L1887.2 635.46C1887.13 635.46 1887.06 635.46 1887.05 635.54C1886.5 635.497 1885.95 635.621 1885.47 635.896C1884.99 636.171 1884.61 636.583 1884.37 637.08L1884.04 638.16C1884.01 638.74 1884.14 639.318 1884.43 639.822C1884.72 640.326 1885.15 640.735 1885.67 641Z" fill="black" fill-opacity="0.27"/>
<path d="M1873.47 636.02C1873.91 635.987 1874.32 635.796 1874.64 635.481C1874.95 635.167 1875.13 634.751 1875.16 634.31C1875.06 633.904 1874.92 633.512 1874.73 633.14C1874.34 632.97 1873.73 632.55 1873.3 632.71C1873.08 632.704 1872.87 632.754 1872.68 632.856C1872.49 632.958 1872.33 633.107 1872.21 633.29C1872.21 633.36 1872.15 633.43 1872.05 633.38C1871.5 634.81 1871.97 635.69 1873.47 636.02Z" fill="black" fill-opacity="0.27"/>
<path d="M1833.88 622.02C1833.78 621.741 1833.64 621.478 1833.46 621.24C1833.23 621.24 1832.8 620.88 1832.71 621.14C1832.15 621.05 1831.9 621.51 1831.71 622.14C1831.72 622.282 1831.75 622.422 1831.82 622.551C1831.88 622.679 1831.96 622.794 1832.07 622.89C1832.18 622.985 1832.3 623.058 1832.44 623.105C1832.57 623.153 1832.71 623.173 1832.85 623.165C1833 623.157 1833.14 623.121 1833.27 623.059C1833.39 622.998 1833.51 622.911 1833.6 622.805C1833.7 622.698 1833.77 622.574 1833.82 622.44C1833.87 622.305 1833.89 622.162 1833.88 622.02Z" fill="black" fill-opacity="0.27"/>
<path d="M1845.89 626.28C1845.94 626.314 1845.99 626.362 1846.02 626.418C1846.05 626.474 1846.06 626.537 1846.06 626.6C1846.53 626.79 1846.85 626.7 1846.96 626.22C1846.97 626.144 1846.95 626.067 1846.93 625.995C1846.9 625.924 1846.86 625.858 1846.81 625.804C1846.75 625.749 1846.69 625.707 1846.62 625.679C1846.54 625.652 1846.47 625.64 1846.39 625.644C1846.31 625.648 1846.24 625.669 1846.17 625.704C1846.1 625.74 1846.04 625.789 1846 625.849C1845.95 625.909 1845.92 625.979 1845.9 626.053C1845.88 626.127 1845.88 626.205 1845.89 626.28Z" fill="black" fill-opacity="0.27"/>
<path d="M1859.4 630.4C1859.45 630.433 1859.49 630.479 1859.52 630.533C1859.55 630.588 1859.57 630.648 1859.57 630.71C1860.04 630.91 1860.36 630.82 1860.47 630.33C1860.47 630.254 1860.46 630.178 1860.43 630.106C1860.41 630.035 1860.36 629.97 1860.31 629.917C1860.26 629.863 1860.19 629.822 1860.12 629.795C1860.05 629.768 1859.97 629.757 1859.9 629.762C1859.82 629.767 1859.74 629.788 1859.68 629.824C1859.61 629.86 1859.55 629.909 1859.5 629.97C1859.46 630.03 1859.42 630.099 1859.41 630.174C1859.39 630.248 1859.39 630.325 1859.4 630.4Z" fill="black" fill-opacity="0.27"/>
<path d="M1910.24 665.08C1910.91 664.91 1911.56 664.69 1912.24 664.51C1912.76 664.05 1913.31 663.63 1913.82 663.16C1914.56 662.103 1914.88 660.804 1914.72 659.522C1914.55 658.24 1913.9 657.069 1912.91 656.24C1912.23 655.825 1911.48 655.512 1910.71 655.31C1910.63 655.31 1910.56 655.31 1910.55 655.39C1909.28 655.02 1908.55 655.62 1907.55 655.8C1906.92 656.197 1906.37 656.715 1905.94 657.325C1905.52 657.934 1905.21 658.622 1905.05 659.35C1905.07 659.736 1905.04 660.122 1904.96 660.5C1905.13 661.17 1905.36 661.82 1905.54 662.5C1906 663.02 1906.41 663.57 1906.89 664.08C1907.89 664.713 1909.05 665.058 1910.24 665.08Z" fill="black" fill-opacity="0.27"/>
<path d="M1871.32 648.8C1871.48 648.489 1871.55 648.143 1871.53 647.796C1871.51 647.448 1871.41 647.112 1871.22 646.819C1871.03 646.526 1870.77 646.287 1870.46 646.126C1870.15 645.965 1869.81 645.887 1869.46 645.9C1869.03 645.852 1868.6 645.943 1868.23 646.16C1867.86 646.376 1867.57 646.705 1867.4 647.1C1867.27 647.407 1867.21 647.742 1867.23 648.076C1867.24 648.41 1867.34 648.736 1867.51 649.027C1867.67 649.318 1867.9 649.566 1868.18 649.753C1868.46 649.939 1868.78 650.058 1869.11 650.1C1869.56 650.122 1870.02 650.011 1870.41 649.78C1870.8 649.549 1871.12 649.208 1871.32 648.8Z" fill="black" fill-opacity="0.27"/>
<path d="M1857.27 645.23C1857.33 645.09 1857.35 644.88 1857.5 644.9C1857.76 644.461 1857.86 643.941 1857.77 643.435C1857.69 642.93 1857.42 642.474 1857.02 642.15C1856.57 642.06 1856.02 641.73 1855.67 641.88C1855.43 641.888 1855.19 641.953 1854.97 642.069C1854.76 642.185 1854.57 642.35 1854.43 642.55C1854.43 642.62 1854.37 642.68 1854.27 642.63C1853.4 644.46 1854.49 645.63 1856.34 645.73C1856.61 645.495 1856.93 645.324 1857.27 645.23Z" fill="black" fill-opacity="0.27"/>
<path d="M1842.39 641.4C1842.83 641.365 1843.24 641.173 1843.55 640.858C1843.86 640.544 1844.04 640.13 1844.07 639.69C1843.97 639.284 1843.83 638.891 1843.64 638.52C1843.25 638.34 1842.64 637.92 1842.21 638.08C1841.99 638.076 1841.78 638.128 1841.59 638.232C1841.4 638.335 1841.24 638.486 1841.12 638.67C1841.12 638.74 1841.06 638.8 1840.96 638.75C1840.41 640.19 1840.88 641.07 1842.39 641.4Z" fill="black" fill-opacity="0.27"/>
<path d="M1894.71 655.58C1893.97 657.75 1897.61 658.8 1898.09 656.47C1898.15 656.227 1898.16 655.973 1898.1 655.728C1898.05 655.483 1897.94 655.252 1897.79 655.055C1897.64 654.857 1897.44 654.697 1897.21 654.587C1896.99 654.477 1896.74 654.42 1896.49 654.42C1895.6 654.26 1895.11 654.78 1894.71 655.58Z" fill="black" fill-opacity="0.27"/>
<path d="M1881.32 651.55C1881.23 651.981 1881.3 652.43 1881.52 652.81C1881.75 653.191 1882.1 653.476 1882.52 653.61C1882.94 653.657 1883.36 653.559 1883.71 653.333C1884.06 653.108 1884.33 652.767 1884.46 652.37C1884.52 651.97 1884.44 651.559 1884.22 651.22C1884 650.88 1883.66 650.635 1883.26 650.532C1882.87 650.43 1882.45 650.477 1882.09 650.666C1881.74 650.854 1881.46 651.169 1881.32 651.55Z" fill="black" fill-opacity="0.27"/>
<path d="M1814.68 631.62C1814.73 631.653 1814.77 631.699 1814.8 631.753C1814.83 631.808 1814.85 631.868 1814.85 631.93C1815.32 632.13 1815.64 632.04 1815.75 631.55C1815.75 631.474 1815.74 631.397 1815.71 631.326C1815.69 631.255 1815.64 631.19 1815.59 631.137C1815.54 631.083 1815.47 631.041 1815.4 631.015C1815.33 630.988 1815.25 630.977 1815.18 630.982C1815.1 630.987 1815.03 631.008 1814.96 631.044C1814.89 631.08 1814.83 631.129 1814.78 631.19C1814.74 631.25 1814.7 631.319 1814.69 631.394C1814.67 631.468 1814.67 631.545 1814.68 631.62Z" fill="black" fill-opacity="0.27"/>
<path d="M1910.54 674.04C1910.38 671.68 1909.54 669.7 1906.32 668.99C1906.24 668.99 1906.17 668.99 1906.16 669.07L1905.93 669C1903.63 669.14 1901.8 670.16 1901.11 673.29C1901.1 674.185 1901.32 675.068 1901.75 675.856C1902.17 676.644 1902.79 677.313 1903.54 677.8L1905.45 678.38C1907.84 678.23 1909.83 677.33 1910.54 674.04Z" fill="black" fill-opacity="0.27"/>
<path d="M1878.11 668.32C1878.48 668.413 1878.86 668.432 1879.23 668.378C1879.6 668.323 1879.96 668.196 1880.29 668.003C1880.61 667.81 1880.89 667.554 1881.12 667.252C1881.34 666.95 1881.51 666.606 1881.6 666.24C1881.69 665.874 1881.71 665.494 1881.66 665.12C1881.6 664.747 1881.48 664.388 1881.28 664.064C1881.09 663.74 1880.83 663.457 1880.53 663.232C1880.23 663.006 1879.89 662.843 1879.52 662.75C1879.34 662.75 1879.09 662.57 1879.01 662.75C1878.38 662.68 1877.75 662.809 1877.2 663.12C1876.78 663.64 1876.2 663.92 1876.03 664.85C1875.94 665.214 1875.92 665.594 1875.97 665.967C1876.02 666.339 1876.15 666.697 1876.34 667.02C1876.54 667.343 1876.79 667.624 1877.1 667.847C1877.4 668.07 1877.74 668.231 1878.11 668.32Z" fill="black" fill-opacity="0.27"/>
<path d="M1917.11 676.02C1916.7 676.613 1916.54 677.34 1916.65 678.051C1916.76 678.762 1917.14 679.403 1917.71 679.842C1918.28 680.281 1919 680.484 1919.72 680.409C1920.43 680.334 1921.09 679.987 1921.56 679.44C1921.89 678.852 1922.09 678.201 1922.14 677.53C1921.86 676.48 1921.22 675.09 1919.61 675.08C1918.46 674.79 1917.84 675.51 1917.11 676.02Z" fill="black" fill-opacity="0.27"/>
<path d="M1890.64 671.7C1891.21 672.106 1891.91 672.287 1892.61 672.208C1893.31 672.129 1893.95 671.795 1894.42 671.27C1894.48 671.14 1894.5 670.93 1894.64 670.95C1894.95 670.321 1895.03 669.598 1894.84 668.919C1894.66 668.24 1894.23 667.653 1893.64 667.27L1892.56 666.94C1892.49 666.94 1892.41 666.94 1892.41 667.03C1891.41 666.84 1890.82 667.44 1890.18 667.92C1889.82 668.494 1889.62 669.153 1889.61 669.83C1889.71 670.558 1890.08 671.224 1890.64 671.7Z" fill="black" fill-opacity="0.27"/>
<path d="M1864.01 663.55C1864.57 663.859 1865.23 663.948 1865.85 663.801C1866.48 663.653 1867.03 663.278 1867.39 662.75C1868.1 660.75 1867.49 659.55 1865.5 659.05C1865.42 659.05 1865.35 659.05 1865.34 659.13C1864.34 658.94 1863.78 659.58 1863.2 660.13C1862.88 660.696 1862.78 661.365 1862.93 662C1863.08 662.635 1863.47 663.189 1864.01 663.55Z" fill="black" fill-opacity="0.27"/>
<path d="M1853.49 657.78C1853.55 657.537 1853.56 657.283 1853.5 657.038C1853.45 656.793 1853.34 656.562 1853.19 656.365C1853.04 656.167 1852.84 656.007 1852.61 655.897C1852.39 655.787 1852.14 655.73 1851.89 655.73C1851 655.57 1850.48 656.08 1850.11 656.89C1849.37 659.05 1853.01 660.1 1853.49 657.78Z" fill="black" fill-opacity="0.27"/>
<path d="M1839.59 653.73C1839.7 653.349 1839.66 652.941 1839.47 652.592C1839.28 652.243 1838.97 651.98 1838.59 651.86C1838.45 651.86 1838.26 651.73 1838.2 651.86C1837.88 651.818 1837.55 651.897 1837.28 652.081C1837 652.265 1836.81 652.542 1836.73 652.86C1836.11 654.68 1839.11 655.59 1839.59 653.73Z" fill="black" fill-opacity="0.27"/>
<path d="M1810.26 645.02C1810.24 645.231 1810.3 645.441 1810.41 645.621C1810.52 645.8 1810.68 645.94 1810.88 646.02C1811 646.048 1811.12 646.052 1811.25 646.031C1811.37 646.01 1811.48 645.966 1811.59 645.9C1811.69 645.834 1811.78 645.747 1811.85 645.646C1811.92 645.545 1811.97 645.431 1812 645.31C1812.04 645.079 1811.98 644.843 1811.85 644.652C1811.71 644.462 1811.51 644.333 1811.28 644.295C1811.04 644.257 1810.81 644.311 1810.62 644.447C1810.43 644.583 1810.3 644.789 1810.26 645.02Z" fill="black" fill-opacity="0.27"/>
<path d="M1913.77 696.66C1917.07 697.27 1919.38 696.04 1920.65 692.86C1920.65 692.78 1920.65 692.7 1920.72 692.62C1921.23 689.27 1919.99 686.87 1916.41 685.72C1916.31 685.72 1916.17 685.65 1916.14 685.77C1914.76 685.523 1913.34 685.79 1912.14 686.52C1911.11 687.314 1910.33 688.391 1909.9 689.62C1909.2 693.03 1910.45 695.4 1913.77 696.66Z" fill="black" fill-opacity="0.27"/>
<path d="M1905.45 689.2C1905.62 688.64 1905.79 688.08 1905.95 687.53C1905.82 685.43 1905.07 683.66 1902.23 683.01C1902.15 683.01 1902.08 683.01 1902.07 683.1L1901.83 683.02C1901.07 683.034 1900.33 683.236 1899.68 683.608C1899.02 683.98 1898.46 684.51 1898.06 685.15C1897.9 685.71 1897.73 686.27 1897.56 686.82C1897.7 688.95 1898.47 690.75 1901.41 691.37C1902.21 691.381 1903 691.187 1903.71 690.807C1904.42 690.428 1905.02 689.875 1905.45 689.2Z" fill="black" fill-opacity="0.27"/>
<path d="M1888.27 681.29C1887.89 681.253 1887.5 681.347 1887.18 681.558C1886.85 681.769 1886.61 682.083 1886.49 682.45C1885.8 684.15 1887.73 685.45 1889.17 684.82C1889.5 684.38 1889.98 684.22 1890.11 683.41C1890.11 682.999 1890.06 682.59 1889.96 682.19C1889.58 681.85 1889.03 681.08 1888.27 681.29Z" fill="black" fill-opacity="0.27"/>
<path d="M1876.59 678.95C1876.49 678.419 1876.22 677.931 1875.84 677.55C1875.45 677.55 1874.84 677.08 1874.61 677.31C1873.96 677.16 1873.66 677.66 1873.24 677.94C1871.58 680.71 1876.45 682.18 1876.59 678.95Z" fill="black" fill-opacity="0.27"/>
<path d="M1808.11 658.6C1808.01 658.32 1807.87 658.057 1807.69 657.82C1807.46 657.82 1807.03 657.47 1806.94 657.72C1806.38 657.63 1806.13 658.09 1805.94 658.72C1805.95 658.862 1805.98 659.002 1806.05 659.131C1806.11 659.259 1806.19 659.374 1806.3 659.47C1806.41 659.565 1806.53 659.638 1806.67 659.685C1806.8 659.733 1806.94 659.753 1807.08 659.745C1807.23 659.737 1807.37 659.701 1807.5 659.639C1807.62 659.578 1807.74 659.491 1807.83 659.385C1807.93 659.278 1808 659.154 1808.05 659.02C1808.1 658.885 1808.12 658.742 1808.11 658.6Z" fill="black" fill-opacity="0.27"/>
<path d="M1929.94 707.92C1929.64 706.813 1929.1 705.787 1928.35 704.92C1928.27 704.87 1928.12 704.85 1928.15 704.73C1927.38 704.206 1926.53 703.817 1925.63 703.58C1925.55 703.58 1925.48 703.58 1925.47 703.66L1925.23 703.59C1923.93 703.394 1922.6 703.722 1921.53 704.501C1920.47 705.28 1919.76 706.448 1919.55 707.75C1919.49 708.285 1919.47 708.823 1919.49 709.36H1929.91C1929.94 708.89 1929.93 708.4 1929.94 707.92Z" fill="black" fill-opacity="0.27"/>
<path d="M1916.02 706.07C1916.04 705.565 1916.1 705.063 1916.21 704.57C1916.02 703.06 1915.27 701.674 1914.12 700.68C1913.55 700.45 1913.06 700.18 1912.52 699.93C1912.45 699.93 1912.37 699.93 1912.37 700.02C1911.21 699.55 1910.55 700.02 1909.64 700.02C1908.71 700.491 1907.86 701.117 1907.13 701.87C1906.9 702.44 1906.63 702.94 1906.38 703.47C1906.07 704.681 1906.22 705.963 1906.8 707.069C1907.38 708.176 1908.35 709.031 1909.52 709.47H1912.85C1913.6 709.184 1914.28 708.729 1914.83 708.139C1915.38 707.55 1915.79 706.842 1916.02 706.07Z" fill="black" fill-opacity="0.27"/>
<path d="M1897.82 698.51C1897.34 698.449 1896.86 698.556 1896.45 698.813C1896.04 699.07 1895.73 699.462 1895.58 699.92C1895.47 700.209 1895.42 700.517 1895.44 700.825C1895.45 701.133 1895.53 701.435 1895.67 701.711C1895.81 701.988 1896 702.233 1896.23 702.432C1896.47 702.631 1896.74 702.78 1897.04 702.869C1897.33 702.957 1897.65 702.984 1897.95 702.948C1898.26 702.911 1898.55 702.812 1898.82 702.657C1899.09 702.501 1899.32 702.292 1899.5 702.044C1899.68 701.795 1899.81 701.511 1899.88 701.21C1899.95 700.901 1899.96 700.58 1899.9 700.268C1899.84 699.956 1899.72 699.66 1899.54 699.397C1899.36 699.135 1899.13 698.913 1898.86 698.744C1898.6 698.576 1898.29 698.466 1897.98 698.42C1897.91 698.4 1897.83 698.4 1897.82 698.51Z" fill="black" fill-opacity="0.27"/>
<path d="M1883.11 696.4C1883.08 696.549 1883.07 696.703 1883.1 696.854C1883.12 697.004 1883.18 697.148 1883.27 697.275C1883.35 697.403 1883.46 697.513 1883.58 697.598C1883.71 697.682 1883.86 697.74 1884.01 697.768C1884.16 697.796 1884.31 697.793 1884.46 697.759C1884.61 697.725 1884.75 697.662 1884.87 697.572C1885 697.483 1885.1 697.369 1885.18 697.238C1885.26 697.107 1885.31 696.961 1885.33 696.81C1885.63 695.5 1883.32 694.88 1883.11 696.4Z" fill="black" fill-opacity="0.27"/>
<path d="M1844.4 684.51C1844.4 684.322 1844.34 684.139 1844.22 683.997C1844.09 683.854 1843.92 683.762 1843.74 683.738C1843.55 683.715 1843.36 683.761 1843.21 683.869C1843.05 683.976 1842.94 684.137 1842.9 684.32C1843 684.598 1843.14 684.86 1843.31 685.1C1843.53 685.139 1843.76 685.101 1843.96 684.994C1844.16 684.887 1844.31 684.717 1844.4 684.51Z" fill="black" fill-opacity="0.27"/>
<path d="M1857.91 688.58C1857.91 688.392 1857.85 688.209 1857.73 688.066C1857.6 687.924 1857.43 687.832 1857.25 687.808C1857.06 687.785 1856.87 687.831 1856.72 687.938C1856.56 688.046 1856.45 688.207 1856.41 688.39C1856.51 688.665 1856.65 688.925 1856.82 689.16C1857.04 689.213 1857.27 689.184 1857.48 689.077C1857.68 688.97 1857.83 688.793 1857.91 688.58Z" fill="black" fill-opacity="0.27"/>
<path d="M1852.37 704.4C1853 704.556 1853.67 704.471 1854.25 704.16C1854.82 703.85 1855.26 703.336 1855.48 702.72C1855.63 701.907 1855.46 701.068 1855.02 700.37C1854.54 700.19 1854.02 699.48 1853.54 699.66C1852.12 699.32 1851.3 700.1 1850.7 701.28C1850.54 701.914 1850.63 702.584 1850.94 703.16C1851.25 703.735 1851.76 704.177 1852.37 704.4Z" fill="black" fill-opacity="0.27"/>
<path d="M1865.11 708.08C1865.64 708.364 1866.26 708.448 1866.85 708.316C1867.44 708.185 1867.96 707.848 1868.32 707.365C1868.69 706.882 1868.86 706.285 1868.82 705.683C1868.78 705.081 1868.53 704.512 1868.11 704.08C1867.67 703.735 1867.12 703.567 1866.56 703.61C1866.15 703.609 1865.74 703.703 1865.37 703.885C1865 704.067 1864.67 704.332 1864.42 704.66C1863.73 706.27 1864.11 707.32 1865.11 708.08Z" fill="black" fill-opacity="0.27"/>
<path d="M1880.35 708.9L1879.88 708.75C1879.66 708.955 1879.39 709.099 1879.1 709.17C1879.06 709.243 1879.02 709.32 1878.99 709.4H1881.17C1880.96 709.09 1880.7 708.8 1880.35 708.9Z" fill="black" fill-opacity="0.27"/>
<path d="M1839.33 698.76C1839.45 698.79 1839.58 698.795 1839.7 698.776C1839.82 698.756 1839.94 698.713 1840.04 698.648C1840.15 698.582 1840.24 698.497 1840.31 698.396C1840.38 698.295 1840.43 698.181 1840.46 698.06C1840.47 697.84 1840.4 697.624 1840.26 697.453C1840.12 697.282 1839.92 697.169 1839.71 697.135C1839.49 697.102 1839.27 697.15 1839.08 697.271C1838.9 697.392 1838.77 697.577 1838.71 697.79C1838.7 697.996 1838.76 698.2 1838.87 698.373C1838.98 698.547 1839.14 698.682 1839.33 698.76Z" fill="black" fill-opacity="0.27"/>
<path d="M1812.95 689.78C1812.94 689.64 1812.88 689.508 1812.77 689.416C1812.66 689.323 1812.53 689.276 1812.38 689.285C1812.24 689.294 1812.11 689.359 1812.02 689.465C1811.93 689.571 1811.88 689.71 1811.89 689.85C1811.94 689.883 1811.98 689.929 1812.01 689.983C1812.04 690.038 1812.06 690.098 1812.06 690.16C1812.53 690.4 1812.85 690.27 1812.95 689.78Z" fill="black" fill-opacity="0.27"/>
<path d="M1807.5 703.13C1807.48 703.341 1807.54 703.551 1807.65 703.731C1807.76 703.911 1807.92 704.05 1808.12 704.13C1808.36 704.187 1808.62 704.145 1808.83 704.014C1809.04 703.883 1809.19 703.673 1809.25 703.43C1809.27 703.206 1809.21 702.982 1809.07 702.803C1808.94 702.624 1808.74 702.503 1808.51 702.465C1808.29 702.427 1808.06 702.474 1807.88 702.598C1807.69 702.721 1807.55 702.911 1807.5 703.13Z" fill="black" fill-opacity="0.27"/>
</g>
</g>
<defs>
<clipPath id="clip0_536_571">
<rect width="1922" height="873" fill="white"/>
</clipPath>
<clipPath id="clip1_536_571">
<rect width="431.64" height="132.4" fill="white" transform="translate(1806 577)"/>
</clipPath>
<clipPath id="clip2_536_571">
<rect width="431.64" height="132.4" fill="white" transform="translate(1806 577)"/>
</clipPath>
</defs>
</svg>
