<svg width="2048" height="461" viewBox="0 0 2048 461" fill="none" xmlns="http://www.w3.org/2000/svg">
<ellipse rx="9.54942" ry="8.48837" transform="matrix(4.37114e-08 1 1 -4.37114e-08 1919.16 15.9156)" fill="black" fill-opacity="0.1"/>
<ellipse rx="9.54942" ry="8.48837" transform="matrix(4.37114e-08 1 1 -4.37114e-08 1919.16 45.6251)" fill="black" fill-opacity="0.1"/>
<ellipse rx="9.54942" ry="8.48837" transform="matrix(4.37114e-08 1 1 -4.37114e-08 1891.57 15.9156)" fill="black" fill-opacity="0.1"/>
<ellipse rx="9.54942" ry="8.48837" transform="matrix(4.37114e-08 1 1 -4.37114e-08 1891.57 45.6251)" fill="black" fill-opacity="0.1"/>
<ellipse rx="9.54942" ry="8.48837" transform="matrix(4.37114e-08 1 1 -4.37114e-08 1919.16 75.3343)" fill="black" fill-opacity="0.1"/>
<ellipse rx="9.54942" ry="8.48837" transform="matrix(4.37114e-08 1 1 -4.37114e-08 1891.57 75.3343)" fill="black" fill-opacity="0.1"/>
<ellipse rx="9.54942" ry="8.48837" transform="matrix(4.37114e-08 1 1 -4.37114e-08 1863.98 105.044)" fill="black" fill-opacity="0.1"/>
<ellipse rx="9.54942" ry="8.48837" transform="matrix(4.37114e-08 1 1 -4.37114e-08 1863.98 134.753)" fill="black" fill-opacity="0.1"/>
<ellipse rx="9.54942" ry="8.48837" transform="matrix(4.37114e-08 1 1 -4.37114e-08 1836.4 105.044)" fill="black" fill-opacity="0.1"/>
<ellipse rx="9.54942" ry="8.48837" transform="matrix(4.37114e-08 1 1 -4.37114e-08 1836.4 134.753)" fill="black" fill-opacity="0.1"/>
<ellipse rx="9.54942" ry="8.48837" transform="matrix(4.37114e-08 1 1 -4.37114e-08 1863.98 164.462)" fill="black" fill-opacity="0.1"/>
<ellipse rx="9.54942" ry="8.48837" transform="matrix(4.37114e-08 1 1 -4.37114e-08 1836.4 164.462)" fill="black" fill-opacity="0.1"/>
<ellipse rx="9.54942" ry="8.48837" transform="matrix(4.37114e-08 1 1 -4.37114e-08 1919.16 194.171)" fill="black" fill-opacity="0.1"/>
<ellipse rx="9.54942" ry="8.48837" transform="matrix(4.37114e-08 1 1 -4.37114e-08 1919.16 223.881)" fill="black" fill-opacity="0.1"/>
<ellipse rx="9.54942" ry="8.48837" transform="matrix(4.37114e-08 1 1 -4.37114e-08 1891.57 194.171)" fill="black" fill-opacity="0.1"/>
<ellipse rx="9.54942" ry="8.48837" transform="matrix(4.37114e-08 1 1 -4.37114e-08 1891.57 223.881)" fill="black" fill-opacity="0.1"/>
<ellipse rx="9.54942" ry="8.48837" transform="matrix(4.37114e-08 1 1 -4.37114e-08 1919.16 253.59)" fill="black" fill-opacity="0.1"/>
<ellipse rx="9.54942" ry="8.48837" transform="matrix(4.37114e-08 1 1 -4.37114e-08 1891.57 253.59)" fill="black" fill-opacity="0.1"/>
<ellipse rx="9.54942" ry="8.48837" transform="matrix(4.37114e-08 1 1 -4.37114e-08 1863.98 194.171)" fill="black" fill-opacity="0.1"/>
<ellipse rx="9.54942" ry="8.48837" transform="matrix(4.37114e-08 1 1 -4.37114e-08 1863.98 223.881)" fill="black" fill-opacity="0.1"/>
<ellipse rx="9.54942" ry="8.48837" transform="matrix(4.37114e-08 1 1 -4.37114e-08 1836.4 194.171)" fill="black" fill-opacity="0.1"/>
<ellipse rx="9.54942" ry="8.48837" transform="matrix(4.37114e-08 1 1 -4.37114e-08 1836.4 223.881)" fill="black" fill-opacity="0.1"/>
<ellipse rx="9.54942" ry="8.48837" transform="matrix(4.37114e-08 1 1 -4.37114e-08 1863.98 253.59)" fill="black" fill-opacity="0.1"/>
<ellipse rx="9.54942" ry="8.48837" transform="matrix(4.37114e-08 1 1 -4.37114e-08 1808.81 45.6251)" fill="black" fill-opacity="0.1"/>
<ellipse rx="9.54942" ry="8.48837" transform="matrix(4.37114e-08 1 1 -4.37114e-08 1808.81 75.3343)" fill="black" fill-opacity="0.1"/>
<ellipse rx="9.54942" ry="8.48837" transform="matrix(4.37114e-08 1 1 -4.37114e-08 1781.22 75.3343)" fill="black" fill-opacity="0.1"/>
<ellipse rx="9.54942" ry="8.48837" transform="matrix(4.37114e-08 1 1 -4.37114e-08 1808.81 102.921)" fill="black" fill-opacity="0.1"/>
<ellipse rx="9.54942" ry="8.48837" transform="matrix(4.37114e-08 1 1 -4.37114e-08 1808.81 132.631)" fill="black" fill-opacity="0.1"/>
<ellipse rx="9.54942" ry="8.48837" transform="matrix(4.37114e-08 1 1 -4.37114e-08 1781.22 102.921)" fill="black" fill-opacity="0.1"/>
<circle r="4.24419" transform="matrix(4.37114e-08 1 1 -4.37114e-08 1785.46 127.325)" fill="black" fill-opacity="0.1"/>
<circle r="4.24419" transform="matrix(4.37101e-08 1 1 -4.37126e-08 1789.71 157.035)" fill="black" fill-opacity="0.1"/>
<circle r="4.24419" transform="matrix(4.37114e-08 1 1 -4.37114e-08 1793.95 174.012)" fill="black" fill-opacity="0.1"/>
<circle r="4.24419" transform="matrix(4.37108e-08 1 1 -4.3712e-08 1800.32 148.546)" fill="black" fill-opacity="0.1"/>
<circle r="4.24419" transform="matrix(4.37114e-08 1 1 -4.37114e-08 1791.83 188.866)" fill="black" fill-opacity="0.1"/>
<circle r="4.24419" transform="matrix(4.37114e-08 1 1 -4.37114e-08 1793.95 203.721)" fill="black" fill-opacity="0.1"/>
<circle r="4.24419" transform="matrix(4.37114e-08 1 1 -4.37114e-08 1806.69 212.209)" fill="black" fill-opacity="0.1"/>
<circle r="4.24419" transform="matrix(4.37114e-08 1 1 -4.37114e-08 1821.54 214.331)" fill="black" fill-opacity="0.1"/>
<circle r="4.24419" transform="matrix(4.37114e-08 1 1 -4.37114e-08 1819.42 229.186)" fill="black" fill-opacity="0.1"/>
<circle r="4.24419" transform="matrix(4.37114e-08 1 1 -4.37114e-08 1832.15 239.796)" fill="black" fill-opacity="0.1"/>
<circle r="4.24419" transform="matrix(4.37108e-08 1 1 -4.3712e-08 1849.13 244.041)" fill="black" fill-opacity="0.1"/>
<circle r="4.24419" transform="matrix(4.37114e-08 1 1 -4.37114e-08 1844.88 258.895)" fill="black" fill-opacity="0.1"/>
<circle r="4.24419" transform="matrix(4.37114e-08 1 1 -4.37114e-08 1857.62 269.506)" fill="black" fill-opacity="0.1"/>
<circle r="4.24419" transform="matrix(4.37114e-08 1 1 -4.37114e-08 1876.71 269.506)" fill="black" fill-opacity="0.1"/>
<circle r="4.24419" transform="matrix(4.37114e-08 1 1 -4.37114e-08 1872.47 284.36)" fill="black" fill-opacity="0.1"/>
<circle r="4.24419" transform="matrix(4.37114e-08 1 1 -4.37114e-08 1883.08 299.215)" fill="black" fill-opacity="0.1"/>
<circle r="4.24419" transform="matrix(4.37114e-08 1 1 -4.37114e-08 1897.94 303.459)" fill="black" fill-opacity="0.1"/>
<circle r="4.24419" transform="matrix(4.37108e-08 1 1 -4.3712e-08 1904.3 314.07)" fill="black" fill-opacity="0.1"/>
<circle r="4.24419" transform="matrix(4.37114e-08 1 1 -4.37114e-08 1910.67 326.802)" fill="black" fill-opacity="0.1"/>
<circle r="4.24419" transform="matrix(4.37114e-08 1 1 -4.37114e-08 1902.18 339.535)" fill="black" fill-opacity="0.1"/>
<circle r="4.24419" transform="matrix(4.37114e-08 1 1 -4.37114e-08 1906.42 356.512)" fill="black" fill-opacity="0.1"/>
<circle r="4.24419" transform="matrix(4.37114e-08 1 1 -4.37114e-08 1923.4 360.756)" fill="black" fill-opacity="0.1"/>
<circle r="4.24419" transform="matrix(4.37114e-08 1 1 -4.37114e-08 1785.46 142.18)" fill="black" fill-opacity="0.1"/>
<circle r="4.24419" transform="matrix(4.37114e-08 1 1 -4.37114e-08 1772.73 123.081)" fill="black" fill-opacity="0.1"/>
<circle r="4.24419" transform="matrix(4.37114e-08 1 1 -4.37114e-08 1764.24 108.227)" fill="black" fill-opacity="0.1"/>
<circle r="4.24419" transform="matrix(4.37114e-08 1 1 -4.37114e-08 1764.24 93.3721)" fill="black" fill-opacity="0.1"/>
<circle r="4.24419" transform="matrix(4.37114e-08 1 1 -4.37114e-08 1764.24 78.5174)" fill="black" fill-opacity="0.1"/>
<circle r="4.24419" transform="matrix(4.37114e-08 1 1 -4.37114e-08 1768.49 59.4187)" fill="black" fill-opacity="0.1"/>
<circle r="4.24419" transform="matrix(4.37114e-08 1 1 -4.37114e-08 1785.46 59.4187)" fill="black" fill-opacity="0.1"/>
<circle r="4.24419" transform="matrix(4.37114e-08 1 1 -4.37114e-08 1793.95 46.6861)" fill="black" fill-opacity="0.1"/>
<circle r="4.24419" transform="matrix(4.37114e-08 1 1 -4.37114e-08 1798.2 29.7093)" fill="black" fill-opacity="0.1"/>
<circle r="4.24419" transform="matrix(4.37114e-08 1 1 -4.37114e-08 1813.05 29.7093)" fill="black" fill-opacity="0.1"/>
<circle r="4.24419" transform="matrix(4.37114e-08 1 1 -4.37114e-08 1827.91 29.7093)" fill="black" fill-opacity="0.1"/>
<circle r="4.24419" transform="matrix(4.37114e-08 1 1 -4.37114e-08 1842.76 29.7093)" fill="black" fill-opacity="0.1"/>
<circle r="4.24419" transform="matrix(4.37108e-08 1 1 -4.3712e-08 1844.88 16.9766)" fill="black" fill-opacity="0.1"/>
<circle r="4.24419" transform="matrix(4.37114e-08 1 1 -4.37114e-08 1849.13 4.24419)" fill="black" fill-opacity="0.1"/>
<ellipse rx="9.54942" ry="8.48837" transform="matrix(4.37114e-08 1 1 -4.37114e-08 1808.81 162.34)" fill="black" fill-opacity="0.1"/>
<ellipse rx="9.54942" ry="8.48837" transform="matrix(4.37114e-08 1 1 -4.37114e-08 1808.81 194.171)" fill="black" fill-opacity="0.1"/>
<ellipse rx="9.54942" ry="8.48837" transform="matrix(4.37114e-08 1 1 -4.37114e-08 1919.16 283.299)" fill="black" fill-opacity="0.1"/>
<ellipse rx="9.54942" ry="8.48837" transform="matrix(4.37114e-08 1 1 -4.37114e-08 1919.16 313.009)" fill="black" fill-opacity="0.1"/>
<ellipse rx="9.54942" ry="8.48837" transform="matrix(4.37114e-08 1 1 -4.37114e-08 1891.57 283.299)" fill="black" fill-opacity="0.1"/>
<ellipse rx="9.54942" ry="8.48837" transform="matrix(4.37114e-08 1 1 -4.37114e-08 1919.16 342.718)" fill="black" fill-opacity="0.1"/>
<ellipse rx="9.54942" ry="8.48837" transform="matrix(4.37114e-08 1 1 -4.37114e-08 1919.16 105.044)" fill="black" fill-opacity="0.1"/>
<ellipse rx="9.54942" ry="8.48837" transform="matrix(4.37114e-08 1 1 -4.37114e-08 1919.16 134.753)" fill="black" fill-opacity="0.1"/>
<ellipse rx="9.54942" ry="8.48837" transform="matrix(4.37114e-08 1 1 -4.37114e-08 1891.57 105.044)" fill="black" fill-opacity="0.1"/>
<ellipse rx="9.54942" ry="8.48837" transform="matrix(4.37114e-08 1 1 -4.37114e-08 1891.57 134.753)" fill="black" fill-opacity="0.1"/>
<ellipse rx="9.54942" ry="8.48837" transform="matrix(4.37114e-08 1 1 -4.37114e-08 1919.16 164.462)" fill="black" fill-opacity="0.1"/>
<ellipse rx="9.54942" ry="8.48837" transform="matrix(4.37114e-08 1 1 -4.37114e-08 1891.57 164.462)" fill="black" fill-opacity="0.1"/>
<ellipse rx="9.54942" ry="8.48837" transform="matrix(4.37114e-08 1 1 -4.37114e-08 1863.98 15.9156)" fill="black" fill-opacity="0.1"/>
<ellipse rx="9.54942" ry="8.48837" transform="matrix(4.37114e-08 1 1 -4.37114e-08 1863.98 45.6251)" fill="black" fill-opacity="0.1"/>
<ellipse rx="9.54942" ry="8.48837" transform="matrix(4.37114e-08 1 1 -4.37114e-08 1836.4 45.6251)" fill="black" fill-opacity="0.1"/>
<ellipse rx="9.54942" ry="8.48837" transform="matrix(4.37114e-08 1 1 -4.37114e-08 1863.98 75.3343)" fill="black" fill-opacity="0.1"/>
<ellipse rx="9.54942" ry="8.48837" transform="matrix(4.37114e-08 1 1 -4.37114e-08 1836.4 75.3343)" fill="black" fill-opacity="0.1"/>
<path d="M1202.45 145.7V68.3H1168.85V173L1265.9 173V145.7L1202.45 145.7ZM1373.43 68.3H1273.08V173H1374.33V148.7H1306.38V132.5H1373.88V107.6H1306.38V92.3H1373.43V68.3ZM1444.71 173H1447.11C1479.66 173 1491.81 153.35 1491.81 153.35V171.5H1515.81V113.6L1451.01 113.6V132.8H1480.41C1479.66 136.1 1474.56 147.2 1450.86 147.2C1425.96 147.2 1418.31 132.2 1418.31 119.45V117.65C1418.31 104.6 1425.36 91.1 1450.26 91.1C1481.31 90.8 1481.01 105.95 1481.01 105.95H1515.81C1515.81 89.9 1502.61 65.15 1452.51 65.15H1447.71C1396.86 65.15 1383.36 94.25 1383.36 117.05V120.35C1383.36 144.05 1397.46 173 1444.71 173ZM1629.5 68.3L1529.15 68.3V173L1630.4 173V148.7L1562.45 148.7V132.5H1629.95V107.6H1562.45V92.3H1629.5V68.3ZM1676.93 109.1L1737.53 173.15H1770.08V68.3L1737.38 68.3V131.15L1678.58 68.3H1644.23V173H1676.93V109.1ZM1785.23 68.3V173H1836.83C1894.88 173 1905.38 144.8 1905.38 121.7V117.35C1905.38 94.85 1892.78 68.3 1836.68 68.3L1785.23 68.3ZM1818.83 147.8V93.35L1833.83 93.35C1866.83 93.35 1870.28 108.95 1870.28 119.75V120.65C1870.28 131.9 1866.98 147.8 1833.83 147.8H1818.83ZM1988.28 105.35L1967.28 104.9C1951.23 104.45 1947.78 100.7 1947.78 95.9C1947.78 90.8 1955.43 87.2 1973.28 87.2H1976.88C1989.03 87.2 1994.43 89.9 1996.83 92.9H2034.63C2033.28 79.25 2023.38 65 1979.13 65L1967.58 65C1922.88 65 1912.68 79.1 1912.68 96.35V97.7C1912.68 113.9 1923.33 127.85 1959.93 128.9L1980.63 129.35C1997.88 129.8 2001.18 133.55 2001.18 139.1C2001.18 144.35 1998.48 150.05 1978.08 150.05H1974.93C1959.93 150.05 1950.78 145.4 1948.83 141.05H1911.63C1912.68 154.4 1921.23 173.15 1969.68 173.15H1979.73C2029.38 173.15 2036.73 154.4 2036.73 138.2V136.4C2036.73 118.7 2027.43 106.4 1988.28 105.35Z" fill="#CECECE" fill-opacity="0.21"/>
<path d="M1202.45 145.7H1198.45V149.7H1202.45V145.7ZM1202.45 68.3H1206.45V64.3H1202.45V68.3ZM1168.85 68.3V64.3H1164.85V68.3H1168.85ZM1168.85 173H1164.85V177H1168.85V173ZM1265.9 173V177H1269.9V173H1265.9ZM1265.9 145.7H1269.9V141.7H1265.9V145.7ZM1206.45 145.7V68.3H1198.45V145.7H1206.45ZM1202.45 64.3H1168.85V72.3H1202.45V64.3ZM1164.85 68.3V173H1172.85V68.3H1164.85ZM1168.85 177L1265.9 177V169L1168.85 169V177ZM1269.9 173V145.7H1261.9V173H1269.9ZM1265.9 141.7L1202.45 141.7V149.7L1265.9 149.7V141.7ZM1373.43 68.3H1377.43V64.3H1373.43V68.3ZM1273.08 68.3V64.3H1269.08V68.3H1273.08ZM1273.08 173H1269.08V177H1273.08V173ZM1374.33 173V177H1378.33V173H1374.33ZM1374.33 148.7H1378.33V144.7H1374.33V148.7ZM1306.38 148.7H1302.38V152.7H1306.38V148.7ZM1306.38 132.5V128.5H1302.38V132.5H1306.38ZM1373.88 132.5V136.5H1377.88V132.5H1373.88ZM1373.88 107.6H1377.88V103.6H1373.88V107.6ZM1306.38 107.6H1302.38V111.6H1306.38V107.6ZM1306.38 92.3V88.3H1302.38V92.3H1306.38ZM1373.43 92.3V96.3H1377.43V92.3H1373.43ZM1373.43 64.3H1273.08V72.3H1373.43V64.3ZM1269.08 68.3V173H1277.08V68.3H1269.08ZM1273.08 177H1374.33V169H1273.08V177ZM1378.33 173V148.7H1370.33V173H1378.33ZM1374.33 144.7H1306.38V152.7H1374.33V144.7ZM1310.38 148.7V132.5H1302.38V148.7H1310.38ZM1306.38 136.5H1373.88V128.5H1306.38V136.5ZM1377.88 132.5V107.6H1369.88V132.5H1377.88ZM1373.88 103.6H1306.38V111.6H1373.88V103.6ZM1310.38 107.6V92.3H1302.38V107.6H1310.38ZM1306.38 96.3H1373.43V88.3H1306.38V96.3ZM1377.43 92.3V68.3H1369.43V92.3H1377.43ZM1491.81 153.35H1495.81V139.275L1488.41 151.246L1491.81 153.35ZM1491.81 171.5H1487.81V175.5H1491.81V171.5ZM1515.81 171.5V175.5H1519.81V171.5H1515.81ZM1515.81 113.6H1519.81V109.6H1515.81V113.6ZM1451.01 113.6V109.6H1447.01V113.6H1451.01ZM1451.01 132.8H1447.01V136.8H1451.01V132.8ZM1480.41 132.8L1484.31 133.686L1485.42 128.8H1480.41V132.8ZM1450.26 91.1V95.1H1450.28L1450.3 95.0998L1450.26 91.1ZM1481.01 105.95L1477.01 105.871L1476.93 109.95H1481.01V105.95ZM1515.81 105.95V109.95H1519.81V105.95H1515.81ZM1444.71 177H1447.11V169H1444.71V177ZM1447.11 177C1464.25 177 1476.21 171.81 1483.94 166.465C1487.79 163.806 1490.55 161.131 1492.38 159.087C1493.3 158.064 1493.98 157.198 1494.44 156.567C1494.68 156.251 1494.85 155.994 1494.98 155.805C1495.05 155.711 1495.1 155.634 1495.13 155.575C1495.15 155.545 1495.17 155.52 1495.18 155.5C1495.19 155.49 1495.19 155.481 1495.2 155.473C1495.2 155.469 1495.2 155.466 1495.2 155.462C1495.21 155.461 1495.21 155.459 1495.21 155.458C1495.21 155.456 1495.21 155.454 1491.81 153.35C1488.41 151.246 1488.41 151.244 1488.41 151.243C1488.41 151.242 1488.41 151.24 1488.41 151.239C1488.41 151.237 1488.41 151.235 1488.41 151.234C1488.42 151.231 1488.42 151.229 1488.42 151.229C1488.42 151.227 1488.42 151.23 1488.41 151.238C1488.4 151.254 1488.38 151.287 1488.35 151.336C1488.28 151.435 1488.17 151.6 1488 151.822C1487.68 152.265 1487.15 152.934 1486.42 153.754C1484.95 155.394 1482.65 157.631 1479.39 159.885C1472.91 164.365 1462.52 169 1447.11 169V177ZM1487.81 153.35V171.5H1495.81V153.35H1487.81ZM1491.81 175.5H1515.81V167.5H1491.81V175.5ZM1519.81 171.5V113.6H1511.81V171.5H1519.81ZM1515.81 109.6L1451.01 109.6V117.6L1515.81 117.6V109.6ZM1447.01 113.6V132.8H1455.01V113.6H1447.01ZM1451.01 136.8H1480.41V128.8H1451.01V136.8ZM1476.51 131.914C1476.33 132.711 1475.36 135.447 1471.87 138.016C1468.39 140.576 1462.09 143.2 1450.86 143.2V151.2C1463.33 151.2 1471.43 148.274 1476.61 144.459C1481.78 140.653 1483.74 136.189 1484.31 133.686L1476.51 131.914ZM1450.86 143.2C1439.24 143.2 1432.26 139.728 1428.16 135.366C1424 130.939 1422.31 125.076 1422.31 119.45H1414.31C1414.31 126.574 1416.44 134.586 1422.33 140.846C1428.28 147.172 1437.58 151.2 1450.86 151.2V143.2ZM1422.31 119.45V117.65H1414.31V119.45H1422.31ZM1422.31 117.65C1422.31 111.8 1423.89 106.304 1427.81 102.272C1431.71 98.2697 1438.52 95.1 1450.26 95.1V87.1C1437.1 87.1 1427.93 90.6803 1422.08 96.6906C1416.26 102.671 1414.31 110.45 1414.31 117.65H1422.31ZM1450.3 95.0998C1465.24 94.9554 1471.71 98.54 1474.47 101.262C1475.86 102.636 1476.48 103.943 1476.76 104.816C1476.91 105.261 1476.97 105.606 1476.99 105.803C1477 105.9 1477.01 105.96 1477.01 105.974C1477.01 105.981 1477.01 105.976 1477.01 105.96C1477.01 105.951 1477.01 105.94 1477.01 105.925C1477.01 105.917 1477.01 105.909 1477.01 105.9C1477.01 105.896 1477.01 105.891 1477.01 105.886C1477.01 105.884 1477.01 105.88 1477.01 105.879C1477.01 105.875 1477.01 105.871 1481.01 105.95C1485.01 106.029 1485.01 106.025 1485.01 106.021C1485.01 106.02 1485.01 106.015 1485.01 106.012C1485.01 106.007 1485.01 106.001 1485.01 105.994C1485.01 105.981 1485.01 105.968 1485.01 105.953C1485.01 105.924 1485.01 105.891 1485.01 105.854C1485.01 105.779 1485 105.69 1485 105.586C1484.99 105.378 1484.97 105.112 1484.93 104.797C1484.85 104.166 1484.69 103.329 1484.38 102.359C1483.74 100.401 1482.5 97.9393 1480.08 95.5631C1475.23 90.7849 1466.33 86.9446 1450.22 87.1002L1450.3 95.0998ZM1481.01 109.95H1515.81V101.95H1481.01V109.95ZM1519.81 105.95C1519.81 96.8497 1516.07 85.5057 1505.55 76.4938C1495.05 67.4962 1478.19 61.15 1452.51 61.15V69.15C1476.93 69.15 1491.72 75.1788 1500.34 82.5687C1508.95 89.9443 1511.81 99.0003 1511.81 105.95H1519.81ZM1452.51 61.15H1447.71V69.15H1452.51V61.15ZM1447.71 61.15C1421.51 61.15 1404.26 68.6669 1393.58 79.7782C1382.95 90.8377 1379.36 104.913 1379.36 117.05H1387.36C1387.36 106.387 1390.52 94.5123 1399.35 85.3218C1408.13 76.183 1423.06 69.15 1447.71 69.15V61.15ZM1379.36 117.05V120.35H1387.36V117.05H1379.36ZM1379.36 120.35C1379.36 132.936 1383.1 147.161 1393.38 158.278C1403.73 169.471 1420.23 177 1444.71 177V169C1421.94 169 1407.76 162.054 1399.25 152.847C1390.67 143.564 1387.36 131.464 1387.36 120.35H1379.36ZM1629.5 68.3H1633.5V64.3H1629.5V68.3ZM1529.15 68.3V64.3H1525.15V68.3H1529.15ZM1529.15 173H1525.15V177H1529.15V173ZM1630.4 173V177H1634.4V173H1630.4ZM1630.4 148.7H1634.4V144.7H1630.4V148.7ZM1562.45 148.7H1558.45V152.7H1562.45V148.7ZM1562.45 132.5V128.5H1558.45V132.5H1562.45ZM1629.95 132.5V136.5H1633.95V132.5H1629.95ZM1629.95 107.6H1633.95V103.6H1629.95V107.6ZM1562.45 107.6H1558.45V111.6H1562.45V107.6ZM1562.45 92.3V88.3H1558.45V92.3H1562.45ZM1629.5 92.3V96.3H1633.5V92.3H1629.5ZM1629.5 64.3L1529.15 64.3V72.3L1629.5 72.3V64.3ZM1525.15 68.3V173H1533.15V68.3H1525.15ZM1529.15 177L1630.4 177V169L1529.15 169V177ZM1634.4 173V148.7H1626.4V173H1634.4ZM1630.4 144.7L1562.45 144.7V152.7L1630.4 152.7V144.7ZM1566.45 148.7V132.5H1558.45V148.7H1566.45ZM1562.45 136.5H1629.95V128.5H1562.45V136.5ZM1633.95 132.5V107.6H1625.95V132.5H1633.95ZM1629.95 103.6H1562.45V111.6H1629.95V103.6ZM1566.45 107.6V92.3H1558.45V107.6H1566.45ZM1562.45 96.3H1629.5V88.3H1562.45V96.3ZM1633.5 92.3V68.3H1625.5V92.3H1633.5ZM1676.93 109.1L1679.84 106.351L1672.93 99.0522V109.1H1676.93ZM1737.53 173.15L1734.62 175.899L1735.81 177.15H1737.53V173.15ZM1770.08 173.15V177.15H1774.08V173.15H1770.08ZM1770.08 68.3H1774.08V64.3H1770.08V68.3ZM1737.38 68.3V64.3H1733.38V68.3H1737.38ZM1737.38 131.15L1734.46 133.883L1741.38 141.28V131.15H1737.38ZM1678.58 68.3L1681.5 65.5672L1680.32 64.3H1678.58V68.3ZM1644.23 68.3V64.3H1640.23V68.3H1644.23ZM1644.23 173H1640.23V177H1644.23V173ZM1676.93 173V177H1680.93V173H1676.93ZM1674.02 111.849L1734.62 175.899L1740.44 170.401L1679.84 106.351L1674.02 111.849ZM1737.53 177.15H1770.08V169.15H1737.53V177.15ZM1774.08 173.15V68.3H1766.08V173.15H1774.08ZM1770.08 64.3L1737.38 64.3V72.3L1770.08 72.3V64.3ZM1733.38 68.3V131.15H1741.38V68.3H1733.38ZM1740.3 128.417L1681.5 65.5672L1675.66 71.0327L1734.46 133.883L1740.3 128.417ZM1678.58 64.3H1644.23V72.3H1678.58V64.3ZM1640.23 68.3V173H1648.23V68.3H1640.23ZM1644.23 177H1676.93V169H1644.23V177ZM1680.93 173V109.1H1672.93V173H1680.93ZM1785.23 68.3V64.3H1781.23V68.3H1785.23ZM1785.23 173H1781.23V177H1785.23V173ZM1818.83 147.8H1814.83V151.8H1818.83V147.8ZM1818.83 93.35V89.35H1814.83V93.35H1818.83ZM1781.23 68.3V173H1789.23V68.3H1781.23ZM1785.23 177H1836.83V169H1785.23V177ZM1836.83 177C1866.43 177 1884.79 169.811 1895.71 158.833C1906.63 147.848 1909.38 133.797 1909.38 121.7L1901.38 121.7C1901.38 132.703 1898.87 144.302 1890.03 153.192C1881.19 162.089 1865.27 169 1836.83 169V177ZM1909.38 121.7V117.35L1901.38 117.35V121.7L1909.38 121.7ZM1909.38 117.35C1909.38 105.373 1906.01 91.8921 1894.79 81.4583C1883.61 71.0681 1865.29 64.3 1836.68 64.3V72.3C1864.16 72.3 1880.19 78.8069 1889.34 87.3167C1898.45 95.7828 1901.38 106.827 1901.38 117.35L1909.38 117.35ZM1836.68 64.3L1785.23 64.3V72.3L1836.68 72.3V64.3ZM1822.83 147.8V93.35L1814.83 93.35V147.8H1822.83ZM1818.83 97.35L1833.83 97.35V89.35L1818.83 89.35V97.35ZM1833.83 97.35C1849.79 97.35 1857.61 101.132 1861.53 105.255C1865.45 109.381 1866.28 114.69 1866.28 119.75H1874.28C1874.28 114.01 1873.38 106.119 1867.33 99.745C1861.27 93.3681 1850.86 89.35 1833.83 89.35V97.35ZM1866.28 119.75V120.65H1874.28V119.75H1866.28ZM1866.28 120.65C1866.28 125.985 1865.47 131.484 1861.54 135.73C1857.65 139.949 1849.86 143.8 1833.83 143.8V151.8C1850.95 151.8 1861.38 147.701 1867.42 141.157C1873.44 134.641 1874.28 126.565 1874.28 120.65H1866.28ZM1833.83 143.8H1818.83V151.8H1833.83V143.8ZM1988.28 105.35L1988.39 101.351L1988.38 101.351L1988.37 101.351L1988.28 105.35ZM1967.28 104.9L1967.17 108.898L1967.18 108.899L1967.19 108.899L1967.28 104.9ZM1996.83 92.9L1993.71 95.3988L1994.91 96.9L1996.83 96.9V92.9ZM2034.63 92.9V96.9H2039.05L2038.61 92.5063L2034.63 92.9ZM1959.93 128.9L1959.82 132.898L1959.83 132.899L1959.84 132.899L1959.93 128.9ZM1980.63 129.35L1980.73 125.351L1980.73 125.351L1980.72 125.351L1980.63 129.35ZM1948.83 141.05L1952.48 139.414L1951.42 137.05H1948.83V141.05ZM1911.63 141.05V137.05H1907.3L1907.64 141.364L1911.63 141.05ZM1988.37 101.351L1967.37 100.901L1967.19 108.899L1988.19 109.349L1988.37 101.351ZM1967.39 100.902C1959.5 100.68 1955.44 99.6386 1953.45 98.5346C1952.55 98.0345 1952.22 97.5967 1952.07 97.3254C1951.91 97.0383 1951.78 96.6188 1951.78 95.9H1943.78C1943.78 97.5812 1944.08 99.4304 1945.07 101.211C1946.07 103.006 1947.6 104.434 1949.57 105.528C1953.32 107.611 1959.01 108.67 1967.17 108.898L1967.39 100.902ZM1951.78 95.9C1951.78 95.8838 1951.65 94.7151 1955.23 93.3877C1958.71 92.0953 1964.53 91.2 1973.28 91.2V83.2C1964.18 83.2 1957.25 84.1047 1952.44 85.8873C1947.73 87.6349 1943.78 90.8162 1943.78 95.9H1951.78ZM1973.28 91.2H1976.88V83.2H1973.28V91.2ZM1976.88 91.2C1988.67 91.2 1992.47 93.859 1993.71 95.3988L1999.95 90.4012C1996.39 85.941 1989.39 83.2 1976.88 83.2V91.2ZM1996.83 96.9H2034.63V88.9H1996.83V96.9ZM2038.61 92.5063C2037.84 84.7198 2034.53 76.5252 2025.13 70.469C2016.01 64.5904 2001.56 61 1979.13 61V69C2000.95 69 2013.57 72.5346 2020.8 77.1935C2027.75 81.6748 2030.07 87.4302 2030.65 93.2937L2038.61 92.5063ZM1979.13 61L1967.58 61V69L1979.13 69V61ZM1967.58 61C1944.97 61 1930.23 64.5335 1921.08 70.9265C1911.57 77.5652 1908.68 86.8322 1908.68 96.35H1916.68C1916.68 88.6178 1918.89 82.2098 1925.66 77.486C1932.78 72.5165 1945.49 69 1967.58 69V61ZM1908.68 96.35V97.7H1916.68V96.35H1908.68ZM1908.68 97.7C1908.68 106.765 1911.72 115.583 1920.12 122.136C1928.32 128.53 1941.13 132.362 1959.82 132.898L1960.04 124.902C1942.13 124.388 1931.31 120.72 1925.04 115.827C1918.97 111.092 1916.68 104.835 1916.68 97.7H1908.68ZM1959.84 132.899L1980.54 133.349L1980.72 125.351L1960.02 124.901L1959.84 132.899ZM1980.53 133.349C1989.07 133.572 1993.34 134.627 1995.4 135.794C1996.31 136.308 1996.66 136.77 1996.83 137.111C1997.03 137.5 1997.18 138.09 1997.18 139.1H2005.18C2005.18 137.335 2004.92 135.375 2003.96 133.486C2002.98 131.548 2001.42 130.005 1999.34 128.831C1995.44 126.623 1989.44 125.578 1980.73 125.351L1980.53 133.349ZM1997.18 139.1C1997.18 140.087 1997.05 140.81 1996.79 141.386C1996.56 141.909 1996.12 142.533 1995.11 143.183C1992.89 144.614 1988.1 146.05 1978.08 146.05V154.05C1988.46 154.05 1995.22 152.636 1999.45 149.905C2001.67 148.473 2003.18 146.688 2004.09 144.665C2004.97 142.696 2005.18 140.738 2005.18 139.1H1997.18ZM1978.08 146.05H1974.93V154.05H1978.08V146.05ZM1974.93 146.05C1967.82 146.05 1962.29 144.945 1958.43 143.451C1954.37 141.878 1952.81 140.146 1952.48 139.414L1945.18 142.686C1946.8 146.304 1950.79 149.072 1955.54 150.911C1960.5 152.83 1967.04 154.05 1974.93 154.05V146.05ZM1948.83 137.05H1911.63V145.05H1948.83V137.05ZM1907.64 141.364C1908.23 148.801 1910.97 158.042 1920.45 165.286C1929.77 172.399 1945.04 177.15 1969.68 177.15V169.15C1945.87 169.15 1932.64 164.526 1925.31 158.927C1918.14 153.458 1916.08 146.649 1915.62 140.736L1907.64 141.364ZM1969.68 177.15H1979.73V169.15H1969.68V177.15ZM1979.73 177.15C2004.91 177.15 2020.3 172.423 2029.41 164.821C2038.73 157.044 2040.73 146.909 2040.73 138.2H2032.73C2032.73 145.691 2031.05 153.031 2024.29 158.679C2017.31 164.502 2004.2 169.15 1979.73 169.15V177.15ZM2040.73 138.2V136.4H2032.73V138.2H2040.73ZM2040.73 136.4C2040.73 126.794 2038.16 117.864 2029.59 111.432C2021.35 105.249 2008.2 101.883 1988.39 101.351L1988.17 109.349C2007.51 109.867 2018.58 113.176 2024.79 117.83C2030.65 122.236 2032.73 128.306 2032.73 136.4H2040.73Z" fill="#ECECEE" fill-opacity="0.27"/>
<path d="M1198.1 269.7H1194.1V273.7H1198.1V269.7ZM1198.1 192.3H1202.1V188.3H1198.1V192.3ZM1164.5 192.3V188.3H1160.5V192.3H1164.5ZM1164.5 297H1160.5V301H1164.5V297ZM1261.55 297V301H1265.55V297H1261.55ZM1261.55 269.7H1265.55V265.7H1261.55V269.7ZM1202.1 269.7V192.3H1194.1V269.7H1202.1ZM1198.1 188.3H1164.5V196.3H1198.1V188.3ZM1160.5 192.3V297H1168.5V192.3H1160.5ZM1164.5 301H1261.55V293H1164.5V301ZM1265.55 297V269.7H1257.55V297H1265.55ZM1261.55 265.7H1198.1V273.7H1261.55V265.7ZM1361.47 192.3H1365.47V188.3H1361.47V192.3ZM1261.12 192.3V188.3H1257.12V192.3H1261.12ZM1261.12 297.15H1257.12V301.15H1261.12V297.15ZM1362.37 297.15V301.15H1366.37V297.15H1362.37ZM1362.37 272.7H1366.37V268.7H1362.37V272.7ZM1294.42 272.7H1290.42V276.7H1294.42V272.7ZM1294.42 256.5V252.5H1290.42V256.5H1294.42ZM1361.92 256.5V260.5H1365.92V256.5H1361.92ZM1361.92 231.6H1365.92V227.6H1361.92V231.6ZM1294.42 231.6H1290.42V235.6H1294.42V231.6ZM1294.42 216.3V212.3H1290.42V216.3H1294.42ZM1361.47 216.3V220.3H1365.47V216.3H1361.47ZM1361.47 188.3L1261.12 188.3V196.3L1361.47 196.3V188.3ZM1257.12 192.3V297.15H1265.12V192.3H1257.12ZM1261.12 301.15H1362.37V293.15H1261.12V301.15ZM1366.37 297.15V272.7H1358.37V297.15H1366.37ZM1362.37 268.7H1294.42V276.7H1362.37V268.7ZM1298.42 272.7V256.5H1290.42V272.7H1298.42ZM1294.42 260.5H1361.92V252.5H1294.42V260.5ZM1365.92 256.5V231.6H1357.92V256.5H1365.92ZM1361.92 227.6H1294.42V235.6H1361.92V227.6ZM1298.42 231.6V216.3H1290.42V231.6H1298.42ZM1294.42 220.3H1361.47V212.3H1294.42V220.3ZM1365.47 216.3V192.3H1357.47V216.3H1365.47ZM1424.4 298.65L1424.39 302.65H1424.4V298.65ZM1471.5 278.85H1475.5V264.684L1468.09 276.758L1471.5 278.85ZM1471.5 297H1467.5V301H1471.5V297ZM1495.5 297V301H1499.5V297H1495.5ZM1495.5 239.1H1499.5V235.1H1495.5V239.1ZM1430.7 239.1V235.1H1426.7V239.1H1430.7ZM1430.7 258.3H1426.7V262.3H1430.7V258.3ZM1460.1 258.3L1464 259.186L1465.11 254.3H1460.1V258.3ZM1429.95 216.6V220.6H1429.97L1429.99 220.6L1429.95 216.6ZM1460.7 231.45L1456.7 231.371L1456.62 235.45H1460.7V231.45ZM1495.5 231.45V235.45H1499.5V231.45H1495.5ZM1424.4 302.65H1426.8V294.65H1424.4V302.65ZM1426.8 302.65C1443.95 302.65 1455.91 297.418 1463.64 292.032C1467.49 289.353 1470.26 286.658 1472.09 284.599C1473 283.569 1473.68 282.697 1474.15 282.061C1474.38 281.744 1474.56 281.485 1474.68 281.295C1474.75 281.2 1474.8 281.123 1474.83 281.063C1474.85 281.034 1474.87 281.009 1474.88 280.988C1474.89 280.978 1474.89 280.969 1474.9 280.962C1474.9 280.958 1474.9 280.954 1474.91 280.951C1474.91 280.949 1474.91 280.947 1474.91 280.946C1474.91 280.944 1474.91 280.942 1471.5 278.85C1468.09 276.758 1468.09 276.756 1468.09 276.754C1468.1 276.754 1468.1 276.752 1468.1 276.751C1468.1 276.749 1468.1 276.747 1468.1 276.746C1468.1 276.743 1468.1 276.741 1468.1 276.74C1468.1 276.739 1468.1 276.742 1468.1 276.75C1468.09 276.766 1468.07 276.799 1468.03 276.849C1467.97 276.95 1467.85 277.116 1467.69 277.34C1467.36 277.788 1466.84 278.462 1466.1 279.288C1464.64 280.942 1462.33 283.197 1459.07 285.468C1452.59 289.982 1442.21 294.65 1426.8 294.65V302.65ZM1467.5 278.85V297H1475.5V278.85H1467.5ZM1471.5 301H1495.5V293H1471.5V301ZM1499.5 297V239.1H1491.5V297H1499.5ZM1495.5 235.1H1430.7V243.1H1495.5V235.1ZM1426.7 239.1V258.3H1434.7V239.1H1426.7ZM1430.7 262.3H1460.1V254.3H1430.7V262.3ZM1456.2 257.414C1456.02 258.211 1455.05 260.947 1451.56 263.516C1448.08 266.076 1441.78 268.7 1430.55 268.7V276.7C1443.02 276.7 1451.12 273.774 1456.3 269.959C1461.48 266.153 1463.43 261.689 1464 259.186L1456.2 257.414ZM1430.55 268.7C1418.93 268.7 1411.95 265.228 1407.85 260.866C1403.69 256.439 1402 250.576 1402 244.95H1394C1394 252.074 1396.14 260.086 1402.03 266.346C1407.97 272.672 1417.27 276.7 1430.55 276.7V268.7ZM1402 244.95V243.15H1394V244.95H1402ZM1402 243.15C1402 237.3 1403.58 231.804 1407.51 227.772C1411.4 223.77 1418.21 220.6 1429.95 220.6V212.6C1416.79 212.6 1407.63 216.18 1401.77 222.191C1395.95 228.171 1394 235.95 1394 243.15H1402ZM1429.99 220.6C1444.93 220.455 1451.4 224.04 1454.16 226.762C1455.56 228.136 1456.18 229.443 1456.46 230.316C1456.6 230.761 1456.66 231.106 1456.69 231.303C1456.7 231.4 1456.7 231.46 1456.7 231.474C1456.7 231.481 1456.7 231.476 1456.7 231.46C1456.7 231.451 1456.7 231.44 1456.7 231.425C1456.7 231.417 1456.7 231.409 1456.7 231.4C1456.7 231.396 1456.7 231.391 1456.7 231.386C1456.7 231.384 1456.7 231.38 1456.7 231.379C1456.7 231.375 1456.7 231.371 1460.7 231.45C1464.7 231.529 1464.7 231.525 1464.7 231.521C1464.7 231.52 1464.7 231.515 1464.7 231.512C1464.7 231.507 1464.7 231.501 1464.7 231.494C1464.7 231.481 1464.7 231.468 1464.7 231.453C1464.7 231.424 1464.7 231.391 1464.7 231.354C1464.7 231.279 1464.7 231.19 1464.69 231.086C1464.68 230.878 1464.66 230.612 1464.62 230.297C1464.54 229.666 1464.38 228.829 1464.07 227.859C1463.44 225.901 1462.19 223.439 1459.78 221.063C1454.93 216.285 1446.02 212.445 1429.91 212.6L1429.99 220.6ZM1460.7 235.45H1495.5V227.45H1460.7V235.45ZM1499.5 231.45C1499.5 222.35 1495.76 211.006 1485.24 201.994C1474.74 192.996 1457.88 186.65 1432.2 186.65V194.65C1456.62 194.65 1471.41 200.679 1480.04 208.069C1488.64 215.444 1491.5 224.5 1491.5 231.45H1499.5ZM1432.2 186.65H1427.4V194.65H1432.2V186.65ZM1427.4 186.65C1401.2 186.65 1383.95 194.167 1373.27 205.278C1362.64 216.338 1359.05 230.413 1359.05 242.55H1367.05C1367.05 231.887 1370.21 220.012 1379.04 210.822C1387.83 201.683 1402.75 194.65 1427.4 194.65V186.65ZM1359.05 242.55V245.85H1367.05V242.55H1359.05ZM1359.05 245.85C1359.05 258.437 1362.79 272.66 1373.07 283.794C1383.41 295.003 1399.91 302.572 1424.39 302.65L1424.41 294.65C1401.64 294.578 1387.46 287.597 1378.95 278.368C1370.36 269.065 1367.05 256.963 1367.05 245.85H1359.05ZM1600.55 192.3H1604.55V188.3H1600.55V192.3ZM1500.2 192.3V188.3H1496.2V192.3H1500.2ZM1500.2 297.15H1496.2V301.15H1500.2V297.15ZM1601.45 297.15V301.15H1605.45V297.15H1601.45ZM1601.45 272.7H1605.45V268.7H1601.45V272.7ZM1533.5 272.7H1529.5V276.7H1533.5V272.7ZM1533.5 256.5V252.5H1529.5V256.5H1533.5ZM1601 256.5V260.5H1605V256.5H1601ZM1601 231.6H1605V227.6H1601V231.6ZM1533.5 231.6H1529.5V235.6H1533.5V231.6ZM1533.5 216.3V212.3H1529.5V216.3H1533.5ZM1600.55 216.3V220.3H1604.55V216.3H1600.55ZM1600.55 188.3H1500.2V196.3H1600.55V188.3ZM1496.2 192.3V297.15H1504.2V192.3H1496.2ZM1500.2 301.15L1601.45 301.15V293.15L1500.2 293.15V301.15ZM1605.45 297.15V272.7L1597.45 272.7V297.15L1605.45 297.15ZM1601.45 268.7L1533.5 268.7V276.7L1601.45 276.7V268.7ZM1537.5 272.7V256.5H1529.5V272.7H1537.5ZM1533.5 260.5H1601V252.5H1533.5V260.5ZM1605 256.5V231.6H1597V256.5H1605ZM1601 227.6H1533.5V235.6H1601V227.6ZM1537.5 231.6V216.3H1529.5V231.6H1537.5ZM1533.5 220.3H1600.55V212.3H1533.5V220.3ZM1604.55 216.3V192.3H1596.55V216.3H1604.55ZM1639.03 233.1L1641.94 230.351L1635.03 223.052V233.1H1639.03ZM1699.63 297.15L1696.73 299.899L1697.91 301.15H1699.63V297.15ZM1732.18 297.15V301.15H1736.18V297.15H1732.18ZM1732.18 192.3H1736.18V188.3H1732.18V192.3ZM1699.48 192.3V188.3H1695.48V192.3H1699.48ZM1699.48 255.15L1696.56 257.883L1703.48 265.28V255.15H1699.48ZM1640.68 192.3L1643.6 189.567L1642.42 188.3H1640.68V192.3ZM1606.33 192.3V188.3H1602.33V192.3H1606.33ZM1606.33 297H1602.33V301H1606.33V297ZM1639.03 297V301H1643.03V297H1639.03ZM1636.13 235.849L1696.73 299.899L1702.54 294.401L1641.94 230.351L1636.13 235.849ZM1699.63 301.15H1732.18V293.15H1699.63V301.15ZM1736.18 297.15V192.3H1728.18V297.15H1736.18ZM1732.18 188.3H1699.48V196.3H1732.18V188.3ZM1695.48 192.3V255.15H1703.48V192.3H1695.48ZM1702.4 252.417L1643.6 189.567L1637.76 195.033L1696.56 257.883L1702.4 252.417ZM1640.68 188.3L1606.33 188.3V196.3L1640.68 196.3V188.3ZM1602.33 192.3V297H1610.33V192.3H1602.33ZM1606.33 301H1639.03V293H1606.33V301ZM1643.03 297V233.1L1635.03 233.1V297H1643.03ZM1738.4 192.3V188.3H1734.4V192.3H1738.4ZM1738.4 297H1734.4V301H1738.4V297ZM1772 271.8H1768V275.8H1772V271.8ZM1772 217.35V213.35H1768V217.35H1772ZM1734.4 192.3V297H1742.4V192.3H1734.4ZM1738.4 301H1790V293H1738.4V301ZM1790 301C1819.6 301 1837.96 293.811 1848.88 282.833C1859.8 271.848 1862.55 257.797 1862.55 245.7H1854.55C1854.55 256.703 1852.04 268.302 1843.2 277.192C1834.36 286.089 1818.44 293 1790 293V301ZM1862.55 245.7V241.35H1854.55V245.7H1862.55ZM1862.55 241.35C1862.55 229.373 1859.18 215.892 1847.96 205.458C1836.78 195.068 1818.46 188.3 1789.85 188.3V196.3C1817.33 196.3 1833.36 202.807 1842.51 211.317C1851.61 219.783 1854.55 230.827 1854.55 241.35H1862.55ZM1789.85 188.3L1738.4 188.3V196.3L1789.85 196.3V188.3ZM1776 271.8V217.35H1768V271.8H1776ZM1772 221.35H1787V213.35H1772V221.35ZM1787 221.35C1802.96 221.35 1810.78 225.132 1814.7 229.255C1818.62 233.381 1819.45 238.69 1819.45 243.75H1827.45C1827.45 238.01 1826.55 230.119 1820.5 223.745C1814.44 217.368 1804.03 213.35 1787 213.35V221.35ZM1819.45 243.75V244.65H1827.45V243.75H1819.45ZM1819.45 244.65C1819.45 249.985 1818.63 255.484 1814.71 259.73C1810.82 263.949 1803.03 267.8 1787 267.8V275.8C1804.12 275.8 1814.55 271.701 1820.59 265.157C1826.61 258.641 1827.45 250.565 1827.45 244.65H1819.45ZM1787 267.8H1772V275.8H1787V267.8ZM1933.55 230.85L1933.65 226.851L1933.64 226.851L1933.63 226.851L1933.55 230.85ZM1912.55 230.4L1912.43 234.398L1912.45 234.399L1912.46 234.399L1912.55 230.4ZM1942.1 218.4L1938.97 220.899L1940.17 222.4H1942.1V218.4ZM1979.9 218.4V222.4H1984.31L1983.88 218.006L1979.9 218.4ZM1905.2 254.4L1905.08 258.398L1905.1 258.399L1905.11 258.399L1905.2 254.4ZM1925.9 254.85L1926 250.851L1925.99 250.851L1925.98 250.851L1925.9 254.85ZM1894.1 266.55L1897.75 264.914L1896.69 262.55H1894.1V266.55ZM1856.9 266.55V262.55H1852.57L1852.91 266.864L1856.9 266.55ZM1933.63 226.851L1912.63 226.401L1912.46 234.399L1933.46 234.849L1933.63 226.851ZM1912.66 226.402C1904.76 226.18 1900.71 225.139 1898.72 224.035C1897.82 223.535 1897.48 223.097 1897.33 222.825C1897.17 222.538 1897.05 222.119 1897.05 221.4H1889.05C1889.05 223.081 1889.35 224.93 1890.34 226.711C1891.34 228.506 1892.87 229.934 1894.84 231.028C1898.59 233.111 1904.28 234.17 1912.43 234.398L1912.66 226.402ZM1897.05 221.4C1897.05 221.384 1896.92 220.215 1900.49 218.888C1903.98 217.595 1909.79 216.7 1918.55 216.7V208.7C1909.45 208.7 1902.52 209.605 1897.71 211.387C1893 213.135 1889.05 216.316 1889.05 221.4H1897.05ZM1918.55 216.7H1922.15V208.7H1918.55V216.7ZM1922.15 216.7C1933.94 216.7 1937.74 219.359 1938.97 220.899L1945.22 215.901C1941.65 211.441 1934.66 208.7 1922.15 208.7V216.7ZM1942.1 222.4H1979.9V214.4H1942.1V222.4ZM1983.88 218.006C1983.11 210.22 1979.8 202.025 1970.4 195.969C1961.28 190.09 1946.83 186.5 1924.4 186.5V194.5C1946.21 194.5 1958.84 198.035 1966.07 202.693C1973.02 207.175 1975.34 212.93 1975.92 218.794L1983.88 218.006ZM1924.4 186.5H1912.85V194.5H1924.4V186.5ZM1912.85 186.5C1890.24 186.5 1875.5 190.033 1866.34 196.426C1856.84 203.065 1853.95 212.332 1853.95 221.85H1861.95C1861.95 214.118 1864.16 207.71 1870.92 202.986C1878.04 198.017 1890.75 194.5 1912.85 194.5V186.5ZM1853.95 221.85V223.2H1861.95V221.85H1853.95ZM1853.95 223.2C1853.95 232.265 1856.98 241.083 1865.39 247.636C1873.59 254.03 1886.39 257.862 1905.08 258.398L1905.31 250.402C1887.4 249.888 1876.58 246.22 1870.31 241.327C1864.23 236.592 1861.95 230.335 1861.95 223.2H1853.95ZM1905.11 258.399L1925.81 258.849L1925.98 250.851L1905.28 250.401L1905.11 258.399ZM1925.79 258.849C1934.34 259.072 1938.61 260.127 1940.67 261.294C1941.58 261.808 1941.92 262.27 1942.1 262.611C1942.29 263 1942.45 263.59 1942.45 264.6H1950.45C1950.45 262.835 1950.19 260.875 1949.23 258.986C1948.24 257.048 1946.68 255.505 1944.61 254.331C1940.71 252.123 1934.7 251.078 1926 250.851L1925.79 258.849ZM1942.45 264.6C1942.45 265.587 1942.32 266.31 1942.06 266.886C1941.82 267.409 1941.38 268.033 1940.38 268.683C1938.16 270.114 1933.36 271.55 1923.35 271.55V279.55C1933.73 279.55 1940.48 278.136 1944.72 275.405C1946.93 273.973 1948.45 272.188 1949.35 270.165C1950.24 268.196 1950.45 266.238 1950.45 264.6H1942.45ZM1923.35 271.55H1920.2V279.55H1923.35V271.55ZM1920.2 271.55C1913.09 271.55 1907.56 270.445 1903.7 268.951C1899.64 267.378 1898.07 265.646 1897.75 264.914L1890.45 268.186C1892.07 271.804 1896.06 274.572 1900.81 276.411C1905.76 278.33 1912.31 279.55 1920.2 279.55V271.55ZM1894.1 262.55H1856.9V270.55H1894.1V262.55ZM1852.91 266.864C1853.49 274.301 1856.23 283.542 1865.72 290.786C1875.04 297.899 1890.31 302.65 1914.95 302.65V294.65C1891.14 294.65 1877.91 290.026 1870.57 284.427C1863.41 278.958 1861.35 272.149 1860.88 266.236L1852.91 266.864ZM1914.95 302.65H1925V294.65H1914.95V302.65ZM1925 302.65C1950.18 302.65 1965.57 297.923 1974.68 290.321C1984 282.544 1986 272.409 1986 263.7H1978C1978 271.191 1976.32 278.531 1969.55 284.179C1962.58 290.002 1949.47 294.65 1925 294.65V302.65ZM1986 263.7V261.9H1978V263.7H1986ZM1986 261.9C1986 252.294 1983.42 243.364 1974.85 236.932C1966.62 230.749 1953.46 227.383 1933.65 226.851L1933.44 234.849C1952.78 235.367 1963.85 238.676 1970.05 243.33C1975.92 247.736 1978 253.806 1978 261.9H1986Z" fill="#ECECEE" fill-opacity="0.61"/>
<path d="M1202.45 392.7H1198.45V396.7H1202.45V392.7ZM1202.45 315.3H1206.45V311.3H1202.45V315.3ZM1168.85 315.3V311.3H1164.85V315.3H1168.85ZM1168.85 420H1164.85V424H1168.85V420ZM1265.9 420V424H1269.9V420H1265.9ZM1265.9 392.7H1269.9V388.7H1265.9V392.7ZM1206.45 392.7V315.3H1198.45V392.7H1206.45ZM1202.45 311.3H1168.85V319.3H1202.45V311.3ZM1164.85 315.3V420H1172.85V315.3H1164.85ZM1168.85 424H1265.9V416H1168.85V424ZM1269.9 420V392.7H1261.9V420H1269.9ZM1265.9 388.7H1202.45V396.7H1265.9V388.7ZM1373.43 315.3H1377.43V311.3H1373.43V315.3ZM1273.08 315.3V311.3H1269.08V315.3H1273.08ZM1273.08 420H1269.08V424H1273.08V420ZM1374.33 420V424H1378.33V420H1374.33ZM1374.33 395.7H1378.33V391.7H1374.33V395.7ZM1306.38 395.7H1302.38V399.7H1306.38V395.7ZM1306.38 379.5V375.5H1302.38V379.5H1306.38ZM1373.88 379.5V383.5H1377.88V379.5H1373.88ZM1373.88 354.6H1377.88V350.6H1373.88V354.6ZM1306.38 354.6H1302.38V358.6H1306.38V354.6ZM1306.38 339.3V335.3H1302.38V339.3H1306.38ZM1373.43 339.3V343.3H1377.43V339.3H1373.43ZM1373.43 311.3L1273.08 311.3V319.3L1373.43 319.3V311.3ZM1269.08 315.3V420H1277.08V315.3H1269.08ZM1273.08 424H1374.33V416H1273.08V424ZM1378.33 420V395.7H1370.33V420H1378.33ZM1374.33 391.7H1306.38V399.7H1374.33V391.7ZM1310.38 395.7V379.5H1302.38V395.7H1310.38ZM1306.38 383.5H1373.88V375.5H1306.38V383.5ZM1377.88 379.5V354.6H1369.88V379.5H1377.88ZM1373.88 350.6H1306.38V358.6H1373.88V350.6ZM1310.38 354.6V339.3H1302.38V354.6H1310.38ZM1306.38 343.3H1373.43V335.3H1306.38V343.3ZM1377.43 339.3V315.3H1369.43V339.3H1377.43ZM1491.81 400.35H1495.81V386.275L1488.41 398.246L1491.81 400.35ZM1491.81 418.5H1487.81V422.5H1491.81V418.5ZM1515.81 418.5V422.5H1519.81V418.5H1515.81ZM1515.81 360.6H1519.81V356.6H1515.81V360.6ZM1451.01 360.6V356.6H1447.01V360.6H1451.01ZM1451.01 379.8H1447.01V383.8H1451.01V379.8ZM1480.41 379.8L1484.31 380.686L1485.42 375.8H1480.41V379.8ZM1450.26 338.1V342.1H1450.28L1450.3 342.1L1450.26 338.1ZM1481.01 352.95L1477.01 352.871L1476.93 356.95H1481.01V352.95ZM1515.81 352.95V356.95H1519.81V352.95H1515.81ZM1444.71 424H1447.11V416H1444.71V424ZM1447.11 424C1464.25 424 1476.21 418.81 1483.94 413.465C1487.79 410.806 1490.55 408.131 1492.38 406.087C1493.3 405.064 1493.98 404.198 1494.44 403.567C1494.68 403.251 1494.85 402.994 1494.98 402.805C1495.05 402.711 1495.1 402.634 1495.13 402.575C1495.15 402.545 1495.17 402.52 1495.18 402.5C1495.19 402.49 1495.19 402.481 1495.2 402.473C1495.2 402.469 1495.2 402.466 1495.2 402.462C1495.21 402.461 1495.21 402.459 1495.21 402.458C1495.21 402.456 1495.21 402.454 1491.81 400.35C1488.41 398.246 1488.41 398.244 1488.41 398.243C1488.41 398.242 1488.41 398.24 1488.41 398.239C1488.41 398.237 1488.41 398.235 1488.41 398.234C1488.42 398.231 1488.42 398.229 1488.42 398.229C1488.42 398.227 1488.42 398.23 1488.41 398.238C1488.4 398.254 1488.38 398.287 1488.35 398.336C1488.28 398.435 1488.17 398.6 1488 398.822C1487.68 399.265 1487.15 399.934 1486.42 400.754C1484.95 402.394 1482.65 404.631 1479.39 406.885C1472.91 411.365 1462.52 416 1447.11 416V424ZM1487.81 400.35V418.5H1495.81V400.35H1487.81ZM1491.81 422.5H1515.81V414.5H1491.81V422.5ZM1519.81 418.5V360.6H1511.81V418.5H1519.81ZM1515.81 356.6H1451.01V364.6H1515.81V356.6ZM1447.01 360.6V379.8H1455.01V360.6H1447.01ZM1451.01 383.8H1480.41V375.8H1451.01V383.8ZM1476.51 378.914C1476.33 379.711 1475.36 382.447 1471.87 385.016C1468.39 387.576 1462.09 390.2 1450.86 390.2V398.2C1463.33 398.2 1471.43 395.274 1476.61 391.459C1481.78 387.653 1483.74 383.189 1484.31 380.686L1476.51 378.914ZM1450.86 390.2C1439.24 390.2 1432.26 386.728 1428.16 382.366C1424 377.939 1422.31 372.076 1422.31 366.45H1414.31C1414.31 373.574 1416.44 381.586 1422.33 387.846C1428.28 394.172 1437.58 398.2 1450.86 398.2V390.2ZM1422.31 366.45V364.65H1414.31V366.45H1422.31ZM1422.31 364.65C1422.31 358.8 1423.89 353.304 1427.81 349.272C1431.71 345.27 1438.52 342.1 1450.26 342.1V334.1C1437.1 334.1 1427.93 337.68 1422.08 343.691C1416.26 349.671 1414.31 357.45 1414.31 364.65H1422.31ZM1450.3 342.1C1465.24 341.955 1471.71 345.54 1474.47 348.262C1475.86 349.636 1476.48 350.943 1476.76 351.816C1476.91 352.261 1476.97 352.606 1476.99 352.803C1477 352.9 1477.01 352.96 1477.01 352.974C1477.01 352.981 1477.01 352.976 1477.01 352.96C1477.01 352.951 1477.01 352.94 1477.01 352.925C1477.01 352.917 1477.01 352.909 1477.01 352.9C1477.01 352.896 1477.01 352.891 1477.01 352.886C1477.01 352.884 1477.01 352.88 1477.01 352.879C1477.01 352.875 1477.01 352.871 1481.01 352.95C1485.01 353.029 1485.01 353.025 1485.01 353.021C1485.01 353.02 1485.01 353.015 1485.01 353.012C1485.01 353.007 1485.01 353.001 1485.01 352.994C1485.01 352.981 1485.01 352.968 1485.01 352.953C1485.01 352.924 1485.01 352.891 1485.01 352.854C1485.01 352.779 1485 352.69 1485 352.586C1484.99 352.378 1484.97 352.112 1484.93 351.797C1484.85 351.166 1484.69 350.329 1484.38 349.359C1483.74 347.401 1482.5 344.939 1480.08 342.563C1475.23 337.785 1466.33 333.945 1450.22 334.1L1450.3 342.1ZM1481.01 356.95H1515.81V348.95H1481.01V356.95ZM1519.81 352.95C1519.81 343.85 1516.07 332.506 1505.55 323.494C1495.05 314.496 1478.19 308.15 1452.51 308.15V316.15C1476.93 316.15 1491.72 322.179 1500.34 329.569C1508.95 336.944 1511.81 346 1511.81 352.95H1519.81ZM1452.51 308.15H1447.71V316.15H1452.51V308.15ZM1447.71 308.15C1421.51 308.15 1404.26 315.667 1393.58 326.778C1382.95 337.838 1379.36 351.913 1379.36 364.05H1387.36C1387.36 353.387 1390.52 341.512 1399.35 332.322C1408.13 323.183 1423.06 316.15 1447.71 316.15V308.15ZM1379.36 364.05V367.35H1387.36V364.05H1379.36ZM1379.36 367.35C1379.36 379.936 1383.1 394.161 1393.38 405.278C1403.73 416.471 1420.23 424 1444.71 424V416C1421.94 416 1407.76 409.054 1399.25 399.847C1390.67 390.564 1387.36 378.464 1387.36 367.35H1379.36ZM1629.5 315.3H1633.5V311.3H1629.5V315.3ZM1529.15 315.3V311.3H1525.15V315.3H1529.15ZM1529.15 420H1525.15V424H1529.15V420ZM1630.4 420V424H1634.4V420H1630.4ZM1630.4 395.7H1634.4V391.7H1630.4V395.7ZM1562.45 395.7H1558.45V399.7H1562.45V395.7ZM1562.45 379.5V375.5H1558.45V379.5H1562.45ZM1629.95 379.5V383.5H1633.95V379.5H1629.95ZM1629.95 354.6H1633.95V350.6H1629.95V354.6ZM1562.45 354.6H1558.45V358.6H1562.45V354.6ZM1562.45 339.3V335.3H1558.45V339.3H1562.45ZM1629.5 339.3V343.3H1633.5V339.3H1629.5ZM1629.5 311.3H1529.15V319.3H1629.5V311.3ZM1525.15 315.3V420H1533.15V315.3H1525.15ZM1529.15 424L1630.4 424V416L1529.15 416V424ZM1634.4 420V395.7H1626.4V420H1634.4ZM1630.4 391.7L1562.45 391.7V399.7L1630.4 399.7V391.7ZM1566.45 395.7V379.5H1558.45V395.7H1566.45ZM1562.45 383.5H1629.95V375.5H1562.45V383.5ZM1633.95 379.5V354.6H1625.95V379.5H1633.95ZM1629.95 350.6H1562.45V358.6H1629.95V350.6ZM1566.45 354.6V339.3H1558.45V354.6H1566.45ZM1562.45 343.3H1629.5V335.3H1562.45V343.3ZM1633.5 339.3V315.3H1625.5V339.3H1633.5ZM1676.93 356.1L1679.84 353.351L1672.93 346.052V356.1H1676.93ZM1737.53 420.15L1734.62 422.899L1735.81 424.15H1737.53V420.15ZM1770.08 420.15V424.15H1774.08V420.15H1770.08ZM1770.08 315.3H1774.08V311.3H1770.08V315.3ZM1737.38 315.3V311.3H1733.38V315.3H1737.38ZM1737.38 378.15L1734.46 380.883L1741.38 388.28V378.15H1737.38ZM1678.58 315.3L1681.5 312.567L1680.32 311.3H1678.58V315.3ZM1644.23 315.3V311.3H1640.23V315.3H1644.23ZM1644.23 420H1640.23V424H1644.23V420ZM1676.93 420V424H1680.93V420H1676.93ZM1674.02 358.849L1734.62 422.899L1740.44 417.401L1679.84 353.351L1674.02 358.849ZM1737.53 424.15H1770.08V416.15H1737.53V424.15ZM1774.08 420.15V315.3H1766.08V420.15H1774.08ZM1770.08 311.3H1737.38V319.3H1770.08V311.3ZM1733.38 315.3V378.15H1741.38V315.3H1733.38ZM1740.3 375.417L1681.5 312.567L1675.66 318.033L1734.46 380.883L1740.3 375.417ZM1678.58 311.3L1644.23 311.3V319.3L1678.58 319.3V311.3ZM1640.23 315.3V420H1648.23V315.3H1640.23ZM1644.23 424H1676.93V416H1644.23V424ZM1680.93 420V356.1H1672.93V420H1680.93ZM1785.23 315.3V311.3H1781.23V315.3H1785.23ZM1785.23 420H1781.23V424H1785.23V420ZM1818.83 394.8H1814.83V398.8H1818.83V394.8ZM1818.83 340.35V336.35H1814.83V340.35H1818.83ZM1781.23 315.3V420H1789.23V315.3H1781.23ZM1785.23 424H1836.83V416H1785.23V424ZM1836.83 424C1866.43 424 1884.79 416.811 1895.71 405.833C1906.63 394.848 1909.38 380.797 1909.38 368.7H1901.38C1901.38 379.703 1898.87 391.302 1890.03 400.192C1881.19 409.089 1865.27 416 1836.83 416V424ZM1909.38 368.7V364.35H1901.38V368.7H1909.38ZM1909.38 364.35C1909.38 352.373 1906.01 338.892 1894.79 328.458C1883.61 318.068 1865.29 311.3 1836.68 311.3V319.3C1864.16 319.3 1880.19 325.807 1889.34 334.317C1898.45 342.783 1901.38 353.827 1901.38 364.35H1909.38ZM1836.68 311.3H1785.23V319.3H1836.68V311.3ZM1822.83 394.8V340.35H1814.83V394.8H1822.83ZM1818.83 344.35H1833.83V336.35H1818.83V344.35ZM1833.83 344.35C1849.79 344.35 1857.61 348.132 1861.53 352.255C1865.45 356.381 1866.28 361.69 1866.28 366.75H1874.28C1874.28 361.01 1873.38 353.119 1867.33 346.745C1861.27 340.368 1850.86 336.35 1833.83 336.35V344.35ZM1866.28 366.75V367.65H1874.28V366.75H1866.28ZM1866.28 367.65C1866.28 372.985 1865.47 378.484 1861.54 382.73C1857.65 386.949 1849.86 390.8 1833.83 390.8V398.8C1850.95 398.8 1861.38 394.701 1867.42 388.157C1873.44 381.641 1874.28 373.565 1874.28 367.65H1866.28ZM1833.83 390.8H1818.83V398.8H1833.83V390.8ZM1988.28 352.35L1988.39 348.351L1988.38 348.351L1988.37 348.351L1988.28 352.35ZM1967.28 351.9L1967.17 355.898L1967.18 355.899L1967.19 355.899L1967.28 351.9ZM1996.83 339.9L1993.71 342.399L1994.91 343.9H1996.83V339.9ZM2034.63 339.9V343.9H2039.05L2038.61 339.506L2034.63 339.9ZM1959.93 375.9L1959.82 379.898L1959.83 379.899L1959.84 379.899L1959.93 375.9ZM1980.63 376.35L1980.73 372.351L1980.73 372.351L1980.72 372.351L1980.63 376.35ZM1948.83 388.05L1952.48 386.414L1951.42 384.05H1948.83V388.05ZM1911.63 388.05V384.05H1907.3L1907.64 388.364L1911.63 388.05ZM1988.37 348.351L1967.37 347.901L1967.19 355.899L1988.19 356.349L1988.37 348.351ZM1967.39 347.902C1959.5 347.68 1955.44 346.639 1953.45 345.535C1952.55 345.035 1952.22 344.597 1952.07 344.325C1951.91 344.038 1951.78 343.619 1951.78 342.9H1943.78C1943.78 344.581 1944.08 346.43 1945.07 348.211C1946.07 350.006 1947.6 351.434 1949.57 352.528C1953.32 354.611 1959.01 355.67 1967.17 355.898L1967.39 347.902ZM1951.78 342.9C1951.78 342.884 1951.65 341.715 1955.23 340.388C1958.71 339.095 1964.53 338.2 1973.28 338.2V330.2C1964.18 330.2 1957.25 331.105 1952.44 332.887C1947.73 334.635 1943.78 337.816 1943.78 342.9H1951.78ZM1973.28 338.2H1976.88V330.2H1973.28V338.2ZM1976.88 338.2C1988.67 338.2 1992.47 340.859 1993.71 342.399L1999.95 337.401C1996.39 332.941 1989.39 330.2 1976.88 330.2V338.2ZM1996.83 343.9H2034.63V335.9H1996.83V343.9ZM2038.61 339.506C2037.84 331.72 2034.53 323.525 2025.13 317.469C2016.01 311.59 2001.56 308 1979.13 308V316C2000.95 316 2013.57 319.535 2020.8 324.193C2027.75 328.675 2030.07 334.43 2030.65 340.294L2038.61 339.506ZM1979.13 308H1967.58V316H1979.13V308ZM1967.58 308C1944.97 308 1930.23 311.533 1921.08 317.926C1911.57 324.565 1908.68 333.832 1908.68 343.35H1916.68C1916.68 335.618 1918.89 329.21 1925.66 324.486C1932.78 319.517 1945.49 316 1967.58 316V308ZM1908.68 343.35V344.7H1916.68V343.35H1908.68ZM1908.68 344.7C1908.68 353.765 1911.72 362.583 1920.12 369.136C1928.32 375.53 1941.13 379.362 1959.82 379.898L1960.04 371.902C1942.13 371.388 1931.31 367.72 1925.04 362.827C1918.97 358.092 1916.68 351.835 1916.68 344.7H1908.68ZM1959.84 379.899L1980.54 380.349L1980.72 372.351L1960.02 371.901L1959.84 379.899ZM1980.53 380.349C1989.07 380.572 1993.34 381.627 1995.4 382.794C1996.31 383.308 1996.66 383.77 1996.83 384.111C1997.03 384.5 1997.18 385.09 1997.18 386.1H2005.18C2005.18 384.335 2004.92 382.375 2003.96 380.486C2002.98 378.548 2001.42 377.005 1999.34 375.831C1995.44 373.623 1989.44 372.578 1980.73 372.351L1980.53 380.349ZM1997.18 386.1C1997.18 387.087 1997.05 387.81 1996.79 388.386C1996.56 388.909 1996.12 389.533 1995.11 390.183C1992.89 391.614 1988.1 393.05 1978.08 393.05V401.05C1988.46 401.05 1995.22 399.636 1999.45 396.905C2001.67 395.473 2003.18 393.688 2004.09 391.665C2004.97 389.696 2005.18 387.738 2005.18 386.1H1997.18ZM1978.08 393.05H1974.93V401.05H1978.08V393.05ZM1974.93 393.05C1967.82 393.05 1962.29 391.945 1958.43 390.451C1954.37 388.878 1952.81 387.146 1952.48 386.414L1945.18 389.686C1946.8 393.304 1950.79 396.072 1955.54 397.911C1960.5 399.83 1967.04 401.05 1974.93 401.05V393.05ZM1948.83 384.05H1911.63V392.05H1948.83V384.05ZM1907.64 388.364C1908.23 395.801 1910.97 405.042 1920.45 412.286C1929.77 419.399 1945.04 424.15 1969.68 424.15V416.15C1945.87 416.15 1932.64 411.526 1925.31 405.927C1918.14 400.458 1916.08 393.649 1915.62 387.736L1907.64 388.364ZM1969.68 424.15H1979.73V416.15H1969.68V424.15ZM1979.73 424.15C2004.91 424.15 2020.3 419.423 2029.41 411.821C2038.73 404.044 2040.73 393.909 2040.73 385.2H2032.73C2032.73 392.691 2031.05 400.031 2024.29 405.679C2017.31 411.502 2004.2 416.15 1979.73 416.15V424.15ZM2040.73 385.2V383.4H2032.73V385.2H2040.73ZM2040.73 383.4C2040.73 373.794 2038.16 364.864 2029.59 358.432C2021.35 352.249 2008.2 348.883 1988.39 348.351L1988.17 356.349C2007.51 356.867 2018.58 360.176 2024.79 364.83C2030.65 369.236 2032.73 375.306 2032.73 383.4H2040.73Z" fill="#ECECEE" fill-opacity="0.61"/>
<rect y="22" width="1198" height="439" fill="#D6D2C8"/>
<rect x="1186" y="22" width="12" height="439" fill="#950202"/>
<rect y="22" width="12" height="439" fill="#001E45"/>
</svg>
