<svg width="609" height="422" viewBox="0 0 609 422" fill="none" xmlns="http://www.w3.org/2000/svg">
<path d="M40.2 98.1L100.8 162.15H133.35V57.3H100.65V120.15L41.85 57.3H7.5V162H40.2V98.1ZM248.914 57.3H148.564V162.15H249.814V137.7H181.864V121.5H249.364V96.6H181.864V81.3H248.914V57.3ZM439.351 57.3L405.151 129.45L384.001 57.3H346.801L325.501 129.45L291.301 57.3H255.301L303.751 162H342.901L364.051 92.7L385.351 162H424.951L472.501 57.3H439.351ZM550.468 95.85L529.468 95.4C513.418 94.95 509.968 91.2 509.968 86.4C509.968 81.3 517.618 77.7 535.468 77.7H539.068C551.218 77.7 556.618 80.4 559.018 83.4H596.818C595.468 69.75 585.568 55.5 541.318 55.5H529.768C485.068 55.5 474.868 69.6 474.868 86.85V88.2C474.868 104.4 485.518 118.35 522.118 119.4L542.818 119.85C560.068 120.3 563.368 124.05 563.368 129.6C563.368 134.85 560.668 140.55 540.268 140.55H537.118C522.118 140.55 512.968 135.9 511.018 131.55H473.818C474.868 144.9 483.418 163.65 531.868 163.65H541.918C591.568 163.65 598.918 144.9 598.918 128.7V126.9C598.918 109.2 589.618 96.9 550.468 95.85Z" fill="#CECECE" fill-opacity="0.27"/>
<path d="M40.2 98.1L43.1056 95.3509L36.2 88.0522V98.1H40.2ZM100.8 162.15L97.8944 164.899L99.0779 166.15H100.8V162.15ZM133.35 162.15V166.15H137.35V162.15H133.35ZM133.35 57.3H137.35V53.3H133.35V57.3ZM100.65 57.3V53.3H96.65V57.3H100.65ZM100.65 120.15L97.729 122.883L104.65 130.28V120.15H100.65ZM41.85 57.3L44.771 54.5672L43.5854 53.3H41.85V57.3ZM7.5 57.3V53.3H3.5V57.3H7.5ZM7.5 162H3.5V166H7.5V162ZM40.2 162V166H44.2V162H40.2ZM37.2944 100.849L97.8944 164.899L103.706 159.401L43.1056 95.3509L37.2944 100.849ZM100.8 166.15H133.35V158.15H100.8V166.15ZM137.35 162.15V57.3H129.35V162.15H137.35ZM133.35 53.3H100.65V61.3H133.35V53.3ZM96.65 57.3V120.15H104.65V57.3H96.65ZM103.571 117.417L44.771 54.5672L38.929 60.0327L97.729 122.883L103.571 117.417ZM41.85 53.3H7.5V61.3H41.85V53.3ZM3.5 57.3V162H11.5V57.3H3.5ZM7.5 166H40.2V158H7.5V166ZM44.2 162V98.1H36.2V162H44.2ZM248.914 57.3H252.914V53.3H248.914V57.3ZM148.564 57.3V53.3H144.564V57.3H148.564ZM148.564 162.15H144.564V166.15H148.564V162.15ZM249.814 162.15V166.15H253.814V162.15H249.814ZM249.814 137.7H253.814V133.7H249.814V137.7ZM181.864 137.7H177.864V141.7H181.864V137.7ZM181.864 121.5V117.5H177.864V121.5H181.864ZM249.364 121.5V125.5H253.364V121.5H249.364ZM249.364 96.6H253.364V92.6H249.364V96.6ZM181.864 96.6H177.864V100.6H181.864V96.6ZM181.864 81.3V77.3H177.864V81.3H181.864ZM248.914 81.3V85.3H252.914V81.3H248.914ZM248.914 53.3H148.564V61.3H248.914V53.3ZM144.564 57.3V162.15H152.564V57.3H144.564ZM148.564 166.15H249.814V158.15H148.564V166.15ZM253.814 162.15V137.7H245.814V162.15H253.814ZM249.814 133.7H181.864V141.7H249.814V133.7ZM185.864 137.7V121.5H177.864V137.7H185.864ZM181.864 125.5H249.364V117.5H181.864V125.5ZM253.364 121.5V96.6H245.364V121.5H253.364ZM249.364 92.6H181.864V100.6H249.364V92.6ZM185.864 96.6V81.3H177.864V96.6H185.864ZM181.864 85.3H248.914V77.3H181.864V85.3ZM252.914 81.3V57.3H244.914V81.3H252.914ZM439.351 57.3V53.3H436.821L435.737 55.5867L439.351 57.3ZM405.151 129.45L401.313 130.575L404.267 140.654L408.766 131.163L405.151 129.45ZM384.001 57.3L387.84 56.1748L386.997 53.3H384.001V57.3ZM346.801 57.3V53.3H343.811L342.965 56.1674L346.801 57.3ZM325.501 129.45L321.887 131.163L326.372 140.626L329.337 130.583L325.501 129.45ZM291.301 57.3L294.916 55.5867L293.832 53.3H291.301V57.3ZM255.301 57.3V53.3H249.043L251.671 58.9799L255.301 57.3ZM303.751 162L300.121 163.68L301.195 166H303.751V162ZM342.901 162V166H345.863L346.727 163.168L342.901 162ZM364.051 92.7L367.875 91.5248L364.038 79.0411L360.225 91.5324L364.051 92.7ZM385.351 162L381.528 163.175L382.396 166H385.351V162ZM424.951 162V166H427.528L428.593 163.654L424.951 162ZM472.501 57.3L476.143 58.954L478.711 53.3H472.501V57.3ZM435.737 55.5867L401.537 127.737L408.766 131.163L442.966 59.0133L435.737 55.5867ZM408.99 128.325L387.84 56.1748L380.163 58.4252L401.313 130.575L408.99 128.325ZM384.001 53.3H346.801V61.3H384.001V53.3ZM342.965 56.1674L321.665 128.317L329.337 130.583L350.637 58.4325L342.965 56.1674ZM329.116 127.737L294.916 55.5867L287.687 59.0133L321.887 131.163L329.116 127.737ZM291.301 53.3H255.301V61.3H291.301V53.3ZM251.671 58.9799L300.121 163.68L307.381 160.32L258.931 55.6201L251.671 58.9799ZM303.751 166H342.901V158H303.751V166ZM346.727 163.168L367.877 93.8676L360.225 91.5324L339.075 160.832L346.727 163.168ZM360.228 93.8752L381.528 163.175L389.175 160.825L367.875 91.5248L360.228 93.8752ZM385.351 166H424.951V158H385.351V166ZM428.593 163.654L476.143 58.954L468.859 55.646L421.309 160.346L428.593 163.654ZM472.501 53.3H439.351V61.3H472.501V53.3ZM550.468 95.85L550.576 91.8514L550.565 91.8511L550.554 91.8509L550.468 95.85ZM529.468 95.4L529.356 99.3984L529.369 99.3988L529.383 99.3991L529.468 95.4ZM559.018 83.4L555.895 85.8988L557.096 87.4H559.018V83.4ZM596.818 83.4V87.4H601.233L600.799 83.0063L596.818 83.4ZM522.118 119.4L522.004 123.398L522.018 123.399L522.031 123.399L522.118 119.4ZM542.818 119.85L542.923 115.851L542.914 115.851L542.905 115.851L542.818 119.85ZM511.018 131.55L514.668 129.914L513.609 127.55H511.018V131.55ZM473.818 131.55V127.55H469.491L469.831 131.864L473.818 131.55ZM550.554 91.8509L529.554 91.4009L529.383 99.3991L550.383 99.8491L550.554 91.8509ZM529.58 91.4016C521.687 91.1802 517.629 90.1386 515.642 89.0346C514.742 88.5345 514.406 88.0967 514.255 87.8254C514.095 87.5383 513.968 87.1188 513.968 86.4H505.968C505.968 88.0812 506.273 89.9304 507.262 91.7105C508.259 93.5065 509.788 94.9342 511.757 96.0279C515.507 98.1114 521.2 99.1697 529.356 99.3984L529.58 91.4016ZM513.968 86.4C513.968 86.3838 513.839 85.2151 517.416 83.8877C520.899 82.5953 526.716 81.7 535.468 81.7V73.7C526.371 73.7 519.437 74.6047 514.633 76.3873C509.923 78.1349 505.968 81.3162 505.968 86.4H513.968ZM535.468 81.7H539.068V73.7H535.468V81.7ZM539.068 81.7C550.86 81.7 554.663 84.359 555.895 85.8988L562.142 80.9012C558.574 76.441 551.577 73.7 539.068 73.7V81.7ZM559.018 87.4H596.818V79.4H559.018V87.4ZM600.799 83.0063C600.029 75.2198 596.72 67.0252 587.323 60.969C578.201 55.0904 563.753 51.5 541.318 51.5V59.5C563.134 59.5 575.76 63.0346 582.989 67.6935C589.942 72.1747 592.258 77.9302 592.838 83.7937L600.799 83.0063ZM541.318 51.5H529.768V59.5H541.318V51.5ZM529.768 51.5C507.163 51.5 492.423 55.0335 483.266 61.4265C473.757 68.0652 470.868 77.3322 470.868 86.85H478.868C478.868 79.1178 481.08 72.7098 487.846 67.986C494.964 63.0165 507.674 59.5 529.768 59.5V51.5ZM470.868 86.85V88.2H478.868V86.85H470.868ZM470.868 88.2C470.868 97.2651 473.906 106.083 482.309 112.636C490.509 119.03 503.316 122.862 522.004 123.398L522.233 115.402C504.321 114.888 493.502 111.22 487.228 106.327C481.156 101.592 478.868 95.3349 478.868 88.2H470.868ZM522.031 123.399L542.731 123.849L542.905 115.851L522.205 115.401L522.031 123.399ZM542.714 123.849C551.261 124.072 555.531 125.127 557.592 126.294C558.5 126.808 558.844 127.27 559.017 127.611C559.215 128 559.368 128.59 559.368 129.6H567.368C567.368 127.835 567.109 125.875 566.149 123.986C565.164 122.048 563.605 120.505 561.533 119.331C557.631 117.123 551.626 116.078 542.923 115.851L542.714 123.849ZM559.368 129.6C559.368 130.587 559.238 131.31 558.979 131.886C558.744 132.409 558.306 133.033 557.299 133.683C555.082 135.114 550.287 136.55 540.268 136.55V144.55C550.65 144.55 557.405 143.136 561.637 140.405C563.856 138.973 565.367 137.188 566.276 135.165C567.161 133.196 567.368 131.238 567.368 129.6H559.368ZM540.268 136.55H537.118V144.55H540.268V136.55ZM537.118 136.55C530.009 136.55 524.477 135.445 520.619 133.951C516.557 132.378 514.996 130.646 514.668 129.914L507.368 133.186C508.99 136.804 512.979 139.572 517.73 141.411C522.685 143.33 529.228 144.55 537.118 144.55V136.55ZM511.018 127.55H473.818V135.55H511.018V127.55ZM469.831 131.864C470.416 139.301 473.154 148.542 482.641 155.786C491.957 162.899 507.227 167.65 531.868 167.65V159.65C508.06 159.65 494.829 155.026 487.496 149.427C480.333 143.958 478.271 137.149 477.806 131.236L469.831 131.864ZM531.868 167.65H541.918V159.65H531.868V167.65ZM541.918 167.65C567.097 167.65 582.49 162.923 591.6 155.321C600.92 147.544 602.918 137.409 602.918 128.7H594.918C594.918 136.191 593.242 143.531 586.474 149.179C579.497 155.002 566.389 159.65 541.918 159.65V167.65ZM602.918 128.7V126.9H594.918V128.7H602.918ZM602.918 126.9C602.918 117.294 600.344 108.364 591.776 101.932C583.539 95.7493 570.385 92.3827 550.576 91.8514L550.361 99.8486C569.702 100.367 580.773 103.676 586.973 108.33C592.842 112.736 594.918 118.806 594.918 126.9H602.918Z" fill="#ECECEE" fill-opacity="0.27"/>
<path d="M40.2 214.1L43.1056 211.351L36.2 204.052V214.1H40.2ZM100.8 278.15L97.8944 280.899L99.0779 282.15H100.8V278.15ZM133.35 278.15V282.15H137.35V278.15H133.35ZM133.35 173.3H137.35V169.3H133.35V173.3ZM100.65 173.3V169.3H96.65V173.3H100.65ZM100.65 236.15L97.729 238.883L104.65 246.28V236.15H100.65ZM41.85 173.3L44.771 170.567L43.5854 169.3H41.85V173.3ZM7.5 173.3V169.3H3.5V173.3H7.5ZM7.5 278H3.5V282H7.5V278ZM40.2 278V282H44.2V278H40.2ZM37.2944 216.849L97.8944 280.899L103.706 275.401L43.1056 211.351L37.2944 216.849ZM100.8 282.15H133.35V274.15H100.8V282.15ZM137.35 278.15V173.3H129.35V278.15H137.35ZM133.35 169.3H100.65V177.3H133.35V169.3ZM96.65 173.3V236.15H104.65V173.3H96.65ZM103.571 233.417L44.771 170.567L38.929 176.033L97.729 238.883L103.571 233.417ZM41.85 169.3H7.5V177.3H41.85V169.3ZM3.5 173.3V278H11.5V173.3H3.5ZM7.5 282H40.2V274H7.5V282ZM44.2 278V214.1H36.2V278H44.2ZM248.914 173.3H252.914V169.3H248.914V173.3ZM148.564 173.3V169.3H144.564V173.3H148.564ZM148.564 278.15H144.564V282.15H148.564V278.15ZM249.814 278.15V282.15H253.814V278.15H249.814ZM249.814 253.7H253.814V249.7H249.814V253.7ZM181.864 253.7H177.864V257.7H181.864V253.7ZM181.864 237.5V233.5H177.864V237.5H181.864ZM249.364 237.5V241.5H253.364V237.5H249.364ZM249.364 212.6H253.364V208.6H249.364V212.6ZM181.864 212.6H177.864V216.6H181.864V212.6ZM181.864 197.3V193.3H177.864V197.3H181.864ZM248.914 197.3V201.3H252.914V197.3H248.914ZM248.914 169.3H148.564V177.3H248.914V169.3ZM144.564 173.3V278.15H152.564V173.3H144.564ZM148.564 282.15H249.814V274.15H148.564V282.15ZM253.814 278.15V253.7H245.814V278.15H253.814ZM249.814 249.7H181.864V257.7H249.814V249.7ZM185.864 253.7V237.5H177.864V253.7H185.864ZM181.864 241.5H249.364V233.5H181.864V241.5ZM253.364 237.5V212.6H245.364V237.5H253.364ZM249.364 208.6H181.864V216.6H249.364V208.6ZM185.864 212.6V197.3H177.864V212.6H185.864ZM181.864 201.3H248.914V193.3H181.864V201.3ZM252.914 197.3V173.3H244.914V197.3H252.914ZM439.351 173.3V169.3H436.821L435.737 171.587L439.351 173.3ZM405.151 245.45L401.313 246.575L404.267 256.654L408.766 247.163L405.151 245.45ZM384.001 173.3L387.84 172.175L386.997 169.3H384.001V173.3ZM346.801 173.3V169.3H343.811L342.965 172.167L346.801 173.3ZM325.501 245.45L321.887 247.163L326.372 256.626L329.337 246.583L325.501 245.45ZM291.301 173.3L294.916 171.587L293.832 169.3H291.301V173.3ZM255.301 173.3V169.3H249.043L251.671 174.98L255.301 173.3ZM303.751 278L300.121 279.68L301.195 282H303.751V278ZM342.901 278V282H345.863L346.727 279.168L342.901 278ZM364.051 208.7L367.875 207.525L364.038 195.041L360.225 207.532L364.051 208.7ZM385.351 278L381.528 279.175L382.396 282H385.351V278ZM424.951 278V282H427.528L428.593 279.654L424.951 278ZM472.501 173.3L476.143 174.954L478.711 169.3H472.501V173.3ZM435.737 171.587L401.537 243.737L408.766 247.163L442.966 175.013L435.737 171.587ZM408.99 244.325L387.84 172.175L380.163 174.425L401.313 246.575L408.99 244.325ZM384.001 169.3H346.801V177.3H384.001V169.3ZM342.965 172.167L321.665 244.317L329.337 246.583L350.637 174.433L342.965 172.167ZM329.116 243.737L294.916 171.587L287.687 175.013L321.887 247.163L329.116 243.737ZM291.301 169.3H255.301V177.3H291.301V169.3ZM251.671 174.98L300.121 279.68L307.381 276.32L258.931 171.62L251.671 174.98ZM303.751 282H342.901V274H303.751V282ZM346.727 279.168L367.877 209.868L360.225 207.532L339.075 276.832L346.727 279.168ZM360.228 209.875L381.528 279.175L389.175 276.825L367.875 207.525L360.228 209.875ZM385.351 282H424.951V274H385.351V282ZM428.593 279.654L476.143 174.954L468.859 171.646L421.309 276.346L428.593 279.654ZM472.501 169.3H439.351V177.3H472.501V169.3ZM550.468 211.85L550.576 207.851L550.565 207.851L550.554 207.851L550.468 211.85ZM529.468 211.4L529.356 215.398L529.369 215.399L529.383 215.399L529.468 211.4ZM559.018 199.4L555.895 201.899L557.096 203.4H559.018V199.4ZM596.818 199.4V203.4H601.233L600.799 199.006L596.818 199.4ZM522.118 235.4L522.004 239.398L522.018 239.399L522.031 239.399L522.118 235.4ZM542.818 235.85L542.923 231.851L542.914 231.851L542.905 231.851L542.818 235.85ZM511.018 247.55L514.668 245.914L513.609 243.55H511.018V247.55ZM473.818 247.55V243.55H469.491L469.831 247.864L473.818 247.55ZM550.554 207.851L529.554 207.401L529.383 215.399L550.383 215.849L550.554 207.851ZM529.58 207.402C521.687 207.18 517.629 206.139 515.642 205.035C514.742 204.535 514.406 204.097 514.255 203.825C514.095 203.538 513.968 203.119 513.968 202.4H505.968C505.968 204.081 506.273 205.93 507.262 207.711C508.259 209.506 509.788 210.934 511.757 212.028C515.507 214.111 521.2 215.17 529.356 215.398L529.58 207.402ZM513.968 202.4C513.968 202.384 513.839 201.215 517.416 199.888C520.899 198.595 526.716 197.7 535.468 197.7V189.7C526.371 189.7 519.437 190.605 514.633 192.387C509.923 194.135 505.968 197.316 505.968 202.4H513.968ZM535.468 197.7H539.068V189.7H535.468V197.7ZM539.068 197.7C550.86 197.7 554.663 200.359 555.895 201.899L562.142 196.901C558.574 192.441 551.577 189.7 539.068 189.7V197.7ZM559.018 203.4H596.818V195.4H559.018V203.4ZM600.799 199.006C600.029 191.22 596.72 183.025 587.323 176.969C578.201 171.09 563.753 167.5 541.318 167.5V175.5C563.134 175.5 575.76 179.035 582.989 183.693C589.942 188.175 592.258 193.93 592.838 199.794L600.799 199.006ZM541.318 167.5H529.768V175.5H541.318V167.5ZM529.768 167.5C507.163 167.5 492.423 171.033 483.266 177.426C473.757 184.065 470.868 193.332 470.868 202.85H478.868C478.868 195.118 481.08 188.71 487.846 183.986C494.964 179.017 507.674 175.5 529.768 175.5V167.5ZM470.868 202.85V204.2H478.868V202.85H470.868ZM470.868 204.2C470.868 213.265 473.906 222.083 482.309 228.636C490.509 235.03 503.316 238.862 522.004 239.398L522.233 231.402C504.321 230.888 493.502 227.22 487.228 222.327C481.156 217.592 478.868 211.335 478.868 204.2H470.868ZM522.031 239.399L542.731 239.849L542.905 231.851L522.205 231.401L522.031 239.399ZM542.714 239.849C551.261 240.072 555.531 241.127 557.592 242.294C558.5 242.808 558.844 243.27 559.017 243.611C559.215 244 559.368 244.59 559.368 245.6H567.368C567.368 243.835 567.109 241.875 566.149 239.986C565.164 238.048 563.605 236.505 561.533 235.331C557.631 233.123 551.626 232.078 542.923 231.851L542.714 239.849ZM559.368 245.6C559.368 246.587 559.238 247.31 558.979 247.886C558.744 248.409 558.306 249.033 557.299 249.683C555.082 251.114 550.287 252.55 540.268 252.55V260.55C550.65 260.55 557.405 259.136 561.637 256.405C563.856 254.973 565.367 253.188 566.276 251.165C567.161 249.196 567.368 247.238 567.368 245.6H559.368ZM540.268 252.55H537.118V260.55H540.268V252.55ZM537.118 252.55C530.009 252.55 524.477 251.445 520.619 249.951C516.557 248.378 514.996 246.646 514.668 245.914L507.368 249.186C508.99 252.804 512.979 255.572 517.73 257.411C522.685 259.33 529.228 260.55 537.118 260.55V252.55ZM511.018 243.55H473.818V251.55H511.018V243.55ZM469.831 247.864C470.416 255.301 473.154 264.542 482.641 271.786C491.957 278.899 507.227 283.65 531.868 283.65V275.65C508.06 275.65 494.829 271.026 487.496 265.427C480.333 259.958 478.271 253.149 477.806 247.236L469.831 247.864ZM531.868 283.65H541.918V275.65H531.868V283.65ZM541.918 283.65C567.097 283.65 582.49 278.923 591.6 271.321C600.92 263.544 602.918 253.409 602.918 244.7H594.918C594.918 252.191 593.242 259.531 586.474 265.179C579.497 271.002 566.389 275.65 541.918 275.65V283.65ZM602.918 244.7V242.9H594.918V244.7H602.918ZM602.918 242.9C602.918 233.294 600.344 224.364 591.776 217.932C583.539 211.749 570.385 208.383 550.576 207.851L550.361 215.849C569.702 216.367 580.773 219.676 586.973 224.33C592.842 228.736 594.918 234.806 594.918 242.9H602.918Z" fill="#ECECEE" fill-opacity="0.61"/>
<path d="M40.2 335.1L43.1056 332.351L36.2 325.052V335.1H40.2ZM100.8 399.15L97.8944 401.899L99.0779 403.15H100.8V399.15ZM133.35 399.15V403.15H137.35V399.15H133.35ZM133.35 294.3H137.35V290.3H133.35V294.3ZM100.65 294.3V290.3H96.65V294.3H100.65ZM100.65 357.15L97.729 359.883L104.65 367.28V357.15H100.65ZM41.85 294.3L44.771 291.567L43.5854 290.3H41.85V294.3ZM7.5 294.3V290.3H3.5V294.3H7.5ZM7.5 399H3.5V403H7.5V399ZM40.2 399V403H44.2V399H40.2ZM37.2944 337.849L97.8944 401.899L103.706 396.401L43.1056 332.351L37.2944 337.849ZM100.8 403.15H133.35V395.15H100.8V403.15ZM137.35 399.15V294.3H129.35V399.15H137.35ZM133.35 290.3H100.65V298.3H133.35V290.3ZM96.65 294.3V357.15H104.65V294.3H96.65ZM103.571 354.417L44.771 291.567L38.929 297.033L97.729 359.883L103.571 354.417ZM41.85 290.3H7.5V298.3H41.85V290.3ZM3.5 294.3V399H11.5V294.3H3.5ZM7.5 403H40.2V395H7.5V403ZM44.2 399V335.1H36.2V399H44.2ZM248.914 294.3H252.914V290.3H248.914V294.3ZM148.564 294.3V290.3H144.564V294.3H148.564ZM148.564 399.15H144.564V403.15H148.564V399.15ZM249.814 399.15V403.15H253.814V399.15H249.814ZM249.814 374.7H253.814V370.7H249.814V374.7ZM181.864 374.7H177.864V378.7H181.864V374.7ZM181.864 358.5V354.5H177.864V358.5H181.864ZM249.364 358.5V362.5H253.364V358.5H249.364ZM249.364 333.6H253.364V329.6H249.364V333.6ZM181.864 333.6H177.864V337.6H181.864V333.6ZM181.864 318.3V314.3H177.864V318.3H181.864ZM248.914 318.3V322.3H252.914V318.3H248.914ZM248.914 290.3H148.564V298.3H248.914V290.3ZM144.564 294.3V399.15H152.564V294.3H144.564ZM148.564 403.15H249.814V395.15H148.564V403.15ZM253.814 399.15V374.7H245.814V399.15H253.814ZM249.814 370.7H181.864V378.7H249.814V370.7ZM185.864 374.7V358.5H177.864V374.7H185.864ZM181.864 362.5H249.364V354.5H181.864V362.5ZM253.364 358.5V333.6H245.364V358.5H253.364ZM249.364 329.6H181.864V337.6H249.364V329.6ZM185.864 333.6V318.3H177.864V333.6H185.864ZM181.864 322.3H248.914V314.3H181.864V322.3ZM252.914 318.3V294.3H244.914V318.3H252.914ZM439.351 294.3V290.3H436.821L435.737 292.587L439.351 294.3ZM405.151 366.45L401.313 367.575L404.267 377.654L408.766 368.163L405.151 366.45ZM384.001 294.3L387.84 293.175L386.997 290.3H384.001V294.3ZM346.801 294.3V290.3H343.811L342.965 293.167L346.801 294.3ZM325.501 366.45L321.887 368.163L326.372 377.626L329.337 367.583L325.501 366.45ZM291.301 294.3L294.916 292.587L293.832 290.3H291.301V294.3ZM255.301 294.3V290.3H249.043L251.671 295.98L255.301 294.3ZM303.751 399L300.121 400.68L301.195 403H303.751V399ZM342.901 399V403H345.863L346.727 400.168L342.901 399ZM364.051 329.7L367.875 328.525L364.038 316.041L360.225 328.532L364.051 329.7ZM385.351 399L381.528 400.175L382.396 403H385.351V399ZM424.951 399V403H427.528L428.593 400.654L424.951 399ZM472.501 294.3L476.143 295.954L478.711 290.3H472.501V294.3ZM435.737 292.587L401.537 364.737L408.766 368.163L442.966 296.013L435.737 292.587ZM408.99 365.325L387.84 293.175L380.163 295.425L401.313 367.575L408.99 365.325ZM384.001 290.3H346.801V298.3H384.001V290.3ZM342.965 293.167L321.665 365.317L329.337 367.583L350.637 295.433L342.965 293.167ZM329.116 364.737L294.916 292.587L287.687 296.013L321.887 368.163L329.116 364.737ZM291.301 290.3H255.301V298.3H291.301V290.3ZM251.671 295.98L300.121 400.68L307.381 397.32L258.931 292.62L251.671 295.98ZM303.751 403H342.901V395H303.751V403ZM346.727 400.168L367.877 330.868L360.225 328.532L339.075 397.832L346.727 400.168ZM360.228 330.875L381.528 400.175L389.175 397.825L367.875 328.525L360.228 330.875ZM385.351 403H424.951V395H385.351V403ZM428.593 400.654L476.143 295.954L468.859 292.646L421.309 397.346L428.593 400.654ZM472.501 290.3H439.351V298.3H472.501V290.3ZM550.468 332.85L550.576 328.851L550.565 328.851L550.554 328.851L550.468 332.85ZM529.468 332.4L529.356 336.398L529.369 336.399L529.383 336.399L529.468 332.4ZM559.018 320.4L555.895 322.899L557.096 324.4H559.018V320.4ZM596.818 320.4V324.4H601.233L600.799 320.006L596.818 320.4ZM522.118 356.4L522.004 360.398L522.018 360.399L522.031 360.399L522.118 356.4ZM542.818 356.85L542.923 352.851L542.914 352.851L542.905 352.851L542.818 356.85ZM511.018 368.55L514.668 366.914L513.609 364.55H511.018V368.55ZM473.818 368.55V364.55H469.491L469.831 368.864L473.818 368.55ZM550.554 328.851L529.554 328.401L529.383 336.399L550.383 336.849L550.554 328.851ZM529.58 328.402C521.687 328.18 517.629 327.139 515.642 326.035C514.742 325.535 514.406 325.097 514.255 324.825C514.095 324.538 513.968 324.119 513.968 323.4H505.968C505.968 325.081 506.273 326.93 507.262 328.711C508.259 330.506 509.788 331.934 511.757 333.028C515.507 335.111 521.2 336.17 529.356 336.398L529.58 328.402ZM513.968 323.4C513.968 323.384 513.839 322.215 517.416 320.888C520.899 319.595 526.716 318.7 535.468 318.7V310.7C526.371 310.7 519.437 311.605 514.633 313.387C509.923 315.135 505.968 318.316 505.968 323.4H513.968ZM535.468 318.7H539.068V310.7H535.468V318.7ZM539.068 318.7C550.86 318.7 554.663 321.359 555.895 322.899L562.142 317.901C558.574 313.441 551.577 310.7 539.068 310.7V318.7ZM559.018 324.4H596.818V316.4H559.018V324.4ZM600.799 320.006C600.029 312.22 596.72 304.025 587.323 297.969C578.201 292.09 563.753 288.5 541.318 288.5V296.5C563.134 296.5 575.76 300.035 582.989 304.693C589.942 309.175 592.258 314.93 592.838 320.794L600.799 320.006ZM541.318 288.5H529.768V296.5H541.318V288.5ZM529.768 288.5C507.163 288.5 492.423 292.033 483.266 298.426C473.757 305.065 470.868 314.332 470.868 323.85H478.868C478.868 316.118 481.08 309.71 487.846 304.986C494.964 300.017 507.674 296.5 529.768 296.5V288.5ZM470.868 323.85V325.2H478.868V323.85H470.868ZM470.868 325.2C470.868 334.265 473.906 343.083 482.309 349.636C490.509 356.03 503.316 359.862 522.004 360.398L522.233 352.402C504.321 351.888 493.502 348.22 487.228 343.327C481.156 338.592 478.868 332.335 478.868 325.2H470.868ZM522.031 360.399L542.731 360.849L542.905 352.851L522.205 352.401L522.031 360.399ZM542.714 360.849C551.261 361.072 555.531 362.127 557.592 363.294C558.5 363.808 558.844 364.27 559.017 364.611C559.215 365 559.368 365.59 559.368 366.6H567.368C567.368 364.835 567.109 362.875 566.149 360.986C565.164 359.048 563.605 357.505 561.533 356.331C557.631 354.123 551.626 353.078 542.923 352.851L542.714 360.849ZM559.368 366.6C559.368 367.587 559.238 368.31 558.979 368.886C558.744 369.409 558.306 370.033 557.299 370.683C555.082 372.114 550.287 373.55 540.268 373.55V381.55C550.65 381.55 557.405 380.136 561.637 377.405C563.856 375.973 565.367 374.188 566.276 372.165C567.161 370.196 567.368 368.238 567.368 366.6H559.368ZM540.268 373.55H537.118V381.55H540.268V373.55ZM537.118 373.55C530.009 373.55 524.477 372.445 520.619 370.951C516.557 369.378 514.996 367.646 514.668 366.914L507.368 370.186C508.99 373.804 512.979 376.572 517.73 378.411C522.685 380.33 529.228 381.55 537.118 381.55V373.55ZM511.018 364.55H473.818V372.55H511.018V364.55ZM469.831 368.864C470.416 376.301 473.154 385.542 482.641 392.786C491.957 399.899 507.227 404.65 531.868 404.65V396.65C508.06 396.65 494.829 392.026 487.496 386.427C480.333 380.958 478.271 374.149 477.806 368.236L469.831 368.864ZM531.868 404.65H541.918V396.65H531.868V404.65ZM541.918 404.65C567.097 404.65 582.49 399.923 591.6 392.321C600.92 384.544 602.918 374.409 602.918 365.7H594.918C594.918 373.191 593.242 380.531 586.474 386.179C579.497 392.002 566.389 396.65 541.918 396.65V404.65ZM602.918 365.7V363.9H594.918V365.7H602.918ZM602.918 363.9C602.918 354.294 600.344 345.364 591.776 338.932C583.539 332.749 570.385 329.383 550.576 328.851L550.361 336.849C569.702 337.367 580.773 340.676 586.973 345.33C592.842 349.736 594.918 355.806 594.918 363.9H602.918Z" fill="#ECECEE" fill-opacity="0.61"/>
</svg>
