<svg width="222" height="72" viewBox="0 0 222 72" fill="none" xmlns="http://www.w3.org/2000/svg">
<path d="M32.5 30.5L15.5 71H104" stroke="black"/>
<path d="M188.5 41L205.5 0.5H117" stroke="black"/>
<path d="M50.2197 7.5L26 64.5H173.471L195 7.5H50.2197Z" fill="#BB3232" fill-opacity="0.55"/>
<path d="M50.7383 44.5V27.3125H56.0117C56.8906 27.3125 57.5547 27.5143 58.0039 27.918C58.4531 28.3151 58.7526 28.875 58.9023 29.5977C59.0586 30.3138 59.1367 31.1569 59.1367 32.127C59.1367 33.0645 59.0163 33.8132 58.7754 34.373C58.541 34.9329 58.0951 35.3203 57.4375 35.5352C57.9779 35.6458 58.3555 35.916 58.5703 36.3457C58.7917 36.7689 58.9023 37.319 58.9023 37.9961V44.5H55.5137V37.7715C55.5137 37.2702 55.4095 36.9609 55.2012 36.8438C54.9993 36.7201 54.6706 36.6582 54.2148 36.6582V44.5H50.7383ZM54.2344 33.6797H55.0645C55.5397 33.6797 55.7773 33.1621 55.7773 32.127C55.7773 31.4564 55.7253 31.0169 55.6211 30.8086C55.5169 30.6003 55.3216 30.4961 55.0352 30.4961H54.2344V33.6797ZM61.7695 44.5V27.3125H68.6445V30.6328H65.2656V33.9824H68.5078V37.2148H65.2656V41.1504H68.8691V44.5H61.7695ZM75.0566 44.6562C72.6022 44.6562 71.375 42.8984 71.375 39.3828V31.9707C71.375 28.7611 72.7812 27.1562 75.5938 27.1562C76.7526 27.1562 77.6413 27.3906 78.2598 27.8594C78.8783 28.3216 79.3047 28.9987 79.5391 29.8906C79.7734 30.7826 79.8906 31.8698 79.8906 33.1523H76.5312V31.6289C76.5312 31.2578 76.4792 30.9486 76.375 30.7012C76.2773 30.4473 76.069 30.3203 75.75 30.3203C75.3529 30.3203 75.0892 30.4538 74.959 30.7207C74.8353 30.9876 74.7734 31.2806 74.7734 31.5996V39.9297C74.7734 40.3919 74.832 40.7695 74.9492 41.0625C75.0729 41.349 75.3105 41.4922 75.6621 41.4922C76.0267 41.4922 76.2676 41.349 76.3848 41.0625C76.5085 40.7695 76.5703 40.3854 76.5703 39.9102V37.459H75.6523V34.4902H79.8516V44.5H78.4746L77.8887 43.0547C77.2897 44.1224 76.3457 44.6562 75.0566 44.6562ZM82.5625 44.5V27.3125H85.8828V44.5H82.5625ZM92.832 44.6562C91.263 44.6562 90.1302 44.2656 89.4336 43.4844C88.7435 42.7031 88.3984 41.4596 88.3984 39.7539V38.0742H91.7969V40.2227C91.7969 40.6198 91.8555 40.9323 91.9727 41.1602C92.0964 41.3815 92.3079 41.4922 92.6074 41.4922C92.9199 41.4922 93.1348 41.401 93.252 41.2188C93.3757 41.0365 93.4375 40.737 93.4375 40.3203C93.4375 39.793 93.3854 39.3535 93.2812 39.002C93.1771 38.6439 92.9948 38.3053 92.7344 37.9863C92.4805 37.6608 92.1257 37.2832 91.6699 36.8535L90.127 35.3887C88.9746 34.3014 88.3984 33.0579 88.3984 31.6582C88.3984 30.1934 88.737 29.0768 89.4141 28.3086C90.0977 27.5404 91.084 27.1562 92.373 27.1562C93.9486 27.1562 95.0651 27.5762 95.7227 28.416C96.3867 29.2559 96.7188 30.5319 96.7188 32.2441H93.2227V31.0625C93.2227 30.8281 93.1543 30.6458 93.0176 30.5156C92.8874 30.3854 92.7083 30.3203 92.4805 30.3203C92.207 30.3203 92.0052 30.3984 91.875 30.5547C91.7513 30.7044 91.6895 30.8997 91.6895 31.1406C91.6895 31.3815 91.7546 31.6419 91.8848 31.9219C92.015 32.2018 92.2721 32.5241 92.6562 32.8887L94.6387 34.793C95.0358 35.1706 95.4004 35.571 95.7324 35.9941C96.0645 36.4108 96.3314 36.8991 96.5332 37.459C96.735 38.0124 96.8359 38.6895 96.8359 39.4902C96.8359 41.1048 96.5365 42.3711 95.9375 43.2891C95.3451 44.2005 94.3099 44.6562 92.832 44.6562ZM100.963 44.5V30.6133H98.9219V27.3125H106.441V30.6133H104.4V44.5H100.963ZM108.898 44.5V27.3125H115.773V30.6328H112.395V33.9824H115.637V37.2148H112.395V41.1504H115.998V44.5H108.898ZM118.641 44.5V27.3125H123.914C124.793 27.3125 125.457 27.5143 125.906 27.918C126.355 28.3151 126.655 28.875 126.805 29.5977C126.961 30.3138 127.039 31.1569 127.039 32.127C127.039 33.0645 126.919 33.8132 126.678 34.373C126.443 34.9329 125.997 35.3203 125.34 35.5352C125.88 35.6458 126.258 35.916 126.473 36.3457C126.694 36.7689 126.805 37.319 126.805 37.9961V44.5H123.416V37.7715C123.416 37.2702 123.312 36.9609 123.104 36.8438C122.902 36.7201 122.573 36.6582 122.117 36.6582V44.5H118.641ZM122.137 33.6797H122.967C123.442 33.6797 123.68 33.1621 123.68 32.127C123.68 31.4564 123.628 31.0169 123.523 30.8086C123.419 30.6003 123.224 30.4961 122.938 30.4961H122.137V33.6797ZM135.859 44.5V27.3125H139.395L140.977 35.5449V27.3125H144.297V44.5H140.938L139.219 35.9062V44.5H135.859ZM151.422 44.6562C150.048 44.6562 148.997 44.2428 148.268 43.416C147.545 42.5827 147.184 41.3815 147.184 39.8125V31.6484C147.184 30.1771 147.542 29.0605 148.258 28.2988C148.98 27.5371 150.035 27.1562 151.422 27.1562C152.809 27.1562 153.86 27.5371 154.576 28.2988C155.299 29.0605 155.66 30.1771 155.66 31.6484V39.8125C155.66 41.3815 155.296 42.5827 154.566 43.416C153.844 44.2428 152.796 44.6562 151.422 44.6562ZM151.451 41.4922C151.972 41.4922 152.232 40.9876 152.232 39.9785V31.5898C152.232 30.7435 151.979 30.3203 151.471 30.3203C150.898 30.3203 150.611 30.7533 150.611 31.6191V39.998C150.611 40.5319 150.676 40.916 150.807 41.1504C150.937 41.3783 151.152 41.4922 151.451 41.4922ZM159.895 44.5L158.049 27.3125H161.408L162.355 38.1621L163.322 27.3125H166.525L167.443 38.1621L168.361 27.3125H171.76L169.885 44.5H165.764L164.904 36.2285L164.084 44.5H159.895Z" fill="black"/>
</svg>
