<svg width="222" height="72" viewBox="0 0 222 72" fill="none" xmlns="http://www.w3.org/2000/svg">
<path d="M32.5 31L15.5 71.5H104" stroke="black"/>
<path d="M188.5 41.5L205.5 1H117" stroke="black"/>
<path d="M50.2197 8L26 65H173.471L195 8H50.2197Z" fill="#BB3232"/>
<path d="M50.7383 45V27.8125H56.0117C56.8906 27.8125 57.5547 28.0143 58.0039 28.418C58.4531 28.8151 58.7526 29.375 58.9023 30.0977C59.0586 30.8138 59.1367 31.6569 59.1367 32.627C59.1367 33.5645 59.0163 34.3132 58.7754 34.873C58.541 35.4329 58.0951 35.8203 57.4375 36.0352C57.9779 36.1458 58.3555 36.416 58.5703 36.8457C58.7917 37.2689 58.9023 37.819 58.9023 38.4961V45H55.5137V38.2715C55.5137 37.7702 55.4095 37.4609 55.2012 37.3438C54.9993 37.2201 54.6706 37.1582 54.2148 37.1582V45H50.7383ZM54.2344 34.1797H55.0645C55.5397 34.1797 55.7773 33.6621 55.7773 32.627C55.7773 31.9564 55.7253 31.5169 55.6211 31.3086C55.5169 31.1003 55.3216 30.9961 55.0352 30.9961H54.2344V34.1797ZM61.7695 45V27.8125H68.6445V31.1328H65.2656V34.4824H68.5078V37.7148H65.2656V41.6504H68.8691V45H61.7695ZM75.0566 45.1562C72.6022 45.1562 71.375 43.3984 71.375 39.8828V32.4707C71.375 29.2611 72.7812 27.6562 75.5938 27.6562C76.7526 27.6562 77.6413 27.8906 78.2598 28.3594C78.8783 28.8216 79.3047 29.4987 79.5391 30.3906C79.7734 31.2826 79.8906 32.3698 79.8906 33.6523H76.5312V32.1289C76.5312 31.7578 76.4792 31.4486 76.375 31.2012C76.2773 30.9473 76.069 30.8203 75.75 30.8203C75.3529 30.8203 75.0892 30.9538 74.959 31.2207C74.8353 31.4876 74.7734 31.7806 74.7734 32.0996V40.4297C74.7734 40.8919 74.832 41.2695 74.9492 41.5625C75.0729 41.849 75.3105 41.9922 75.6621 41.9922C76.0267 41.9922 76.2676 41.849 76.3848 41.5625C76.5085 41.2695 76.5703 40.8854 76.5703 40.4102V37.959H75.6523V34.9902H79.8516V45H78.4746L77.8887 43.5547C77.2897 44.6224 76.3457 45.1562 75.0566 45.1562ZM82.5625 45V27.8125H85.8828V45H82.5625ZM92.832 45.1562C91.263 45.1562 90.1302 44.7656 89.4336 43.9844C88.7435 43.2031 88.3984 41.9596 88.3984 40.2539V38.5742H91.7969V40.7227C91.7969 41.1198 91.8555 41.4323 91.9727 41.6602C92.0964 41.8815 92.3079 41.9922 92.6074 41.9922C92.9199 41.9922 93.1348 41.901 93.252 41.7188C93.3757 41.5365 93.4375 41.237 93.4375 40.8203C93.4375 40.293 93.3854 39.8535 93.2812 39.502C93.1771 39.1439 92.9948 38.8053 92.7344 38.4863C92.4805 38.1608 92.1257 37.7832 91.6699 37.3535L90.127 35.8887C88.9746 34.8014 88.3984 33.5579 88.3984 32.1582C88.3984 30.6934 88.737 29.5768 89.4141 28.8086C90.0977 28.0404 91.084 27.6562 92.373 27.6562C93.9486 27.6562 95.0651 28.0762 95.7227 28.916C96.3867 29.7559 96.7188 31.0319 96.7188 32.7441H93.2227V31.5625C93.2227 31.3281 93.1543 31.1458 93.0176 31.0156C92.8874 30.8854 92.7083 30.8203 92.4805 30.8203C92.207 30.8203 92.0052 30.8984 91.875 31.0547C91.7513 31.2044 91.6895 31.3997 91.6895 31.6406C91.6895 31.8815 91.7546 32.1419 91.8848 32.4219C92.015 32.7018 92.2721 33.0241 92.6562 33.3887L94.6387 35.293C95.0358 35.6706 95.4004 36.071 95.7324 36.4941C96.0645 36.9108 96.3314 37.3991 96.5332 37.959C96.735 38.5124 96.8359 39.1895 96.8359 39.9902C96.8359 41.6048 96.5365 42.8711 95.9375 43.7891C95.3451 44.7005 94.3099 45.1562 92.832 45.1562ZM100.963 45V31.1133H98.9219V27.8125H106.441V31.1133H104.4V45H100.963ZM108.898 45V27.8125H115.773V31.1328H112.395V34.4824H115.637V37.7148H112.395V41.6504H115.998V45H108.898ZM118.641 45V27.8125H123.914C124.793 27.8125 125.457 28.0143 125.906 28.418C126.355 28.8151 126.655 29.375 126.805 30.0977C126.961 30.8138 127.039 31.6569 127.039 32.627C127.039 33.5645 126.919 34.3132 126.678 34.873C126.443 35.4329 125.997 35.8203 125.34 36.0352C125.88 36.1458 126.258 36.416 126.473 36.8457C126.694 37.2689 126.805 37.819 126.805 38.4961V45H123.416V38.2715C123.416 37.7702 123.312 37.4609 123.104 37.3438C122.902 37.2201 122.573 37.1582 122.117 37.1582V45H118.641ZM122.137 34.1797H122.967C123.442 34.1797 123.68 33.6621 123.68 32.627C123.68 31.9564 123.628 31.5169 123.523 31.3086C123.419 31.1003 123.224 30.9961 122.938 30.9961H122.137V34.1797ZM135.859 45V27.8125H139.395L140.977 36.0449V27.8125H144.297V45H140.938L139.219 36.4062V45H135.859ZM151.422 45.1562C150.048 45.1562 148.997 44.7428 148.268 43.916C147.545 43.0827 147.184 41.8815 147.184 40.3125V32.1484C147.184 30.6771 147.542 29.5605 148.258 28.7988C148.98 28.0371 150.035 27.6562 151.422 27.6562C152.809 27.6562 153.86 28.0371 154.576 28.7988C155.299 29.5605 155.66 30.6771 155.66 32.1484V40.3125C155.66 41.8815 155.296 43.0827 154.566 43.916C153.844 44.7428 152.796 45.1562 151.422 45.1562ZM151.451 41.9922C151.972 41.9922 152.232 41.4876 152.232 40.4785V32.0898C152.232 31.2435 151.979 30.8203 151.471 30.8203C150.898 30.8203 150.611 31.2533 150.611 32.1191V40.498C150.611 41.0319 150.676 41.416 150.807 41.6504C150.937 41.8783 151.152 41.9922 151.451 41.9922ZM159.895 45L158.049 27.8125H161.408L162.355 38.6621L163.322 27.8125H166.525L167.443 38.6621L168.361 27.8125H171.76L169.885 45H165.764L164.904 36.7285L164.084 45H159.895Z" fill="white"/>
</svg>
