<svg width="41" height="35" viewBox="0 0 41 35" fill="none" xmlns="http://www.w3.org/2000/svg">
<path d="M12.8982 34.5615C28.3661 34.5615 36.8287 21.4794 36.8287 10.138C36.8287 9.77023 36.8207 9.39428 36.8047 9.0265C38.451 7.81144 39.8716 6.30642 41 4.58215C39.4668 5.27834 37.839 5.73302 36.1721 5.93065C37.9272 4.85694 39.2413 3.17019 39.8709 1.18309C38.2198 2.18176 36.4141 2.88624 34.5313 3.26633C33.2627 1.8906 31.5854 0.979706 29.7586 0.674475C27.9319 0.369244 26.0575 0.686679 24.4253 1.5777C22.7931 2.46872 21.4939 3.8837 20.7287 5.60388C19.9634 7.32405 19.7747 9.2536 20.1917 11.0942C16.8484 10.923 13.5777 10.0366 10.5916 8.49253C7.60555 6.94845 4.97073 4.78115 2.85799 2.13113C1.78418 4.02064 1.4556 6.25654 1.93901 8.38441C2.42243 10.5123 3.68157 12.3725 5.46053 13.5869C4.12499 13.5436 2.81871 13.1767 1.64961 12.5163V12.6225C1.64841 14.6054 2.32008 16.5275 3.55045 18.0622C4.78081 19.5968 6.49393 20.6492 8.39859 21.0405C7.16143 21.386 5.86297 21.4363 4.60369 21.1876C5.14115 22.8929 6.18685 24.3844 7.59486 25.454C9.00286 26.5235 10.7029 27.1177 12.4578 27.1537C9.47856 29.5421 5.79838 30.8376 2.00996 30.8315C1.33812 30.8304 0.666932 30.7884 0 30.7056C3.84863 33.2256 8.32562 34.564 12.8982 34.5615Z" fill="white"/>
</svg>
