<svg width="1920" height="1399" viewBox="0 0 1920 1399" fill="none" xmlns="http://www.w3.org/2000/svg">
<ellipse cx="1914.16" cy="441.084" rx="9.54942" ry="8.48837" transform="rotate(-90 1914.16 441.084)" fill="black" fill-opacity="0.1"/>
<ellipse cx="1914.16" cy="411.375" rx="9.54942" ry="8.48837" transform="rotate(-90 1914.16 411.375)" fill="black" fill-opacity="0.1"/>
<ellipse cx="1886.57" cy="441.084" rx="9.54942" ry="8.48837" transform="rotate(-90 1886.57 441.084)" fill="black" fill-opacity="0.1"/>
<ellipse cx="1886.57" cy="411.375" rx="9.54942" ry="8.48837" transform="rotate(-90 1886.57 411.375)" fill="black" fill-opacity="0.1"/>
<ellipse cx="1914.16" cy="381.666" rx="9.54942" ry="8.48837" transform="rotate(-90 1914.16 381.666)" fill="black" fill-opacity="0.1"/>
<ellipse cx="1886.57" cy="381.666" rx="9.54942" ry="8.48837" transform="rotate(-90 1886.57 381.666)" fill="black" fill-opacity="0.1"/>
<ellipse cx="1858.98" cy="351.956" rx="9.54942" ry="8.48837" transform="rotate(-90 1858.98 351.956)" fill="black" fill-opacity="0.1"/>
<ellipse cx="1858.98" cy="322.247" rx="9.54942" ry="8.48837" transform="rotate(-90 1858.98 322.247)" fill="black" fill-opacity="0.1"/>
<ellipse cx="1831.4" cy="351.956" rx="9.54942" ry="8.48837" transform="rotate(-90 1831.4 351.956)" fill="black" fill-opacity="0.1"/>
<ellipse cx="1831.4" cy="322.247" rx="9.54942" ry="8.48837" transform="rotate(-90 1831.4 322.247)" fill="black" fill-opacity="0.1"/>
<ellipse cx="1858.98" cy="292.538" rx="9.54942" ry="8.48837" transform="rotate(-90 1858.98 292.538)" fill="black" fill-opacity="0.1"/>
<ellipse cx="1831.4" cy="292.538" rx="9.54942" ry="8.48837" transform="rotate(-90 1831.4 292.538)" fill="black" fill-opacity="0.1"/>
<ellipse cx="1914.16" cy="262.829" rx="9.54942" ry="8.48837" transform="rotate(-90 1914.16 262.829)" fill="black" fill-opacity="0.1"/>
<ellipse cx="1914.16" cy="233.119" rx="9.54942" ry="8.48837" transform="rotate(-90 1914.16 233.119)" fill="black" fill-opacity="0.1"/>
<ellipse cx="1886.57" cy="262.829" rx="9.54942" ry="8.48837" transform="rotate(-90 1886.57 262.829)" fill="black" fill-opacity="0.1"/>
<ellipse cx="1886.57" cy="233.119" rx="9.54942" ry="8.48837" transform="rotate(-90 1886.57 233.119)" fill="black" fill-opacity="0.1"/>
<ellipse cx="1914.16" cy="203.41" rx="9.54942" ry="8.48837" transform="rotate(-90 1914.16 203.41)" fill="black" fill-opacity="0.1"/>
<ellipse cx="1886.57" cy="203.41" rx="9.54942" ry="8.48837" transform="rotate(-90 1886.57 203.41)" fill="black" fill-opacity="0.1"/>
<ellipse cx="1858.98" cy="262.829" rx="9.54942" ry="8.48837" transform="rotate(-90 1858.98 262.829)" fill="black" fill-opacity="0.1"/>
<ellipse cx="1858.98" cy="233.119" rx="9.54942" ry="8.48837" transform="rotate(-90 1858.98 233.119)" fill="black" fill-opacity="0.1"/>
<ellipse cx="1831.4" cy="262.829" rx="9.54942" ry="8.48837" transform="rotate(-90 1831.4 262.829)" fill="black" fill-opacity="0.1"/>
<ellipse cx="1831.4" cy="233.119" rx="9.54942" ry="8.48837" transform="rotate(-90 1831.4 233.119)" fill="black" fill-opacity="0.1"/>
<ellipse cx="1858.98" cy="203.41" rx="9.54942" ry="8.48837" transform="rotate(-90 1858.98 203.41)" fill="black" fill-opacity="0.1"/>
<ellipse cx="1803.81" cy="411.375" rx="9.54942" ry="8.48837" transform="rotate(-90 1803.81 411.375)" fill="black" fill-opacity="0.1"/>
<ellipse cx="1803.81" cy="381.666" rx="9.54942" ry="8.48837" transform="rotate(-90 1803.81 381.666)" fill="black" fill-opacity="0.1"/>
<ellipse cx="1776.22" cy="381.666" rx="9.54942" ry="8.48837" transform="rotate(-90 1776.22 381.666)" fill="black" fill-opacity="0.1"/>
<ellipse cx="1803.81" cy="354.079" rx="9.54942" ry="8.48837" transform="rotate(-90 1803.81 354.079)" fill="black" fill-opacity="0.1"/>
<ellipse cx="1803.81" cy="324.369" rx="9.54942" ry="8.48837" transform="rotate(-90 1803.81 324.369)" fill="black" fill-opacity="0.1"/>
<ellipse cx="1776.22" cy="354.079" rx="9.54942" ry="8.48837" transform="rotate(-90 1776.22 354.079)" fill="black" fill-opacity="0.1"/>
<circle cx="1780.46" cy="329.675" r="4.24419" transform="rotate(-90 1780.46 329.675)" fill="black" fill-opacity="0.1"/>
<circle cx="1784.71" cy="299.965" r="4.24419" transform="rotate(-90 1784.71 299.965)" fill="black" fill-opacity="0.1"/>
<circle cx="1788.95" cy="282.988" r="4.24419" transform="rotate(-90 1788.95 282.988)" fill="black" fill-opacity="0.1"/>
<circle cx="1795.32" cy="308.454" r="4.24419" transform="rotate(-90 1795.32 308.454)" fill="black" fill-opacity="0.1"/>
<circle cx="1786.83" cy="268.134" r="4.24419" transform="rotate(-90 1786.83 268.134)" fill="black" fill-opacity="0.1"/>
<circle cx="1788.95" cy="253.279" r="4.24419" transform="rotate(-90 1788.95 253.279)" fill="black" fill-opacity="0.1"/>
<circle cx="1801.69" cy="244.791" r="4.24419" transform="rotate(-90 1801.69 244.791)" fill="black" fill-opacity="0.1"/>
<circle cx="1816.54" cy="242.669" r="4.24419" transform="rotate(-90 1816.54 242.669)" fill="black" fill-opacity="0.1"/>
<circle cx="1814.42" cy="227.814" r="4.24419" transform="rotate(-90 1814.42 227.814)" fill="black" fill-opacity="0.1"/>
<circle cx="1827.15" cy="217.203" r="4.24419" transform="rotate(-90 1827.15 217.203)" fill="black" fill-opacity="0.1"/>
<circle cx="1844.13" cy="212.959" r="4.24419" transform="rotate(-90 1844.13 212.959)" fill="black" fill-opacity="0.1"/>
<circle cx="1839.88" cy="198.105" r="4.24419" transform="rotate(-90 1839.88 198.105)" fill="black" fill-opacity="0.1"/>
<circle cx="1852.62" cy="187.494" r="4.24419" transform="rotate(-90 1852.62 187.494)" fill="black" fill-opacity="0.1"/>
<circle cx="1871.71" cy="187.494" r="4.24419" transform="rotate(-90 1871.71 187.494)" fill="black" fill-opacity="0.1"/>
<circle cx="1867.47" cy="172.64" r="4.24419" transform="rotate(-90 1867.47 172.64)" fill="black" fill-opacity="0.1"/>
<circle cx="1878.08" cy="157.785" r="4.24419" transform="rotate(-90 1878.08 157.785)" fill="black" fill-opacity="0.1"/>
<circle cx="1892.94" cy="153.541" r="4.24419" transform="rotate(-90 1892.94 153.541)" fill="black" fill-opacity="0.1"/>
<circle cx="1899.3" cy="142.93" r="4.24419" transform="rotate(-90 1899.3 142.93)" fill="black" fill-opacity="0.1"/>
<circle cx="1905.67" cy="130.198" r="4.24419" transform="rotate(-90 1905.67 130.198)" fill="black" fill-opacity="0.1"/>
<circle cx="1897.18" cy="117.465" r="4.24419" transform="rotate(-90 1897.18 117.465)" fill="black" fill-opacity="0.1"/>
<circle cx="1901.42" cy="100.488" r="4.24419" transform="rotate(-90 1901.42 100.488)" fill="black" fill-opacity="0.1"/>
<circle cx="1918.4" cy="96.2442" r="4.24419" transform="rotate(-90 1918.4 96.2442)" fill="black" fill-opacity="0.1"/>
<circle cx="1780.46" cy="314.82" r="4.24419" transform="rotate(-90 1780.46 314.82)" fill="black" fill-opacity="0.1"/>
<circle cx="1767.73" cy="333.919" r="4.24419" transform="rotate(-90 1767.73 333.919)" fill="black" fill-opacity="0.1"/>
<circle cx="1759.24" cy="348.773" r="4.24419" transform="rotate(-90 1759.24 348.773)" fill="black" fill-opacity="0.1"/>
<circle cx="1759.24" cy="363.628" r="4.24419" transform="rotate(-90 1759.24 363.628)" fill="black" fill-opacity="0.1"/>
<circle cx="1759.24" cy="378.483" r="4.24419" transform="rotate(-90 1759.24 378.483)" fill="black" fill-opacity="0.1"/>
<circle cx="1763.49" cy="397.581" r="4.24419" transform="rotate(-90 1763.49 397.581)" fill="black" fill-opacity="0.1"/>
<circle cx="1780.46" cy="397.581" r="4.24419" transform="rotate(-90 1780.46 397.581)" fill="black" fill-opacity="0.1"/>
<circle cx="1788.95" cy="410.314" r="4.24419" transform="rotate(-90 1788.95 410.314)" fill="black" fill-opacity="0.1"/>
<circle cx="1793.2" cy="427.291" r="4.24419" transform="rotate(-90 1793.2 427.291)" fill="black" fill-opacity="0.1"/>
<circle cx="1808.05" cy="427.291" r="4.24419" transform="rotate(-90 1808.05 427.291)" fill="black" fill-opacity="0.1"/>
<circle cx="1822.91" cy="427.291" r="4.24419" transform="rotate(-90 1822.91 427.291)" fill="black" fill-opacity="0.1"/>
<circle cx="1837.76" cy="427.291" r="4.24419" transform="rotate(-90 1837.76 427.291)" fill="black" fill-opacity="0.1"/>
<circle cx="1839.88" cy="440.023" r="4.24419" transform="rotate(-90 1839.88 440.023)" fill="black" fill-opacity="0.1"/>
<circle cx="1844.13" cy="452.756" r="4.24419" transform="rotate(-90 1844.13 452.756)" fill="black" fill-opacity="0.1"/>
<ellipse cx="1803.81" cy="294.66" rx="9.54942" ry="8.48837" transform="rotate(-90 1803.81 294.66)" fill="black" fill-opacity="0.1"/>
<ellipse cx="1803.81" cy="262.829" rx="9.54942" ry="8.48837" transform="rotate(-90 1803.81 262.829)" fill="black" fill-opacity="0.1"/>
<ellipse cx="1914.16" cy="173.701" rx="9.54942" ry="8.48837" transform="rotate(-90 1914.16 173.701)" fill="black" fill-opacity="0.1"/>
<ellipse cx="1914.16" cy="143.991" rx="9.54942" ry="8.48837" transform="rotate(-90 1914.16 143.991)" fill="black" fill-opacity="0.1"/>
<ellipse cx="1886.57" cy="173.701" rx="9.54942" ry="8.48837" transform="rotate(-90 1886.57 173.701)" fill="black" fill-opacity="0.1"/>
<ellipse cx="1914.16" cy="114.282" rx="9.54942" ry="8.48837" transform="rotate(-90 1914.16 114.282)" fill="black" fill-opacity="0.1"/>
<ellipse cx="1914.16" cy="351.956" rx="9.54942" ry="8.48837" transform="rotate(-90 1914.16 351.956)" fill="black" fill-opacity="0.1"/>
<ellipse cx="1914.16" cy="322.247" rx="9.54942" ry="8.48837" transform="rotate(-90 1914.16 322.247)" fill="black" fill-opacity="0.1"/>
<ellipse cx="1886.57" cy="351.956" rx="9.54942" ry="8.48837" transform="rotate(-90 1886.57 351.956)" fill="black" fill-opacity="0.1"/>
<ellipse cx="1886.57" cy="322.247" rx="9.54942" ry="8.48837" transform="rotate(-90 1886.57 322.247)" fill="black" fill-opacity="0.1"/>
<ellipse cx="1914.16" cy="292.538" rx="9.54942" ry="8.48837" transform="rotate(-90 1914.16 292.538)" fill="black" fill-opacity="0.1"/>
<ellipse cx="1886.57" cy="292.538" rx="9.54942" ry="8.48837" transform="rotate(-90 1886.57 292.538)" fill="black" fill-opacity="0.1"/>
<ellipse cx="1858.98" cy="441.084" rx="9.54942" ry="8.48837" transform="rotate(-90 1858.98 441.084)" fill="black" fill-opacity="0.1"/>
<ellipse cx="1858.98" cy="411.375" rx="9.54942" ry="8.48837" transform="rotate(-90 1858.98 411.375)" fill="black" fill-opacity="0.1"/>
<ellipse cx="1831.4" cy="411.375" rx="9.54942" ry="8.48837" transform="rotate(-90 1831.4 411.375)" fill="black" fill-opacity="0.1"/>
<ellipse cx="1858.98" cy="381.666" rx="9.54942" ry="8.48837" transform="rotate(-90 1858.98 381.666)" fill="black" fill-opacity="0.1"/>
<ellipse cx="1831.4" cy="381.666" rx="9.54942" ry="8.48837" transform="rotate(-90 1831.4 381.666)" fill="black" fill-opacity="0.1"/>
<line x1="-2" y1="265.5" x2="1284" y2="265.5" stroke="black" stroke-opacity="0.22"/>
<rect x="-9" y="350" width="1933" height="1045" fill="#D6D2C8"/>
<rect x="-1" y="346" width="1926" height="4" fill="#262626"/>
<rect y="1395" width="1923" height="4" fill="#262626"/>
<path d="M76.35 246.95H72.35V250.95H76.35V246.95ZM76.35 105.05H80.35V101.05H76.35V105.05ZM14.75 105.05L14.75 101.05H10.75L10.75 105.05H14.75ZM14.75 297H10.75V301H14.75V297ZM192.675 297V301H196.675V297H192.675ZM192.675 246.95H196.675V242.95H192.675V246.95ZM80.35 246.95L80.35 105.05H72.35L72.35 246.95H80.35ZM76.35 101.05L14.75 101.05L14.75 109.05L76.35 109.05V101.05ZM10.75 105.05L10.75 297H18.75L18.75 105.05H10.75ZM14.75 301L192.675 301V293L14.75 293V301ZM196.675 297L196.675 246.95H188.675L188.675 297H196.675ZM192.675 242.95L76.35 242.95V250.95L192.675 250.95V242.95ZM388.228 105.05H392.228V101.05H388.228V105.05ZM204.253 105.05V101.05H200.253V105.05H204.253ZM204.253 297.275H200.253V301.275H204.253V297.275ZM389.878 297.275V301.275H393.878V297.275H389.878ZM389.878 252.45H393.878V248.45H389.878V252.45ZM265.303 252.45H261.303V256.45H265.303V252.45ZM265.303 222.75V218.75H261.303V222.75H265.303ZM389.053 222.75V226.75H393.053V222.75H389.053ZM389.053 177.1H393.053L393.053 173.1H389.053L389.053 177.1ZM265.303 177.1H261.303V181.1H265.303V177.1ZM265.303 149.05V145.05H261.303V149.05H265.303ZM388.228 149.05V153.05H392.228V149.05H388.228ZM388.228 101.05L204.253 101.05V109.05L388.228 109.05V101.05ZM200.253 105.05L200.253 297.275H208.253L208.253 105.05H200.253ZM204.253 301.275H389.878V293.275H204.253V301.275ZM393.878 297.275V252.45H385.878V297.275H393.878ZM389.878 248.45L265.303 248.45V256.45H389.878V248.45ZM269.303 252.45V222.75L261.303 222.75V252.45L269.303 252.45ZM265.303 226.75L389.053 226.75V218.75L265.303 218.75V226.75ZM393.053 222.75V177.1H385.053V222.75H393.053ZM389.053 173.1L265.303 173.1L265.303 181.1L389.053 181.1L389.053 173.1ZM269.303 177.1L269.303 149.05L261.303 149.05L261.303 177.1L269.303 177.1ZM265.303 153.05L388.228 153.05V145.05L265.303 145.05V153.05ZM392.228 149.05V105.05H384.228V149.05H392.228ZM515.987 300.025L515.974 304.025H515.987V300.025ZM602.337 263.725H606.337V249.559L598.928 261.633L602.337 263.725ZM602.337 297H598.337V301H602.337V297ZM646.337 297V301H650.337V297H646.337ZM646.337 190.85H650.337V186.85H646.337V190.85ZM527.537 190.85V186.85H523.537V190.85H527.537ZM527.537 226.05H523.537V230.05H527.537V226.05ZM581.437 226.05L585.337 226.936L586.448 222.05H581.437V226.05ZM526.162 149.6V153.6H526.181L526.201 153.6L526.162 149.6ZM582.537 176.825L578.538 176.746L578.457 180.825H582.537V176.825ZM646.337 176.825V180.825H650.337V176.825H646.337ZM515.987 304.025H520.387V296.025H515.987V304.025ZM520.387 304.025C551.096 304.025 572.373 294.668 586.026 285.157C592.834 280.415 597.715 275.658 600.916 272.052C602.516 270.249 603.698 268.732 604.492 267.645C604.89 267.102 605.19 266.666 605.398 266.356C605.502 266.2 605.582 266.076 605.64 265.986C605.669 265.94 605.692 265.904 605.71 265.875C605.719 265.861 605.726 265.849 605.732 265.84C605.735 265.835 605.738 265.83 605.74 265.827C605.741 265.825 605.743 265.822 605.744 265.821C605.745 265.819 605.746 265.817 602.337 263.725C598.928 261.633 598.929 261.631 598.93 261.629C598.93 261.629 598.931 261.627 598.932 261.627C598.932 261.625 598.933 261.624 598.933 261.624C598.934 261.623 598.933 261.624 598.931 261.627C598.927 261.634 598.917 261.649 598.902 261.673C598.872 261.719 598.821 261.799 598.747 261.91C598.599 262.131 598.363 262.475 598.034 262.924C597.377 263.823 596.353 265.142 594.933 266.742C592.091 269.942 587.674 274.26 581.454 278.593C569.051 287.232 549.353 296.025 520.387 296.025V304.025ZM598.337 263.725V297H606.337V263.725H598.337ZM602.337 301H646.337V293H602.337V301ZM650.337 297V190.85H642.337V297H650.337ZM646.337 186.85L527.537 186.85V194.85L646.337 194.85V186.85ZM523.537 190.85V226.05H531.537V190.85H523.537ZM527.537 230.05H581.437V222.05H527.537V230.05ZM577.536 225.164C577.043 227.336 574.857 233.072 567.757 238.297C560.669 243.513 548.365 248.45 527.262 248.45V256.45C549.609 256.45 563.705 251.212 572.498 244.74C581.28 238.278 584.456 230.814 585.337 226.936L577.536 225.164ZM527.262 248.45C505.269 248.45 491.508 241.853 483.22 233.038C474.869 224.158 471.587 212.513 471.587 201.575H463.587C463.587 214.012 467.317 227.804 477.392 238.518C487.528 249.297 503.605 256.45 527.262 256.45V248.45ZM471.587 201.575V198.275H463.587V201.575H471.587ZM471.587 198.275C471.587 186.987 474.633 175.96 482.621 167.756C490.581 159.582 504.045 153.6 526.162 153.6V145.6C502.629 145.6 486.805 151.993 476.89 162.175C467.004 172.327 463.587 185.638 463.587 198.275H471.587ZM526.201 153.6C554.082 153.33 566.954 160.009 572.889 165.856C575.869 168.792 577.264 171.669 577.927 173.723C578.261 174.757 578.413 175.595 578.481 176.136C578.515 176.406 578.529 176.601 578.534 176.707C578.536 176.76 578.537 176.791 578.537 176.798C578.537 176.802 578.537 176.799 578.537 176.791C578.537 176.786 578.537 176.78 578.537 176.773C578.537 176.769 578.537 176.765 578.537 176.761C578.537 176.758 578.538 176.755 578.538 176.754C578.538 176.75 578.538 176.746 582.537 176.825C586.536 176.904 586.536 176.9 586.536 176.896C586.536 176.894 586.536 176.89 586.536 176.887C586.537 176.881 586.537 176.874 586.537 176.867C586.537 176.853 586.537 176.837 586.537 176.819C586.537 176.784 586.537 176.741 586.536 176.692C586.535 176.594 586.532 176.469 586.524 176.319C586.51 176.019 586.48 175.618 586.418 175.13C586.294 174.154 586.044 172.825 585.54 171.265C584.527 168.127 582.501 164.096 578.504 160.157C570.482 152.254 555.167 145.32 526.123 145.6L526.201 153.6ZM582.537 180.825L646.337 180.825V172.825L582.537 172.825V180.825ZM650.337 176.825C650.337 161.037 643.844 141.193 625.358 125.353C606.889 109.527 576.842 98.025 530.287 98.025V106.025C575.582 106.025 603.56 117.21 620.153 131.428C636.729 145.632 642.337 163.188 642.337 176.825H650.337ZM530.287 98.025H521.487V106.025H530.287V98.025ZM521.487 98.025C474.101 98.025 443.445 111.604 424.656 131.153C405.917 150.65 399.512 175.538 399.512 197.175H407.512C407.512 177.012 413.481 154.325 430.424 136.697C447.317 119.121 475.647 106.025 521.487 106.025V98.025ZM399.512 197.175V203.225H407.512V197.175H399.512ZM399.512 203.225C399.512 225.687 406.19 250.879 424.326 270.529C442.53 290.253 471.81 303.885 515.974 304.025L516 296.025C473.539 295.89 446.581 282.847 430.204 265.103C413.758 247.283 407.512 224.213 407.512 203.225H399.512ZM851.291 105.05H855.291V101.05H851.291V105.05ZM667.316 105.05V101.05L663.316 101.05V105.05L667.316 105.05ZM667.316 297.275H663.316V301.275H667.316V297.275ZM852.941 297.275V301.275H856.941V297.275H852.941ZM852.941 252.45H856.941V248.45H852.941V252.45ZM728.366 252.45H724.366V256.45H728.366V252.45ZM728.366 222.75V218.75H724.366V222.75H728.366ZM852.116 222.75V226.75H856.116V222.75H852.116ZM852.116 177.1H856.116V173.1H852.116V177.1ZM728.366 177.1H724.366V181.1H728.366V177.1ZM728.366 149.05V145.05H724.366V149.05H728.366ZM851.291 149.05V153.05H855.291V149.05H851.291ZM851.291 101.05L667.316 101.05V109.05L851.291 109.05V101.05ZM663.316 105.05V297.275H671.316V105.05L663.316 105.05ZM667.316 301.275H852.941V293.275H667.316V301.275ZM856.941 297.275V252.45H848.941V297.275H856.941ZM852.941 248.45L728.366 248.45V256.45H852.941V248.45ZM732.366 252.45V222.75H724.366V252.45H732.366ZM728.366 226.75L852.116 226.75V218.75L728.366 218.75V226.75ZM856.116 222.75V177.1H848.116V222.75H856.116ZM852.116 173.1L728.366 173.1V181.1L852.116 181.1V173.1ZM732.366 177.1V149.05H724.366V177.1H732.366ZM728.366 153.05L851.291 153.05V145.05L728.366 145.05V153.05ZM855.291 149.05V105.05H847.291V149.05H855.291ZM934.225 179.85L937.131 177.101L930.225 169.802V179.85H934.225ZM1045.33 297.275L1042.42 300.024L1043.6 301.275H1045.33V297.275ZM1105 297.275V301.275H1109V297.275H1105ZM1105 105.05L1109 105.05V101.05L1105 101.05V105.05ZM1045.05 105.05V101.05H1041.05V105.05H1045.05ZM1045.05 220.275L1042.13 223.008L1049.05 230.405V220.275H1045.05ZM937.25 105.05L940.171 102.317L938.986 101.05H937.25V105.05ZM874.275 105.05V101.05H870.275V105.05H874.275ZM874.275 297H870.275V301H874.275V297ZM934.225 297V301H938.225V297H934.225ZM931.32 182.599L1042.42 300.024L1048.23 294.526L937.131 177.101L931.32 182.599ZM1045.33 301.275H1105V293.275H1045.33V301.275ZM1109 297.275V105.05L1101 105.05V297.275H1109ZM1105 101.05H1045.05V109.05H1105V101.05ZM1041.05 105.05V220.275H1049.05V105.05H1041.05ZM1047.97 217.542L940.171 102.317L934.329 107.783L1042.13 223.008L1047.97 217.542ZM937.25 101.05L874.275 101.05V109.05L937.25 109.05V101.05ZM870.275 105.05V297H878.275V105.05H870.275ZM874.275 301L934.225 301V293L874.275 293V301ZM938.225 297V179.85H930.225V297H938.225ZM1128.77 105.05V101.05H1124.77V105.05H1128.77ZM1128.77 297H1124.77V301H1128.77V297ZM1190.37 250.8H1186.37V254.8H1190.37V250.8ZM1190.37 150.975V146.975H1186.37V150.975H1190.37ZM1124.77 105.05V297H1132.77V105.05H1124.77ZM1128.77 301H1223.37V293H1128.77V301ZM1223.37 301C1277.16 301 1309.8 287.936 1328.95 268.677C1348.11 249.411 1353.04 224.672 1353.04 202.95H1345.04C1345.04 223.578 1340.35 245.864 1323.28 263.036C1306.2 280.214 1276 293 1223.37 293V301ZM1353.04 202.95V194.975H1345.04V202.95H1353.04ZM1353.04 194.975C1353.04 173.623 1347.05 149.923 1327.36 131.614C1307.72 113.349 1275.09 101.05 1223.09 101.05V109.05C1273.95 109.05 1304.29 121.088 1321.91 137.473C1339.49 153.814 1345.04 175.077 1345.04 194.975H1353.04ZM1223.09 101.05L1128.77 101.05V109.05L1223.09 109.05V101.05ZM1194.37 250.8V150.975H1186.37V250.8H1194.37ZM1190.37 154.975H1217.87V146.975H1190.37V154.975ZM1217.87 154.975C1247.58 154.975 1263 162.007 1271.07 170.505C1279.14 179.006 1280.69 189.815 1280.69 199.375H1288.69C1288.69 189.135 1287.08 175.744 1276.87 164.995C1266.65 154.243 1248.65 146.975 1217.87 146.975V154.975ZM1280.69 199.375V201.025H1288.69V199.375H1280.69ZM1280.69 201.025C1280.69 211.047 1279.19 222.203 1271.13 230.933C1263.1 239.637 1247.71 246.8 1217.87 246.8V254.8C1248.8 254.8 1266.83 247.388 1277.01 236.36C1287.17 225.36 1288.69 211.628 1288.69 201.025H1280.69ZM1217.87 246.8H1190.37V254.8H1217.87V246.8ZM1498.92 175.725L1499.03 171.726L1499.02 171.726L1499 171.726L1498.92 175.725ZM1460.42 174.9L1460.31 178.898L1460.32 178.899L1460.33 178.899L1460.42 174.9ZM1514.59 152.9L1511.47 155.399L1512.67 156.9H1514.59V152.9ZM1583.89 152.9V156.9H1588.31L1587.87 152.506L1583.89 152.9ZM1446.94 218.9L1446.83 222.898L1446.84 222.899L1446.86 222.899L1446.94 218.9ZM1484.89 219.725L1485 215.726L1484.99 215.726L1484.98 215.726L1484.89 219.725ZM1426.59 241.175L1430.24 239.539L1429.18 237.175H1426.59V241.175ZM1358.39 241.175V237.175H1354.07L1354.41 241.489L1358.39 241.175ZM1499 171.726L1460.5 170.901L1460.33 178.899L1498.83 179.724L1499 171.726ZM1460.53 170.902C1445.95 170.493 1437.83 168.576 1433.45 166.144C1431.36 164.98 1430.24 163.765 1429.61 162.632C1428.98 161.484 1428.67 160.119 1428.67 158.4H1420.67C1420.67 161.081 1421.15 163.876 1422.62 166.517C1424.1 169.174 1426.4 171.38 1429.57 173.137C1435.71 176.549 1445.46 178.482 1460.31 178.898L1460.53 170.902ZM1428.67 158.4C1428.67 156.259 1430.13 153.278 1437.16 150.669C1444.1 148.095 1455.23 146.45 1471.42 146.45V138.45C1454.88 138.45 1442.64 140.105 1434.38 143.169C1426.22 146.197 1420.67 151.191 1420.67 158.4H1428.67ZM1471.42 146.45H1478.02V138.45H1471.42V146.45ZM1478.02 146.45C1499.93 146.45 1508.24 151.359 1511.47 155.399L1517.72 150.401C1512.15 143.441 1500.65 138.45 1478.02 138.45V146.45ZM1514.59 156.9H1583.89V148.9H1514.59V156.9ZM1587.87 152.506C1586.54 139.032 1580.89 125.025 1564.68 114.578C1548.75 104.309 1523.02 97.75 1482.14 97.75V105.75C1522.4 105.75 1546.3 112.253 1560.35 121.303C1574.11 130.175 1578.77 141.743 1579.91 153.294L1587.87 152.506ZM1482.14 97.75H1460.97V105.75H1482.14V97.75ZM1460.97 97.75C1419.74 97.75 1393.56 104.221 1377.62 115.348C1361.33 126.721 1356.32 142.52 1356.32 159.225H1364.32C1364.32 144.305 1368.65 131.366 1382.2 121.908C1396.1 112.204 1420.25 105.75 1460.97 105.75V97.75ZM1356.32 159.225V161.7H1364.32V159.225H1356.32ZM1356.32 161.7C1356.32 177.515 1361.58 192.615 1376.01 203.87C1390.24 214.968 1412.89 221.925 1446.83 222.898L1447.06 214.902C1413.9 213.95 1393.23 207.157 1380.93 197.561C1368.82 188.123 1364.32 175.585 1364.32 161.7H1356.32ZM1446.86 222.899L1484.81 223.724L1484.98 215.726L1447.03 214.901L1446.86 222.899ZM1484.79 223.724C1500.52 224.134 1509.07 226.064 1513.62 228.637C1515.77 229.855 1516.91 231.153 1517.56 232.443C1518.24 233.781 1518.57 235.434 1518.57 237.6H1526.57C1526.57 234.678 1526.14 231.656 1524.7 228.818C1523.23 225.931 1520.88 223.552 1517.56 221.675C1511.18 218.061 1500.89 216.141 1485 215.726L1484.79 223.724ZM1518.57 237.6C1518.57 239.681 1518.3 241.521 1517.56 243.158C1516.85 244.741 1515.6 246.369 1513.25 247.886C1508.34 251.051 1498.74 253.675 1480.22 253.675V261.675C1499.1 261.675 1510.67 259.073 1517.59 254.608C1521.15 252.309 1523.47 249.52 1524.86 246.437C1526.22 243.407 1526.57 240.332 1526.57 237.6H1518.57ZM1480.22 253.675H1474.44V261.675H1480.22V253.675ZM1474.44 253.675C1461.08 253.675 1450.52 251.601 1442.99 248.686C1435.26 245.691 1431.38 242.083 1430.24 239.539L1422.94 242.811C1425.38 248.242 1431.68 252.884 1440.1 256.146C1448.73 259.486 1460.3 261.675 1474.44 261.675V253.675ZM1426.59 237.175H1358.39V245.175H1426.59V237.175ZM1354.41 241.489C1355.43 254.489 1360.17 270.417 1376.59 282.957C1392.85 295.367 1419.99 304.025 1464.82 304.025V296.025C1420.82 296.025 1395.72 287.495 1381.45 276.599C1367.35 265.833 1363.28 252.336 1362.38 240.861L1354.41 241.489ZM1464.82 304.025H1483.24V296.025H1464.82V304.025ZM1483.24 304.025C1529.11 304.025 1556.38 295.392 1572.19 282.196C1588.21 268.825 1591.74 251.409 1591.74 235.95H1583.74C1583.74 250.191 1580.54 264.813 1567.07 276.054C1553.38 287.47 1528.4 296.025 1483.24 296.025V304.025ZM1591.74 235.95V232.65H1583.74V235.95H1591.74ZM1591.74 232.65C1591.74 215.669 1587.23 200.489 1572.65 189.542C1558.4 178.843 1535.15 172.695 1499.03 171.726L1498.81 179.724C1534.46 180.68 1555.63 186.769 1567.85 195.94C1579.73 204.861 1583.74 217.181 1583.74 232.65H1591.74Z" fill="#ECECEE"/>
<ellipse cx="7.11712" cy="24.718" rx="4.63081" ry="4.11628" transform="rotate(90 7.11712 24.718)" fill="black" fill-opacity="0.1"/>
<ellipse cx="7.11712" cy="39.1251" rx="4.63081" ry="4.11628" transform="rotate(90 7.11712 39.1251)" fill="black" fill-opacity="0.1"/>
<ellipse cx="20.4941" cy="24.718" rx="4.63081" ry="4.11628" transform="rotate(90 20.4941 24.718)" fill="black" fill-opacity="0.1"/>
<ellipse cx="20.4941" cy="39.1251" rx="4.63081" ry="4.11628" transform="rotate(90 20.4941 39.1251)" fill="black" fill-opacity="0.1"/>
<ellipse cx="7.11712" cy="53.5319" rx="4.63081" ry="4.11628" transform="rotate(90 7.11712 53.5319)" fill="black" fill-opacity="0.1"/>
<ellipse cx="20.4941" cy="53.5319" rx="4.63081" ry="4.11628" transform="rotate(90 20.4941 53.5319)" fill="black" fill-opacity="0.1"/>
<ellipse cx="33.872" cy="67.9389" rx="4.63081" ry="4.11628" transform="rotate(90 33.872 67.9389)" fill="black" fill-opacity="0.1"/>
<ellipse cx="33.872" cy="82.346" rx="4.63081" ry="4.11628" transform="rotate(90 33.872 82.346)" fill="black" fill-opacity="0.1"/>
<ellipse cx="47.2499" cy="67.9389" rx="4.63081" ry="4.11628" transform="rotate(90 47.2499 67.9389)" fill="black" fill-opacity="0.1"/>
<ellipse cx="47.2499" cy="82.346" rx="4.63081" ry="4.11628" transform="rotate(90 47.2499 82.346)" fill="black" fill-opacity="0.1"/>
<ellipse cx="33.872" cy="96.7529" rx="4.63081" ry="4.11628" transform="rotate(90 33.872 96.7529)" fill="black" fill-opacity="0.1"/>
<ellipse cx="47.2499" cy="96.7529" rx="4.63081" ry="4.11628" transform="rotate(90 47.2499 96.7529)" fill="black" fill-opacity="0.1"/>
<ellipse cx="7.11712" cy="111.16" rx="4.63081" ry="4.11628" transform="rotate(90 7.11712 111.16)" fill="black" fill-opacity="0.1"/>
<ellipse cx="7.11712" cy="125.567" rx="4.63081" ry="4.11628" transform="rotate(90 7.11712 125.567)" fill="black" fill-opacity="0.1"/>
<ellipse cx="20.4941" cy="111.16" rx="4.63081" ry="4.11628" transform="rotate(90 20.4941 111.16)" fill="black" fill-opacity="0.1"/>
<ellipse cx="20.4941" cy="125.567" rx="4.63081" ry="4.11628" transform="rotate(90 20.4941 125.567)" fill="black" fill-opacity="0.1"/>
<ellipse cx="7.11712" cy="139.974" rx="4.63081" ry="4.11628" transform="rotate(90 7.11712 139.974)" fill="black" fill-opacity="0.1"/>
<ellipse cx="20.4941" cy="139.974" rx="4.63081" ry="4.11628" transform="rotate(90 20.4941 139.974)" fill="black" fill-opacity="0.1"/>
<ellipse cx="33.872" cy="111.16" rx="4.63081" ry="4.11628" transform="rotate(90 33.872 111.16)" fill="black" fill-opacity="0.1"/>
<ellipse cx="33.872" cy="125.567" rx="4.63081" ry="4.11628" transform="rotate(90 33.872 125.567)" fill="black" fill-opacity="0.1"/>
<ellipse cx="47.2499" cy="111.16" rx="4.63081" ry="4.11628" transform="rotate(90 47.2499 111.16)" fill="black" fill-opacity="0.1"/>
<ellipse cx="47.2499" cy="125.567" rx="4.63081" ry="4.11628" transform="rotate(90 47.2499 125.567)" fill="black" fill-opacity="0.1"/>
<ellipse cx="33.872" cy="139.974" rx="4.63081" ry="4.11628" transform="rotate(90 33.872 139.974)" fill="black" fill-opacity="0.1"/>
<ellipse cx="60.6279" cy="39.1251" rx="4.63081" ry="4.11628" transform="rotate(90 60.6279 39.1251)" fill="black" fill-opacity="0.1"/>
<ellipse cx="60.6279" cy="53.5319" rx="4.63081" ry="4.11628" transform="rotate(90 60.6279 53.5319)" fill="black" fill-opacity="0.1"/>
<ellipse cx="74.0058" cy="53.5319" rx="4.63081" ry="4.11628" transform="rotate(90 74.0058 53.5319)" fill="black" fill-opacity="0.1"/>
<ellipse cx="60.6279" cy="66.9099" rx="4.63081" ry="4.11628" transform="rotate(90 60.6279 66.9099)" fill="black" fill-opacity="0.1"/>
<ellipse cx="60.6279" cy="81.3168" rx="4.63081" ry="4.11628" transform="rotate(90 60.6279 81.3168)" fill="black" fill-opacity="0.1"/>
<ellipse cx="74.0058" cy="66.9099" rx="4.63081" ry="4.11628" transform="rotate(90 74.0058 66.9099)" fill="black" fill-opacity="0.1"/>
<circle cx="71.9477" cy="78.7442" r="2.05814" transform="rotate(90 71.9477 78.7442)" fill="black" fill-opacity="0.1"/>
<circle cx="69.8901" cy="93.151" r="2.05814" transform="rotate(90 69.8901 93.151)" fill="black" fill-opacity="0.1"/>
<circle cx="67.8315" cy="101.384" r="2.05814" transform="rotate(90 67.8315 101.384)" fill="black" fill-opacity="0.1"/>
<circle cx="64.7446" cy="89.0348" r="2.05814" transform="rotate(90 64.7446 89.0348)" fill="black" fill-opacity="0.1"/>
<circle cx="68.8608" cy="108.587" r="2.05814" transform="rotate(90 68.8608 108.587)" fill="black" fill-opacity="0.1"/>
<circle cx="67.8315" cy="115.791" r="2.05814" transform="rotate(90 67.8315 115.791)" fill="black" fill-opacity="0.1"/>
<circle cx="61.6577" cy="119.907" r="2.05814" transform="rotate(90 61.6577 119.907)" fill="black" fill-opacity="0.1"/>
<circle cx="54.4536" cy="120.936" r="2.05814" transform="rotate(90 54.4536 120.936)" fill="black" fill-opacity="0.1"/>
<circle cx="55.4829" cy="128.139" r="2.05814" transform="rotate(90 55.4829 128.139)" fill="black" fill-opacity="0.1"/>
<circle cx="49.3081" cy="133.285" r="2.05814" transform="rotate(90 49.3081 133.285)" fill="black" fill-opacity="0.1"/>
<circle cx="41.0756" cy="135.343" r="2.05814" transform="rotate(90 41.0756 135.343)" fill="black" fill-opacity="0.1"/>
<circle cx="43.1342" cy="142.547" r="2.05814" transform="rotate(90 43.1342 142.547)" fill="black" fill-opacity="0.1"/>
<circle cx="36.9594" cy="147.692" r="2.05814" transform="rotate(90 36.9594 147.692)" fill="black" fill-opacity="0.1"/>
<circle cx="27.6977" cy="147.692" r="2.05814" transform="rotate(90 27.6977 147.692)" fill="black" fill-opacity="0.1"/>
<circle cx="29.7563" cy="154.895" r="2.05814" transform="rotate(90 29.7563 154.895)" fill="black" fill-opacity="0.1"/>
<circle cx="24.6108" cy="162.099" r="2.05814" transform="rotate(90 24.6108 162.099)" fill="black" fill-opacity="0.1"/>
<circle cx="17.4077" cy="164.157" r="2.05814" transform="rotate(90 17.4077 164.157)" fill="black" fill-opacity="0.1"/>
<circle cx="14.3198" cy="169.302" r="2.05814" transform="rotate(90 14.3198 169.302)" fill="black" fill-opacity="0.1"/>
<circle cx="11.2329" cy="175.477" r="2.05814" transform="rotate(90 11.2329 175.477)" fill="black" fill-opacity="0.1"/>
<circle cx="15.3491" cy="181.651" r="2.05814" transform="rotate(90 15.3491 181.651)" fill="black" fill-opacity="0.1"/>
<circle cx="13.2915" cy="189.884" r="2.05814" transform="rotate(90 13.2915 189.884)" fill="black" fill-opacity="0.1"/>
<circle cx="5.05807" cy="191.942" r="2.05814" transform="rotate(90 5.05807 191.942)" fill="black" fill-opacity="0.1"/>
<circle cx="71.9477" cy="85.9475" r="2.05814" transform="rotate(90 71.9477 85.9475)" fill="black" fill-opacity="0.1"/>
<circle cx="78.1225" cy="76.6861" r="2.05814" transform="rotate(90 78.1225 76.6861)" fill="black" fill-opacity="0.1"/>
<circle cx="82.2387" cy="69.4826" r="2.05814" transform="rotate(90 82.2387 69.4826)" fill="black" fill-opacity="0.1"/>
<circle cx="82.2387" cy="62.2791" r="2.05814" transform="rotate(90 82.2387 62.2791)" fill="black" fill-opacity="0.1"/>
<circle cx="82.2387" cy="55.0756" r="2.05814" transform="rotate(90 82.2387 55.0756)" fill="black" fill-opacity="0.1"/>
<circle cx="80.1801" cy="45.814" r="2.05814" transform="rotate(90 80.1801 45.814)" fill="black" fill-opacity="0.1"/>
<circle cx="71.9477" cy="45.814" r="2.05814" transform="rotate(90 71.9477 45.814)" fill="black" fill-opacity="0.1"/>
<circle cx="67.8315" cy="39.6394" r="2.05814" transform="rotate(90 67.8315 39.6394)" fill="black" fill-opacity="0.1"/>
<circle cx="65.7739" cy="31.407" r="2.05814" transform="rotate(90 65.7739 31.407)" fill="black" fill-opacity="0.1"/>
<circle cx="58.5698" cy="31.407" r="2.05814" transform="rotate(90 58.5698 31.407)" fill="black" fill-opacity="0.1"/>
<circle cx="51.3667" cy="31.407" r="2.05814" transform="rotate(90 51.3667 31.407)" fill="black" fill-opacity="0.1"/>
<circle cx="44.1635" cy="31.407" r="2.05814" transform="rotate(90 44.1635 31.407)" fill="black" fill-opacity="0.1"/>
<circle cx="43.1342" cy="25.2325" r="2.05814" transform="rotate(90 43.1342 25.2325)" fill="black" fill-opacity="0.1"/>
<circle cx="41.0756" cy="19.0581" r="2.05814" transform="rotate(90 41.0756 19.0581)" fill="black" fill-opacity="0.1"/>
<ellipse cx="60.6279" cy="95.7237" rx="4.63081" ry="4.11628" transform="rotate(90 60.6279 95.7237)" fill="black" fill-opacity="0.1"/>
<ellipse cx="60.6279" cy="111.16" rx="4.63081" ry="4.11628" transform="rotate(90 60.6279 111.16)" fill="black" fill-opacity="0.1"/>
<ellipse cx="7.11712" cy="154.381" rx="4.63081" ry="4.11628" transform="rotate(90 7.11712 154.381)" fill="black" fill-opacity="0.1"/>
<ellipse cx="7.11712" cy="168.788" rx="4.63081" ry="4.11628" transform="rotate(90 7.11712 168.788)" fill="black" fill-opacity="0.1"/>
<ellipse cx="20.4941" cy="154.381" rx="4.63081" ry="4.11628" transform="rotate(90 20.4941 154.381)" fill="black" fill-opacity="0.1"/>
<ellipse cx="7.11712" cy="183.195" rx="4.63081" ry="4.11628" transform="rotate(90 7.11712 183.195)" fill="black" fill-opacity="0.1"/>
<ellipse cx="7.11712" cy="67.9389" rx="4.63081" ry="4.11628" transform="rotate(90 7.11712 67.9389)" fill="black" fill-opacity="0.1"/>
<ellipse cx="7.11712" cy="82.346" rx="4.63081" ry="4.11628" transform="rotate(90 7.11712 82.346)" fill="black" fill-opacity="0.1"/>
<ellipse cx="20.4941" cy="67.9389" rx="4.63081" ry="4.11628" transform="rotate(90 20.4941 67.9389)" fill="black" fill-opacity="0.1"/>
<ellipse cx="20.4941" cy="82.346" rx="4.63081" ry="4.11628" transform="rotate(90 20.4941 82.346)" fill="black" fill-opacity="0.1"/>
<ellipse cx="7.11712" cy="96.7529" rx="4.63081" ry="4.11628" transform="rotate(90 7.11712 96.7529)" fill="black" fill-opacity="0.1"/>
<ellipse cx="20.4941" cy="96.7529" rx="4.63081" ry="4.11628" transform="rotate(90 20.4941 96.7529)" fill="black" fill-opacity="0.1"/>
<ellipse cx="33.872" cy="24.718" rx="4.63081" ry="4.11628" transform="rotate(90 33.872 24.718)" fill="black" fill-opacity="0.1"/>
<ellipse cx="33.872" cy="39.1251" rx="4.63081" ry="4.11628" transform="rotate(90 33.872 39.1251)" fill="black" fill-opacity="0.1"/>
<ellipse cx="47.2499" cy="39.1251" rx="4.63081" ry="4.11628" transform="rotate(90 47.2499 39.1251)" fill="black" fill-opacity="0.1"/>
<ellipse cx="33.872" cy="53.5319" rx="4.63081" ry="4.11628" transform="rotate(90 33.872 53.5319)" fill="black" fill-opacity="0.1"/>
<ellipse cx="47.2499" cy="53.5319" rx="4.63081" ry="4.11628" transform="rotate(90 47.2499 53.5319)" fill="black" fill-opacity="0.1"/>
</svg>
