<svg width="42" height="30" viewBox="0 0 42 30" fill="none" xmlns="http://www.w3.org/2000/svg">
<path d="M40.8132 6.34087C40.8132 6.34087 40.4116 3.50561 39.1747 2.26067C37.6085 0.62217 35.8575 0.614138 35.0543 0.517755C29.3035 0.100097 20.6692 0.100098 20.6692 0.100098H20.6532C20.6532 0.100098 12.0189 0.100097 6.26809 0.517755C5.4649 0.614138 3.71395 0.62217 2.14774 2.26067C0.910829 3.50561 0.517267 6.34087 0.517267 6.34087C0.517267 6.34087 0.0996094 9.6741 0.0996094 12.9993V16.1157C0.0996094 19.4409 0.509235 22.7741 0.509235 22.7741C0.509235 22.7741 0.910829 25.6093 2.13971 26.8543C3.70592 28.4928 5.76208 28.4366 6.67772 28.6133C9.97079 28.9265 20.6612 29.0229 20.6612 29.0229C20.6612 29.0229 29.3035 29.0068 35.0543 28.5972C35.8575 28.5008 37.6085 28.4928 39.1747 26.8543C40.4116 25.6093 40.8132 22.7741 40.8132 22.7741C40.8132 22.7741 41.2228 19.4489 41.2228 16.1157V12.9993C41.2228 9.6741 40.8132 6.34087 40.8132 6.34087ZM16.4124 19.8987V8.3408L27.5204 14.1398L16.4124 19.8987Z" fill="white"/>
</svg>
