<svg width="2018" height="932" viewBox="0 0 2018 932" fill="none" xmlns="http://www.w3.org/2000/svg">
<g clip-path="url(#clip0_423_605)">
<rect width="2018" height="932" fill="white"/>
<path d="M197.3 51.45L274.7 51.45L274.7 17.85L170 17.85L170 114.9L197.3 114.9L197.3 51.45ZM274.7 222.432L274.7 122.082L170 122.082L170 223.332L194.3 223.332L194.3 155.382L210.5 155.382L210.5 222.882L235.4 222.882L235.4 155.382L250.7 155.382L250.7 222.432L274.7 222.432ZM170 293.708L170 296.108C170 328.658 189.65 340.808 189.65 340.808L171.5 340.808L171.5 364.808L229.4 364.808L229.4 300.008L210.2 300.008L210.2 329.408C206.9 328.658 195.8 323.558 195.8 299.858C195.8 274.958 210.8 267.308 223.55 267.308L225.35 267.308C238.4 267.308 251.9 274.358 251.9 299.258C252.2 330.308 237.05 330.008 237.05 330.008L237.05 364.808C253.1 364.808 277.85 351.608 277.85 301.508L277.85 296.708C277.85 245.858 248.75 232.358 225.95 232.358L222.65 232.358C198.95 232.358 170 246.458 170 293.708ZM274.7 478.505L274.7 378.155L170 378.155L170 479.405L194.3 479.405L194.3 411.455L210.5 411.455L210.5 478.955L235.4 478.955L235.4 411.455L250.7 411.455L250.7 478.505L274.7 478.505ZM233.9 525.93L169.85 586.53L169.85 619.08L274.7 619.08L274.7 586.38L211.85 586.38L274.7 527.58L274.7 493.23L170 493.23L170 525.93L233.9 525.93ZM274.7 634.227L170 634.227L170 685.827C170 743.877 198.2 754.377 221.3 754.377L225.65 754.377C248.15 754.377 274.7 741.777 274.7 685.677L274.7 634.227ZM195.2 667.827L249.65 667.827L249.65 682.827C249.65 715.827 234.05 719.277 223.25 719.277L222.35 719.277C211.1 719.277 195.2 715.977 195.2 682.827L195.2 667.827ZM237.65 837.28L238.1 816.28C238.55 800.23 242.3 796.78 247.1 796.78C252.2 796.78 255.8 804.43 255.8 822.28L255.8 825.88C255.8 838.03 253.1 843.43 250.1 845.83L250.1 883.63C263.75 882.28 278 872.38 278 828.13L278 816.58C278 771.88 263.9 761.68 246.65 761.68L245.3 761.68C229.1 761.68 215.15 772.33 214.1 808.93L213.65 829.63C213.2 846.88 209.45 850.18 203.9 850.18C198.65 850.18 192.95 847.48 192.95 827.08L192.95 823.93C192.95 808.93 197.6 799.78 201.95 797.83L201.95 760.63C188.6 761.68 169.85 770.23 169.85 818.68L169.85 828.73C169.85 878.38 188.6 885.73 204.8 885.73L206.6 885.73C224.3 885.73 236.6 876.43 237.65 837.28Z" fill="#CECECE" fill-opacity="0.21"/>
<path d="M197.3 51.45L197.3 47.45L193.3 47.45L193.3 51.45L197.3 51.45ZM274.7 51.45L274.7 55.45L278.7 55.45L278.7 51.45L274.7 51.45ZM274.7 17.85L278.7 17.85L278.7 13.85L274.7 13.85L274.7 17.85ZM170 17.85L170 13.85L166 13.85L166 17.85L170 17.85ZM170 114.9L166 114.9L166 118.9L170 118.9L170 114.9ZM197.3 114.9L197.3 118.9L201.3 118.9L201.3 114.9L197.3 114.9ZM197.3 55.45L274.7 55.45L274.7 47.45L197.3 47.45L197.3 55.45ZM278.7 51.45L278.7 17.85L270.7 17.85L270.7 51.45L278.7 51.45ZM274.7 13.85L170 13.85L170 21.85L274.7 21.85L274.7 13.85ZM166 17.85L166 114.9L174 114.9L174 17.85L166 17.85ZM170 118.9L197.3 118.9L197.3 110.9L170 110.9L170 118.9ZM201.3 114.9L201.3 51.45L193.3 51.45L193.3 114.9L201.3 114.9ZM274.7 222.432L274.7 226.432L278.7 226.432L278.7 222.432L274.7 222.432ZM274.7 122.082L278.7 122.082L278.7 118.082L274.7 118.082L274.7 122.082ZM170 122.082L170 118.082L166 118.082L166 122.082L170 122.082ZM170 223.332L166 223.332L166 227.332L170 227.332L170 223.332ZM194.3 223.332L194.3 227.332L198.3 227.332L198.3 223.332L194.3 223.332ZM194.3 155.382L194.3 151.382L190.3 151.382L190.3 155.382L194.3 155.382ZM210.5 155.382L214.5 155.382L214.5 151.382L210.5 151.382L210.5 155.382ZM210.5 222.882L206.5 222.882L206.5 226.882L210.5 226.882L210.5 222.882ZM235.4 222.882L235.4 226.882L239.4 226.882L239.4 222.882L235.4 222.882ZM235.4 155.382L235.4 151.382L231.4 151.382L231.4 155.382L235.4 155.382ZM250.7 155.382L254.7 155.382L254.7 151.382L250.7 151.382L250.7 155.382ZM250.7 222.432L246.7 222.432L246.7 226.432L250.7 226.432L250.7 222.432ZM278.7 222.432L278.7 122.082L270.7 122.082L270.7 222.432L278.7 222.432ZM274.7 118.082L170 118.082L170 126.082L274.7 126.082L274.7 118.082ZM166 122.082L166 223.332L174 223.332L174 122.082L166 122.082ZM170 227.332L194.3 227.332L194.3 219.332L170 219.332L170 227.332ZM198.3 223.332L198.3 155.382L190.3 155.382L190.3 223.332L198.3 223.332ZM194.3 159.382L210.5 159.382L210.5 151.382L194.3 151.382L194.3 159.382ZM206.5 155.382L206.5 222.882L214.5 222.882L214.5 155.382L206.5 155.382ZM210.5 226.882L235.4 226.882L235.4 218.882L210.5 218.882L210.5 226.882ZM239.4 222.882L239.4 155.382L231.4 155.382L231.4 222.882L239.4 222.882ZM235.4 159.382L250.7 159.382L250.7 151.382L235.4 151.382L235.4 159.382ZM246.7 155.382L246.7 222.432L254.7 222.432L254.7 155.382L246.7 155.382ZM250.7 226.432L274.7 226.432L274.7 218.432L250.7 218.432L250.7 226.432ZM189.65 340.808L189.65 344.808L203.725 344.808L191.754 337.406L189.65 340.808ZM171.5 340.808L171.5 336.808L167.5 336.808L167.5 340.808L171.5 340.808ZM171.5 364.808L167.5 364.808L167.5 368.808L171.5 368.808L171.5 364.808ZM229.4 364.808L229.4 368.808L233.4 368.808L233.4 364.808L229.4 364.808ZM229.4 300.008L233.4 300.008L233.4 296.008L229.4 296.008L229.4 300.008ZM210.2 300.008L210.2 296.008L206.2 296.008L206.2 300.008L210.2 300.008ZM210.2 329.408L209.314 333.309L214.2 334.419L214.2 329.408L210.2 329.408ZM251.9 299.258L247.9 299.258L247.9 299.278L247.9 299.297L251.9 299.258ZM237.05 330.008L237.129 326.009L233.05 325.928L233.05 330.008L237.05 330.008ZM237.05 364.808L233.05 364.808L233.05 368.808L237.05 368.808L237.05 364.808ZM166 293.708L166 296.108L174 296.108L174 293.708L166 293.708ZM166 296.108C166 313.247 171.19 325.208 176.535 332.939C179.194 336.786 181.869 339.554 183.913 341.383C184.936 342.297 185.802 342.978 186.433 343.443C186.749 343.676 187.006 343.854 187.195 343.981C187.289 344.045 187.366 344.096 187.425 344.134C187.455 344.153 187.48 344.169 187.5 344.181C187.51 344.188 187.519 344.193 187.527 344.198C187.531 344.201 187.534 344.203 187.537 344.205C187.539 344.206 187.541 344.207 187.542 344.208C187.544 344.209 187.546 344.21 189.65 340.808C191.754 337.406 191.756 337.407 191.757 337.408C191.758 337.409 191.76 337.41 191.761 337.41C191.763 337.412 191.765 337.413 191.766 337.414C191.769 337.416 191.771 337.417 191.771 337.417C191.773 337.418 191.77 337.416 191.762 337.411C191.746 337.401 191.713 337.38 191.664 337.346C191.565 337.279 191.4 337.165 191.178 337.002C190.735 336.675 190.066 336.153 189.246 335.42C187.606 333.953 185.369 331.65 183.115 328.39C178.635 321.909 174 311.519 174 296.108L166 296.108ZM189.65 336.808L171.5 336.808L171.5 344.808L189.65 344.808L189.65 336.808ZM167.5 340.808L167.5 364.808L175.5 364.808L175.5 340.808L167.5 340.808ZM171.5 368.808L229.4 368.808L229.4 360.808L171.5 360.808L171.5 368.808ZM233.4 364.808L233.4 300.008L225.4 300.008L225.4 364.808L233.4 364.808ZM229.4 296.008L210.2 296.008L210.2 304.008L229.4 304.008L229.4 296.008ZM206.2 300.008L206.2 329.408L214.2 329.408L214.2 300.008L206.2 300.008ZM211.086 325.508C210.289 325.326 207.553 324.359 204.984 320.869C202.424 317.39 199.8 311.086 199.8 299.858L191.8 299.858C191.8 312.33 194.726 320.427 198.541 325.61C202.347 330.782 206.811 332.74 209.314 333.309L211.086 325.508ZM199.8 299.858C199.8 288.24 203.272 281.261 207.634 277.16C212.061 272.997 217.924 271.308 223.55 271.308L223.55 263.308C216.426 263.308 208.414 265.444 202.154 271.332C195.828 277.28 191.8 286.576 191.8 299.858L199.8 299.858ZM223.55 271.308L225.35 271.308L225.35 263.308L223.55 263.308L223.55 271.308ZM225.35 271.308C231.2 271.308 236.696 272.885 240.728 276.811C244.73 280.709 247.9 287.516 247.9 299.258L255.9 299.258C255.9 286.1 252.32 276.933 246.309 271.08C240.329 265.256 232.55 263.308 225.35 263.308L225.35 271.308ZM247.9 299.297C248.045 314.24 244.46 320.707 241.738 323.47C240.364 324.864 239.057 325.481 238.184 325.763C237.739 325.907 237.394 325.967 237.197 325.992C237.099 326.005 237.04 326.008 237.026 326.009C237.019 326.009 237.024 326.009 237.04 326.008C237.049 326.008 237.06 326.008 237.075 326.008C237.082 326.008 237.091 326.008 237.1 326.009C237.104 326.009 237.109 326.009 237.114 326.009C237.116 326.009 237.12 326.009 237.121 326.009C237.125 326.009 237.129 326.009 237.05 330.008C236.971 334.007 236.975 334.008 236.979 334.008C236.98 334.008 236.985 334.008 236.988 334.008C236.993 334.008 236.999 334.008 237.006 334.008C237.018 334.008 237.032 334.008 237.047 334.008C237.076 334.008 237.109 334.008 237.146 334.008C237.221 334.007 237.31 334.004 237.414 333.999C237.622 333.989 237.888 333.969 238.203 333.929C238.834 333.849 239.671 333.69 240.641 333.376C242.599 332.744 245.061 331.496 247.437 329.084C252.215 324.234 256.055 315.326 255.9 299.22L247.9 299.297ZM233.05 330.008L233.05 364.808L241.05 364.808L241.05 330.008L233.05 330.008ZM237.05 368.808C246.15 368.808 257.494 365.066 266.506 354.548C275.504 344.048 281.85 327.188 281.85 301.508L273.85 301.508C273.85 325.928 267.821 340.719 260.431 349.343C253.056 357.951 244 360.808 237.05 360.808L237.05 368.808ZM281.85 301.508L281.85 296.708L273.85 296.708L273.85 301.508L281.85 301.508ZM281.85 296.708C281.85 270.51 274.333 253.26 263.222 242.581C252.162 231.951 238.087 228.358 225.95 228.358L225.95 236.358C236.613 236.358 248.488 239.515 257.678 248.348C266.817 257.132 273.85 272.056 273.85 296.708L281.85 296.708ZM225.95 228.358L222.65 228.358L222.65 236.358L225.95 236.358L225.95 228.358ZM222.65 228.358C210.064 228.358 195.838 232.099 184.722 242.378C173.529 252.727 166 269.23 166 293.708L174 293.708C174 270.937 180.946 256.764 190.153 248.251C199.436 239.668 211.536 236.358 222.65 236.358L222.65 228.358ZM274.7 478.505L274.7 482.505L278.7 482.505L278.7 478.505L274.7 478.505ZM274.7 378.155L278.7 378.155L278.7 374.155L274.7 374.155L274.7 378.155ZM170 378.155L170 374.155L166 374.155L166 378.155L170 378.155ZM170 479.405L166 479.405L166 483.405L170 483.405L170 479.405ZM194.3 479.405L194.3 483.405L198.3 483.405L198.3 479.405L194.3 479.405ZM194.3 411.455L194.3 407.455L190.3 407.455L190.3 411.455L194.3 411.455ZM210.5 411.455L214.5 411.455L214.5 407.455L210.5 407.455L210.5 411.455ZM210.5 478.955L206.5 478.955L206.5 482.955L210.5 482.955L210.5 478.955ZM235.4 478.955L235.4 482.955L239.4 482.955L239.4 478.955L235.4 478.955ZM235.4 411.455L235.4 407.455L231.4 407.455L231.4 411.455L235.4 411.455ZM250.7 411.455L254.7 411.455L254.7 407.455L250.7 407.455L250.7 411.455ZM250.7 478.505L246.7 478.505L246.7 482.505L250.7 482.505L250.7 478.505ZM278.7 478.505L278.7 378.155L270.7 378.155L270.7 478.505L278.7 478.505ZM274.7 374.155L170 374.155L170 382.155L274.7 382.155L274.7 374.155ZM166 378.155L166 479.405L174 479.405L174 378.155L166 378.155ZM170 483.405L194.3 483.405L194.3 475.405L170 475.405L170 483.405ZM198.3 479.405L198.3 411.455L190.3 411.455L190.3 479.405L198.3 479.405ZM194.3 415.455L210.5 415.455L210.5 407.455L194.3 407.455L194.3 415.455ZM206.5 411.455L206.5 478.955L214.5 478.955L214.5 411.455L206.5 411.455ZM210.5 482.955L235.4 482.955L235.4 474.955L210.5 474.955L210.5 482.955ZM239.4 478.955L239.4 411.455L231.4 411.455L231.4 478.955L239.4 478.955ZM235.4 415.455L250.7 415.455L250.7 407.455L235.4 407.455L235.4 415.455ZM246.7 411.455L246.7 478.505L254.7 478.505L254.7 411.455L246.7 411.455ZM250.7 482.505L274.7 482.505L274.7 474.505L250.7 474.505L250.7 482.505ZM233.9 525.93L236.649 528.836L243.948 521.93L233.9 521.93L233.9 525.93ZM169.85 586.53L167.101 583.625L165.85 584.808L165.85 586.53L169.85 586.53ZM169.85 619.08L165.85 619.08L165.85 623.08L169.85 623.08L169.85 619.08ZM274.7 619.08L274.7 623.08L278.7 623.08L278.7 619.08L274.7 619.08ZM274.7 586.38L278.7 586.38L278.7 582.38L274.7 582.38L274.7 586.38ZM211.85 586.38L209.117 583.459L201.72 590.38L211.85 590.38L211.85 586.38ZM274.7 527.58L277.433 530.501L278.7 529.316L278.7 527.58L274.7 527.58ZM274.7 493.23L278.7 493.23L278.7 489.23L274.7 489.23L274.7 493.23ZM170 493.23L170 489.23L166 489.23L166 493.23L170 493.23ZM170 525.93L166 525.93L166 529.93L170 529.93L170 525.93ZM231.151 523.025L167.101 583.625L172.599 589.436L236.649 528.836L231.151 523.025ZM165.85 586.53L165.85 619.08L173.85 619.08L173.85 586.53L165.85 586.53ZM169.85 623.08L274.7 623.08L274.7 615.08L169.85 615.08L169.85 623.08ZM278.7 619.08L278.7 586.38L270.7 586.38L270.7 619.08L278.7 619.08ZM274.7 582.38L211.85 582.38L211.85 590.38L274.7 590.38L274.7 582.38ZM214.583 589.301L277.433 530.501L271.967 524.659L209.117 583.459L214.583 589.301ZM278.7 527.58L278.7 493.23L270.7 493.23L270.7 527.58L278.7 527.58ZM274.7 489.23L170 489.23L170 497.23L274.7 497.23L274.7 489.23ZM166 493.23L166 525.93L174 525.93L174 493.23L166 493.23ZM170 529.93L233.9 529.93L233.9 521.93L170 521.93L170 529.93ZM274.7 634.227L278.7 634.227L278.7 630.227L274.7 630.227L274.7 634.227ZM170 634.227L170 630.227L166 630.227L166 634.227L170 634.227ZM195.2 667.827L195.2 663.827L191.2 663.827L191.2 667.827L195.2 667.827ZM249.65 667.827L253.65 667.827L253.65 663.827L249.65 663.827L249.65 667.827ZM274.7 630.227L170 630.227L170 638.227L274.7 638.227L274.7 630.227ZM166 634.227L166 685.827L174 685.827L174 634.227L166 634.227ZM166 685.827C166 715.433 173.189 733.792 184.167 744.707C195.151 755.629 209.203 758.377 221.3 758.377L221.3 750.377C210.297 750.377 198.698 747.875 189.808 739.034C180.91 730.187 174 714.271 174 685.827L166 685.827ZM221.3 758.377L225.65 758.377L225.65 750.377L221.3 750.377L221.3 758.377ZM225.65 758.377C237.627 758.377 251.108 755.009 261.542 743.788C271.932 732.615 278.7 714.294 278.7 685.677L270.7 685.677C270.7 713.16 264.193 729.189 255.683 738.341C247.217 747.445 236.173 750.377 225.65 750.377L225.65 758.377ZM278.7 685.677L278.7 634.227L270.7 634.227L270.7 685.677L278.7 685.677ZM195.2 671.827L249.65 671.827L249.65 663.827L195.2 663.827L195.2 671.827ZM245.65 667.827L245.65 682.827L253.65 682.827L253.65 667.827L245.65 667.827ZM245.65 682.827C245.65 698.793 241.868 706.61 237.745 710.527C233.619 714.447 228.31 715.277 223.25 715.277L223.25 723.277C228.99 723.277 236.881 722.382 243.255 716.327C249.632 710.269 253.65 699.861 253.65 682.827L245.65 682.827ZM223.25 715.277L222.35 715.277L222.35 723.277L223.25 723.277L223.25 715.277ZM222.35 715.277C217.015 715.277 211.516 714.465 207.27 710.544C203.051 706.649 199.2 698.857 199.2 682.827L191.2 682.827C191.2 699.947 195.299 710.38 201.843 716.422C208.359 722.439 216.435 723.277 222.35 723.277L222.35 715.277ZM199.2 682.827L199.2 667.827L191.2 667.827L191.2 682.827L199.2 682.827ZM237.65 837.28L241.649 837.387L241.649 837.377L241.649 837.366L237.65 837.28ZM238.1 816.28L234.102 816.168L234.101 816.181L234.101 816.194L238.1 816.28ZM250.1 845.83L247.601 842.707L246.1 843.908L246.1 845.83L250.1 845.83ZM250.1 883.63L246.1 883.63L246.1 888.045L250.494 887.611L250.1 883.63ZM214.1 808.93L210.102 808.815L210.101 808.829L210.101 808.843L214.1 808.93ZM213.65 829.63L217.649 829.734L217.649 829.726L217.649 829.717L213.65 829.63ZM201.95 797.83L203.586 801.48L205.95 800.42L205.95 797.83L201.95 797.83ZM201.95 760.63L205.95 760.63L205.95 756.303L201.636 756.642L201.95 760.63ZM241.649 837.366L242.099 816.366L234.101 816.194L233.651 837.194L241.649 837.366ZM242.098 816.392C242.32 808.499 243.361 804.441 244.465 802.454C244.965 801.554 245.403 801.217 245.675 801.067C245.962 800.907 246.381 800.78 247.1 800.78L247.1 792.78C245.419 792.78 243.57 793.084 241.789 794.073C239.994 795.071 238.566 796.6 237.472 798.569C235.389 802.319 234.33 808.012 234.102 816.168L242.098 816.392ZM247.1 800.78C247.116 800.78 248.285 800.65 249.612 804.228C250.905 807.711 251.8 813.528 251.8 822.28L259.8 822.28C259.8 813.182 258.895 806.249 257.113 801.445C255.365 796.735 252.184 792.78 247.1 792.78L247.1 800.78ZM251.8 822.28L251.8 825.88L259.8 825.88L259.8 822.28L251.8 822.28ZM251.8 825.88C251.8 837.671 249.141 841.475 247.601 842.707L252.599 848.954C257.059 845.385 259.8 838.389 259.8 825.88L251.8 825.88ZM246.1 845.83L246.1 883.63L254.1 883.63L254.1 845.83L246.1 845.83ZM250.494 887.611C258.28 886.841 266.475 883.531 272.531 874.135C278.41 865.013 282 850.564 282 828.13L274 828.13C274 849.946 270.465 862.572 265.807 869.801C261.325 876.754 255.57 879.07 249.706 879.65L250.494 887.611ZM282 828.13L282 816.58L274 816.58L274 828.13L282 828.13ZM282 816.58C282 793.974 278.466 779.235 272.073 770.078C265.435 760.569 256.168 757.68 246.65 757.68L246.65 765.68C254.382 765.68 260.79 767.891 265.514 774.657C270.483 781.775 274 794.486 274 816.58L282 816.58ZM246.65 757.68L245.3 757.68L245.3 765.68L246.65 765.68L246.65 757.68ZM245.3 757.68C236.235 757.68 227.417 760.718 220.864 769.12C214.47 777.321 210.638 790.127 210.102 808.815L218.098 809.045C218.612 791.133 222.28 780.314 227.173 774.04C231.908 767.967 238.165 765.68 245.3 765.68L245.3 757.68ZM210.101 808.843L209.651 829.543L217.649 829.717L218.099 809.017L210.101 808.843ZM209.651 829.526C209.428 838.073 208.373 842.342 207.206 844.403C206.692 845.312 206.23 845.656 205.889 845.829C205.5 846.027 204.91 846.18 203.9 846.18L203.9 854.18C205.665 854.18 207.625 853.921 209.514 852.961C211.452 851.976 212.995 850.417 214.168 848.344C216.377 844.443 217.422 838.437 217.649 829.734L209.651 829.526ZM203.9 846.18C202.913 846.18 202.19 846.05 201.614 845.791C201.091 845.556 200.467 845.118 199.817 844.111C198.386 841.893 196.95 837.098 196.95 827.08L188.95 827.08C188.95 837.462 190.364 844.217 193.095 848.449C194.527 850.668 196.312 852.179 198.335 853.088C200.304 853.973 202.262 854.18 203.9 854.18L203.9 846.18ZM196.95 827.08L196.95 823.93L188.95 823.93L188.95 827.08L196.95 827.08ZM196.95 823.93C196.95 816.821 198.055 811.289 199.549 807.431C201.122 803.369 202.854 801.808 203.586 801.48L200.314 794.18C196.696 795.802 193.928 799.791 192.089 804.542C190.17 809.496 188.95 816.04 188.95 823.93L196.95 823.93ZM205.95 797.83L205.95 760.63L197.95 760.63L197.95 797.83L205.95 797.83ZM201.636 756.642C194.199 757.227 184.958 759.965 177.714 769.453C170.601 778.769 165.85 794.039 165.85 818.68L173.85 818.68C173.85 794.872 178.474 781.641 184.073 774.307C189.542 767.145 196.351 765.083 202.264 764.618L201.636 756.642ZM165.85 818.68L165.85 828.73L173.85 828.73L173.85 818.68L165.85 818.68ZM165.85 828.73C165.85 853.909 170.576 869.302 178.179 878.412C185.956 887.732 196.091 889.73 204.8 889.73L204.8 881.73C197.309 881.73 189.969 880.054 184.321 873.286C178.498 866.309 173.85 853.201 173.85 828.73L165.85 828.73ZM204.8 889.73L206.6 889.73L206.6 881.73L204.8 881.73L204.8 889.73ZM206.6 889.73C216.206 889.73 225.136 887.156 231.568 878.588C237.751 870.351 241.117 857.197 241.649 837.387L233.651 837.173C233.133 856.514 229.824 867.584 225.17 873.785C220.764 879.654 214.694 881.73 206.6 881.73L206.6 889.73Z" fill="#ECECEE" fill-opacity="0.27"/>
<path d="M74.3 51.45L74.3 47.45L70.3 47.45L70.3 51.45L74.3 51.45ZM151.7 51.45L151.7 55.45L155.7 55.45L155.7 51.45L151.7 51.45ZM151.7 17.85L155.7 17.85L155.7 13.85L151.7 13.85L151.7 17.85ZM47 17.85L47 13.85L43 13.85L43 17.85L47 17.85ZM47 114.9L43 114.9L43 118.9L47 118.9L47 114.9ZM74.3 114.9L74.3 118.9L78.3 118.9L78.3 114.9L74.3 114.9ZM74.3 55.45L151.7 55.45L151.7 47.45L74.3 47.45L74.3 55.45ZM155.7 51.45L155.7 17.85L147.7 17.85L147.7 51.45L155.7 51.45ZM151.7 13.85L47 13.85L47 21.85L151.7 21.85L151.7 13.85ZM43 17.85L43 114.9L51 114.9L51 17.85L43 17.85ZM47 118.9L74.3 118.9L74.3 110.9L47 110.9L47 118.9ZM78.3 114.9L78.3 51.45L70.3 51.45L70.3 114.9L78.3 114.9ZM151.7 222.432L151.7 226.432L155.7 226.432L155.7 222.432L151.7 222.432ZM151.7 122.082L155.7 122.082L155.7 118.082L151.7 118.082L151.7 122.082ZM47 122.082L47 118.082L43 118.082L43 122.082L47 122.082ZM47 223.332L43 223.332L43 227.332L47 227.332L47 223.332ZM71.3 223.332L71.3 227.332L75.3 227.332L75.3 223.332L71.3 223.332ZM71.3 155.382L71.3 151.382L67.3 151.382L67.3 155.382L71.3 155.382ZM87.5 155.382L91.5 155.382L91.5 151.382L87.5 151.382L87.5 155.382ZM87.5 222.882L83.5 222.882L83.5 226.882L87.5 226.882L87.5 222.882ZM112.4 222.882L112.4 226.882L116.4 226.882L116.4 222.882L112.4 222.882ZM112.4 155.382L112.4 151.382L108.4 151.382L108.4 155.382L112.4 155.382ZM127.7 155.382L131.7 155.382L131.7 151.382L127.7 151.382L127.7 155.382ZM127.7 222.432L123.7 222.432L123.7 226.432L127.7 226.432L127.7 222.432ZM155.7 222.432L155.7 122.082L147.7 122.082L147.7 222.432L155.7 222.432ZM151.7 118.082L47 118.082L47 126.082L151.7 126.082L151.7 118.082ZM43 122.082L43 223.332L51 223.332L51 122.082L43 122.082ZM47 227.332L71.3 227.332L71.3 219.332L47 219.332L47 227.332ZM75.3 223.332L75.3 155.382L67.3 155.382L67.3 223.332L75.3 223.332ZM71.3 159.382L87.5 159.382L87.5 151.382L71.3 151.382L71.3 159.382ZM83.5 155.382L83.5 222.882L91.5 222.882L91.5 155.382L83.5 155.382ZM87.5 226.882L112.4 226.882L112.4 218.882L87.5 218.882L87.5 226.882ZM116.4 222.882L116.4 155.382L108.4 155.382L108.4 222.882L116.4 222.882ZM112.4 159.382L127.7 159.382L127.7 151.382L112.4 151.382L112.4 159.382ZM123.7 155.382L123.7 222.432L131.7 222.432L131.7 155.382L123.7 155.382ZM127.7 226.432L151.7 226.432L151.7 218.432L127.7 218.432L127.7 226.432ZM66.65 340.808L66.65 344.808L80.725 344.808L68.7536 337.406L66.65 340.808ZM48.5 340.808L48.5 336.808L44.5 336.808L44.5 340.808L48.5 340.808ZM48.5 364.808L44.5 364.808L44.5 368.808L48.5 368.808L48.5 364.808ZM106.4 364.808L106.4 368.808L110.4 368.808L110.4 364.808L106.4 364.808ZM106.4 300.008L110.4 300.008L110.4 296.008L106.4 296.008L106.4 300.008ZM87.2 300.008L87.2 296.008L83.2 296.008L83.2 300.008L87.2 300.008ZM87.2 329.408L86.3135 333.309L91.2 334.419L91.2 329.408L87.2 329.408ZM128.9 299.258L124.9 299.258L124.9 299.278L124.9 299.297L128.9 299.258ZM114.05 330.008L114.129 326.009L110.05 325.928L110.05 330.008L114.05 330.008ZM114.05 364.808L110.05 364.808L110.05 368.808L114.05 368.808L114.05 364.808ZM43 293.708L43 296.108L51 296.108L51 293.708L43 293.708ZM43 296.108C43 313.247 48.1901 325.208 53.5347 332.939C56.1938 336.786 58.8689 339.554 60.913 341.383C61.9355 342.297 62.8022 342.978 63.4333 343.443C63.7489 343.676 64.0061 343.854 64.1948 343.981C64.2891 344.045 64.3664 344.096 64.4254 344.134C64.4549 344.153 64.4798 344.169 64.5 344.181C64.5101 344.188 64.5191 344.193 64.5268 344.198C64.5307 344.201 64.5342 344.203 64.5375 344.205C64.5391 344.206 64.5413 344.207 64.5421 344.208C64.5443 344.209 64.5464 344.21 66.65 340.808C68.7536 337.406 68.7555 337.407 68.7574 337.408C68.7579 337.409 68.7597 337.41 68.7607 337.41C68.7628 337.412 68.7645 337.413 68.766 337.414C68.769 337.416 68.7708 337.417 68.7714 337.417C68.7728 337.418 68.7695 337.416 68.7618 337.411C68.7465 337.401 68.7134 337.38 68.6639 337.346C68.5647 337.279 68.3997 337.165 68.178 337.002C67.7345 336.675 67.066 336.153 66.2463 335.42C64.6061 333.953 62.3687 331.65 60.1153 328.39C55.6349 321.909 51 311.519 51 296.108L43 296.108ZM66.65 336.808L48.5 336.808L48.5 344.808L66.65 344.808L66.65 336.808ZM44.5 340.808L44.5 364.808L52.5 364.808L52.5 340.808L44.5 340.808ZM48.5 368.808L106.4 368.808L106.4 360.808L48.5 360.808L48.5 368.808ZM110.4 364.808L110.4 300.008L102.4 300.008L102.4 364.808L110.4 364.808ZM106.4 296.008L87.2 296.008L87.2 304.008L106.4 304.008L106.4 296.008ZM83.2 300.008L83.2 329.408L91.2 329.408L91.2 300.008L83.2 300.008ZM88.0865 325.508C87.2889 325.326 84.5529 324.359 81.9841 320.869C79.424 317.39 76.8 311.086 76.8 299.858L68.8 299.858C68.8 312.33 71.7259 320.427 75.5409 325.61C79.3471 330.782 83.8111 332.74 86.3135 333.309L88.0865 325.508ZM76.8 299.858C76.8 288.24 80.2724 281.261 84.6339 277.16C89.0606 272.997 94.9243 271.308 100.55 271.308L100.55 263.308C93.4257 263.308 85.4143 265.444 79.1536 271.332C72.8275 277.28 68.8 286.576 68.8 299.858L76.8 299.858ZM100.55 271.308L102.35 271.308L102.35 263.308L100.55 263.308L100.55 271.308ZM102.35 271.308C108.2 271.308 113.696 272.885 117.728 276.811C121.73 280.709 124.9 287.516 124.9 299.258L132.9 299.258C132.9 286.1 129.32 276.933 123.309 271.08C117.329 265.256 109.55 263.308 102.35 263.308L102.35 271.308ZM124.9 299.297C125.045 314.24 121.46 320.707 118.738 323.47C117.364 324.864 116.057 325.481 115.184 325.763C114.739 325.907 114.394 325.967 114.197 325.992C114.099 326.005 114.04 326.008 114.026 326.009C114.019 326.009 114.024 326.009 114.04 326.008C114.049 326.008 114.06 326.008 114.075 326.008C114.082 326.008 114.091 326.008 114.1 326.009C114.104 326.009 114.109 326.009 114.114 326.009C114.116 326.009 114.12 326.009 114.121 326.009C114.125 326.009 114.129 326.009 114.05 330.008C113.971 334.007 113.975 334.008 113.979 334.008C113.98 334.008 113.985 334.008 113.988 334.008C113.993 334.008 113.999 334.008 114.006 334.008C114.018 334.008 114.032 334.008 114.047 334.008C114.076 334.008 114.109 334.008 114.146 334.008C114.221 334.007 114.31 334.004 114.414 333.999C114.622 333.989 114.888 333.969 115.203 333.929C115.834 333.849 116.671 333.69 117.641 333.376C119.599 332.744 122.061 331.496 124.437 329.084C129.215 324.234 133.055 315.326 132.9 299.22L124.9 299.297ZM110.05 330.008L110.05 364.808L118.05 364.808L118.05 330.008L110.05 330.008ZM114.05 368.808C123.15 368.808 134.494 365.066 143.506 354.548C152.504 344.048 158.85 327.188 158.85 301.508L150.85 301.508C150.85 325.928 144.821 340.719 137.431 349.343C130.056 357.951 121 360.808 114.05 360.808L114.05 368.808ZM158.85 301.508L158.85 296.708L150.85 296.708L150.85 301.508L158.85 301.508ZM158.85 296.708C158.85 270.51 151.333 253.26 140.222 242.581C129.162 231.951 115.087 228.358 102.95 228.358L102.95 236.358C113.613 236.358 125.488 239.515 134.678 248.348C143.817 257.132 150.85 272.056 150.85 296.708L158.85 296.708ZM102.95 228.358L99.65 228.358L99.65 236.358L102.95 236.358L102.95 228.358ZM99.65 228.358C87.0642 228.358 72.8385 232.099 61.7219 242.378C50.5289 252.727 43 269.23 43 293.708L51 293.708C51 270.937 57.9461 256.764 67.1531 248.251C76.4365 239.668 88.5357 236.358 99.65 236.358L99.65 228.358ZM151.7 478.505L151.7 482.505L155.7 482.505L155.7 478.505L151.7 478.505ZM151.7 378.155L155.7 378.155L155.7 374.155L151.7 374.155L151.7 378.155ZM47 378.155L47 374.155L43 374.155L43 378.155L47 378.155ZM47 479.405L43 479.405L43 483.405L47 483.405L47 479.405ZM71.3 479.405L71.3 483.405L75.3 483.405L75.3 479.405L71.3 479.405ZM71.3 411.455L71.3 407.455L67.3 407.455L67.3 411.455L71.3 411.455ZM87.5 411.455L91.5 411.455L91.5 407.455L87.5 407.455L87.5 411.455ZM87.5 478.955L83.5 478.955L83.5 482.955L87.5 482.955L87.5 478.955ZM112.4 478.955L112.4 482.955L116.4 482.955L116.4 478.955L112.4 478.955ZM112.4 411.455L112.4 407.455L108.4 407.455L108.4 411.455L112.4 411.455ZM127.7 411.455L131.7 411.455L131.7 407.455L127.7 407.455L127.7 411.455ZM127.7 478.505L123.7 478.505L123.7 482.505L127.7 482.505L127.7 478.505ZM155.7 478.505L155.7 378.155L147.7 378.155L147.7 478.505L155.7 478.505ZM151.7 374.155L47 374.155L47 382.155L151.7 382.155L151.7 374.155ZM43 378.155L43 479.405L51 479.405L51 378.155L43 378.155ZM47 483.405L71.3 483.405L71.3 475.405L47 475.405L47 483.405ZM75.3 479.405L75.3 411.455L67.3 411.455L67.3 479.405L75.3 479.405ZM71.3 415.455L87.5 415.455L87.5 407.455L71.3 407.455L71.3 415.455ZM83.5 411.455L83.5 478.955L91.5 478.955L91.5 411.455L83.5 411.455ZM87.5 482.955L112.4 482.955L112.4 474.955L87.5 474.955L87.5 482.955ZM116.4 478.955L116.4 411.455L108.4 411.455L108.4 478.955L116.4 478.955ZM112.4 415.455L127.7 415.455L127.7 407.455L112.4 407.455L112.4 415.455ZM123.7 411.455L123.7 478.505L131.7 478.505L131.7 411.455L123.7 411.455ZM127.7 482.505L151.7 482.505L151.7 474.505L127.7 474.505L127.7 482.505ZM110.9 525.93L113.649 528.836L120.948 521.93L110.9 521.93L110.9 525.93ZM46.85 586.53L44.1009 583.625L42.85 584.808L42.85 586.53L46.85 586.53ZM46.85 619.08L42.85 619.08L42.85 623.08L46.85 623.08L46.85 619.08ZM151.7 619.08L151.7 623.08L155.7 623.08L155.7 619.08L151.7 619.08ZM151.7 586.38L155.7 586.38L155.7 582.38L151.7 582.38L151.7 586.38ZM88.85 586.38L86.1172 583.459L78.7196 590.38L88.85 590.38L88.85 586.38ZM151.7 527.58L154.433 530.501L155.7 529.316L155.7 527.58L151.7 527.58ZM151.7 493.23L155.7 493.23L155.7 489.23L151.7 489.23L151.7 493.23ZM47 493.23L47 489.23L43 489.23L43 493.23L47 493.23ZM47 525.93L43 525.93L43 529.93L47 529.93L47 525.93ZM108.151 523.025L44.1009 583.625L49.5991 589.436L113.649 528.836L108.151 523.025ZM42.85 586.53L42.85 619.08L50.85 619.08L50.85 586.53L42.85 586.53ZM46.85 623.08L151.7 623.08L151.7 615.08L46.85 615.08L46.85 623.08ZM155.7 619.08L155.7 586.38L147.7 586.38L147.7 619.08L155.7 619.08ZM151.7 582.38L88.85 582.38L88.85 590.38L151.7 590.38L151.7 582.38ZM91.5827 589.301L154.433 530.501L148.967 524.659L86.1172 583.459L91.5827 589.301ZM155.7 527.58L155.7 493.23L147.7 493.23L147.7 527.58L155.7 527.58ZM151.7 489.23L47 489.23L47 497.23L151.7 497.23L151.7 489.23ZM43 493.23L43 525.93L51 525.93L51 493.23L43 493.23ZM47 529.93L110.9 529.93L110.9 521.93L47 521.93L47 529.93ZM151.7 634.227L155.7 634.227L155.7 630.227L151.7 630.227L151.7 634.227ZM47 634.227L47 630.227L43 630.227L43 634.227L47 634.227ZM72.2 667.827L72.2 663.827L68.2 663.827L68.2 667.827L72.2 667.827ZM126.65 667.827L130.65 667.827L130.65 663.827L126.65 663.827L126.65 667.827ZM151.7 630.227L47 630.227L47 638.227L151.7 638.227L151.7 630.227ZM43 634.227L43 685.827L51 685.827L51 634.227L43 634.227ZM43 685.827C43 715.433 50.1894 733.792 61.1671 744.707C72.1515 755.629 86.2034 758.377 98.3 758.377L98.3 750.377C87.2965 750.377 75.6985 747.875 66.8079 739.034C57.9105 730.187 51 714.271 51 685.827L43 685.827ZM98.3 758.377L102.65 758.377L102.65 750.377L98.3 750.377L98.3 758.377ZM102.65 758.377C114.627 758.377 128.108 755.009 138.542 743.788C148.932 732.615 155.7 714.294 155.7 685.677L147.7 685.677C147.7 713.16 141.193 729.189 132.683 738.341C124.217 747.445 113.173 750.377 102.65 750.377L102.65 758.377ZM155.7 685.677L155.7 634.227L147.7 634.227L147.7 685.677L155.7 685.677ZM72.2 671.827L126.65 671.827L126.65 663.827L72.2 663.827L72.2 671.827ZM122.65 667.827L122.65 682.827L130.65 682.827L130.65 667.827L122.65 667.827ZM122.65 682.827C122.65 698.793 118.868 706.61 114.745 710.527C110.619 714.447 105.31 715.277 100.25 715.277L100.25 723.277C105.99 723.277 113.881 722.382 120.255 716.327C126.632 710.269 130.65 699.861 130.65 682.827L122.65 682.827ZM100.25 715.277L99.35 715.277L99.35 723.277L100.25 723.277L100.25 715.277ZM99.35 715.277C94.0153 715.277 88.5159 714.465 84.2698 710.544C80.0507 706.649 76.2 698.857 76.2 682.827L68.2 682.827C68.2 699.947 72.2993 710.38 78.8427 716.422C85.359 722.439 93.4346 723.277 99.35 723.277L99.35 715.277ZM76.2 682.827L76.2 667.827L68.2 667.827L68.2 682.827L76.2 682.827ZM114.65 837.28L118.649 837.387L118.649 837.377L118.649 837.366L114.65 837.28ZM115.1 816.28L111.102 816.168L111.101 816.181L111.101 816.194L115.1 816.28ZM127.1 845.83L124.601 842.707L123.1 843.908L123.1 845.83L127.1 845.83ZM127.1 883.63L123.1 883.63L123.1 888.045L127.494 887.611L127.1 883.63ZM91.1 808.93L87.1016 808.815L87.1012 808.829L87.1009 808.843L91.1 808.93ZM90.65 829.63L94.6486 829.734L94.6488 829.726L94.649 829.717L90.65 829.63ZM78.95 797.83L80.5862 801.48L82.95 800.42L82.95 797.83L78.95 797.83ZM78.95 760.63L82.95 760.63L82.95 756.303L78.6363 756.642L78.95 760.63ZM118.649 837.366L119.099 816.366L111.101 816.194L110.651 837.194L118.649 837.366ZM119.098 816.392C119.32 808.499 120.361 804.441 121.465 802.454C121.965 801.554 122.403 801.217 122.675 801.067C122.962 800.907 123.381 800.78 124.1 800.78L124.1 792.78C122.419 792.78 120.57 793.084 118.789 794.073C116.994 795.071 115.566 796.6 114.472 798.569C112.389 802.319 111.33 808.012 111.102 816.168L119.098 816.392ZM124.1 800.78C124.116 800.78 125.285 800.65 126.612 804.228C127.905 807.711 128.8 813.528 128.8 822.28L136.8 822.28C136.8 813.182 135.895 806.249 134.113 801.445C132.365 796.735 129.184 792.78 124.1 792.78L124.1 800.78ZM128.8 822.28L128.8 825.88L136.8 825.88L136.8 822.28L128.8 822.28ZM128.8 825.88C128.8 837.671 126.141 841.475 124.601 842.707L129.599 848.954C134.059 845.385 136.8 838.389 136.8 825.88L128.8 825.88ZM123.1 845.83L123.1 883.63L131.1 883.63L131.1 845.83L123.1 845.83ZM127.494 887.611C135.28 886.841 143.475 883.531 149.531 874.135C155.41 865.013 159 850.564 159 828.13L151 828.13C151 849.946 147.465 862.572 142.807 869.801C138.325 876.754 132.57 879.07 126.706 879.65L127.494 887.611ZM159 828.13L159 816.58L151 816.58L151 828.13L159 828.13ZM159 816.58C159 793.974 155.466 779.235 149.073 770.078C142.435 760.569 133.168 757.68 123.65 757.68L123.65 765.68C131.382 765.68 137.79 767.891 142.514 774.657C147.483 781.775 151 794.486 151 816.58L159 816.58ZM123.65 757.68L122.3 757.68L122.3 765.68L123.65 765.68L123.65 757.68ZM122.3 757.68C113.235 757.68 104.417 760.718 97.8644 769.12C91.4696 777.321 87.6377 790.127 87.1016 808.815L95.0983 809.045C95.6122 791.133 99.2804 780.314 104.173 774.04C108.908 767.967 115.165 765.68 122.3 765.68L122.3 757.68ZM87.1009 808.843L86.6509 829.543L94.649 829.717L95.099 809.017L87.1009 808.843ZM86.6513 829.526C86.4284 838.073 85.3731 842.342 84.2064 844.403C83.6922 845.312 83.2296 845.656 82.8892 845.829C82.4999 846.027 81.9096 846.18 80.9 846.18L80.9 854.18C82.6653 854.18 84.625 853.921 86.5138 852.961C88.4516 851.976 89.9952 850.417 91.1685 848.344C93.3769 844.443 94.4216 838.437 94.6486 829.734L86.6513 829.526ZM80.9 846.18C79.9131 846.18 79.1897 846.05 78.6137 845.791C78.091 845.556 77.4666 845.118 76.8171 844.111C75.386 841.893 73.95 837.098 73.95 827.08L65.95 827.08C65.95 837.462 67.364 844.217 70.0953 848.449C71.5271 850.668 73.3121 852.179 75.3347 853.088C77.304 853.973 79.2618 854.18 80.9 854.18L80.9 846.18ZM73.95 827.08L73.95 823.93L65.95 823.93L65.95 827.08L73.95 827.08ZM73.95 823.93C73.95 816.821 75.0548 811.289 76.5488 807.431C78.1216 803.369 79.8544 801.808 80.5862 801.48L77.3137 794.18C73.6955 795.802 70.9283 799.791 69.0886 804.542C67.1701 809.496 65.95 816.04 65.95 823.93L73.95 823.93ZM82.95 797.83L82.95 760.63L74.95 760.63L74.95 797.83L82.95 797.83ZM78.6363 756.642C71.1988 757.227 61.9582 759.965 54.7145 769.453C47.6013 778.769 42.85 794.039 42.85 818.68L50.85 818.68C50.85 794.872 55.4736 781.641 61.073 774.307C66.5417 767.145 73.3512 765.083 79.2636 764.618L78.6363 756.642ZM42.85 818.68L42.85 828.73L50.85 828.73L50.85 818.68L42.85 818.68ZM42.85 828.73C42.85 853.909 47.5765 869.302 55.1788 878.412C62.9563 887.732 73.0906 889.73 81.8 889.73L81.8 881.73C74.3093 881.73 66.9686 880.054 61.3211 873.286C55.4985 866.309 50.85 853.201 50.85 828.73L42.85 828.73ZM81.8 889.73L83.6 889.73L83.6 881.73L81.8 881.73L81.8 889.73ZM83.6 889.73C93.2062 889.73 102.136 887.156 108.568 878.588C114.751 870.351 118.117 857.197 118.649 837.387L110.651 837.173C110.133 856.514 106.824 867.584 102.17 873.785C97.7642 879.654 91.6937 881.73 83.6 881.73L83.6 889.73Z" fill="#ECECEE" fill-opacity="0.61"/>
<path d="M-49.7 51.45L-49.7 47.45L-53.7 47.45L-53.7 51.45L-49.7 51.45ZM27.7 51.45L27.7 55.45L31.7 55.45L31.7 51.45L27.7 51.45ZM27.7 17.85L31.7 17.85L31.7 13.85L27.7 13.85L27.7 17.85ZM-77 17.85L-77 13.85L-81 13.85L-81 17.85L-77 17.85ZM-77 114.9L-81 114.9L-81 118.9L-77 118.9L-77 114.9ZM-49.7 114.9L-49.7 118.9L-45.7 118.9L-45.7 114.9L-49.7 114.9ZM-49.7 55.45L27.7 55.45L27.7 47.45L-49.7 47.45L-49.7 55.45ZM31.7 51.45L31.7 17.85L23.7 17.85L23.7 51.45L31.7 51.45ZM27.7 13.85L-77 13.85L-77 21.85L27.7 21.85L27.7 13.85ZM-81 17.85L-81 114.9L-73 114.9L-73 17.85L-81 17.85ZM-77 118.9L-49.7 118.9L-49.7 110.9L-77 110.9L-77 118.9ZM-45.7 114.9L-45.7 51.45L-53.7 51.45L-53.7 114.9L-45.7 114.9ZM27.7 222.432L27.7 226.432L31.7 226.432L31.7 222.432L27.7 222.432ZM27.7 122.082L31.7 122.082L31.7 118.082L27.7 118.082L27.7 122.082ZM-77 122.082L-77 118.082L-81 118.082L-81 122.082L-77 122.082ZM-77 223.332L-81 223.332L-81 227.332L-77 227.332L-77 223.332ZM-52.7 223.332L-52.7 227.332L-48.7 227.332L-48.7 223.332L-52.7 223.332ZM-52.7 155.382L-52.7 151.382L-56.7 151.382L-56.7 155.382L-52.7 155.382ZM-36.5 155.382L-32.5 155.382L-32.5 151.382L-36.5 151.382L-36.5 155.382ZM-36.5 222.882L-40.5 222.882L-40.5 226.882L-36.5 226.882L-36.5 222.882ZM-11.6 222.882L-11.6 226.882L-7.60001 226.882L-7.60001 222.882L-11.6 222.882ZM-11.6 155.382L-11.6 151.382L-15.6 151.382L-15.6 155.382L-11.6 155.382ZM3.7 155.382L7.7 155.382L7.7 151.382L3.7 151.382L3.7 155.382ZM3.7 222.432L-0.300002 222.432L-0.300003 226.432L3.7 226.432L3.7 222.432ZM31.7 222.432L31.7 122.082L23.7 122.082L23.7 222.432L31.7 222.432ZM27.7 118.082L-77 118.082L-77 126.082L27.7 126.082L27.7 118.082ZM-81 122.082L-81 223.332L-73 223.332L-73 122.082L-81 122.082ZM-77 227.332L-52.7 227.332L-52.7 219.332L-77 219.332L-77 227.332ZM-48.7 223.332L-48.7 155.382L-56.7 155.382L-56.7 223.332L-48.7 223.332ZM-52.7 159.382L-36.5 159.382L-36.5 151.382L-52.7 151.382L-52.7 159.382ZM-40.5 155.382L-40.5 222.882L-32.5 222.882L-32.5 155.382L-40.5 155.382ZM-36.5 226.882L-11.6 226.882L-11.6 218.882L-36.5 218.882L-36.5 226.882ZM-7.60001 222.882L-7.6 155.382L-15.6 155.382L-15.6 222.882L-7.60001 222.882ZM-11.6 159.382L3.7 159.382L3.7 151.382L-11.6 151.382L-11.6 159.382ZM-0.299999 155.382L-0.300002 222.432L7.7 222.432L7.7 155.382L-0.299999 155.382ZM3.7 226.432L27.7 226.432L27.7 218.432L3.7 218.432L3.7 226.432ZM-57.35 340.808L-57.35 344.808L-43.275 344.808L-55.2464 337.406L-57.35 340.808ZM-75.5 340.808L-75.5 336.808L-79.5 336.808L-79.5 340.808L-75.5 340.808ZM-75.5 364.808L-79.5 364.808L-79.5 368.808L-75.5 368.808L-75.5 364.808ZM-17.6 364.808L-17.6 368.808L-13.6 368.808L-13.6 364.808L-17.6 364.808ZM-17.6 300.008L-13.6 300.008L-13.6 296.008L-17.6 296.008L-17.6 300.008ZM-36.8 300.008L-36.8 296.008L-40.8 296.008L-40.8 300.008L-36.8 300.008ZM-36.8 329.408L-37.6865 333.309L-32.8 334.419L-32.8 329.408L-36.8 329.408ZM4.89999 299.258L0.899988 299.258L0.899988 299.278L0.900174 299.297L4.89999 299.258ZM-9.95001 330.008L-9.87082 326.009L-13.95 325.928L-13.95 330.008L-9.95001 330.008ZM-9.95001 364.808L-13.95 364.808L-13.95 368.808L-9.95001 368.808L-9.95001 364.808ZM-81 293.708L-81 296.108L-73 296.108L-73 293.708L-81 293.708ZM-81 296.108C-81 313.247 -75.8099 325.208 -70.4653 332.939C-67.8062 336.786 -65.1311 339.554 -63.087 341.383C-62.0645 342.297 -61.1978 342.978 -60.5667 343.443C-60.2511 343.676 -59.9939 343.854 -59.8052 343.981C-59.7109 344.045 -59.6336 344.096 -59.5746 344.134C-59.5451 344.153 -59.5202 344.169 -59.5 344.181C-59.4899 344.188 -59.4809 344.193 -59.4732 344.198C-59.4693 344.201 -59.4658 344.203 -59.4625 344.205C-59.4609 344.206 -59.4587 344.207 -59.4579 344.208C-59.4557 344.209 -59.4536 344.21 -57.35 340.808C-55.2464 337.406 -55.2445 337.407 -55.2426 337.408C-55.2421 337.409 -55.2403 337.41 -55.2393 337.41C-55.2372 337.412 -55.2355 337.413 -55.234 337.414C-55.231 337.416 -55.2292 337.417 -55.2286 337.417C-55.2272 337.418 -55.2305 337.416 -55.2382 337.411C-55.2535 337.401 -55.2866 337.38 -55.3361 337.346C-55.4353 337.279 -55.6003 337.165 -55.822 337.002C-56.2655 336.675 -56.934 336.153 -57.7537 335.42C-59.3939 333.953 -61.6313 331.65 -63.8847 328.39C-68.3651 321.909 -73 311.519 -73 296.108L-81 296.108ZM-57.35 336.808L-75.5 336.808L-75.5 344.808L-57.35 344.808L-57.35 336.808ZM-79.5 340.808L-79.5 364.808L-71.5 364.808L-71.5 340.808L-79.5 340.808ZM-75.5 368.808L-17.6 368.808L-17.6 360.808L-75.5 360.808L-75.5 368.808ZM-13.6 364.808L-13.6 300.008L-21.6 300.008L-21.6 364.808L-13.6 364.808ZM-17.6 296.008L-36.8 296.008L-36.8 304.008L-17.6 304.008L-17.6 296.008ZM-40.8 300.008L-40.8 329.408L-32.8 329.408L-32.8 300.008L-40.8 300.008ZM-35.9135 325.508C-36.7111 325.326 -39.4471 324.359 -42.0159 320.869C-44.576 317.39 -47.2 311.086 -47.2 299.858L-55.2 299.858C-55.2 312.33 -52.2741 320.427 -48.4591 325.61C-44.6529 330.782 -40.1889 332.74 -37.6865 333.309L-35.9135 325.508ZM-47.2 299.858C-47.2 288.24 -43.7276 281.261 -39.3661 277.16C-34.9394 272.997 -29.0757 271.308 -23.45 271.308L-23.45 263.308C-30.5743 263.308 -38.5857 265.444 -44.8464 271.332C-51.1725 277.28 -55.2 286.576 -55.2 299.858L-47.2 299.858ZM-23.45 271.308L-21.65 271.308L-21.65 263.308L-23.45 263.308L-23.45 271.308ZM-21.65 271.308C-15.7997 271.308 -10.3038 272.885 -6.27187 276.811C-2.26972 280.709 0.899988 287.516 0.899988 299.258L8.89999 299.258C8.89999 286.1 5.3197 276.933 -0.690647 271.08C-6.67125 265.256 -14.4503 263.308 -21.65 263.308L-21.65 271.308ZM0.900174 299.297C1.04456 314.24 -2.54006 320.707 -5.26191 323.47C-6.63566 324.864 -7.94286 325.481 -8.81644 325.763C-9.26142 325.907 -9.60629 325.967 -9.80268 325.992C-9.9005 326.005 -9.95974 326.008 -9.9739 326.009C-9.98091 326.009 -9.97641 326.009 -9.95959 326.008C-9.95117 326.008 -9.93964 326.008 -9.92489 326.008C-9.91751 326.008 -9.90932 326.008 -9.90032 326.009C-9.89582 326.009 -9.89111 326.009 -9.88619 326.009C-9.88374 326.009 -9.87989 326.009 -9.87866 326.009C-9.87477 326.009 -9.87082 326.009 -9.95001 330.008C-10.0292 334.007 -10.0251 334.008 -10.021 334.008C-10.0196 334.008 -10.0154 334.008 -10.0124 334.008C-10.0066 334.008 -10.0005 334.008 -9.99418 334.008C-9.98151 334.008 -9.96783 334.008 -9.95318 334.008C-9.92386 334.008 -9.89061 334.008 -9.85353 334.008C-9.77939 334.007 -9.68987 334.004 -9.58598 333.999C-9.37836 333.989 -9.11241 333.969 -8.79656 333.929C-8.1656 333.849 -7.32923 333.69 -6.35858 333.376C-4.40091 332.744 -1.93936 331.496 0.436894 329.084C5.21504 324.234 9.05542 315.326 8.8998 299.22L0.900174 299.297ZM-13.95 330.008L-13.95 364.808L-5.95001 364.808L-5.95001 330.008L-13.95 330.008ZM-9.95001 368.808C-0.84967 368.808 10.4943 365.066 19.5062 354.548C28.5038 344.048 34.85 327.188 34.85 301.508L26.85 301.508C26.85 325.928 20.8212 340.719 13.4313 349.343C6.05572 357.951 -3.00035 360.808 -9.95001 360.808L-9.95001 368.808ZM34.85 301.508L34.85 296.708L26.85 296.708L26.85 301.508L34.85 301.508ZM34.85 296.708C34.85 270.51 27.333 253.26 16.2218 242.581C5.16232 231.951 -8.91306 228.358 -21.05 228.358L-21.05 236.358C-10.3869 236.358 1.48767 239.515 10.6782 248.348C19.8169 257.132 26.85 272.056 26.85 296.708L34.85 296.708ZM-21.05 228.358L-24.35 228.358L-24.35 236.358L-21.05 236.358L-21.05 228.358ZM-24.35 228.358C-36.9358 228.358 -51.1615 232.099 -62.2781 242.378C-73.4711 252.727 -81 269.23 -81 293.708L-73 293.708C-73 270.937 -66.0539 256.764 -56.8469 248.251C-47.5635 239.668 -35.4643 236.358 -24.35 236.358L-24.35 228.358ZM27.7 478.505L27.7 482.505L31.7 482.505L31.7 478.505L27.7 478.505ZM27.7 378.155L31.7 378.155L31.7 374.155L27.7 374.155L27.7 378.155ZM-77 378.155L-77 374.155L-81 374.155L-81 378.155L-77 378.155ZM-77 479.405L-81 479.405L-81 483.405L-77 483.405L-77 479.405ZM-52.7 479.405L-52.7 483.405L-48.7 483.405L-48.7 479.405L-52.7 479.405ZM-52.7 411.455L-52.7 407.455L-56.7 407.455L-56.7 411.455L-52.7 411.455ZM-36.5 411.455L-32.5 411.455L-32.5 407.455L-36.5 407.455L-36.5 411.455ZM-36.5 478.955L-40.5 478.955L-40.5 482.955L-36.5 482.955L-36.5 478.955ZM-11.6 478.955L-11.6 482.955L-7.60002 482.955L-7.60002 478.955L-11.6 478.955ZM-11.6 411.455L-11.6 407.455L-15.6 407.455L-15.6 411.455L-11.6 411.455ZM3.69999 411.455L7.69999 411.455L7.69999 407.455L3.69999 407.455L3.69999 411.455ZM3.69999 478.505L-0.300014 478.505L-0.300014 482.505L3.69999 482.505L3.69999 478.505ZM31.7 478.505L31.7 378.155L23.7 378.155L23.7 478.505L31.7 478.505ZM27.7 374.155L-77 374.155L-77 382.155L27.7 382.155L27.7 374.155ZM-81 378.155L-81 479.405L-73 479.405L-73 378.155L-81 378.155ZM-77 483.405L-52.7 483.405L-52.7 475.405L-77 475.405L-77 483.405ZM-48.7 479.405L-48.7 411.455L-56.7 411.455L-56.7 479.405L-48.7 479.405ZM-52.7 415.455L-36.5 415.455L-36.5 407.455L-52.7 407.455L-52.7 415.455ZM-40.5 411.455L-40.5 478.955L-32.5 478.955L-32.5 411.455L-40.5 411.455ZM-36.5 482.955L-11.6 482.955L-11.6 474.955L-36.5 474.955L-36.5 482.955ZM-7.60002 478.955L-7.60001 411.455L-15.6 411.455L-15.6 478.955L-7.60002 478.955ZM-11.6 415.455L3.69999 415.455L3.69999 407.455L-11.6 407.455L-11.6 415.455ZM-0.300011 411.455L-0.300014 478.505L7.69999 478.505L7.69999 411.455L-0.300011 411.455ZM3.69999 482.505L27.7 482.505L27.7 474.505L3.69999 474.505L3.69999 482.505ZM-13.1 525.93L-10.3509 528.836L-3.05219 521.93L-13.1 521.93L-13.1 525.93ZM-77.15 586.53L-79.8991 583.625L-81.15 584.808L-81.15 586.53L-77.15 586.53ZM-77.15 619.08L-81.15 619.08L-81.15 623.08L-77.15 623.08L-77.15 619.08ZM27.7 619.08L27.7 623.08L31.7 623.08L31.7 619.08L27.7 619.08ZM27.7 586.38L31.7 586.38L31.7 582.38L27.7 582.38L27.7 586.38ZM-35.15 586.38L-37.8828 583.459L-45.2804 590.38L-35.15 590.38L-35.15 586.38ZM27.7 527.58L30.4327 530.501L31.7 529.316L31.7 527.58L27.7 527.58ZM27.7 493.23L31.7 493.23L31.7 489.23L27.7 489.23L27.7 493.23ZM-77 493.23L-77 489.23L-81 489.23L-81 493.23L-77 493.23ZM-77 525.93L-81 525.93L-81 529.93L-77 529.93L-77 525.93ZM-15.8491 523.025L-79.8991 583.625L-74.4009 589.436L-10.3509 528.836L-15.8491 523.025ZM-81.15 586.53L-81.15 619.08L-73.15 619.08L-73.15 586.53L-81.15 586.53ZM-77.15 623.08L27.7 623.08L27.7 615.08L-77.15 615.08L-77.15 623.08ZM31.7 619.08L31.7 586.38L23.7 586.38L23.7 619.08L31.7 619.08ZM27.7 582.38L-35.15 582.38L-35.15 590.38L27.7 590.38L27.7 582.38ZM-32.4173 589.301L30.4327 530.501L24.9672 524.659L-37.8828 583.459L-32.4173 589.301ZM31.7 527.58L31.7 493.23L23.7 493.23L23.7 527.58L31.7 527.58ZM27.7 489.23L-77 489.23L-77 497.23L27.7 497.23L27.7 489.23ZM-81 493.23L-81 525.93L-73 525.93L-73 493.23L-81 493.23ZM-77 529.93L-13.1 529.93L-13.1 521.93L-77 521.93L-77 529.93ZM27.7 634.227L31.7 634.227L31.7 630.227L27.7 630.227L27.7 634.227ZM-77 634.227L-77 630.227L-81 630.227L-81 634.227L-77 634.227ZM-51.8 667.827L-51.8 663.827L-55.8 663.827L-55.8 667.827L-51.8 667.827ZM2.64997 667.827L6.64997 667.827L6.64997 663.827L2.64997 663.827L2.64997 667.827ZM27.7 630.227L-77 630.227L-77 638.227L27.7 638.227L27.7 630.227ZM-81 634.227L-81 685.827L-73 685.827L-73 634.227L-81 634.227ZM-81 685.827C-81 715.433 -73.8106 733.792 -62.8329 744.707C-51.8485 755.629 -37.7966 758.377 -25.7 758.377L-25.7 750.377C-36.7035 750.377 -48.3015 747.875 -57.1921 739.034C-66.0895 730.187 -73 714.271 -73 685.827L-81 685.827ZM-25.7 758.377L-21.35 758.377L-21.35 750.377L-25.7 750.377L-25.7 758.377ZM-21.35 758.377C-9.3732 758.377 4.10782 755.009 14.5417 743.788C24.9319 732.615 31.7 714.294 31.7 685.677L23.7 685.677C23.7 713.16 17.1931 729.189 8.68322 738.341C0.21712 747.445 -10.8269 750.377 -21.35 750.377L-21.35 758.377ZM31.7 685.677L31.7 634.227L23.7 634.227L23.7 685.677L31.7 685.677ZM-51.8 671.827L2.64997 671.827L2.64997 663.827L-51.8 663.827L-51.8 671.827ZM-1.35003 667.827L-1.35003 682.827L6.64997 682.827L6.64997 667.827L-1.35003 667.827ZM-1.35003 682.827C-1.35003 698.793 -5.13191 706.61 -9.25503 710.527C-13.3811 714.447 -18.6905 715.277 -23.75 715.277L-23.75 723.277C-18.0096 723.277 -10.119 722.382 -3.74503 716.327C2.63186 710.269 6.64997 699.861 6.64997 682.827L-1.35003 682.827ZM-23.75 715.277L-24.65 715.277L-24.65 723.277L-23.75 723.277L-23.75 715.277ZM-24.65 715.277C-29.9847 715.277 -35.4841 714.465 -39.7302 710.544C-43.9493 706.649 -47.8 698.857 -47.8 682.827L-55.8 682.827C-55.8 699.947 -51.7007 710.38 -45.1573 716.422C-38.641 722.439 -30.5654 723.277 -24.65 723.277L-24.65 715.277ZM-47.8 682.827L-47.8 667.827L-55.8 667.827L-55.8 682.827L-47.8 682.827ZM-9.35003 837.28L-5.35147 837.387L-5.35118 837.377L-5.35095 837.366L-9.35003 837.28ZM-8.90003 816.28L-12.8985 816.168L-12.8988 816.181L-12.8991 816.194L-8.90003 816.28ZM3.09997 845.83L0.60119 842.707L-0.900031 843.908L-0.900031 845.83L3.09997 845.83ZM3.09997 883.63L-0.900032 883.63L-0.900033 888.045L3.49365 887.611L3.09997 883.63ZM-32.9 808.93L-36.8984 808.815L-36.8988 808.829L-36.8991 808.843L-32.9 808.93ZM-33.35 829.63L-29.3514 829.734L-29.3512 829.726L-29.351 829.717L-33.35 829.63ZM-45.05 797.83L-43.4138 801.48L-41.05 800.42L-41.05 797.83L-45.05 797.83ZM-45.05 760.63L-41.05 760.63L-41.05 756.303L-45.3637 756.642L-45.05 760.63ZM-5.35095 837.366L-4.90095 816.366L-12.8991 816.194L-13.3491 837.194L-5.35095 837.366ZM-4.9016 816.392C-4.68029 808.499 -3.6386 804.441 -2.53465 802.454C-2.03456 801.554 -1.5967 801.217 -1.32543 801.067C-1.03835 800.907 -0.618793 800.78 0.099965 800.78L0.0999654 792.78C-1.58127 792.78 -3.43047 793.084 -5.21057 794.073C-7.00649 795.071 -8.43425 796.6 -9.52791 798.569C-11.6115 802.319 -12.6698 808.012 -12.8985 816.168L-4.9016 816.392ZM0.099965 800.78C0.116142 800.78 1.28487 800.65 2.61229 804.228C3.90471 807.711 4.79997 813.528 4.79997 822.28L12.8 822.28C12.8 813.182 11.8952 806.249 10.1126 801.445C8.36507 796.735 5.18379 792.78 0.0999654 792.78L0.099965 800.78ZM4.79997 822.28L4.79997 825.88L12.8 825.88L12.8 822.28L4.79997 822.28ZM4.79997 825.88C4.79997 837.671 2.14096 841.475 0.60119 842.707L5.59875 848.954C10.059 845.385 12.8 838.389 12.8 825.88L4.79997 825.88ZM-0.900031 845.83L-0.900032 883.63L7.09997 883.63L7.09997 845.83L-0.900031 845.83ZM3.49365 887.611C11.2801 886.841 19.4747 883.531 25.5309 874.135C31.4096 865.013 35 850.564 35 828.13L27 828.13C27 849.946 23.4653 862.572 18.8065 869.801C14.3252 876.754 8.56978 879.07 2.70628 879.65L3.49365 887.611ZM35 828.13L35 816.58L27 816.58L27 828.13L35 828.13ZM35 816.58C35 793.974 31.4665 779.235 25.0735 770.078C18.4347 760.569 9.16781 757.68 -0.350027 757.68L-0.350028 765.68C7.38214 765.68 13.7902 767.891 18.514 774.657C23.4835 781.775 27 794.486 27 816.58L35 816.58ZM-0.350027 757.68L-1.70003 757.68L-1.70003 765.68L-0.350028 765.68L-0.350027 757.68ZM-1.70003 757.68C-10.7652 757.68 -19.5833 760.718 -26.1356 769.12C-32.5304 777.321 -36.3623 790.127 -36.8984 808.815L-28.9017 809.045C-28.3878 791.133 -24.7196 780.314 -19.827 774.04C-15.0917 767.967 -8.8349 765.68 -1.70003 765.68L-1.70003 757.68ZM-36.8991 808.843L-37.3491 829.543L-29.351 829.717L-28.901 809.017L-36.8991 808.843ZM-37.3487 829.526C-37.5716 838.073 -38.6269 842.342 -39.7936 844.403C-40.3078 845.312 -40.7704 845.656 -41.1108 845.829C-41.5001 846.027 -42.0904 846.18 -43.1 846.18L-43.1 854.18C-41.3347 854.18 -39.375 853.921 -37.4862 852.961C-35.5484 851.976 -34.0048 850.417 -32.8315 848.344C-30.6231 844.443 -29.5784 838.437 -29.3514 829.734L-37.3487 829.526ZM-43.1 846.18C-44.0869 846.18 -44.8103 846.05 -45.3863 845.791C-45.909 845.556 -46.5334 845.118 -47.1829 844.111C-48.614 841.893 -50.05 837.098 -50.05 827.08L-58.05 827.08C-58.05 837.462 -56.636 844.217 -53.9047 848.449C-52.4729 850.668 -50.6879 852.179 -48.6653 853.088C-46.696 853.973 -44.7382 854.18 -43.1 854.18L-43.1 846.18ZM-50.05 827.08L-50.05 823.93L-58.05 823.93L-58.05 827.08L-50.05 827.08ZM-50.05 823.93C-50.05 816.821 -48.9452 811.289 -47.4512 807.431C-45.8784 803.369 -44.1456 801.808 -43.4138 801.48L-46.6863 794.18C-50.3045 795.802 -53.0717 799.791 -54.9114 804.542C-56.8299 809.496 -58.05 816.04 -58.05 823.93L-50.05 823.93ZM-41.05 797.83L-41.05 760.63L-49.05 760.63L-49.05 797.83L-41.05 797.83ZM-45.3637 756.642C-52.8012 757.227 -62.0418 759.965 -69.2855 769.453C-76.3987 778.769 -81.15 794.039 -81.15 818.68L-73.15 818.68C-73.15 794.872 -68.5264 781.641 -62.927 774.307C-57.4583 767.145 -50.6488 765.083 -44.7364 764.618L-45.3637 756.642ZM-81.15 818.68L-81.15 828.73L-73.15 828.73L-73.15 818.68L-81.15 818.68ZM-81.15 828.73C-81.15 853.909 -76.4235 869.302 -68.8212 878.412C-61.0437 887.732 -50.9094 889.73 -42.2 889.73L-42.2 881.73C-49.6907 881.73 -57.0314 880.054 -62.6789 873.286C-68.5015 866.309 -73.15 853.201 -73.15 828.73L-81.15 828.73ZM-42.2 889.73L-40.4 889.73L-40.4 881.73L-42.2 881.73L-42.2 889.73ZM-40.4 889.73C-30.7938 889.73 -21.8642 887.156 -15.4323 878.588C-9.24935 870.351 -5.88275 857.197 -5.35147 837.387L-13.3486 837.173C-13.8673 856.514 -17.1757 867.584 -21.8303 873.785C-26.2358 879.654 -32.3063 881.73 -40.4 881.73L-40.4 889.73Z" fill="#ECECEE" fill-opacity="0.61"/>
<path d="M339.48 180.4C339.68 180.4 339.48 180.25 339.48 180.4V180.4Z" fill="black" fill-opacity="0.27"/>
<path d="M320.62 190.64C320.81 190.18 321.28 190.24 321.62 190.02C321.29 189.86 321.49 189.42 321.2 189.24C320.88 189.57 320.4 189.62 320.08 189.95C320.35 190.12 320.4 190.4 320.62 190.64Z" fill="black" fill-opacity="0.27"/>
<path d="M339.48 180.4C339.29 180.4 339.48 180.55 339.48 180.4V180.4Z" fill="black" fill-opacity="0.27"/>
<path d="M278.94 182.26C279.742 181.311 280.69 180.497 281.75 179.85C282.44 179.64 283.13 179.43 283.75 179.16C282.445 177.862 281.58 176.186 281.28 174.37C281.12 174.37 281.03 174.56 280.93 174.66C280.223 175.342 279.396 175.888 278.49 176.27C277.618 176.548 276.725 176.759 275.82 176.9C276.685 177.527 277.409 178.328 277.946 179.251C278.483 180.174 278.822 181.199 278.94 182.26Z" fill="black" fill-opacity="0.27"/>
<path d="M343.11 168.21C343.11 168.02 342.96 168.21 343.11 168.21V168.21Z" fill="black" fill-opacity="0.27"/>
<path d="M353.58 184.26C353.3 183.88 353.28 183.35 352.91 183.02C352.479 183.379 352.029 183.713 351.56 184.02C351.759 184.316 351.976 184.6 352.21 184.87C352.65 184.64 353.11 184.49 353.58 184.26Z" fill="black" fill-opacity="0.27"/>
<path d="M325.44 177.23C325.06 176.8 324.97 176.95 324.44 177.06C324.34 177.41 324.58 177.58 324.74 177.8C324.92 177.5 325.23 177.45 325.44 177.23Z" fill="black" fill-opacity="0.27"/>
<path d="M286.62 151.98C286.8 152.58 287.12 153.12 287.27 153.74C287.41 154.19 287.27 154.74 287.63 155.15C288.439 154.087 289.541 153.284 290.8 152.84C291.946 152.483 293.141 152.314 294.34 152.34C293.219 151.781 292.272 150.927 291.601 149.87C290.929 148.813 290.559 147.592 290.53 146.34C289.959 147.349 289.122 148.183 288.11 148.75C287.668 149.105 287.147 149.348 286.59 149.46C286.17 149.87 285.42 149.65 284.98 150.02C285.607 150.602 286.158 151.261 286.62 151.98V151.98Z" fill="black" fill-opacity="0.27"/>
<path d="M282.45 165.85C282.53 166.26 282.675 166.655 282.88 167.02C283.03 167.4 282.88 167.93 283.31 168.19C284.585 166.687 286.361 165.696 288.31 165.4C286.971 164.127 286.101 162.439 285.84 160.61C284.523 162.268 282.61 163.345 280.51 163.61C281.276 164.244 281.931 165.001 282.45 165.85V165.85Z" fill="black" fill-opacity="0.27"/>
<path d="M356.91 172.75C357.06 172.65 357.37 172.84 357.38 172.5C357.07 172.1 356.94 171.6 356.44 171.3C356.12 171.7 355.51 171.57 355.19 171.97C355.56 172.41 355.57 173.03 355.91 173.49C356.21 173.18 356.66 173.15 356.91 172.75Z" fill="black" fill-opacity="0.27"/>
<path d="M314.39 159.81C314.95 159.87 315.24 159.41 315.63 159.15C315.268 158.435 314.97 157.688 314.74 156.92C314.108 157.279 313.437 157.564 312.74 157.77C313.396 158.357 313.954 159.046 314.39 159.81V159.81Z" fill="black" fill-opacity="0.27"/>
<path d="M300.71 158.04C301.352 157.407 302.048 156.831 302.79 156.32C303.26 156.32 303.54 155.98 303.96 155.89C304.38 155.8 304.96 155.71 305.41 155.42C303.86 154.01 303.41 152 303.31 149.83C301.85 152.34 299.5 153.19 296.69 153.18C297.658 153.671 298.514 154.356 299.206 155.192C299.897 156.028 300.409 156.998 300.71 158.04V158.04Z" fill="black" fill-opacity="0.27"/>
<path d="M309.86 173.97C310.02 174.22 309.95 174.59 310.28 174.75C310.77 174.11 311.53 173.96 312.02 173.31C311.31 172.89 311.56 171.96 310.86 171.53C310.242 171.881 309.564 172.115 308.86 172.22C308.86 172.65 309.22 172.9 309.49 173.22C309.55 173.497 309.678 173.754 309.86 173.97V173.97Z" fill="black" fill-opacity="0.27"/>
<path d="M305.66 188.4C306.539 187.568 307.554 186.892 308.66 186.4C308.143 185.697 307.8 184.881 307.66 184.02C307.51 184.02 307.54 183.82 307.34 183.79C306.833 184.243 306.237 184.584 305.59 184.79C304.94 185.07 304.14 185.09 303.47 185.33C304.401 186.194 305.146 187.238 305.66 188.4Z" fill="black" fill-opacity="0.27"/>
<path d="M343.11 168.21C343.11 168.41 343.26 168.21 343.11 168.21V168.21Z" fill="black" fill-opacity="0.27"/>
<path d="M298.44 165.58C298.44 165.5 298.44 165.43 298.35 165.42C298.35 165.57 298.15 165.54 298.13 165.74C297.436 166.188 296.707 166.58 295.95 166.91C295.5 167.13 294.95 167.1 294.5 167.39C295.228 167.94 295.817 168.652 296.22 169.47C296.83 170.18 296.83 171.22 297.28 172.01C297.53 171.42 298.1 171.42 298.4 170.91C298.794 170.781 299.163 170.585 299.49 170.33C299.89 170.14 300.41 170.17 300.69 169.78C299.542 168.632 298.759 167.171 298.44 165.58V165.58Z" fill="black" fill-opacity="0.27"/>
<path d="M411.71 189.11C412.35 189.11 412.71 188.58 413.4 188.71C413.4 188.25 413 187.99 412.66 187.71C412.446 187.16 412.164 186.639 411.82 186.16C411.46 186.72 410.82 186.79 410.43 187.3C410.07 187.37 409.83 187.67 409.43 187.65C409.52 188.51 410.17 189.06 410.17 189.96C410.8 189.91 411.17 189.4 411.71 189.11Z" fill="black" fill-opacity="0.27"/>
<path d="M295.11 178.91C295.05 179.06 294.9 179.03 294.88 179.23C294.11 179.72 293.4 180.33 292.59 180.76C291.937 180.869 291.303 181.075 290.71 181.37C292.073 182.704 292.926 184.473 293.12 186.37C293.32 185.89 293.74 185.8 293.95 185.32C294.865 184.722 295.844 184.229 296.87 183.85C297.24 183.72 297.73 183.85 298.01 183.54C296.521 182.393 295.493 180.75 295.11 178.91V178.91Z" fill="black" fill-opacity="0.27"/>
<path d="M424.11 194C424.81 193.76 425.39 193.28 426.11 193C426.52 193 426.76 192.7 427.22 192.81C427.49 192.51 428.1 192.81 428.35 192.5C426.848 191.295 425.876 189.551 425.64 187.64C425.59 187.79 425.44 187.76 425.42 187.96C424.476 189.014 423.33 189.867 422.05 190.47C421.836 190.457 421.621 190.488 421.42 190.562C421.218 190.636 421.035 190.751 420.88 190.9C422.033 191.894 422.778 193.28 422.97 194.79C423.42 194.79 423.68 194.3 424.11 194Z" fill="black" fill-opacity="0.27"/>
<path d="M365.02 187.84C365.32 187.31 364.42 187.84 365.02 187.84V187.84Z" fill="black" fill-opacity="0.27"/>
<path d="M440.93 184.74C441.476 184.498 441.974 184.16 442.4 183.74C441.82 183.25 441.72 182.5 441.09 182.04C440.22 182.418 439.333 182.752 438.43 183.04C439.072 183.978 439.508 185.041 439.71 186.16C440 185.5 440.58 185.33 440.93 184.74Z" fill="black" fill-opacity="0.27"/>
<path d="M401.63 170.17C401.47 170.09 401.49 169.91 401.35 169.82C401.24 170.31 400.73 170.04 400.62 170.52C400.87 170.86 401.34 170.34 401.63 170.17Z" fill="black" fill-opacity="0.27"/>
<path d="M365.19 188.15C365.19 188.05 365.19 188.02 365.1 187.99C365.01 187.96 365.11 188.12 365.19 188.15Z" fill="black" fill-opacity="0.27"/>
<path d="M365.11 187.99C365.17 187.9 365.11 187.87 365.03 187.84C364.95 187.81 365.03 187.96 365.11 187.99Z" fill="black" fill-opacity="0.27"/>
<path d="M369.32 175.7C369.5 175.45 370.32 175.34 369.82 174.94C369.35 175.43 368.56 175.33 368.1 175.86C368.202 176.044 368.33 176.212 368.48 176.36C368.63 175.9 369.11 176.03 369.32 175.7Z" fill="black" fill-opacity="0.27"/>
<path d="M397.63 184.4C397.85 183.98 397.25 184 397.33 183.66C397.07 183.52 397.17 183.03 396.8 183.24C396.857 183.719 397.033 184.176 397.31 184.57C397.344 184.517 397.392 184.473 397.448 184.443C397.504 184.413 397.566 184.399 397.63 184.4V184.4Z" fill="black" fill-opacity="0.27"/>
<path d="M387.46 166.56C387.57 166.26 387.39 166.13 387.25 165.97C387.203 165.976 387.157 165.993 387.118 166.019C387.078 166.045 387.044 166.08 387.019 166.121C386.995 166.161 386.979 166.207 386.974 166.254C386.969 166.302 386.975 166.35 386.991 166.394C387.007 166.439 387.033 166.48 387.067 166.514C387.1 166.547 387.141 166.573 387.186 166.589C387.231 166.605 387.279 166.61 387.326 166.605C387.374 166.6 387.419 166.585 387.46 166.56Z" fill="black" fill-opacity="0.27"/>
<path d="M373.68 162.54C373.76 162.38 373.94 162.39 374.03 162.25C373.86 162.17 373.88 162 373.74 161.9C373.66 162.07 373.48 162.05 373.39 162.19C373.56 162.27 373.54 162.45 373.68 162.54Z" fill="black" fill-opacity="0.27"/>
<path d="M383.18 179.48L383.42 179.55C383.42 179.48 383.48 179.42 383.58 179.47C383.68 179.52 383.58 179.31 383.65 179.23C383.72 179.15 383.51 179.17 383.57 179.08L383.33 179C383.33 179.07 383.26 179.14 383.17 179.09L383.1 179.32C383.17 179.4 383.24 179.4 383.18 179.48Z" fill="black" fill-opacity="0.27"/>
<path d="M365.19 188.15C365.19 188.34 365.34 188.15 365.19 188.15V188.15Z" fill="black" fill-opacity="0.27"/>
<path d="M234.39 194.67C233.91 194.9 233.39 195.15 232.96 195.4H241.88C242.096 195.342 242.317 195.309 242.54 195.3C243.17 194.98 243.87 194.77 244.54 194.45C245.02 193.87 245.68 193.6 246.15 192.98C246.658 192.336 247.087 191.635 247.43 190.89C247.7 190.95 247.36 191.33 247.37 191.53C247.241 192.864 247.498 194.207 248.11 195.4H260.01C260.377 194.537 260.642 193.634 260.8 192.71C260.83 191.441 260.529 190.185 259.928 189.067C259.327 187.948 258.445 187.005 257.37 186.33C256.7 186.23 256.5 185.87 255.85 185.75C252.04 184.98 249.43 186.48 247.75 189.7C248.038 188.001 247.793 186.255 247.05 184.7C246.512 183.773 245.792 182.966 244.932 182.326C244.073 181.687 243.092 181.229 242.05 180.98C240.383 180.644 238.652 180.883 237.138 181.658C235.625 182.434 234.42 183.7 233.72 185.25C233.945 183.75 233.67 182.218 232.939 180.89C232.207 179.562 231.058 178.511 229.67 177.9C225.33 176.53 222.58 178.14 220.77 181.48C219.4 185.83 221.01 188.57 224.35 190.38L225.9 190.85C227.008 190.998 228.134 190.888 229.192 190.529C230.25 190.17 231.211 189.571 232 188.78C232.159 188.457 232.379 188.168 232.65 187.93C232.88 187.61 232.94 186.93 233.33 186.93C232.82 188.98 233.5 190.38 234.07 191.85C234.483 192.32 234.854 192.826 235.18 193.36C235.64 193.74 236.28 194.03 236.52 194.54C235.64 194.27 235.18 194.76 234.39 194.67Z" fill="black" fill-opacity="0.27"/>
<path d="M274.48 195.4C274.344 194.272 273.929 193.196 273.273 192.268C272.616 191.341 271.739 190.593 270.72 190.09C273.46 190.17 275.72 189.38 277.31 187.25C277.42 187.25 277.41 187.33 277.39 187.41C277.492 188.582 277.855 189.716 278.452 190.73C279.049 191.744 279.865 192.612 280.84 193.27C279.109 193.458 277.487 194.206 276.22 195.4H286.11C285.87 195.163 285.609 194.949 285.33 194.76C286.5 194.713 287.645 194.407 288.682 193.864C289.72 193.321 290.624 192.554 291.33 191.62C291.44 191.62 291.43 191.7 291.42 191.77C291.474 192.349 291.608 192.918 291.82 193.46C291.977 193.906 292.203 194.324 292.49 194.7C292.49 195.02 292.74 195.18 292.91 195.4H434.59C434.189 194.95 433.747 194.538 433.27 194.17C435.085 193.946 436.752 193.051 437.94 191.66C438.088 192.981 438.514 194.256 439.19 195.4H467.19C467.214 193.683 466.684 192.003 465.68 190.61C465.421 190.392 465.187 190.147 464.98 189.88C464.83 189.59 464.29 189.52 464.29 189.15C464.453 189.165 464.617 189.165 464.78 189.15L458.5 187.07C458.731 187.295 458.99 187.489 459.27 187.65C458.67 187.97 457.82 187.81 457.27 188.22C456.56 188.27 456.12 188.82 455.47 188.98C455.139 189.34 454.781 189.674 454.4 189.98C454.259 189.615 454.155 189.236 454.09 188.85C453.97 188.21 453.49 187.77 453.44 187.09C454.2 186.867 454.921 186.53 455.58 186.09L427.85 176.92C427.992 177.241 428.099 177.576 428.17 177.92C428.744 178.839 429.415 179.693 430.17 180.47C429.042 180.985 428.049 181.755 427.27 182.72C426.98 182.41 427.17 181.85 427 181.47C426.925 181.083 426.821 180.702 426.69 180.33C426.46 179.62 425.95 179.06 425.69 178.33C425.25 178.16 425.32 177.72 424.88 177.56C425.61 177.26 426.41 177.07 427.11 176.7L415.89 172.99C416.09 173.34 416.15 173.77 416.56 173.99C416.752 174.472 417.078 174.888 417.5 175.19C416.583 175.437 415.714 175.835 414.93 176.37C414.65 175.527 414.281 174.716 413.83 173.95C414.37 173.57 414.95 173.25 415.46 172.83L307.84 137.28C307.85 137.309 307.85 137.341 307.84 137.37C308.025 138.864 308.582 140.287 309.46 141.51C309.82 141.65 309.92 141.93 310.19 142.12C310.31 142.36 310.79 142.4 310.65 142.78C309.37 142.775 308.114 143.122 307.017 143.781C305.921 144.44 305.026 145.388 304.43 146.52C304.437 145.34 304.156 144.177 303.61 143.131C303.065 142.085 302.271 141.189 301.3 140.52C302.553 140.52 303.788 140.227 304.907 139.662C306.026 139.098 306.996 138.278 307.74 137.27L267.95 124.12C267.85 127.43 269.32 129.89 273.25 131.03C274.939 131.244 276.652 130.892 278.12 130.03C278.578 129.541 279.062 129.077 279.57 128.64C279.57 129.45 279.78 130.14 279.8 130.93C280.13 131.56 280.33 132.25 280.65 132.88C280.97 133.51 281.58 134.05 281.93 134.7C279.999 135.212 278.329 136.429 277.25 138.11C276.96 135.03 275.66 132.48 271.72 131.36C267.82 130.95 264.91 132.36 263.58 136.74C263.16 140.63 264.58 143.54 268.95 144.87C269.291 144.855 269.632 144.913 269.95 145.04C270.884 145.011 271.809 144.853 272.7 144.57C273.542 144.206 274.338 143.743 275.07 143.19C275.182 142.926 275.384 142.71 275.64 142.58C275.79 142.3 275.85 141.86 276.21 141.98C276.114 143.559 276.505 145.13 277.33 146.48C277.595 146.725 277.818 147.012 277.99 147.33C278.17 147.64 278.73 147.74 278.65 148.18C276.04 148.36 274.2 149.98 272.72 152.27C272.849 150.949 272.567 149.62 271.911 148.465C271.256 147.311 270.26 146.387 269.06 145.82L267.06 145.21C263.55 145.14 260.78 146.46 259.72 150.95C259.65 154.46 260.98 157.23 265.47 158.29C266.775 158.406 268.086 158.154 269.255 157.561C270.423 156.969 271.402 156.061 272.08 154.94C271.913 156.235 272.075 157.55 272.553 158.765C273.03 159.98 273.806 161.055 274.81 161.89C273.536 162.025 272.318 162.482 271.268 163.216C270.219 163.951 269.373 164.939 268.81 166.09C268.964 164.767 268.734 163.428 268.147 162.233C267.56 161.038 266.641 160.037 265.5 159.35C264.317 158.761 262.998 158.502 261.68 158.6C260.302 158.683 258.984 159.192 257.909 160.058C256.834 160.923 256.055 162.102 255.68 163.43C255.52 163.92 255.68 164.25 255.41 164.79C255.376 166.058 255.673 167.312 256.273 168.43C256.873 169.547 257.754 170.488 258.83 171.16C259.747 171.567 260.711 171.859 261.7 172.03C263.028 172.032 264.336 171.709 265.51 171.09C266.633 170.364 267.588 169.406 268.31 168.28C267.74 171.55 269.26 173.71 271.31 175.58C268.02 175.87 265.42 177.43 264.31 181.82C264.136 183.341 264.425 184.878 265.138 186.232C265.852 187.586 266.957 188.694 268.31 189.41C266.897 189.26 265.471 189.506 264.19 190.12C262.787 190.972 261.678 192.231 261.01 193.73C260.809 194.283 260.668 194.857 260.59 195.44L274.48 195.4ZM441.11 182.05C441.74 182.51 441.84 183.26 442.42 183.75C441.994 184.169 441.496 184.508 440.95 184.75C440.6 185.34 440.02 185.51 439.73 186.21C439.528 185.091 439.092 184.028 438.45 183.09C439.354 182.788 440.241 182.441 441.11 182.05V182.05ZM422 190.51C423.28 189.907 424.426 189.054 425.37 188C425.37 187.8 425.54 187.83 425.59 187.68C425.825 189.591 426.798 191.335 428.3 192.54C428.05 192.87 427.44 192.54 427.17 192.85C426.71 192.74 426.47 193.05 426.06 193.04C425.36 193.28 424.78 193.76 424.06 194.04C423.68 194.34 423.42 194.83 422.9 194.87C422.708 193.36 421.963 191.974 420.81 190.98C420.961 190.824 421.143 190.702 421.345 190.621C421.546 190.54 421.763 190.502 421.98 190.51H422ZM296.86 183.87C295.834 184.249 294.855 184.742 293.94 185.34C293.73 185.82 293.31 185.91 293.11 186.39C292.915 184.493 292.063 182.724 290.7 181.39C291.293 181.095 291.926 180.889 292.58 180.78C293.39 180.35 294.1 179.78 294.87 179.25C294.87 179.05 295.04 179.08 295.1 178.93C295.478 180.777 296.507 182.427 298 183.58C297.7 183.86 297.21 183.74 296.84 183.87H296.86ZM299.51 170.33C299.183 170.585 298.814 170.781 298.42 170.91C298.12 171.42 297.55 171.42 297.3 172.01C296.85 171.22 296.85 170.18 296.24 169.47C295.837 168.652 295.247 167.94 294.52 167.39C294.93 167.1 295.52 167.13 295.97 166.91C296.727 166.58 297.456 166.188 298.15 165.74C298.15 165.54 298.32 165.57 298.37 165.42C298.48 165.42 298.47 165.5 298.46 165.58C298.779 167.171 299.562 168.632 300.71 169.78C300.41 170.17 299.89 170.14 299.49 170.33H299.51ZM410.45 187.33C410.84 186.82 411.45 186.75 411.84 186.19C412.184 186.669 412.466 187.19 412.68 187.74C413.02 188.03 413.39 188.29 413.42 188.74C412.72 188.61 412.42 189.15 411.73 189.14C411.19 189.39 410.82 189.94 410.17 189.98C410.17 189.08 409.52 188.53 409.43 187.67C409.83 187.66 410.11 187.4 410.43 187.29L410.45 187.33ZM401.37 169.86C401.51 169.95 401.49 170.13 401.65 170.21C401.36 170.38 400.89 170.9 400.65 170.56C400.73 170.04 401.24 170.31 401.35 169.82L401.37 169.86ZM397.37 183.65C397.29 183.99 397.89 183.97 397.67 184.39C397.606 184.389 397.544 184.403 397.488 184.433C397.432 184.463 397.384 184.507 397.35 184.56C397.073 184.166 396.897 183.709 396.84 183.23C397.17 182.98 397.11 183.47 397.33 183.61L397.37 183.65ZM387.29 166.01C387.43 166.17 387.61 166.3 387.5 166.6C387.416 166.633 387.323 166.632 387.241 166.596C387.158 166.56 387.093 166.494 387.06 166.41C387.027 166.326 387.028 166.233 387.064 166.151C387.099 166.068 387.166 166.003 387.25 165.97L387.29 166.01ZM383.21 179.13C383.3 179.18 383.34 179.13 383.37 179.04L383.61 179.12C383.55 179.21 383.61 179.24 383.69 179.27C383.77 179.3 383.69 179.43 383.62 179.51C383.55 179.59 383.49 179.51 383.46 179.59L383.22 179.52C383.28 179.43 383.22 179.4 383.14 179.36L383.21 179.13ZM373.78 161.94C373.92 162.04 373.9 162.21 374.07 162.29C373.98 162.43 373.8 162.42 373.72 162.58C373.58 162.49 373.6 162.31 373.43 162.23C373.48 162.05 373.66 162.07 373.74 161.9L373.78 161.94ZM369.86 174.94C370.36 175.34 369.54 175.45 369.36 175.7C369.18 175.95 368.67 175.9 368.52 176.36C368.37 176.212 368.242 176.044 368.14 175.86C368.56 175.33 369.35 175.4 369.82 174.94H369.86ZM365.06 187.84C365.13 187.84 365.2 187.9 365.14 187.99C365.08 188.08 365.28 188.05 365.23 188.15C365.38 188.15 365.23 188.34 365.23 188.15C365.16 188.15 365.09 188.09 365.14 187.99C365.19 187.89 365.01 187.93 365.06 187.84C364.42 187.8 365.32 187.31 365.02 187.84H365.06ZM356.48 171.3C356.98 171.6 357.11 172.1 357.42 172.5C357.42 172.84 357.1 172.65 356.95 172.75C356.7 173.15 356.25 173.18 355.95 173.49C355.61 173.03 355.6 172.41 355.23 171.97C355.51 171.57 356.11 171.7 356.44 171.3H356.48ZM352.95 183.02C353.32 183.35 353.34 183.88 353.62 184.26C353.17 184.49 352.69 184.64 352.25 184.89C352.016 184.62 351.799 184.336 351.6 184.04C352.056 183.725 352.493 183.385 352.91 183.02H352.95ZM343.11 168.21C343.26 168.21 343.11 168.41 343.11 168.21C343 168.18 343.11 168.02 343.11 168.21ZM339.48 180.4C339.48 180.25 339.68 180.4 339.48 180.4C339.45 180.56 339.29 180.4 339.48 180.4ZM324.48 177.05C325 176.94 325.09 176.79 325.48 177.22C325.27 177.44 324.96 177.49 324.79 177.79C324.59 177.58 324.35 177.4 324.45 177.06L324.48 177.05ZM321.2 189.23C321.49 189.41 321.29 189.85 321.62 190.01C321.31 190.23 320.84 190.17 320.62 190.63C320.4 190.41 320.35 190.11 320.05 189.94C320.37 189.62 320.85 189.57 321.17 189.24L321.2 189.23ZM316.32 143.95C316.53 143.72 316.97 143.95 317.18 143.69C317.732 143.56 318.25 143.315 318.7 142.97C319.18 143.75 319.25 144.75 319.76 145.51C319.3 146.2 318.51 146.28 318.03 146.94C317.594 146.489 317.221 145.981 316.92 145.43C316.4 145.04 316.15 144.51 315.46 144.21C315.57 143.86 315.96 143.98 316.29 143.96L316.32 143.95ZM314.77 156.95C315 157.718 315.297 158.465 315.66 159.18C315.27 159.44 314.98 159.9 314.42 159.84C313.992 159.093 313.448 158.418 312.81 157.84C313.486 157.607 314.133 157.298 314.74 156.92L314.77 156.95ZM310.89 171.56C311.59 171.99 311.34 172.92 312.05 173.34C311.56 173.99 310.8 174.14 310.31 174.78C309.98 174.62 310.05 174.25 309.89 174C309.688 173.78 309.547 173.511 309.48 173.22C309.21 172.93 308.86 172.68 308.85 172.22C309.557 172.116 310.238 171.882 310.86 171.53L310.89 171.56ZM307.34 183.79C307.54 183.79 307.51 183.97 307.66 184.02C307.8 184.881 308.143 185.697 308.66 186.4C307.554 186.892 306.539 187.568 305.66 188.4C305.129 187.261 304.374 186.24 303.44 185.4C304.11 185.16 304.91 185.14 305.56 184.86C306.216 184.624 306.813 184.249 307.31 183.76L307.34 183.79ZM303.34 149.86C303.46 152.03 303.89 154.04 305.44 155.45C305.03 155.74 304.44 155.71 303.99 155.92C303.54 156.13 303.29 156.37 302.82 156.35C302.077 156.861 301.381 157.437 300.74 158.07C300.441 157.029 299.932 156.061 299.244 155.225C298.556 154.389 297.704 153.703 296.74 153.21C299.5 153.19 301.85 152.34 303.31 149.83L303.34 149.86ZM290.9 136.6C291.01 136.6 291.18 136.6 291.3 136.6C292.301 136.083 293.235 135.445 294.08 134.7C294.76 136.47 295.55 138.18 297.54 139.26C297.18 139.56 296.69 139.37 296.16 139.49C295.63 139.61 294.92 139.95 294.28 140.1C293.46 140.8 292.48 141.23 291.9 142.38C291.878 140.43 291.17 138.55 289.9 137.07C290.211 136.881 290.535 136.714 290.87 136.57L290.9 136.6ZM286.62 149.52C287.176 149.408 287.697 149.165 288.14 148.81C289.152 148.243 289.988 147.409 290.56 146.4C290.589 147.652 290.959 148.873 291.63 149.93C292.301 150.987 293.249 151.841 294.37 152.4C293.171 152.374 291.975 152.543 290.83 152.9C289.57 153.344 288.468 154.147 287.66 155.21C287.34 154.84 287.44 154.21 287.3 153.8C287.15 153.18 286.83 152.64 286.65 152.04C286.185 151.331 285.634 150.683 285.01 150.11C285.42 149.68 286.17 149.9 286.59 149.49L286.62 149.52ZM285.88 160.64C286.141 162.469 287.011 164.157 288.35 165.43C286.401 165.726 284.625 166.717 283.35 168.22C282.96 167.96 283.07 167.43 282.92 167.05C282.715 166.685 282.57 166.29 282.49 165.88C281.978 165.018 281.326 164.247 280.56 163.6C282.644 163.328 284.541 162.255 285.85 160.61L285.88 160.64ZM278.56 176.3C279.465 175.918 280.292 175.372 281 174.69C281.1 174.59 281.19 174.41 281.35 174.4C281.65 176.216 282.514 177.892 283.82 179.19C283.16 179.46 282.47 179.67 281.82 179.88C280.76 180.527 279.811 181.341 279.01 182.29C278.896 181.232 278.564 180.209 278.034 179.286C277.504 178.363 276.787 177.561 275.93 176.93C276.812 176.776 277.681 176.555 278.53 176.27L278.56 176.3Z" fill="black" fill-opacity="0.27"/>
<path d="M477.64 195.4C477.461 195.153 477.263 194.919 477.05 194.7C476.105 194.061 475.046 193.61 473.93 193.37C473.86 193.37 473.79 193.37 473.78 193.45L473.54 193.38C472.63 193.348 471.724 193.51 470.88 193.855C470.037 194.199 469.277 194.719 468.65 195.38L477.64 195.4Z" fill="black" fill-opacity="0.27"/>
<path d="M233.27 140.4L232.55 142.79C232.595 143.356 232.595 143.924 232.55 144.49C232.919 145.987 233.666 147.365 234.72 148.49C235.22 148.64 235.56 149.17 236.13 149.44C237.427 149.965 238.821 150.207 240.22 150.15C241.734 149.786 243.128 149.039 244.27 147.98C244.542 147.484 244.857 147.012 245.21 146.57C245.73 145.271 245.972 143.878 245.92 142.48C245.559 140.965 244.811 139.57 243.75 138.43C242.65 137.636 241.397 137.081 240.07 136.8C239.99 136.8 239.92 136.8 239.91 136.89L239.67 136.81C238.371 136.73 237.076 137.026 235.941 137.663C234.806 138.299 233.879 139.25 233.27 140.4V140.4Z" fill="black" fill-opacity="0.27"/>
<path d="M253.75 141.17C253.68 141.17 253.61 141.17 253.6 141.26L253.36 141.18C252.517 141.126 251.671 141.177 250.84 141.33C249.942 141.648 249.115 142.14 248.408 142.778C247.701 143.417 247.127 144.189 246.72 145.05C246.175 146.336 246.051 147.761 246.368 149.122C246.684 150.482 247.424 151.707 248.48 152.62C249.426 153.35 250.522 153.859 251.69 154.11C253.103 154.272 254.533 154.026 255.81 153.4C257.084 152.669 258.101 151.562 258.72 150.23C258.88 149.71 259.03 149.23 259.19 148.68C259.388 147.279 259.144 145.852 258.491 144.597C257.839 143.342 256.81 142.322 255.55 141.68L253.75 141.17Z" fill="black" fill-opacity="0.27"/>
<path d="M241.02 159.64C241.18 159.12 241.34 158.64 241.49 158.08C241.682 156.717 241.442 155.327 240.806 154.107C240.169 152.886 239.168 151.894 237.94 151.27L236.14 150.73C236.07 150.73 236 150.73 235.99 150.82L235.75 150.74C234.85 150.678 233.945 150.759 233.07 150.98C231.391 151.629 230.027 152.901 229.26 154.53C228.844 155.602 228.677 156.754 228.77 157.9C228.874 158.675 229.136 159.421 229.54 160.09C229.879 160.771 230.368 161.366 230.97 161.83C231.228 162.1 231.502 162.354 231.79 162.59C232.533 162.941 233.311 163.212 234.11 163.4C235.515 163.62 236.953 163.37 238.202 162.691C239.452 162.011 240.442 160.939 241.02 159.64V159.64Z" fill="black" fill-opacity="0.27"/>
<path d="M254.61 163.46C255.71 160.07 254.48 157.92 252.61 156.09C251.722 155.524 250.75 155.102 249.73 154.84C249.66 154.84 249.59 154.84 249.58 154.92L249.34 154.85C248.261 154.722 247.168 154.866 246.158 155.268C245.149 155.669 244.256 156.316 243.56 157.15C243.29 157.76 242.92 158.2 242.66 158.84C242.55 159.2 242.44 159.55 242.34 159.91C242.047 161.543 242.375 163.227 243.26 164.63C243.463 164.926 243.683 165.21 243.92 165.48C244.868 166.45 246.083 167.118 247.41 167.4C248.567 167.601 249.758 167.497 250.863 167.097C251.968 166.697 252.949 166.016 253.71 165.12C253.98 164.54 254.35 164.1 254.61 163.46Z" fill="black" fill-opacity="0.27"/>
<path d="M202.72 146.54C202.6 147.1 202.34 147.54 202.25 148.09C202.146 148.99 202.228 149.902 202.49 150.77C202.54 150.87 202.49 150.94 202.49 151.05C202.87 151.864 203.403 152.597 204.06 153.21C204.367 153.54 204.721 153.823 205.11 154.05C205.783 154.39 206.495 154.649 207.23 154.82C208.505 154.979 209.798 154.73 210.922 154.108C212.047 153.486 212.946 152.524 213.49 151.36C213.64 150.84 213.8 150.36 213.95 149.8C214.094 148.566 213.864 147.317 213.29 146.215C212.716 145.113 211.824 144.209 210.73 143.62L208.94 143.08C208.86 143.08 208.79 143.08 208.78 143.16L208.54 143.09C207.678 143.064 206.817 143.155 205.98 143.36C204.569 144.027 203.422 145.146 202.72 146.54Z" fill="black" fill-opacity="0.27"/>
<path d="M216.63 152.29C216.63 152.86 216.63 153.42 216.63 153.99C216.94 154.952 217.421 155.849 218.05 156.64C218.672 157.171 219.398 157.566 220.181 157.8C220.965 158.034 221.789 158.102 222.6 158C223.567 157.715 224.465 157.235 225.24 156.59C225.761 155.962 226.151 155.235 226.386 154.454C226.621 153.672 226.698 152.852 226.61 152.04C226.369 151.028 225.836 150.109 225.077 149.397C224.318 148.686 223.366 148.214 222.34 148.04C222.27 148.04 222.2 148.04 222.19 148.12C220.36 147.76 219.19 148.61 218 149.47C217.341 150.298 216.873 151.261 216.63 152.29Z" fill="black" fill-opacity="0.27"/>
<path d="M190.25 144.22C190.127 145.181 190.315 146.155 190.786 147.001C191.258 147.847 191.988 148.52 192.87 148.92C195.99 149.81 198.03 148.7 198.98 145.54C199.13 144.388 198.827 143.223 198.135 142.29C197.443 141.357 196.416 140.73 195.27 140.54C195.2 140.54 195.12 140.54 195.12 140.62C194.056 140.468 192.973 140.694 192.06 141.26C191.146 142.02 190.51 143.061 190.25 144.22V144.22Z" fill="black" fill-opacity="0.27"/>
<path d="M242.71 180.88C244.378 181.339 246.156 181.171 247.71 180.41C249.228 179.521 250.357 178.093 250.87 176.41C251.163 175.302 251.17 174.137 250.888 173.026C250.606 171.915 250.046 170.894 249.26 170.06C248.323 169.236 247.212 168.634 246.01 168.3C245.91 168.3 245.77 168.23 245.73 168.35L245.5 168.28C244.674 168.165 243.836 168.165 243.01 168.28C241.933 168.592 240.95 169.164 240.146 169.945C239.342 170.726 238.742 171.693 238.4 172.76C237.54 176.693 238.976 179.4 242.71 180.88Z" fill="black" fill-opacity="0.27"/>
<path d="M210.54 162.59C210.518 161.379 210.176 160.196 209.549 159.16C208.922 158.123 208.032 157.272 206.97 156.69L204.97 156.07C204.9 156.07 204.83 156.07 204.82 156.16L204.58 156.08C203.411 155.985 202.239 156.205 201.183 156.717C200.128 157.229 199.229 158.014 198.58 158.99C198.088 160.05 197.751 161.174 197.58 162.33C197.602 163.541 197.944 164.724 198.571 165.76C199.198 166.796 200.088 167.648 201.15 168.23C202.059 168.542 202.992 168.78 203.94 168.94C207.11 168.76 209.95 167.01 210.54 162.59Z" fill="black" fill-opacity="0.27"/>
<path d="M253.37 183.17C254.518 184.208 255.935 184.902 257.46 185.17C258.24 185.28 258.98 184.96 259.59 185.02C260.65 184.652 261.646 184.119 262.54 183.44C262.82 182.89 263.54 182.44 263.83 181.74C264.449 180.319 264.651 178.751 264.41 177.22C264.044 176.143 263.511 175.131 262.83 174.22C261.712 173.189 260.325 172.496 258.83 172.22C258.75 172.22 258.68 172.22 258.67 172.3L258.43 172.23C257.717 172.225 257.005 172.272 256.3 172.37C255.353 172.785 254.455 173.301 253.62 173.91C253.34 174.45 252.62 174.91 252.33 175.61C251.709 177.031 251.508 178.599 251.75 180.13C252.121 181.225 252.668 182.251 253.37 183.17V183.17Z" fill="black" fill-opacity="0.27"/>
<path d="M211.95 164.83C211.724 165.896 211.7 166.995 211.88 168.07C212.239 168.873 212.65 169.651 213.11 170.4C213.928 171.18 214.898 171.782 215.96 172.17C216.991 172.36 218.049 172.36 219.08 172.17C219.889 171.806 220.671 171.385 221.42 170.91C222.196 170.089 222.799 169.12 223.19 168.06C223.463 166.94 223.42 165.766 223.067 164.668C222.714 163.57 222.065 162.591 221.19 161.84C220.499 161.448 219.776 161.113 219.03 160.84C218.95 160.84 218.88 160.84 218.87 160.92C217.943 160.67 216.969 160.646 216.03 160.85C215.089 161.153 214.23 161.67 213.522 162.361C212.815 163.051 212.276 163.897 211.95 164.83V164.83Z" fill="black" fill-opacity="0.27"/>
<path d="M232.11 165.03C231.228 164.837 230.312 164.86 229.441 165.099C228.571 165.338 227.771 165.784 227.11 166.4C226.392 167.158 225.852 168.067 225.53 169.06C225.33 169.5 225.53 169.7 225.33 170.17C225.266 171.273 225.513 172.371 226.044 173.341C226.574 174.31 227.367 175.11 228.33 175.65C232.17 177.24 235.19 175.75 236.56 172.13C237.16 168.73 235.9 166.34 232.56 165.06C232.43 165.02 232.18 164.88 232.11 165.03Z" fill="black" fill-opacity="0.27"/>
<path d="M185.62 156.13C184.62 158.92 185.37 160.87 186.78 162.22C187.611 163.043 188.677 163.588 189.83 163.78C190.979 163.923 192.144 163.697 193.157 163.137C194.171 162.576 194.98 161.709 195.47 160.66C195.62 160.14 195.78 159.66 195.94 159.1C196.022 158.256 195.921 157.403 195.645 156.601C195.369 155.799 194.924 155.065 194.34 154.45C193.436 153.735 192.378 153.239 191.25 153C191.18 153 191.11 153 191.1 153.08L190.86 153.01C189.772 152.93 188.686 153.187 187.749 153.745C186.812 154.303 186.068 155.135 185.62 156.13V156.13Z" fill="black" fill-opacity="0.27"/>
<path d="M150.24 151.08C150.91 150.91 151.56 150.69 152.24 150.51C152.76 150.05 153.31 149.63 153.82 149.16C154.565 148.103 154.885 146.804 154.716 145.522C154.547 144.24 153.903 143.069 152.91 142.24C152.225 141.825 151.484 141.512 150.71 141.31C150.63 141.31 150.56 141.31 150.55 141.39C149.28 141.02 148.55 141.62 147.55 141.8C146.919 142.197 146.374 142.715 145.945 143.325C145.516 143.934 145.211 144.622 145.05 145.35C145.067 145.736 145.037 146.122 144.96 146.5C145.13 147.17 145.36 147.82 145.54 148.5C146 149.02 146.41 149.57 146.89 150.08C147.895 150.713 149.053 151.058 150.24 151.08V151.08Z" fill="black" fill-opacity="0.27"/>
<path d="M175.57 150.1C174.903 150.378 174.302 150.793 173.806 151.318C173.31 151.844 172.93 152.468 172.69 153.15C172.372 154.265 172.51 155.461 173.073 156.475C173.637 157.488 174.58 158.237 175.695 158.555C176.811 158.873 178.007 158.735 179.02 158.172C180.034 157.608 180.782 156.665 181.1 155.55C181.314 154.689 181.281 153.785 181.005 152.941C180.729 152.098 180.222 151.349 179.54 150.78C179.019 150.498 178.481 150.248 177.93 150.03C177.86 150.03 177.79 150.03 177.78 150.12C176.83 149.72 176.33 150.16 175.57 150.1Z" fill="black" fill-opacity="0.27"/>
<path d="M161.88 152.24C162.135 152.501 162.443 152.704 162.784 152.835C163.125 152.966 163.49 153.021 163.855 152.998C164.219 152.974 164.574 152.872 164.895 152.698C165.216 152.524 165.496 152.283 165.715 151.991C165.934 151.699 166.087 151.363 166.164 151.006C166.241 150.649 166.24 150.28 166.16 149.924C166.081 149.567 165.925 149.232 165.704 148.942C165.483 148.651 165.202 148.412 164.88 148.24C164.44 147.895 163.887 147.727 163.33 147.77C162.33 147.66 161.79 148.28 161.19 148.82C160.53 150.4 160.93 151.48 161.88 152.24Z" fill="black" fill-opacity="0.27"/>
<path d="M204.68 176.86C204.793 176.089 204.734 175.302 204.505 174.556C204.277 173.811 203.886 173.126 203.36 172.55C202.601 171.929 201.713 171.485 200.76 171.25C200.68 171.25 200.61 171.25 200.6 171.33C199.88 171.1 199.41 171.33 198.78 171.33C197.919 171.599 197.145 172.09 196.534 172.754C195.923 173.417 195.498 174.23 195.3 175.11C195.103 176.207 195.295 177.339 195.842 178.31C196.39 179.281 197.259 180.031 198.3 180.43C201.49 181.26 203.64 180.09 204.68 176.86Z" fill="black" fill-opacity="0.27"/>
<path d="M212.11 184.58C213.315 184.93 214.609 184.793 215.715 184.198C216.82 183.603 217.648 182.599 218.02 181.4C218.307 180.189 218.187 178.917 217.68 177.78C216.952 176.624 215.823 175.776 214.51 175.4C214.43 175.4 214.36 175.4 214.35 175.48C213.301 175.252 212.206 175.382 211.24 175.85C210.15 176.537 209.331 177.579 208.92 178.8C208.611 179.989 208.77 181.25 209.363 182.326C209.957 183.401 210.939 184.208 212.11 184.58V184.58Z" fill="black" fill-opacity="0.27"/>
<path d="M150.54 160.04C150.38 157.68 149.54 155.7 146.32 154.99C146.24 154.99 146.17 154.99 146.16 155.07L145.93 155C143.63 155.14 141.8 156.16 141.11 159.29C141.104 160.185 141.323 161.068 141.748 161.856C142.173 162.644 142.789 163.313 143.54 163.8L145.45 164.38C147.84 164.23 149.83 163.33 150.54 160.04Z" fill="black" fill-opacity="0.27"/>
<path d="M185.18 176.21C185.756 176.381 186.36 176.435 186.957 176.369C187.554 176.303 188.132 176.12 188.657 175.828C189.182 175.537 189.644 175.144 190.015 174.672C190.387 174.2 190.66 173.659 190.82 173.08C191.26 170.37 190.25 168.44 187.41 167.49C187.34 167.49 187.27 167.49 187.26 167.57C186.47 167.29 185.98 167.57 185.32 167.51C184.581 167.817 183.888 168.224 183.26 168.72C181.03 171.45 181.95 175.16 185.18 176.21Z" fill="black" fill-opacity="0.27"/>
<path d="M171.68 164.32C171.151 164.549 170.674 164.883 170.279 165.303C169.883 165.723 169.577 166.218 169.38 166.76C169.175 167.461 169.187 168.209 169.414 168.903C169.642 169.598 170.074 170.207 170.655 170.651C171.235 171.096 171.937 171.354 172.666 171.392C173.396 171.429 174.121 171.246 174.744 170.864C175.368 170.482 175.861 169.921 176.159 169.254C176.457 168.587 176.547 167.845 176.415 167.126C176.284 166.407 175.938 165.744 175.423 165.226C174.908 164.707 174.248 164.356 173.53 164.22C173.46 164.22 173.38 164.22 173.37 164.31C172.63 163.97 172.3 164.4 171.68 164.32Z" fill="black" fill-opacity="0.27"/>
<path d="M118.11 154.32C118.475 154.413 118.856 154.432 119.229 154.378C119.602 154.323 119.961 154.196 120.285 154.003C120.61 153.81 120.892 153.555 121.118 153.252C121.343 152.95 121.507 152.606 121.6 152.24C121.692 151.874 121.712 151.494 121.657 151.121C121.603 150.747 121.476 150.388 121.282 150.064C121.089 149.74 120.834 149.457 120.532 149.232C120.229 149.006 119.885 148.843 119.52 148.75C119.34 148.75 119.09 148.57 119.01 148.75C118.382 148.68 117.749 148.809 117.2 149.12C116.78 149.64 116.2 149.92 116.03 150.85C115.936 151.215 115.915 151.594 115.969 151.967C116.023 152.339 116.15 152.697 116.344 153.02C116.537 153.343 116.793 153.624 117.096 153.847C117.399 154.071 117.744 154.231 118.11 154.32V154.32Z" fill="black" fill-opacity="0.27"/>
<path d="M157.11 162.02C156.702 162.613 156.536 163.34 156.648 164.051C156.76 164.762 157.141 165.403 157.712 165.842C158.283 166.281 159 166.484 159.716 166.409C160.432 166.334 161.092 165.987 161.56 165.44C161.887 164.852 162.085 164.201 162.14 163.53C161.86 162.48 161.22 161.09 159.61 161.08C158.46 160.79 157.84 161.51 157.11 162.02Z" fill="black" fill-opacity="0.27"/>
<path d="M130.64 157.7C131.213 158.106 131.915 158.287 132.613 158.208C133.31 158.129 133.954 157.795 134.42 157.27C134.48 157.14 134.5 156.93 134.64 156.95C134.955 156.321 135.028 155.598 134.843 154.919C134.659 154.24 134.23 153.653 133.64 153.27L132.56 152.94C132.49 152.94 132.41 152.94 132.41 153.03C131.41 152.84 130.82 153.44 130.18 153.92C129.822 154.494 129.625 155.154 129.61 155.83C129.713 156.559 130.079 157.224 130.64 157.7Z" fill="black" fill-opacity="0.27"/>
<path d="M104.01 149.55C104.572 149.859 105.229 149.948 105.854 149.801C106.478 149.653 107.025 149.278 107.39 148.75C108.1 146.75 107.49 145.55 105.5 145.05C105.42 145.05 105.35 145.05 105.34 145.13C104.34 144.94 103.78 145.58 103.2 146.13C102.875 146.696 102.778 147.365 102.929 148C103.079 148.635 103.465 149.189 104.01 149.55V149.55Z" fill="black" fill-opacity="0.27"/>
<path d="M215.41 195.4C215.772 194.122 215.73 192.763 215.29 191.51C214.849 190.257 214.032 189.171 212.95 188.4C212.248 188.023 211.512 187.715 210.75 187.48C210.68 187.48 210.61 187.48 210.6 187.56C209.04 187.09 208.02 187.62 206.85 187.87C206.038 188.283 205.317 188.855 204.728 189.55C204.139 190.245 203.694 191.051 203.42 191.92C203.173 193.087 203.2 194.295 203.5 195.45H215.38L215.41 195.4Z" fill="black" fill-opacity="0.27"/>
<path d="M227.16 193.14C226.309 192.497 225.36 191.994 224.35 191.65C224.27 191.65 224.2 191.65 224.19 191.73C223.44 191.554 222.668 191.497 221.9 191.56C220.546 191.916 219.302 192.603 218.28 193.56C217.859 194.107 217.522 194.713 217.28 195.36H228.54C228.204 194.55 227.738 193.8 227.16 193.14V193.14Z" fill="black" fill-opacity="0.27"/>
<path d="M153.77 182.66C157.07 183.27 159.38 182.04 160.65 178.86C160.65 178.78 160.65 178.7 160.72 178.62C161.23 175.27 159.99 172.87 156.41 171.72C156.31 171.72 156.17 171.65 156.14 171.77C154.759 171.523 153.337 171.79 152.14 172.52C151.109 173.315 150.33 174.392 149.9 175.62C149.2 179.03 150.45 181.4 153.77 182.66Z" fill="black" fill-opacity="0.27"/>
<path d="M177.47 184.06C177.188 185.452 177.4 186.898 178.07 188.15C178.799 189.13 179.791 189.882 180.93 190.32C181.701 190.489 182.499 190.489 183.27 190.32C183.699 190.298 184.121 190.206 184.52 190.05C185.856 189.35 186.87 188.16 187.35 186.73C187.587 185.711 187.525 184.644 187.17 183.66C186.815 182.675 186.183 181.814 185.35 181.18C184.78 180.95 184.28 180.68 183.75 180.44C183.67 180.44 183.6 180.44 183.59 180.52C182.499 180.209 181.334 180.269 180.28 180.69C178.952 181.418 177.948 182.622 177.47 184.06V184.06Z" fill="black" fill-opacity="0.27"/>
<path d="M196.61 184.6C196.53 184.6 196.46 184.6 196.45 184.68L196.21 184.61C195.123 184.557 194.045 184.825 193.11 185.38C192.877 185.699 192.577 185.962 192.23 186.15C191.372 187.329 190.938 188.763 191 190.22C191.283 191.318 191.829 192.33 192.59 193.17C193.767 194.03 195.204 194.46 196.66 194.39C197.757 194.112 198.77 193.569 199.61 192.81C200.468 191.631 200.902 190.197 200.84 188.74C200.554 187.643 200.009 186.632 199.25 185.79C198.453 185.23 197.557 184.826 196.61 184.6V184.6Z" fill="black" fill-opacity="0.27"/>
<path d="M169.11 176.72L168.87 176.65C166.57 176.78 164.74 177.8 164.06 180.93C164.049 181.826 164.265 182.711 164.688 183.501C165.111 184.292 165.728 184.962 166.48 185.45L168.4 186.02C170.79 185.87 172.78 184.97 173.48 181.68C173.33 179.33 172.48 177.35 169.26 176.68C169.2 176.62 169.11 176.61 169.11 176.72Z" fill="black" fill-opacity="0.27"/>
<path d="M145.45 175.2C145.62 174.64 145.79 174.08 145.95 173.53C145.82 171.43 145.07 169.66 142.23 169.01C142.15 169.01 142.08 169.01 142.07 169.1L141.83 169.02C141.074 169.034 140.333 169.236 139.675 169.608C139.017 169.98 138.462 170.51 138.06 171.15C137.9 171.71 137.73 172.27 137.56 172.82C137.7 174.95 138.47 176.75 141.41 177.37C142.212 177.381 143.003 177.187 143.71 176.807C144.417 176.428 145.015 175.875 145.45 175.2V175.2Z" fill="black" fill-opacity="0.27"/>
<path d="M128.27 167.29C127.886 167.252 127.5 167.347 127.177 167.558C126.853 167.769 126.611 168.083 126.49 168.45C125.8 170.15 127.73 171.45 129.17 170.82C129.5 170.38 129.98 170.22 130.11 169.41C130.108 168.999 130.057 168.589 129.96 168.19C129.58 167.85 129.03 167.08 128.27 167.29Z" fill="black" fill-opacity="0.27"/>
<path d="M116.59 164.95C116.485 164.419 116.224 163.931 115.84 163.55C115.45 163.55 114.84 163.08 114.61 163.31C113.96 163.16 113.66 163.66 113.24 163.94C111.58 166.71 116.45 168.18 116.59 164.95Z" fill="black" fill-opacity="0.27"/>
<path d="M169.94 193.92C169.643 192.813 169.099 191.787 168.35 190.92C168.27 190.87 168.12 190.85 168.15 190.73C167.381 190.206 166.529 189.817 165.63 189.58C165.55 189.58 165.48 189.58 165.47 189.66L165.23 189.59C163.926 189.394 162.597 189.722 161.533 190.501C160.469 191.28 159.756 192.448 159.55 193.75C159.49 194.284 159.47 194.823 159.49 195.36H169.91C169.94 194.89 169.93 194.4 169.94 193.92Z" fill="black" fill-opacity="0.27"/>
<path d="M156.02 192.07C156.038 191.565 156.102 191.063 156.21 190.57C156.018 189.06 155.274 187.674 154.12 186.68C153.55 186.45 153.06 186.18 152.52 185.93C152.45 185.93 152.37 185.93 152.37 186.02C151.21 185.55 150.55 186.02 149.64 186.02C148.706 186.491 147.857 187.117 147.13 187.87C146.9 188.44 146.63 188.94 146.38 189.47C146.074 190.681 146.225 191.963 146.805 193.07C147.384 194.176 148.351 195.031 149.52 195.47H152.85C153.604 195.184 154.282 194.729 154.831 194.139C155.381 193.55 155.788 192.842 156.02 192.07V192.07Z" fill="black" fill-opacity="0.27"/>
<path d="M181.35 195C180.663 194.593 179.923 194.283 179.15 194.08C179.07 194.08 179 194.08 178.99 194.17C177.72 193.78 176.99 194.38 175.99 194.57C175.66 194.84 175.32 195.1 174.99 195.4H181.73C181.63 195.26 181.49 195.13 181.35 195Z" fill="black" fill-opacity="0.27"/>
<path d="M137.82 184.51C137.341 184.448 136.856 184.555 136.447 184.813C136.038 185.07 135.732 185.461 135.58 185.92C135.471 186.209 135.423 186.517 135.438 186.825C135.454 187.133 135.532 187.435 135.669 187.711C135.806 187.988 135.998 188.233 136.234 188.432C136.469 188.631 136.744 188.78 137.039 188.868C137.335 188.957 137.645 188.984 137.951 188.948C138.258 188.911 138.553 188.812 138.82 188.657C139.086 188.501 139.318 188.292 139.5 188.043C139.683 187.795 139.812 187.511 139.88 187.21C139.953 186.901 139.96 186.58 139.902 186.268C139.844 185.956 139.722 185.66 139.544 185.397C139.365 185.135 139.134 184.913 138.864 184.744C138.595 184.576 138.294 184.466 137.98 184.42C137.91 184.4 137.83 184.4 137.82 184.51Z" fill="black" fill-opacity="0.27"/>
<path d="M123.11 182.4C123.075 182.549 123.071 182.703 123.097 182.854C123.124 183.004 123.181 183.148 123.265 183.276C123.348 183.403 123.457 183.513 123.584 183.598C123.711 183.682 123.855 183.74 124.005 183.768C124.155 183.796 124.31 183.793 124.459 183.759C124.608 183.726 124.748 183.662 124.872 183.572C124.996 183.483 125.1 183.369 125.179 183.238C125.258 183.107 125.309 182.961 125.33 182.81C125.63 181.5 123.32 180.88 123.11 182.4Z" fill="black" fill-opacity="0.27"/>
<path d="M84.4004 170.51C84.4048 170.322 84.3393 170.139 84.2166 169.997C84.0939 169.854 83.9227 169.762 83.7361 169.738C83.5495 169.715 83.3608 169.761 83.2064 169.869C83.0521 169.976 82.943 170.137 82.9004 170.32C83.0008 170.598 83.1387 170.86 83.3104 171.1C83.532 171.139 83.76 171.101 83.9578 170.994C84.1556 170.887 84.3115 170.717 84.4004 170.51V170.51Z" fill="black" fill-opacity="0.27"/>
<path d="M97.9102 174.58C97.9145 174.392 97.849 174.209 97.7263 174.067C97.6036 173.924 97.4325 173.832 97.2459 173.808C97.0593 173.785 96.8706 173.831 96.7162 173.939C96.5619 174.046 96.4528 174.207 96.4102 174.39C96.5086 174.665 96.6467 174.925 96.8202 175.16C97.0413 175.213 97.2744 175.184 97.4753 175.077C97.6762 174.97 97.8309 174.793 97.9102 174.58V174.58Z" fill="black" fill-opacity="0.27"/>
<path d="M92.3698 190.4C93.0042 190.556 93.6742 190.471 94.2491 190.16C94.824 189.85 95.2627 189.336 95.4798 188.72C95.6251 187.907 95.461 187.068 95.0198 186.37C94.5398 186.19 94.0198 185.48 93.5398 185.66C92.1198 185.32 91.2998 186.1 90.6998 187.28C90.5447 187.914 90.6294 188.584 90.9377 189.16C91.2459 189.735 91.7559 190.177 92.3698 190.4V190.4Z" fill="black" fill-opacity="0.27"/>
<path d="M105.11 194.08C105.643 194.364 106.259 194.448 106.849 194.316C107.438 194.185 107.961 193.848 108.323 193.365C108.685 192.882 108.863 192.285 108.824 191.683C108.785 191.081 108.532 190.512 108.11 190.08C107.67 189.735 107.117 189.567 106.56 189.61C106.147 189.609 105.738 189.703 105.367 189.885C104.996 190.067 104.672 190.332 104.42 190.66C103.73 192.27 104.11 193.32 105.11 194.08Z" fill="black" fill-opacity="0.27"/>
<path d="M120.35 194.9L119.88 194.75C119.661 194.955 119.392 195.099 119.1 195.17C119.055 195.243 119.019 195.32 118.99 195.4H121.17C120.96 195.09 120.7 194.8 120.35 194.9Z" fill="black" fill-opacity="0.27"/>
<path d="M79.33 184.76C79.4502 184.79 79.5751 184.795 79.6974 184.776C79.8197 184.756 79.9369 184.713 80.0422 184.648C80.1474 184.582 80.2386 184.497 80.3103 184.396C80.3821 184.295 80.433 184.181 80.46 184.06C80.4712 183.84 80.4004 183.624 80.2612 183.453C80.1221 183.282 79.9246 183.169 79.7068 183.135C79.4891 183.102 79.2666 183.15 79.0825 183.271C78.8983 183.392 78.7656 183.577 78.71 183.79C78.7008 183.996 78.7554 184.2 78.8664 184.373C78.9774 184.547 79.1393 184.682 79.33 184.76V184.76Z" fill="black" fill-opacity="0.27"/>
<path d="M52.9498 175.78C52.9405 175.639 52.8758 175.508 52.7698 175.415C52.6639 175.323 52.5254 175.276 52.3848 175.285C52.2443 175.294 52.1132 175.359 52.0203 175.465C51.9275 175.571 51.8805 175.709 51.8898 175.85C51.9418 175.883 51.9846 175.929 52.0142 175.983C52.0439 176.038 52.0596 176.098 52.0598 176.16C52.5298 176.4 52.8498 176.27 52.9498 175.78Z" fill="black" fill-opacity="0.27"/>
<path d="M47.4998 189.13C47.4842 189.341 47.5358 189.551 47.6471 189.731C47.7585 189.911 47.924 190.05 48.1198 190.13C48.3625 190.187 48.6179 190.145 48.8298 190.014C49.0417 189.883 49.1928 189.673 49.2498 189.43C49.272 189.206 49.2085 188.982 49.0721 188.803C48.9356 188.624 48.7364 188.503 48.5145 188.465C48.2926 188.427 48.0646 188.474 47.8763 188.598C47.688 188.721 47.5535 188.911 47.4998 189.13Z" fill="black" fill-opacity="0.27"/>
<rect x="294" y="122" width="1648" height="614" fill="#D6D2C8"/>
<rect x="1641" y="405" width="348" height="446" fill="#001E45"/>
<rect width="213" height="163" transform="translate(1805 733)" fill="#DD0808"/>
<rect x="1805" y="733" width="213" height="163" fill="#950202"/>
</g>
<defs>
<clipPath id="clip0_423_605">
<rect width="2018" height="932" fill="white"/>
</clipPath>
</defs>
</svg>
