<svg width="233" height="73" viewBox="0 0 233 73" fill="none" xmlns="http://www.w3.org/2000/svg">
<rect x="8.76855" y="9.97705" width="214.237" height="54.6782" rx="2" fill="#BB3232"/>
<path d="M67.8547 50.1885C65.5012 50.1885 63.8019 49.6025 62.757 48.4307C61.7219 47.2588 61.2043 45.3936 61.2043 42.835V40.3154H66.3019V43.5381C66.3019 44.1338 66.3898 44.6025 66.5656 44.9443C66.7512 45.2764 67.0686 45.4424 67.5178 45.4424C67.9865 45.4424 68.3088 45.3057 68.4846 45.0322C68.6701 44.7588 68.7629 44.3096 68.7629 43.6846C68.7629 42.8936 68.6848 42.2344 68.5285 41.707C68.3723 41.1699 68.0988 40.6621 67.7082 40.1836C67.3273 39.6953 66.7951 39.1289 66.1115 38.4844L63.7971 36.2871C62.0686 34.6562 61.2043 32.791 61.2043 30.6914C61.2043 28.4941 61.7121 26.8193 62.7277 25.667C63.7531 24.5146 65.2326 23.9385 67.1662 23.9385C69.5295 23.9385 71.2043 24.5684 72.1906 25.8281C73.1867 27.0879 73.6848 29.002 73.6848 31.5703H68.4406V29.7979C68.4406 29.4463 68.3381 29.1729 68.133 28.9775C67.9377 28.7822 67.6691 28.6846 67.3273 28.6846C66.9172 28.6846 66.6144 28.8018 66.4191 29.0361C66.2336 29.2607 66.1408 29.5537 66.1408 29.915C66.1408 30.2764 66.2385 30.667 66.4338 31.0869C66.6291 31.5068 67.0148 31.9902 67.591 32.5371L70.5646 35.3936C71.1603 35.96 71.7072 36.5605 72.2053 37.1953C72.7033 37.8203 73.1037 38.5527 73.4064 39.3926C73.7092 40.2227 73.8605 41.2383 73.8605 42.4395C73.8605 44.8613 73.4113 46.7607 72.5129 48.1377C71.6242 49.5049 70.0715 50.1885 67.8547 50.1885ZM75.5891 49.9541V24.1729H85.9016V29.1533H80.8332V34.1777H85.6965V39.0264H80.8332V44.9297H86.2385V49.9541H75.5891ZM87.9523 49.9541V24.1729H98.2648V29.1533H93.1965V34.1777H98.0598V39.0264H93.1965V44.9297H98.6018V49.9541H87.9523ZM107.347 49.9541V24.1729H115.198L117.366 39.8906L119.52 24.1729H127.445V49.9541H122.728V31.3799L119.769 49.9541H115.14L112.005 31.3799V49.9541H107.347ZM129.027 49.9541L131.517 24.1729H140.262L142.708 49.9541H137.83L137.464 45.7939H134.359L134.036 49.9541H129.027ZM134.725 41.6777H137.069L135.941 28.5674H135.706L134.725 41.6777ZM144.29 49.9541V24.1729H151.102C152.528 24.1729 153.655 24.4902 154.486 25.125C155.325 25.7598 155.926 26.6631 156.287 27.835C156.649 29.0068 156.829 30.4033 156.829 32.0244C156.829 33.5869 156.678 34.9492 156.375 36.1113C156.072 37.2637 155.53 38.1572 154.749 38.792C153.978 39.4268 152.879 39.7441 151.453 39.7441H149.359V49.9541H144.29ZM149.359 35.1152H149.652C150.609 35.1152 151.195 34.8467 151.409 34.3096C151.624 33.7725 151.732 32.9814 151.732 31.9365C151.732 30.96 151.624 30.208 151.409 29.6807C151.204 29.1436 150.711 28.875 149.93 28.875H149.359V35.1152ZM164.593 50.1885C162.239 50.1885 160.54 49.6025 159.495 48.4307C158.46 47.2588 157.943 45.3936 157.943 42.835V40.3154H163.04V43.5381C163.04 44.1338 163.128 44.6025 163.304 44.9443C163.489 45.2764 163.807 45.4424 164.256 45.4424C164.725 45.4424 165.047 45.3057 165.223 45.0322C165.408 44.7588 165.501 44.3096 165.501 43.6846C165.501 42.8936 165.423 42.2344 165.267 41.707C165.111 41.1699 164.837 40.6621 164.446 40.1836C164.066 39.6953 163.533 39.1289 162.85 38.4844L160.535 36.2871C158.807 34.6562 157.943 32.791 157.943 30.6914C157.943 28.4941 158.45 26.8193 159.466 25.667C160.491 24.5146 161.971 23.9385 163.904 23.9385C166.268 23.9385 167.943 24.5684 168.929 25.8281C169.925 27.0879 170.423 29.002 170.423 31.5703H165.179V29.7979C165.179 29.4463 165.076 29.1729 164.871 28.9775C164.676 28.7822 164.407 28.6846 164.066 28.6846C163.655 28.6846 163.353 28.8018 163.157 29.0361C162.972 29.2607 162.879 29.5537 162.879 29.915C162.879 30.2764 162.977 30.667 163.172 31.0869C163.367 31.5068 163.753 31.9902 164.329 32.5371L167.303 35.3936C167.899 35.96 168.445 36.5605 168.944 37.1953C169.442 37.8203 169.842 38.5527 170.145 39.3926C170.447 40.2227 170.599 41.2383 170.599 42.4395C170.599 44.8613 170.15 46.7607 169.251 48.1377C168.362 49.5049 166.81 50.1885 164.593 50.1885Z" fill="white"/>
<path d="M1 29.1553V72.0001H189.889" stroke="black"/>
<path d="M232 43.8447V0.999902H43.1115" stroke="black"/>
</svg>
