<svg width="286" height="368" viewBox="0 0 286 368" fill="none" xmlns="http://www.w3.org/2000/svg">
<g filter="url(#filter0_d_349_604)">
<path d="M248 213.13C248 275.466 143 326 143 326C143 326 38 275.466 38 213.13L38 34L248 34L248 213.13Z" fill="#BB3232"/>
<g clip-path="url(#clip0_349_604)">
<path d="M161.324 135.252L142.518 107.931L123.711 135.252L66.9316 217.61L85.755 244.931L142.535 162.573L199.229 244.931L217.966 217.679L161.324 135.252ZM142.518 159.353L126 135.252L142.518 111.271L159.018 135.252L142.518 159.353Z" fill="white"/>
<path d="M85.8066 245L142.5 213.461L199.194 245L142.5 197.279L85.8066 245Z" fill="white"/>
</g>
</g>
<path d="M96.6992 93L100.02 58.625H111.68L114.941 93H108.438L107.949 87.4531H103.809L103.379 93H96.6992ZM104.297 81.9648H107.422L105.918 64.4844H105.605L104.297 81.9648ZM117.051 93V58.625H126.367C128.867 58.625 130.684 59.237 131.816 60.4609C132.962 61.6719 133.535 63.6771 133.535 66.4766V67.9805C133.535 69.5951 133.242 70.9036 132.656 71.9062C132.083 72.9089 131.204 73.5664 130.02 73.8789C131.569 74.2695 132.604 75.1875 133.125 76.6328C133.659 78.0651 133.926 79.8164 133.926 81.8867C133.926 84.1133 133.717 86.0599 133.301 87.7266C132.884 89.3932 132.129 90.6888 131.035 91.6133C129.941 92.5378 128.385 93 126.367 93H117.051ZM123.77 71.5742H125.176C125.814 71.5742 126.224 71.3268 126.406 70.832C126.589 70.3372 126.68 69.7448 126.68 69.0547V65.5977C126.68 64.4909 126.191 63.9375 125.215 63.9375H123.77V71.5742ZM124.453 86.9453C126.237 86.9453 127.129 86.099 127.129 84.4062V80.1094C127.129 79.1328 126.979 78.3646 126.68 77.8047C126.393 77.2318 125.846 76.9453 125.039 76.9453H123.77V86.9062C124.056 86.9323 124.284 86.9453 124.453 86.9453ZM144.395 93.3125C141.647 93.3125 139.544 92.4857 138.086 90.832C136.641 89.1654 135.918 86.763 135.918 83.625V67.2969C135.918 64.3542 136.634 62.1211 138.066 60.5977C139.512 59.0742 141.621 58.3125 144.395 58.3125C147.168 58.3125 149.271 59.0742 150.703 60.5977C152.148 62.1211 152.871 64.3542 152.871 67.2969V83.625C152.871 86.763 152.142 89.1654 150.684 90.832C149.238 92.4857 147.142 93.3125 144.395 93.3125ZM144.453 86.9844C145.495 86.9844 146.016 85.9753 146.016 83.957V67.1797C146.016 65.487 145.508 64.6406 144.492 64.6406C143.346 64.6406 142.773 65.5065 142.773 67.2383V83.9961C142.773 85.0638 142.904 85.832 143.164 86.3008C143.424 86.7565 143.854 86.9844 144.453 86.9844ZM163.594 93.3125C160.729 93.3125 158.62 92.5117 157.266 90.9102C155.911 89.2956 155.234 86.9258 155.234 83.8008V58.625H161.914V83.5273C161.914 84.1003 161.947 84.6536 162.012 85.1875C162.077 85.7083 162.227 86.138 162.461 86.4766C162.695 86.8151 163.073 86.9844 163.594 86.9844C164.128 86.9844 164.512 86.8216 164.746 86.4961C164.98 86.1576 165.124 85.7214 165.176 85.1875C165.241 84.6536 165.273 84.1003 165.273 83.5273V58.625H171.953V83.8008C171.953 86.9258 171.276 89.2956 169.922 90.9102C168.568 92.5117 166.458 93.3125 163.594 93.3125ZM177.539 93V65.2266H173.457V58.625H188.496V65.2266H184.414V93H177.539Z" fill="white"/>
<defs>
<filter id="filter0_d_349_604" x="0" y="0" width="286" height="368" filterUnits="userSpaceOnUse" color-interpolation-filters="sRGB">
<feFlood flood-opacity="0" result="BackgroundImageFix"/>
<feColorMatrix in="SourceAlpha" type="matrix" values="0 0 0 0 0 0 0 0 0 0 0 0 0 0 0 0 0 0 127 0" result="hardAlpha"/>
<feOffset dy="4"/>
<feGaussianBlur stdDeviation="19"/>
<feComposite in2="hardAlpha" operator="out"/>
<feColorMatrix type="matrix" values="0 0 0 0 0 0 0 0 0 0 0 0 0 0 0 0 0 0 0.4 0"/>
<feBlend mode="normal" in2="BackgroundImageFix" result="effect1_dropShadow_349_604"/>
<feBlend mode="normal" in="SourceGraphic" in2="effect1_dropShadow_349_604" result="shape"/>
</filter>
<clipPath id="clip0_349_604">
<rect width="151" height="137" fill="white" transform="translate(67 108)"/>
</clipPath>
</defs>
</svg>
