<svg width="284" height="89" viewBox="0 0 284 89" fill="none" xmlns="http://www.w3.org/2000/svg">
<rect x="10.5" y="12" width="262" height="67" rx="2" fill="#BB3232"/>
<path d="M63.4508 58V32.2188H71.3023L73.4703 47.9365L75.6236 32.2188H83.5484V58H78.8316V39.4258L75.8727 58H71.2438L68.109 39.4258V58H63.4508ZM95.1359 58.2344C93.0754 58.2344 91.4982 57.6143 90.4045 56.374C89.3205 55.124 88.7785 53.3223 88.7785 50.9688V38.7227C88.7785 36.5156 89.3156 34.8408 90.3898 33.6982C91.4738 32.5557 93.0559 31.9844 95.1359 31.9844C97.216 31.9844 98.7932 32.5557 99.8674 33.6982C100.951 34.8408 101.493 36.5156 101.493 38.7227V50.9688C101.493 53.3223 100.946 55.124 99.8527 56.374C98.7688 57.6143 97.1965 58.2344 95.1359 58.2344ZM95.1799 53.4883C95.9611 53.4883 96.3518 52.7314 96.3518 51.2178V38.6348C96.3518 37.3652 95.9709 36.7305 95.2092 36.7305C94.3498 36.7305 93.9201 37.3799 93.9201 38.6787V51.2471C93.9201 52.0479 94.0178 52.624 94.2131 52.9756C94.4084 53.3174 94.7307 53.4883 95.1799 53.4883ZM106.723 58V32.2188H114.634C115.952 32.2188 116.948 32.5215 117.622 33.127C118.296 33.7227 118.745 34.5625 118.97 35.6465C119.204 36.7207 119.321 37.9854 119.321 39.4404C119.321 40.8467 119.14 41.9697 118.779 42.8096C118.428 43.6494 117.759 44.2305 116.772 44.5527C117.583 44.7188 118.149 45.124 118.471 45.7686C118.804 46.4033 118.97 47.2285 118.97 48.2441V58H113.887V47.9072C113.887 47.1553 113.73 46.6914 113.418 46.5156C113.115 46.3301 112.622 46.2373 111.938 46.2373V58H106.723ZM111.968 41.7695H113.213C113.926 41.7695 114.282 40.9932 114.282 39.4404C114.282 38.4346 114.204 37.7754 114.048 37.4629C113.891 37.1504 113.598 36.9941 113.169 36.9941H111.968V41.7695ZM124.17 58V32.2188H134.483V37.1992H129.414V42.2236H134.278V47.0723H129.414V52.9756H134.82V58H124.17ZM149.865 58V32.2188H155.168L157.541 44.5674V32.2188H162.521V58H157.482L154.904 45.1094V58H149.865ZM167.956 58V32.2188H178.269V37.1992H173.2V42.2236H178.064V47.0723H173.2V52.9756H178.606V58H167.956ZM185.491 58L182.722 32.2188H187.762L189.182 48.4932L190.633 32.2188H195.437L196.814 48.4932L198.191 32.2188H203.289L200.476 58H194.295L193.006 45.5928L191.775 58H185.491ZM214.1 58.2344C211.746 58.2344 210.047 57.6484 209.002 56.4766C207.967 55.3047 207.45 53.4395 207.45 50.8809V48.3613H212.547V51.584C212.547 52.1797 212.635 52.6484 212.811 52.9902C212.996 53.3223 213.314 53.4883 213.763 53.4883C214.232 53.4883 214.554 53.3516 214.73 53.0781C214.915 52.8047 215.008 52.3555 215.008 51.7305C215.008 50.9395 214.93 50.2803 214.774 49.7529C214.618 49.2158 214.344 48.708 213.954 48.2295C213.573 47.7412 213.04 47.1748 212.357 46.5303L210.042 44.333C208.314 42.7021 207.45 40.8369 207.45 38.7373C207.45 36.54 207.957 34.8652 208.973 33.7129C209.998 32.5605 211.478 31.9844 213.412 31.9844C215.775 31.9844 217.45 32.6143 218.436 33.874C219.432 35.1338 219.93 37.0479 219.93 39.6162H214.686V37.8438C214.686 37.4922 214.583 37.2188 214.378 37.0234C214.183 36.8281 213.914 36.7305 213.573 36.7305C213.163 36.7305 212.86 36.8477 212.664 37.082C212.479 37.3066 212.386 37.5996 212.386 37.9609C212.386 38.3223 212.484 38.7129 212.679 39.1328C212.874 39.5527 213.26 40.0361 213.836 40.583L216.81 43.4395C217.406 44.0059 217.953 44.6064 218.451 45.2412C218.949 45.8662 219.349 46.5986 219.652 47.4385C219.954 48.2686 220.106 49.2842 220.106 50.4854C220.106 52.9072 219.657 54.8066 218.758 56.1836C217.87 57.5508 216.317 58.2344 214.1 58.2344Z" fill="white"/>
<path d="M1 35.5V88H232" stroke="white"/>
<path d="M283.5 53.5V1H52.5" stroke="white"/>
</svg>
