<svg width="233" height="73" viewBox="0 0 233 73" fill="none" xmlns="http://www.w3.org/2000/svg">
<rect x="8.76813" y="9.97705" width="214.237" height="54.6782" rx="2" fill="#BB3232"/>
<path d="M52.9424 50.1885C50.5889 50.1885 48.8897 49.6025 47.8447 48.4307C46.8096 47.2588 46.292 45.3936 46.292 42.835V40.3154H51.3897V43.5381C51.3897 44.1338 51.4775 44.6025 51.6533 44.9443C51.8389 45.2764 52.1563 45.4424 52.6055 45.4424C53.0742 45.4424 53.3965 45.3057 53.5723 45.0322C53.7578 44.7588 53.8506 44.3096 53.8506 43.6846C53.8506 42.8936 53.7725 42.2344 53.6162 41.707C53.46 41.1699 53.1865 40.6621 52.7959 40.1836C52.415 39.6953 51.8828 39.1289 51.1992 38.4844L48.8848 36.2871C47.1563 34.6562 46.292 32.791 46.292 30.6914C46.292 28.4941 46.7998 26.8193 47.8154 25.667C48.8408 24.5146 50.3203 23.9385 52.2539 23.9385C54.6172 23.9385 56.292 24.5684 57.2783 25.8281C58.2744 27.0879 58.7725 29.002 58.7725 31.5703H53.5283V29.7979C53.5283 29.4463 53.4258 29.1729 53.2207 28.9775C53.0254 28.7822 52.7568 28.6846 52.415 28.6846C52.0049 28.6846 51.7022 28.8018 51.5068 29.0361C51.3213 29.2607 51.2285 29.5537 51.2285 29.915C51.2285 30.2764 51.3262 30.667 51.5215 31.0869C51.7168 31.5068 52.1025 31.9902 52.6787 32.5371L55.6524 35.3936C56.2481 35.96 56.7949 36.5605 57.293 37.1953C57.791 37.8203 58.1914 38.5527 58.4941 39.3926C58.7969 40.2227 58.9482 41.2383 58.9482 42.4395C58.9482 44.8613 58.499 46.7607 57.6006 48.1377C56.7119 49.5049 55.1592 50.1885 52.9424 50.1885ZM60.6768 49.9541V24.1729H70.9893V29.1533H65.9209V34.1777H70.7842V39.0264H65.9209V44.9297H71.3262V49.9541H60.6768ZM73.04 49.9541V24.1729H83.3525V29.1533H78.2842V34.1777H83.1475V39.0264H78.2842V44.9297H83.6895V49.9541H73.04ZM92.4346 49.9541V24.1729H97.5908V45.5596H102.894V49.9541H92.4346ZM104.358 49.9541V24.1729H114.671V29.1533H109.603V34.1777H114.466V39.0264H109.603V44.9297H115.008V49.9541H104.358ZM122.039 50.1885C118.357 50.1885 116.517 47.5518 116.517 42.2783V31.1602C116.517 26.3457 118.626 23.9385 122.845 23.9385C124.583 23.9385 125.916 24.29 126.844 24.9932C127.771 25.6865 128.411 26.7021 128.763 28.04C129.114 29.3779 129.29 31.0088 129.29 32.9326H124.251V30.6475C124.251 30.0908 124.173 29.627 124.017 29.2559C123.87 28.875 123.558 28.6846 123.079 28.6846C122.483 28.6846 122.088 28.8848 121.893 29.2852C121.707 29.6855 121.614 30.125 121.614 30.6035V43.0986C121.614 43.792 121.702 44.3584 121.878 44.7979C122.063 45.2275 122.42 45.4424 122.947 45.4424C123.494 45.4424 123.855 45.2275 124.031 44.7979C124.217 44.3584 124.31 43.7822 124.31 43.0693V39.3926H122.933V34.9395H129.231V49.9541H127.166L126.287 47.7861C125.389 49.3877 123.973 50.1885 122.039 50.1885ZM131.282 49.9541V24.1729H141.595V29.1533H136.526V34.1777H141.39V39.0264H136.526V44.9297H141.932V49.9541H131.282ZM143.646 49.9541V24.1729H148.948L151.321 36.5215V24.1729H156.302V49.9541H151.263L148.685 37.0635V49.9541H143.646ZM158.587 49.9541V24.1729H165.677C167.532 24.1729 168.929 24.6904 169.866 25.7256C170.804 26.751 171.272 28.2549 171.272 30.2373V42.3076C171.272 44.749 170.843 46.6338 169.983 47.9619C169.134 49.29 167.64 49.9541 165.501 49.9541H158.587ZM163.772 45.3984H164.666C165.613 45.3984 166.087 44.9395 166.087 44.0215V30.7207C166.087 29.8613 165.97 29.3096 165.735 29.0654C165.511 28.8115 165.047 28.6846 164.344 28.6846H163.772V45.3984ZM179.505 50.1885C177.151 50.1885 175.452 49.6025 174.407 48.4307C173.372 47.2588 172.854 45.3936 172.854 42.835V40.3154H177.952V43.5381C177.952 44.1338 178.04 44.6025 178.216 44.9443C178.401 45.2764 178.719 45.4424 179.168 45.4424C179.637 45.4424 179.959 45.3057 180.135 45.0322C180.32 44.7588 180.413 44.3096 180.413 43.6846C180.413 42.8936 180.335 42.2344 180.179 41.707C180.022 41.1699 179.749 40.6621 179.358 40.1836C178.978 39.6953 178.445 39.1289 177.762 38.4844L175.447 36.2871C173.719 34.6562 172.854 32.791 172.854 30.6914C172.854 28.4941 173.362 26.8193 174.378 25.667C175.403 24.5146 176.883 23.9385 178.816 23.9385C181.18 23.9385 182.854 24.5684 183.841 25.8281C184.837 27.0879 185.335 29.002 185.335 31.5703H180.091V29.7979C180.091 29.4463 179.988 29.1729 179.783 28.9775C179.588 28.7822 179.319 28.6846 178.978 28.6846C178.567 28.6846 178.265 28.8018 178.069 29.0361C177.884 29.2607 177.791 29.5537 177.791 29.915C177.791 30.2764 177.889 30.667 178.084 31.0869C178.279 31.5068 178.665 31.9902 179.241 32.5371L182.215 35.3936C182.811 35.96 183.357 36.5605 183.855 37.1953C184.354 37.8203 184.754 38.5527 185.057 39.3926C185.359 40.2227 185.511 41.2383 185.511 42.4395C185.511 44.8613 185.062 46.7607 184.163 48.1377C183.274 49.5049 181.722 50.1885 179.505 50.1885Z" fill="white"/>
<path d="M1 29.1553V72.0001H189.889" stroke="black"/>
<path d="M232 43.8447V0.999902H43.1115" stroke="black"/>
</svg>
