<svg width="251" height="80" viewBox="0 0 251 80" fill="none" xmlns="http://www.w3.org/2000/svg">
<path d="M0.318359 79L7.78906 1.65625H34.0244L41.3633 79H26.7295L25.6309 66.5195H16.3145L15.3477 79H0.318359ZM17.4131 54.1709H24.4443L21.0605 14.8398H20.3574L17.4131 54.1709ZM64.4785 79.7031C57.418 79.7031 52.3203 77.9453 49.1855 74.4297C46.0801 70.9141 44.5273 65.3184 44.5273 57.6426V50.084H59.8203V59.752C59.8203 61.5391 60.084 62.9453 60.6113 63.9707C61.168 64.9668 62.1201 65.4648 63.4678 65.4648C64.874 65.4648 65.8408 65.0547 66.3682 64.2344C66.9248 63.4141 67.2031 62.0664 67.2031 60.1914C67.2031 57.8184 66.9688 55.8408 66.5 54.2588C66.0312 52.6475 65.2109 51.124 64.0391 49.6885C62.8965 48.2236 61.2998 46.5244 59.249 44.5908L52.3057 37.999C47.1201 33.1064 44.5273 27.5107 44.5273 21.2119C44.5273 14.6201 46.0508 9.5957 49.0977 6.13867C52.1738 2.68164 56.6123 0.953125 62.4131 0.953125C69.5029 0.953125 74.5273 2.84277 77.4863 6.62207C80.4746 10.4014 81.9688 16.1436 81.9688 23.8486H66.2363V18.5312C66.2363 17.4766 65.9287 16.6562 65.3135 16.0703C64.7275 15.4844 63.9219 15.1914 62.8965 15.1914C61.666 15.1914 60.7578 15.543 60.1719 16.2461C59.6152 16.9199 59.3369 17.7988 59.3369 18.8828C59.3369 19.9668 59.6299 21.1387 60.2158 22.3984C60.8018 23.6582 61.959 25.1084 63.6875 26.749L72.6084 35.3184C74.3955 37.0176 76.0361 38.8193 77.5303 40.7236C79.0244 42.5986 80.2256 44.7959 81.1338 47.3154C82.042 49.8057 82.4961 52.8525 82.4961 56.4561C82.4961 63.7217 81.1484 69.4199 78.4531 73.5508C75.7871 77.6523 71.1289 79.7031 64.4785 79.7031ZM105.699 79.7031C100.104 79.7031 95.5918 77.96 92.1641 74.4736C88.7656 70.9873 87.0664 66.1094 87.0664 59.8398V24.1562C87.0664 16.6562 88.5459 10.9141 91.5049 6.92969C94.4932 2.94531 99.3418 0.953125 106.051 0.953125C109.713 0.953125 112.965 1.62695 115.807 2.97461C118.678 4.32227 120.934 6.34375 122.574 9.03906C124.215 11.7051 125.035 15.0742 125.035 19.1465V32.5059H109.654V21.0801C109.654 18.7656 109.361 17.2129 108.775 16.4219C108.189 15.6016 107.281 15.1914 106.051 15.1914C104.615 15.1914 103.648 15.7188 103.15 16.7734C102.652 17.7988 102.403 19.1758 102.403 20.9043V59.6201C102.403 61.7588 102.711 63.2676 103.326 64.1465C103.971 65.0254 104.879 65.4648 106.051 65.4648C107.369 65.4648 108.292 64.9229 108.819 63.8389C109.376 62.7549 109.654 61.3486 109.654 59.6201V45.6895H125.211V60.3232C125.211 67.1201 123.497 72.0566 120.069 75.1328C116.642 78.1797 111.852 79.7031 105.699 79.7031ZM130.396 79V1.65625H161.334V16.5977H146.129V31.6709H160.719V46.2168H146.129V63.9268H162.345V79H130.396ZM167.486 79V1.65625H183.395L190.514 38.7021V1.65625H205.455V79H190.338L182.604 40.3281V79H167.486ZM212.311 79V1.65625H233.58C239.146 1.65625 243.336 3.20898 246.148 6.31445C248.961 9.39062 250.367 13.9023 250.367 19.8496V56.0605C250.367 63.3848 249.078 69.0391 246.5 73.0234C243.951 77.0078 239.469 79 233.053 79H212.311ZM227.867 65.333H230.548C233.39 65.333 234.811 63.9561 234.811 61.2021V21.2998C234.811 18.7217 234.459 17.0664 233.756 16.334C233.082 15.5723 231.69 15.1914 229.581 15.1914H227.867V65.333Z" fill="#BB3232"/>
</svg>
