<svg width="237" height="159" viewBox="0 0 237 159" fill="none" xmlns="http://www.w3.org/2000/svg">
<path d="M11.7695 78V0.65625H32.7314C38.3564 0.65625 42.4434 2.0332 44.9922 4.78711C47.5703 7.51172 48.8594 12.0234 48.8594 18.3223V21.7061C48.8594 25.3389 48.2002 28.2832 46.8818 30.5391C45.5928 32.7949 43.6152 34.2744 40.9492 34.9775C44.4355 35.8564 46.7646 37.9219 47.9365 41.1738C49.1377 44.3965 49.7383 48.3369 49.7383 52.9951C49.7383 58.0049 49.2695 62.3848 48.332 66.1348C47.3945 69.8848 45.6953 72.7998 43.2344 74.8799C40.7734 76.96 37.2725 78 32.7314 78H11.7695ZM26.8867 29.792H30.0508C31.4863 29.792 32.4092 29.2354 32.8193 28.1221C33.2295 27.0088 33.4346 25.6758 33.4346 24.123V16.3447C33.4346 13.8545 32.3359 12.6094 30.1387 12.6094H26.8867V29.792ZM28.4248 64.377C32.4385 64.377 34.4453 62.4727 34.4453 58.6641V48.9961C34.4453 46.7988 34.1084 45.0703 33.4346 43.8105C32.79 42.5215 31.5596 41.877 29.7432 41.877H26.8867V64.2891C27.5312 64.3477 28.0439 64.377 28.4248 64.377ZM52.7266 78L60.1973 0.65625H86.4326L93.7715 78H79.1377L78.0391 65.5195H68.7227L67.7559 78H52.7266ZM69.8213 53.1709H76.8525L73.4688 13.8398H72.7656L69.8213 53.1709ZM104.011 78V15.5098H94.8262V0.65625H128.664V15.5098H119.479V78H104.011ZM139.606 78V15.5098H130.422V0.65625H164.26V15.5098H155.075V78H139.606ZM168.566 78V0.65625H184.035V64.8164H199.943V78H168.566ZM204.338 78V0.65625H235.275V15.5977H220.07V30.6709H234.66V45.2168H220.07V62.9268H236.286V78H204.338ZM0.167969 158V80.6562H23.8984C27.8535 80.6562 30.8418 81.5645 32.8633 83.3809C34.8848 85.168 36.2324 87.6875 36.9062 90.9395C37.6094 94.1621 37.9609 97.9561 37.9609 102.321C37.9609 106.54 37.4189 109.909 36.335 112.429C35.2803 114.948 33.2734 116.691 30.3145 117.658C32.7461 118.156 34.4453 119.372 35.4121 121.306C36.4082 123.21 36.9062 125.686 36.9062 128.732V158H21.6572V127.722C21.6572 125.466 21.1885 124.074 20.251 123.547C19.3428 122.99 17.8633 122.712 15.8125 122.712V158H0.167969ZM15.9004 109.309H19.6357C21.7744 109.309 22.8438 106.979 22.8438 102.321C22.8438 99.3037 22.6094 97.3262 22.1406 96.3887C21.6719 95.4512 20.793 94.9824 19.5039 94.9824H15.9004V109.309ZM61.5156 158.703C55.334 158.703 50.6025 156.843 47.3213 153.122C44.0693 149.372 42.4434 143.967 42.4434 136.906V100.168C42.4434 93.5469 44.0547 88.5225 47.2773 85.0947C50.5293 81.667 55.2754 79.9531 61.5156 79.9531C67.7559 79.9531 72.4873 81.667 75.71 85.0947C78.9619 88.5225 80.5879 93.5469 80.5879 100.168V136.906C80.5879 143.967 78.9473 149.372 75.666 153.122C72.4141 156.843 67.6973 158.703 61.5156 158.703ZM61.6475 144.465C63.9912 144.465 65.1631 142.194 65.1631 137.653V99.9043C65.1631 96.0957 64.0205 94.1914 61.7354 94.1914C59.1572 94.1914 57.8682 96.1396 57.8682 100.036V137.741C57.8682 140.144 58.1611 141.872 58.7471 142.927C59.333 143.952 60.2998 144.465 61.6475 144.465ZM96.1885 158V132.556L83.8398 80.6562H99.1768L103.483 106.848L107.79 80.6562H123.083L110.778 132.556V158H96.1885ZM122.775 158L130.246 80.6562H156.481L163.82 158H149.187L148.088 145.52H138.771L137.805 158H122.775ZM139.87 133.171H146.901L143.518 93.8398H142.814L139.87 133.171ZM168.566 158V80.6562H184.035V144.816H199.943V158H168.566ZM204.338 158V80.6562H235.275V95.5977H220.07V110.671H234.66V125.217H220.07V142.927H236.286V158H204.338Z" fill="#DA292A" fill-opacity="0.55"/>
</svg>
