<svg width="2051" height="1185" viewBox="0 0 2051 1185" fill="none" xmlns="http://www.w3.org/2000/svg">
<path d="M31.5758 165.1L31.5758 220.45L13.2758 228.55L13.2758 264.55L118.126 215.35L118.126 170.95L13.2758 123.4L13.2758 157L31.5758 165.1ZM93.8258 192.55L54.6758 210.1L54.6758 175.3L93.8258 192.55ZM81.3758 382.689L83.1758 382.689C103.726 382.689 118.126 372.339 118.126 336.339L118.126 262.539L13.2758 262.539L13.2758 296.139L45.8258 296.139L45.8258 323.889L13.2758 343.389L13.2758 382.689L49.2758 361.089C54.8258 377.139 66.8258 382.689 81.3758 382.689ZM92.9258 296.139L92.9258 333.489C92.9258 343.989 88.4258 347.739 82.2758 347.739L81.8258 347.739C75.2258 347.739 70.8758 343.989 70.8758 333.489L70.8758 296.139L92.9258 296.139ZM118.126 485.432L118.126 385.082L13.2758 385.082L13.2758 486.332L37.7258 486.332L37.7258 418.382L53.9258 418.382L53.9258 485.882L78.8258 485.882L78.8258 418.382L94.1258 418.382L94.1258 485.432L118.126 485.432ZM77.3258 523.919L13.2758 584.519L13.2758 617.069L118.126 617.069L118.126 584.369L55.2758 584.369L118.126 525.569L118.126 491.219L13.4258 491.219L13.4258 523.919L77.3258 523.919ZM31.5758 656.883L31.5758 712.233L13.2758 720.333L13.2758 756.333L118.126 707.133L118.126 662.733L13.2758 615.183L13.2758 648.783L31.5758 656.883ZM93.8258 684.333L54.6758 701.883L54.6758 667.083L93.8258 684.333ZM79.5758 823.414L80.0258 802.414C80.4758 786.364 84.2258 782.914 89.0258 782.914C94.1258 782.914 97.7258 790.564 97.7258 808.414L97.7258 812.014C97.7258 824.164 95.0258 829.564 92.0258 831.964L92.0258 869.764C105.676 868.414 119.926 858.514 119.926 814.264L119.926 802.714C119.926 758.014 105.826 747.814 88.5758 747.814L87.2258 747.814C71.0258 747.814 57.0758 758.464 56.0258 795.064L55.5758 815.764C55.1258 833.014 51.3758 836.314 45.8258 836.314C40.5758 836.314 34.8758 833.614 34.8758 813.214L34.8758 810.064C34.8758 795.064 39.5258 785.914 43.8758 783.964L43.8758 746.764C30.5258 747.814 11.7758 756.364 11.7758 804.814L11.7758 814.864C11.7757 864.514 30.5257 871.864 46.7258 871.864L48.5258 871.864C66.2258 871.864 78.5258 862.564 79.5758 823.414Z" fill="#CECECE" fill-opacity="0.21"/>
<path d="M31.5758 165.1L35.5758 165.1L35.5758 162.496L33.1948 161.442L31.5758 165.1ZM31.5758 220.45L33.1948 224.108L35.5758 223.054L35.5758 220.45L31.5758 220.45ZM13.2758 228.55L11.6568 224.892L9.27578 225.946L9.27578 228.55L13.2758 228.55ZM13.2758 264.55L9.27578 264.55L9.27577 270.845L14.975 268.171L13.2758 264.55ZM118.126 215.35L119.825 218.971L122.126 217.892L122.126 215.35L118.126 215.35ZM118.126 170.95L122.126 170.95L122.126 168.372L119.778 167.307L118.126 170.95ZM13.2758 123.4L14.9279 119.757L9.27578 117.194L9.27578 123.4L13.2758 123.4ZM13.2758 157L9.27578 157L9.27578 159.604L11.6568 160.658L13.2758 157ZM93.8258 192.55L95.462 196.2L103.675 192.518L95.4386 188.89L93.8258 192.55ZM54.6758 210.1L50.6758 210.1L50.6758 216.277L56.312 213.75L54.6758 210.1ZM54.6758 175.3L56.2886 171.64L50.6758 169.166L50.6758 175.3L54.6758 175.3ZM27.5758 165.1L27.5758 220.45L35.5758 220.45L35.5758 165.1L27.5758 165.1ZM29.9568 216.792L11.6568 224.892L14.8948 232.208L33.1948 224.108L29.9568 216.792ZM9.27578 228.55L9.27578 264.55L17.2758 264.55L17.2758 228.55L9.27578 228.55ZM14.975 268.171L119.825 218.971L116.427 211.729L11.5766 260.929L14.975 268.171ZM122.126 215.35L122.126 170.95L114.126 170.95L114.126 215.35L122.126 215.35ZM119.778 167.307L14.9279 119.757L11.6237 127.043L116.474 174.593L119.778 167.307ZM9.27578 123.4L9.27578 157L17.2758 157L17.2758 123.4L9.27578 123.4ZM11.6568 160.658L29.9568 168.758L33.1948 161.442L14.8948 153.342L11.6568 160.658ZM92.1896 188.9L53.0396 206.45L56.312 213.75L95.462 196.2L92.1896 188.9ZM58.6758 210.1L58.6758 175.3L50.6758 175.3L50.6758 210.1L58.6758 210.1ZM53.0629 178.96L92.2129 196.21L95.4386 188.89L56.2886 171.64L53.0629 178.96ZM118.126 262.539L122.126 262.539L122.126 258.539L118.126 258.539L118.126 262.539ZM13.2758 262.539L13.2758 258.539L9.27578 258.539L9.27578 262.539L13.2758 262.539ZM13.2758 296.139L9.27577 296.139L9.27577 300.139L13.2758 300.139L13.2758 296.139ZM45.8258 296.139L49.8258 296.139L49.8258 292.139L45.8258 292.139L45.8258 296.139ZM45.8258 323.889L47.8814 327.32L49.8258 326.156L49.8258 323.889L45.8258 323.889ZM13.2758 343.389L11.2201 339.958L9.27577 341.123L9.27577 343.389L13.2758 343.389ZM13.2758 382.689L9.27577 382.689L9.27577 389.754L15.3338 386.119L13.2758 382.689ZM49.2758 361.089L53.0561 359.782L51.445 355.123L47.2178 357.659L49.2758 361.089ZM92.9258 296.139L96.9258 296.139L96.9258 292.139L92.9258 292.139L92.9258 296.139ZM70.8758 296.139L70.8758 292.139L66.8758 292.139L66.8758 296.139L70.8758 296.139ZM81.3758 386.689L83.1758 386.689L83.1758 378.689L81.3758 378.689L81.3758 386.689ZM83.1758 386.689C94.0957 386.689 104.164 383.924 111.374 375.64C118.466 367.492 122.126 354.746 122.126 336.339L114.126 336.339C114.126 353.932 110.585 364.361 105.34 370.388C100.212 376.279 92.8058 378.689 83.1758 378.689L83.1758 386.689ZM122.126 336.339L122.126 262.539L114.126 262.539L114.126 336.339L122.126 336.339ZM118.126 258.539L13.2758 258.539L13.2758 266.539L118.126 266.539L118.126 258.539ZM9.27578 262.539L9.27577 296.139L17.2758 296.139L17.2758 262.539L9.27578 262.539ZM13.2758 300.139L45.8258 300.139L45.8258 292.139L13.2758 292.139L13.2758 300.139ZM41.8258 296.139L41.8258 323.889L49.8258 323.889L49.8258 296.139L41.8258 296.139ZM43.7701 320.458L11.2201 339.958L15.3314 346.82L47.8814 327.32L43.7701 320.458ZM9.27577 343.389L9.27577 382.689L17.2758 382.689L17.2758 343.389L9.27577 343.389ZM15.3338 386.119L51.3338 364.519L47.2178 357.659L11.2178 379.259L15.3338 386.119ZM45.4954 362.396C48.5322 371.178 53.456 377.375 59.8537 381.314C66.1863 385.213 73.6199 386.689 81.3758 386.689L81.3758 378.689C74.5816 378.689 68.7402 377.39 64.0478 374.502C59.4205 371.653 55.5694 367.05 53.0561 359.782L45.4954 362.396ZM88.9258 296.139L88.9258 333.489L96.9258 333.489L96.9258 296.139L88.9258 296.139ZM88.9258 333.489C88.9258 338.257 87.8915 340.734 86.8467 341.976C85.9071 343.092 84.5094 343.739 82.2758 343.739L82.2758 351.739C86.1922 351.739 90.1195 350.511 92.9673 347.127C95.71 343.869 96.9258 339.221 96.9258 333.489L88.9258 333.489ZM82.2758 343.739L81.8258 343.739L81.8258 351.739L82.2758 351.739L82.2758 343.739ZM81.8258 343.739C79.2921 343.739 77.8469 343.047 76.9235 341.961C75.887 340.742 74.8758 338.291 74.8758 333.489L66.8758 333.489C66.8758 339.187 68.0395 343.862 70.828 347.142C73.7297 350.556 77.7595 351.739 81.8258 351.739L81.8258 343.739ZM74.8758 333.489L74.8758 296.139L66.8758 296.139L66.8758 333.489L74.8758 333.489ZM70.8758 300.139L92.9258 300.139L92.9258 292.139L70.8758 292.139L70.8758 300.139ZM118.126 485.432L118.126 489.432L122.126 489.432L122.126 485.432L118.126 485.432ZM118.126 385.082L122.126 385.082L122.126 381.082L118.126 381.082L118.126 385.082ZM13.2758 385.082L13.2758 381.082L9.27577 381.082L9.27577 385.082L13.2758 385.082ZM13.2758 486.332L9.27577 486.332L9.27577 490.332L13.2758 490.332L13.2758 486.332ZM37.7258 486.332L37.7258 490.332L41.7258 490.332L41.7258 486.332L37.7258 486.332ZM37.7258 418.382L37.7258 414.382L33.7258 414.382L33.7258 418.382L37.7258 418.382ZM53.9258 418.382L57.9258 418.382L57.9258 414.382L53.9258 414.382L53.9258 418.382ZM53.9258 485.882L49.9258 485.882L49.9258 489.882L53.9258 489.882L53.9258 485.882ZM78.8258 485.882L78.8258 489.882L82.8258 489.882L82.8258 485.882L78.8258 485.882ZM78.8258 418.382L78.8258 414.382L74.8258 414.382L74.8258 418.382L78.8258 418.382ZM94.1258 418.382L98.1258 418.382L98.1258 414.382L94.1258 414.382L94.1258 418.382ZM94.1258 485.432L90.1258 485.432L90.1258 489.432L94.1258 489.432L94.1258 485.432ZM122.126 485.432L122.126 385.082L114.126 385.082L114.126 485.432L122.126 485.432ZM118.126 381.082L13.2758 381.082L13.2758 389.082L118.126 389.082L118.126 381.082ZM9.27577 385.082L9.27577 486.332L17.2758 486.332L17.2758 385.082L9.27577 385.082ZM13.2758 490.332L37.7258 490.332L37.7258 482.332L13.2758 482.332L13.2758 490.332ZM41.7258 486.332L41.7258 418.382L33.7258 418.382L33.7258 486.332L41.7258 486.332ZM37.7258 422.382L53.9258 422.382L53.9258 414.382L37.7258 414.382L37.7258 422.382ZM49.9258 418.382L49.9258 485.882L57.9258 485.882L57.9258 418.382L49.9258 418.382ZM53.9258 489.882L78.8258 489.882L78.8258 481.882L53.9258 481.882L53.9258 489.882ZM82.8258 485.882L82.8258 418.382L74.8258 418.382L74.8258 485.882L82.8258 485.882ZM78.8258 422.382L94.1258 422.382L94.1258 414.382L78.8258 414.382L78.8258 422.382ZM90.1258 418.382L90.1258 485.432L98.1258 485.432L98.1258 418.382L90.1258 418.382ZM94.1258 489.432L118.126 489.432L118.126 481.432L94.1258 481.432L94.1258 489.432ZM77.3258 523.919L80.0749 526.824L87.3736 519.919L77.3258 519.919L77.3258 523.919ZM13.2758 584.519L10.5267 581.613L9.27576 582.797L9.27576 584.519L13.2758 584.519ZM13.2758 617.069L9.27576 617.069L9.27576 621.069L13.2758 621.069L13.2758 617.069ZM118.126 617.069L118.126 621.069L122.126 621.069L122.126 617.069L118.126 617.069ZM118.126 584.369L122.126 584.369L122.126 580.369L118.126 580.369L118.126 584.369ZM55.2758 584.369L52.543 581.448L45.1453 588.369L55.2758 588.369L55.2758 584.369ZM118.126 525.569L120.859 528.49L122.126 527.304L122.126 525.569L118.126 525.569ZM118.126 491.219L122.126 491.219L122.126 487.219L118.126 487.219L118.126 491.219ZM13.4258 491.219L13.4258 487.219L9.42577 487.219L9.42577 491.219L13.4258 491.219ZM13.4258 523.919L9.42576 523.919L9.42576 527.919L13.4258 527.919L13.4258 523.919ZM74.5767 521.013L10.5267 581.613L16.0249 587.424L80.0749 526.824L74.5767 521.013ZM9.27576 584.519L9.27576 617.069L17.2758 617.069L17.2758 584.519L9.27576 584.519ZM13.2758 621.069L118.126 621.069L118.126 613.069L13.2758 613.069L13.2758 621.069ZM122.126 617.069L122.126 584.369L114.126 584.369L114.126 617.069L122.126 617.069ZM118.126 580.369L55.2758 580.369L55.2758 588.369L118.126 588.369L118.126 580.369ZM58.0085 587.29L120.859 528.49L115.393 522.648L52.543 581.448L58.0085 587.29ZM122.126 525.569L122.126 491.219L114.126 491.219L114.126 525.569L122.126 525.569ZM118.126 487.219L13.4258 487.219L13.4258 495.219L118.126 495.219L118.126 487.219ZM9.42577 491.219L9.42576 523.919L17.4258 523.919L17.4258 491.219L9.42577 491.219ZM13.4258 527.919L77.3258 527.919L77.3258 519.919L13.4258 519.919L13.4258 527.919ZM31.5758 656.883L35.5758 656.883L35.5758 654.279L33.1947 653.225L31.5758 656.883ZM31.5758 712.233L33.1947 715.891L35.5758 714.837L35.5758 712.233L31.5758 712.233ZM13.2758 720.333L11.6568 716.675L9.27576 717.729L9.27576 720.333L13.2758 720.333ZM13.2758 756.333L9.27575 756.333L9.27575 762.629L14.9749 759.954L13.2758 756.333ZM118.126 707.133L119.825 710.754L122.126 709.675L122.126 707.133L118.126 707.133ZM118.126 662.733L122.126 662.733L122.126 660.155L119.778 659.09L118.126 662.733ZM13.2758 615.183L14.9278 611.54L9.27576 608.977L9.27576 615.183L13.2758 615.183ZM13.2758 648.783L9.27576 648.783L9.27576 651.387L11.6568 652.441L13.2758 648.783ZM93.8258 684.333L95.462 687.983L103.675 684.302L95.4386 680.673L93.8258 684.333ZM54.6758 701.883L50.6758 701.883L50.6758 708.06L56.312 705.533L54.6758 701.883ZM54.6758 667.083L56.2886 663.423L50.6758 660.95L50.6758 667.083L54.6758 667.083ZM27.5758 656.883L27.5758 712.233L35.5758 712.233L35.5758 656.883L27.5758 656.883ZM29.9568 708.575L11.6568 716.675L14.8947 723.991L33.1947 715.891L29.9568 708.575ZM9.27576 720.333L9.27575 756.333L17.2758 756.333L17.2758 720.333L9.27576 720.333ZM14.9749 759.954L119.825 710.754L116.427 703.512L11.5766 752.712L14.9749 759.954ZM122.126 707.133L122.126 662.733L114.126 662.733L114.126 707.133L122.126 707.133ZM119.778 659.09L14.9278 611.54L11.6237 618.826L116.474 666.376L119.778 659.09ZM9.27576 615.183L9.27576 648.783L17.2758 648.783L17.2758 615.183L9.27576 615.183ZM11.6568 652.441L29.9568 660.541L33.1947 653.225L14.8947 645.125L11.6568 652.441ZM92.1895 680.683L53.0395 698.233L56.312 705.533L95.462 687.983L92.1895 680.683ZM58.6758 701.883L58.6758 667.083L50.6758 667.083L50.6758 701.883L58.6758 701.883ZM53.0629 670.744L92.2129 687.994L95.4386 680.673L56.2886 663.423L53.0629 670.744ZM79.5758 823.414L83.5743 823.521L83.5746 823.51L83.5748 823.499L79.5758 823.414ZM80.0258 802.414L76.0273 802.302L76.027 802.315L76.0267 802.328L80.0258 802.414ZM92.0258 831.964L89.527 828.84L88.0258 830.041L88.0258 831.964L92.0258 831.964ZM92.0258 869.764L88.0258 869.764L88.0258 874.179L92.4194 873.744L92.0258 869.764ZM56.0258 795.064L52.0274 794.949L52.027 794.963L52.0267 794.977L56.0258 795.064ZM55.5758 815.764L59.5744 815.868L59.5746 815.859L59.5748 815.851L55.5758 815.764ZM43.8758 783.964L45.512 787.614L47.8758 786.554L47.8758 783.964L43.8758 783.964ZM43.8758 746.764L47.8758 746.764L47.8758 742.437L43.5621 742.776L43.8758 746.764ZM83.5748 823.499L84.0248 802.499L76.0267 802.328L75.5767 823.328L83.5748 823.499ZM84.0242 802.526C84.2455 794.632 85.2872 790.575 86.3911 788.587C86.8912 787.687 87.3291 787.351 87.6004 787.2C87.8874 787.041 88.307 786.914 89.0258 786.914L89.0258 778.914C87.3445 778.914 85.4953 779.218 83.7152 780.207C81.9193 781.205 80.4915 782.734 79.3979 784.702C77.3143 788.453 76.256 794.145 76.0273 802.302L84.0242 802.526ZM89.0258 786.914C89.0419 786.914 90.2107 786.784 91.5381 790.361C92.8305 793.845 93.7258 799.661 93.7258 808.414L101.726 808.414C101.726 799.316 100.821 792.383 99.0384 787.578C97.2909 782.869 94.1096 778.914 89.0258 778.914L89.0258 786.914ZM93.7258 808.414L93.7258 812.014L101.726 812.014L101.726 808.414L93.7258 808.414ZM93.7258 812.014C93.7258 823.805 91.0668 827.608 89.527 828.84L94.5245 835.087C98.9848 831.519 101.726 824.522 101.726 812.014L93.7258 812.014ZM88.0258 831.964L88.0258 869.764L96.0258 869.764L96.0258 831.964L88.0258 831.964ZM92.4194 873.744C100.206 872.974 108.401 869.665 114.457 860.268C120.335 851.147 123.926 836.698 123.926 814.264L115.926 814.264C115.926 836.079 112.391 848.706 107.732 855.934C103.251 862.887 97.4956 865.203 91.6321 865.783L92.4194 873.744ZM123.926 814.264L123.926 802.714L115.926 802.714L115.926 814.264L123.926 814.264ZM123.926 802.714C123.926 780.108 120.392 765.368 113.999 756.211C107.361 746.702 98.0936 743.814 88.5758 743.814L88.5758 751.814C96.3079 751.814 102.716 754.025 107.44 760.791C112.409 767.909 115.926 780.619 115.926 802.714L123.926 802.714ZM88.5758 743.814L87.2258 743.814L87.2258 751.814L88.5758 751.814L88.5758 743.814ZM87.2258 743.814C78.1606 743.814 69.3424 746.851 62.7902 755.254C56.3954 763.455 52.5635 776.261 52.0274 794.949L60.0241 795.178C60.538 777.266 64.2062 766.448 69.0988 760.173C73.8341 754.101 80.0909 751.814 87.2258 751.814L87.2258 743.814ZM52.0267 794.977L51.5767 815.677L59.5748 815.851L60.0248 795.151L52.0267 794.977ZM51.5771 815.659C51.3541 824.207 50.2989 828.476 49.1322 830.537C48.618 831.445 48.1554 831.79 47.815 831.963C47.4257 832.16 46.8354 832.314 45.8258 832.314L45.8258 840.314C47.5911 840.314 49.5508 840.054 51.4396 839.094C53.3774 838.11 54.921 836.551 56.0943 834.478C58.3026 830.576 59.3474 824.571 59.5744 815.868L51.5771 815.659ZM45.8258 832.314C44.8389 832.314 44.1155 832.183 43.5395 831.924C43.0168 831.69 42.3924 831.251 41.7429 830.245C40.3118 828.027 38.8758 823.232 38.8758 813.214L30.8758 813.214C30.8758 823.595 32.2898 830.35 35.0211 834.583C36.4528 836.801 38.2379 838.313 40.2605 839.222C42.2297 840.107 44.1876 840.314 45.8258 840.314L45.8258 832.314ZM38.8758 813.214L38.8758 810.064L30.8758 810.064L30.8758 813.214L38.8758 813.214ZM38.8758 810.064C38.8758 802.954 39.9806 797.422 41.4746 793.564C43.0474 789.503 44.7802 787.942 45.512 787.614L42.2395 780.314C38.6213 781.936 35.8541 785.925 34.0144 790.675C32.0959 795.63 30.8758 802.173 30.8758 810.064L38.8758 810.064ZM47.8758 783.964L47.8758 746.764L39.8758 746.764L39.8758 783.964L47.8758 783.964ZM43.5621 742.776C36.1245 743.361 26.884 746.099 19.6402 755.586C12.5271 764.903 7.77575 780.172 7.77575 804.814L15.7758 804.814C15.7758 781.005 20.3994 767.775 25.9988 760.441C31.4675 753.279 38.277 751.216 44.1894 750.751L43.5621 742.776ZM7.77575 804.814L7.77575 814.864L15.7758 814.864L15.7758 804.814L7.77575 804.814ZM7.77575 814.864C7.77575 840.043 12.5023 855.435 20.1046 864.545C27.8821 873.865 38.0164 875.864 46.7258 875.864L46.7258 867.864C39.2351 867.864 31.8944 866.187 26.2469 859.42C20.4242 852.442 15.7757 839.335 15.7758 814.864L7.77575 814.864ZM46.7258 875.864L48.5258 875.864L48.5258 867.864L46.7258 867.864L46.7258 875.864ZM48.5258 875.864C58.132 875.864 67.0616 873.29 73.4935 864.721C79.6764 856.484 83.043 843.33 83.5743 823.521L75.5772 823.306C75.0585 842.647 71.7501 853.718 67.0955 859.919C62.6899 865.788 56.6195 867.864 48.5258 867.864L48.5258 875.864Z" fill="#ECECEE" fill-opacity="0.27"/>
<rect x="24" width="2027" height="1185" fill="white"/>
<rect x="9" width="12" height="1185" fill="#950202"/>
<rect x="9" width="12" height="1185" fill="#950202"/>
<path d="M31.5758 165.1L31.5758 220.45L13.2758 228.55L13.2758 264.55L118.126 215.35L118.126 170.95L13.2758 123.4L13.2758 157L31.5758 165.1ZM93.8258 192.55L54.6758 210.1L54.6758 175.3L93.8258 192.55ZM81.3758 382.689L83.1758 382.689C103.726 382.689 118.126 372.339 118.126 336.339L118.126 262.539L13.2758 262.539L13.2758 296.139L45.8258 296.139L45.8258 323.889L13.2758 343.389L13.2758 382.689L49.2758 361.089C54.8258 377.139 66.8258 382.689 81.3758 382.689ZM92.9258 296.139L92.9258 333.489C92.9258 343.989 88.4258 347.739 82.2758 347.739L81.8258 347.739C75.2258 347.739 70.8758 343.989 70.8758 333.489L70.8758 296.139L92.9258 296.139ZM118.126 485.432L118.126 385.082L13.2758 385.082L13.2758 486.332L37.7258 486.332L37.7258 418.382L53.9258 418.382L53.9258 485.882L78.8258 485.882L78.8258 418.382L94.1258 418.382L94.1258 485.432L118.126 485.432ZM77.3258 523.919L13.2758 584.519L13.2758 617.069L118.126 617.069L118.126 584.369L55.2758 584.369L118.126 525.569L118.126 491.219L13.4258 491.219L13.4258 523.919L77.3258 523.919ZM31.5758 656.883L31.5758 712.233L13.2758 720.333L13.2758 756.333L118.126 707.133L118.126 662.733L13.2758 615.183L13.2758 648.783L31.5758 656.883ZM93.8258 684.333L54.6758 701.883L54.6758 667.083L93.8258 684.333ZM79.5758 823.414L80.0258 802.414C80.4758 786.364 84.2258 782.914 89.0258 782.914C94.1258 782.914 97.7258 790.564 97.7258 808.414L97.7258 812.014C97.7258 824.164 95.0258 829.564 92.0258 831.964L92.0258 869.764C105.676 868.414 119.926 858.514 119.926 814.264L119.926 802.714C119.926 758.014 105.826 747.814 88.5758 747.814L87.2258 747.814C71.0258 747.814 57.0758 758.464 56.0258 795.064L55.5758 815.764C55.1258 833.014 51.3758 836.314 45.8258 836.314C40.5758 836.314 34.8758 833.614 34.8758 813.214L34.8758 810.064C34.8758 795.064 39.5258 785.914 43.8758 783.964L43.8758 746.764C30.5258 747.814 11.7758 756.364 11.7758 804.814L11.7758 814.864C11.7757 864.514 30.5257 871.864 46.7258 871.864L48.5258 871.864C66.2258 871.864 78.5258 862.564 79.5758 823.414Z" fill="#CECECE" fill-opacity="0.21"/>
<path d="M31.5758 165.1L35.5758 165.1L35.5758 162.496L33.1948 161.442L31.5758 165.1ZM31.5758 220.45L33.1948 224.108L35.5758 223.054L35.5758 220.45L31.5758 220.45ZM13.2758 228.55L11.6568 224.892L9.27578 225.946L9.27578 228.55L13.2758 228.55ZM13.2758 264.55L9.27578 264.55L9.27577 270.845L14.975 268.171L13.2758 264.55ZM118.126 215.35L119.825 218.971L122.126 217.892L122.126 215.35L118.126 215.35ZM118.126 170.95L122.126 170.95L122.126 168.372L119.778 167.307L118.126 170.95ZM13.2758 123.4L14.9279 119.757L9.27578 117.194L9.27578 123.4L13.2758 123.4ZM13.2758 157L9.27578 157L9.27578 159.604L11.6568 160.658L13.2758 157ZM93.8258 192.55L95.462 196.2L103.675 192.518L95.4386 188.89L93.8258 192.55ZM54.6758 210.1L50.6758 210.1L50.6758 216.277L56.312 213.75L54.6758 210.1ZM54.6758 175.3L56.2886 171.64L50.6758 169.166L50.6758 175.3L54.6758 175.3ZM27.5758 165.1L27.5758 220.45L35.5758 220.45L35.5758 165.1L27.5758 165.1ZM29.9568 216.792L11.6568 224.892L14.8948 232.208L33.1948 224.108L29.9568 216.792ZM9.27578 228.55L9.27578 264.55L17.2758 264.55L17.2758 228.55L9.27578 228.55ZM14.975 268.171L119.825 218.971L116.427 211.729L11.5766 260.929L14.975 268.171ZM122.126 215.35L122.126 170.95L114.126 170.95L114.126 215.35L122.126 215.35ZM119.778 167.307L14.9279 119.757L11.6237 127.043L116.474 174.593L119.778 167.307ZM9.27578 123.4L9.27578 157L17.2758 157L17.2758 123.4L9.27578 123.4ZM11.6568 160.658L29.9568 168.758L33.1948 161.442L14.8948 153.342L11.6568 160.658ZM92.1896 188.9L53.0396 206.45L56.312 213.75L95.462 196.2L92.1896 188.9ZM58.6758 210.1L58.6758 175.3L50.6758 175.3L50.6758 210.1L58.6758 210.1ZM53.0629 178.96L92.2129 196.21L95.4386 188.89L56.2886 171.64L53.0629 178.96ZM118.126 262.539L122.126 262.539L122.126 258.539L118.126 258.539L118.126 262.539ZM13.2758 262.539L13.2758 258.539L9.27578 258.539L9.27578 262.539L13.2758 262.539ZM13.2758 296.139L9.27577 296.139L9.27577 300.139L13.2758 300.139L13.2758 296.139ZM45.8258 296.139L49.8258 296.139L49.8258 292.139L45.8258 292.139L45.8258 296.139ZM45.8258 323.889L47.8814 327.32L49.8258 326.156L49.8258 323.889L45.8258 323.889ZM13.2758 343.389L11.2201 339.958L9.27577 341.123L9.27577 343.389L13.2758 343.389ZM13.2758 382.689L9.27577 382.689L9.27577 389.754L15.3338 386.119L13.2758 382.689ZM49.2758 361.089L53.0561 359.782L51.445 355.123L47.2178 357.659L49.2758 361.089ZM92.9258 296.139L96.9258 296.139L96.9258 292.139L92.9258 292.139L92.9258 296.139ZM70.8758 296.139L70.8758 292.139L66.8758 292.139L66.8758 296.139L70.8758 296.139ZM81.3758 386.689L83.1758 386.689L83.1758 378.689L81.3758 378.689L81.3758 386.689ZM83.1758 386.689C94.0957 386.689 104.164 383.924 111.374 375.64C118.466 367.492 122.126 354.746 122.126 336.339L114.126 336.339C114.126 353.932 110.585 364.361 105.34 370.388C100.212 376.279 92.8058 378.689 83.1758 378.689L83.1758 386.689ZM122.126 336.339L122.126 262.539L114.126 262.539L114.126 336.339L122.126 336.339ZM118.126 258.539L13.2758 258.539L13.2758 266.539L118.126 266.539L118.126 258.539ZM9.27578 262.539L9.27577 296.139L17.2758 296.139L17.2758 262.539L9.27578 262.539ZM13.2758 300.139L45.8258 300.139L45.8258 292.139L13.2758 292.139L13.2758 300.139ZM41.8258 296.139L41.8258 323.889L49.8258 323.889L49.8258 296.139L41.8258 296.139ZM43.7701 320.458L11.2201 339.958L15.3314 346.82L47.8814 327.32L43.7701 320.458ZM9.27577 343.389L9.27577 382.689L17.2758 382.689L17.2758 343.389L9.27577 343.389ZM15.3338 386.119L51.3338 364.519L47.2178 357.659L11.2178 379.259L15.3338 386.119ZM45.4954 362.396C48.5322 371.178 53.456 377.375 59.8537 381.314C66.1863 385.213 73.6199 386.689 81.3758 386.689L81.3758 378.689C74.5816 378.689 68.7402 377.39 64.0478 374.502C59.4205 371.653 55.5694 367.05 53.0561 359.782L45.4954 362.396ZM88.9258 296.139L88.9258 333.489L96.9258 333.489L96.9258 296.139L88.9258 296.139ZM88.9258 333.489C88.9258 338.257 87.8915 340.734 86.8467 341.976C85.9071 343.092 84.5094 343.739 82.2758 343.739L82.2758 351.739C86.1922 351.739 90.1195 350.511 92.9673 347.127C95.71 343.869 96.9258 339.221 96.9258 333.489L88.9258 333.489ZM82.2758 343.739L81.8258 343.739L81.8258 351.739L82.2758 351.739L82.2758 343.739ZM81.8258 343.739C79.2921 343.739 77.8469 343.047 76.9235 341.961C75.887 340.742 74.8758 338.291 74.8758 333.489L66.8758 333.489C66.8758 339.187 68.0395 343.862 70.828 347.142C73.7297 350.556 77.7595 351.739 81.8258 351.739L81.8258 343.739ZM74.8758 333.489L74.8758 296.139L66.8758 296.139L66.8758 333.489L74.8758 333.489ZM70.8758 300.139L92.9258 300.139L92.9258 292.139L70.8758 292.139L70.8758 300.139ZM118.126 485.432L118.126 489.432L122.126 489.432L122.126 485.432L118.126 485.432ZM118.126 385.082L122.126 385.082L122.126 381.082L118.126 381.082L118.126 385.082ZM13.2758 385.082L13.2758 381.082L9.27577 381.082L9.27577 385.082L13.2758 385.082ZM13.2758 486.332L9.27577 486.332L9.27577 490.332L13.2758 490.332L13.2758 486.332ZM37.7258 486.332L37.7258 490.332L41.7258 490.332L41.7258 486.332L37.7258 486.332ZM37.7258 418.382L37.7258 414.382L33.7258 414.382L33.7258 418.382L37.7258 418.382ZM53.9258 418.382L57.9258 418.382L57.9258 414.382L53.9258 414.382L53.9258 418.382ZM53.9258 485.882L49.9258 485.882L49.9258 489.882L53.9258 489.882L53.9258 485.882ZM78.8258 485.882L78.8258 489.882L82.8258 489.882L82.8258 485.882L78.8258 485.882ZM78.8258 418.382L78.8258 414.382L74.8258 414.382L74.8258 418.382L78.8258 418.382ZM94.1258 418.382L98.1258 418.382L98.1258 414.382L94.1258 414.382L94.1258 418.382ZM94.1258 485.432L90.1258 485.432L90.1258 489.432L94.1258 489.432L94.1258 485.432ZM122.126 485.432L122.126 385.082L114.126 385.082L114.126 485.432L122.126 485.432ZM118.126 381.082L13.2758 381.082L13.2758 389.082L118.126 389.082L118.126 381.082ZM9.27577 385.082L9.27577 486.332L17.2758 486.332L17.2758 385.082L9.27577 385.082ZM13.2758 490.332L37.7258 490.332L37.7258 482.332L13.2758 482.332L13.2758 490.332ZM41.7258 486.332L41.7258 418.382L33.7258 418.382L33.7258 486.332L41.7258 486.332ZM37.7258 422.382L53.9258 422.382L53.9258 414.382L37.7258 414.382L37.7258 422.382ZM49.9258 418.382L49.9258 485.882L57.9258 485.882L57.9258 418.382L49.9258 418.382ZM53.9258 489.882L78.8258 489.882L78.8258 481.882L53.9258 481.882L53.9258 489.882ZM82.8258 485.882L82.8258 418.382L74.8258 418.382L74.8258 485.882L82.8258 485.882ZM78.8258 422.382L94.1258 422.382L94.1258 414.382L78.8258 414.382L78.8258 422.382ZM90.1258 418.382L90.1258 485.432L98.1258 485.432L98.1258 418.382L90.1258 418.382ZM94.1258 489.432L118.126 489.432L118.126 481.432L94.1258 481.432L94.1258 489.432ZM77.3258 523.919L80.0749 526.824L87.3736 519.919L77.3258 519.919L77.3258 523.919ZM13.2758 584.519L10.5267 581.613L9.27576 582.797L9.27576 584.519L13.2758 584.519ZM13.2758 617.069L9.27576 617.069L9.27576 621.069L13.2758 621.069L13.2758 617.069ZM118.126 617.069L118.126 621.069L122.126 621.069L122.126 617.069L118.126 617.069ZM118.126 584.369L122.126 584.369L122.126 580.369L118.126 580.369L118.126 584.369ZM55.2758 584.369L52.543 581.448L45.1453 588.369L55.2758 588.369L55.2758 584.369ZM118.126 525.569L120.859 528.49L122.126 527.304L122.126 525.569L118.126 525.569ZM118.126 491.219L122.126 491.219L122.126 487.219L118.126 487.219L118.126 491.219ZM13.4258 491.219L13.4258 487.219L9.42577 487.219L9.42577 491.219L13.4258 491.219ZM13.4258 523.919L9.42576 523.919L9.42576 527.919L13.4258 527.919L13.4258 523.919ZM74.5767 521.013L10.5267 581.613L16.0249 587.424L80.0749 526.824L74.5767 521.013ZM9.27576 584.519L9.27576 617.069L17.2758 617.069L17.2758 584.519L9.27576 584.519ZM13.2758 621.069L118.126 621.069L118.126 613.069L13.2758 613.069L13.2758 621.069ZM122.126 617.069L122.126 584.369L114.126 584.369L114.126 617.069L122.126 617.069ZM118.126 580.369L55.2758 580.369L55.2758 588.369L118.126 588.369L118.126 580.369ZM58.0085 587.29L120.859 528.49L115.393 522.648L52.543 581.448L58.0085 587.29ZM122.126 525.569L122.126 491.219L114.126 491.219L114.126 525.569L122.126 525.569ZM118.126 487.219L13.4258 487.219L13.4258 495.219L118.126 495.219L118.126 487.219ZM9.42577 491.219L9.42576 523.919L17.4258 523.919L17.4258 491.219L9.42577 491.219ZM13.4258 527.919L77.3258 527.919L77.3258 519.919L13.4258 519.919L13.4258 527.919ZM31.5758 656.883L35.5758 656.883L35.5758 654.279L33.1947 653.225L31.5758 656.883ZM31.5758 712.233L33.1947 715.891L35.5758 714.837L35.5758 712.233L31.5758 712.233ZM13.2758 720.333L11.6568 716.675L9.27576 717.729L9.27576 720.333L13.2758 720.333ZM13.2758 756.333L9.27575 756.333L9.27575 762.629L14.9749 759.954L13.2758 756.333ZM118.126 707.133L119.825 710.754L122.126 709.675L122.126 707.133L118.126 707.133ZM118.126 662.733L122.126 662.733L122.126 660.155L119.778 659.09L118.126 662.733ZM13.2758 615.183L14.9278 611.54L9.27576 608.977L9.27576 615.183L13.2758 615.183ZM13.2758 648.783L9.27576 648.783L9.27576 651.387L11.6568 652.441L13.2758 648.783ZM93.8258 684.333L95.462 687.983L103.675 684.302L95.4386 680.673L93.8258 684.333ZM54.6758 701.883L50.6758 701.883L50.6758 708.06L56.312 705.533L54.6758 701.883ZM54.6758 667.083L56.2886 663.423L50.6758 660.95L50.6758 667.083L54.6758 667.083ZM27.5758 656.883L27.5758 712.233L35.5758 712.233L35.5758 656.883L27.5758 656.883ZM29.9568 708.575L11.6568 716.675L14.8947 723.991L33.1947 715.891L29.9568 708.575ZM9.27576 720.333L9.27575 756.333L17.2758 756.333L17.2758 720.333L9.27576 720.333ZM14.9749 759.954L119.825 710.754L116.427 703.512L11.5766 752.712L14.9749 759.954ZM122.126 707.133L122.126 662.733L114.126 662.733L114.126 707.133L122.126 707.133ZM119.778 659.09L14.9278 611.54L11.6237 618.826L116.474 666.376L119.778 659.09ZM9.27576 615.183L9.27576 648.783L17.2758 648.783L17.2758 615.183L9.27576 615.183ZM11.6568 652.441L29.9568 660.541L33.1947 653.225L14.8947 645.125L11.6568 652.441ZM92.1895 680.683L53.0395 698.233L56.312 705.533L95.462 687.983L92.1895 680.683ZM58.6758 701.883L58.6758 667.083L50.6758 667.083L50.6758 701.883L58.6758 701.883ZM53.0629 670.744L92.2129 687.994L95.4386 680.673L56.2886 663.423L53.0629 670.744ZM79.5758 823.414L83.5743 823.521L83.5746 823.51L83.5748 823.499L79.5758 823.414ZM80.0258 802.414L76.0273 802.302L76.027 802.315L76.0267 802.328L80.0258 802.414ZM92.0258 831.964L89.527 828.84L88.0258 830.041L88.0258 831.964L92.0258 831.964ZM92.0258 869.764L88.0258 869.764L88.0258 874.179L92.4194 873.744L92.0258 869.764ZM56.0258 795.064L52.0274 794.949L52.027 794.963L52.0267 794.977L56.0258 795.064ZM55.5758 815.764L59.5744 815.868L59.5746 815.859L59.5748 815.851L55.5758 815.764ZM43.8758 783.964L45.512 787.614L47.8758 786.554L47.8758 783.964L43.8758 783.964ZM43.8758 746.764L47.8758 746.764L47.8758 742.437L43.5621 742.776L43.8758 746.764ZM83.5748 823.499L84.0248 802.499L76.0267 802.328L75.5767 823.328L83.5748 823.499ZM84.0242 802.526C84.2455 794.632 85.2872 790.575 86.3911 788.587C86.8912 787.687 87.3291 787.351 87.6004 787.2C87.8874 787.041 88.307 786.914 89.0258 786.914L89.0258 778.914C87.3445 778.914 85.4953 779.218 83.7152 780.207C81.9193 781.205 80.4915 782.734 79.3979 784.702C77.3143 788.453 76.256 794.145 76.0273 802.302L84.0242 802.526ZM89.0258 786.914C89.0419 786.914 90.2107 786.784 91.5381 790.361C92.8305 793.845 93.7258 799.661 93.7258 808.414L101.726 808.414C101.726 799.316 100.821 792.383 99.0384 787.578C97.2909 782.869 94.1096 778.914 89.0258 778.914L89.0258 786.914ZM93.7258 808.414L93.7258 812.014L101.726 812.014L101.726 808.414L93.7258 808.414ZM93.7258 812.014C93.7258 823.805 91.0668 827.608 89.527 828.84L94.5245 835.087C98.9848 831.519 101.726 824.522 101.726 812.014L93.7258 812.014ZM88.0258 831.964L88.0258 869.764L96.0258 869.764L96.0258 831.964L88.0258 831.964ZM92.4194 873.744C100.206 872.974 108.401 869.665 114.457 860.268C120.335 851.147 123.926 836.698 123.926 814.264L115.926 814.264C115.926 836.079 112.391 848.706 107.732 855.934C103.251 862.887 97.4956 865.203 91.6321 865.783L92.4194 873.744ZM123.926 814.264L123.926 802.714L115.926 802.714L115.926 814.264L123.926 814.264ZM123.926 802.714C123.926 780.108 120.392 765.368 113.999 756.211C107.361 746.702 98.0936 743.814 88.5758 743.814L88.5758 751.814C96.3079 751.814 102.716 754.025 107.44 760.791C112.409 767.909 115.926 780.619 115.926 802.714L123.926 802.714ZM88.5758 743.814L87.2258 743.814L87.2258 751.814L88.5758 751.814L88.5758 743.814ZM87.2258 743.814C78.1606 743.814 69.3424 746.851 62.7902 755.254C56.3954 763.455 52.5635 776.261 52.0274 794.949L60.0241 795.178C60.538 777.266 64.2062 766.448 69.0988 760.173C73.8341 754.101 80.0909 751.814 87.2258 751.814L87.2258 743.814ZM52.0267 794.977L51.5767 815.677L59.5748 815.851L60.0248 795.151L52.0267 794.977ZM51.5771 815.659C51.3541 824.207 50.2989 828.476 49.1322 830.537C48.618 831.445 48.1554 831.79 47.815 831.963C47.4257 832.16 46.8354 832.314 45.8258 832.314L45.8258 840.314C47.5911 840.314 49.5508 840.054 51.4396 839.094C53.3774 838.11 54.921 836.551 56.0943 834.478C58.3026 830.576 59.3474 824.571 59.5744 815.868L51.5771 815.659ZM45.8258 832.314C44.8389 832.314 44.1155 832.183 43.5395 831.924C43.0168 831.69 42.3924 831.251 41.7429 830.245C40.3118 828.027 38.8758 823.232 38.8758 813.214L30.8758 813.214C30.8758 823.595 32.2898 830.35 35.0211 834.583C36.4528 836.801 38.2379 838.313 40.2605 839.222C42.2297 840.107 44.1876 840.314 45.8258 840.314L45.8258 832.314ZM38.8758 813.214L38.8758 810.064L30.8758 810.064L30.8758 813.214L38.8758 813.214ZM38.8758 810.064C38.8758 802.954 39.9806 797.422 41.4746 793.564C43.0474 789.503 44.7802 787.942 45.512 787.614L42.2395 780.314C38.6213 781.936 35.8541 785.925 34.0144 790.675C32.0959 795.63 30.8758 802.173 30.8758 810.064L38.8758 810.064ZM47.8758 783.964L47.8758 746.764L39.8758 746.764L39.8758 783.964L47.8758 783.964ZM43.5621 742.776C36.1245 743.361 26.884 746.099 19.6402 755.586C12.5271 764.903 7.77575 780.172 7.77575 804.814L15.7758 804.814C15.7758 781.005 20.3994 767.775 25.9988 760.441C31.4675 753.279 38.277 751.216 44.1894 750.751L43.5621 742.776ZM7.77575 804.814L7.77575 814.864L15.7758 814.864L15.7758 804.814L7.77575 804.814ZM7.77575 814.864C7.77575 840.043 12.5023 855.435 20.1046 864.545C27.8821 873.865 38.0164 875.864 46.7258 875.864L46.7258 867.864C39.2351 867.864 31.8944 866.187 26.2469 859.42C20.4242 852.442 15.7757 839.335 15.7758 814.864L7.77575 814.864ZM46.7258 875.864L48.5258 875.864L48.5258 867.864L46.7258 867.864L46.7258 875.864ZM48.5258 875.864C58.132 875.864 67.0616 873.29 73.4935 864.721C79.6764 856.484 83.043 843.33 83.5743 823.521L75.5772 823.306C75.0585 842.647 71.7501 853.718 67.0955 859.919C62.6899 865.788 56.6195 867.864 48.5258 867.864L48.5258 875.864Z" fill="#ECECEE" fill-opacity="0.27"/>
</svg>
