<svg width="104" height="327" viewBox="0 0 104 327" fill="none" xmlns="http://www.w3.org/2000/svg">
<g clip-path="url(#clip0_136_72)">
<path d="M3.28933 149.011C2.06416 149.006 0.864906 149.394 -0.156919 150.128C-1.17874 150.862 -1.97729 151.908 -2.45166 153.135C-2.92603 154.361 -3.05495 155.713 -2.82212 157.019C-2.58929 158.325 -2.00517 159.526 -1.14355 160.472C-0.281926 161.418 0.818513 162.065 2.01877 162.332C3.21903 162.599 4.46524 162.473 5.59994 161.972C6.73465 161.47 7.70695 160.615 8.39398 159.513C9.08101 158.412 9.45196 157.114 9.45996 155.784C9.46358 153.999 8.81677 152.285 7.66069 151.016C6.50461 149.748 4.93315 149.027 3.28933 149.011Z" fill="#1A191A" fill-opacity="0.22"/>
<path d="M3.23555 164.443C2.01038 164.449 0.814258 164.849 -0.201665 165.593C-1.21759 166.336 -2.00772 167.39 -2.47227 168.621C-2.93682 169.852 -3.05493 171.204 -2.81167 172.508C-2.5684 173.812 -1.9747 175.008 -1.10554 175.945C-0.236389 176.883 0.869219 177.52 2.07157 177.775C3.27393 178.031 4.51909 177.894 5.64974 177.382C6.78039 176.869 7.74579 176.005 8.42398 174.897C9.10217 173.789 9.46272 172.488 9.46007 171.158C9.44588 169.374 8.78425 167.669 7.61884 166.412C6.45343 165.154 4.87834 164.447 3.23555 164.443Z" fill="#1A191A" fill-opacity="0.22"/>
<path d="M3.43753 180.051C2.24042 180.02 1.0616 180.374 0.0503938 181.071C-0.960817 181.767 -1.75892 182.774 -2.24283 183.963C-2.72674 185.152 -2.87469 186.47 -2.66793 187.751C-2.46116 189.032 -1.90899 190.217 -1.08135 191.156C-0.25372 192.096 0.81213 192.748 1.98122 193.029C3.1503 193.31 4.37002 193.209 5.48586 192.737C6.60171 192.265 7.56347 191.445 8.24935 190.379C8.93523 189.313 9.31435 188.05 9.33871 186.751C9.35839 185.889 9.22115 185.033 8.93488 184.229C8.64862 183.426 8.21896 182.692 7.6706 182.069C7.12224 181.447 6.466 180.948 5.73955 180.602C5.01311 180.255 4.23078 180.068 3.43753 180.051Z" fill="#1A191A" fill-opacity="0.22"/>
<path d="M3.28934 146.803C4.47696 146.791 5.63494 146.399 6.61762 145.674C7.60031 144.95 8.36382 143.927 8.81218 142.733C9.26054 141.539 9.37373 140.227 9.13748 138.964C8.90122 137.7 8.32609 136.54 7.48442 135.631C6.64274 134.721 5.5721 134.102 4.40713 133.851C3.24216 133.6 2.03488 133.729 0.937097 134.221C-0.160686 134.713 -1.09995 135.546 -1.76258 136.616C-2.4252 137.686 -2.78161 138.945 -2.78697 140.235C-2.79239 141.101 -2.63872 141.961 -2.33494 142.762C-2.03116 143.563 -1.58336 144.291 -1.01767 144.902C-0.451995 145.514 0.220212 145.997 0.959711 146.323C1.69921 146.649 2.49117 146.812 3.28934 146.803Z" fill="#1A191A" fill-opacity="0.22"/>
<path d="M3.27593 195.82C2.12364 195.817 0.996474 196.185 0.0372634 196.879C-0.921948 197.572 -1.67004 198.559 -2.11224 199.714C-2.55443 200.869 -2.67083 202.141 -2.44668 203.368C-2.22253 204.595 -1.66793 205.722 -0.853131 206.607C-0.0383325 207.492 1 208.094 2.13029 208.337C3.26058 208.581 4.43196 208.454 5.49603 207.974C6.56011 207.494 7.46899 206.682 8.10751 205.64C8.74604 204.599 9.08546 203.375 9.08279 202.124C9.06874 200.457 8.45244 198.862 7.36647 197.683C6.28051 196.504 4.81166 195.835 3.27593 195.82Z" fill="#1A191A" fill-opacity="0.22"/>
<path d="M3.26253 131.297C4.4112 131.297 5.53391 130.926 6.48804 130.232C7.44216 129.538 8.18461 128.551 8.62105 127.397C9.05748 126.244 9.16821 124.975 8.93916 123.753C8.71011 122.531 8.15161 121.411 7.33464 120.534C6.51767 119.657 5.4791 119.064 4.35089 118.83C3.22269 118.595 2.05577 118.73 0.998418 119.218C-0.0589373 119.705 -0.959014 120.523 -1.58742 121.566C-2.21584 122.61 -2.54421 123.834 -2.53086 125.081C-2.50278 126.732 -1.88129 128.307 -0.798979 129.468C0.283336 130.63 1.74081 131.286 3.26253 131.297Z" fill="#1A191A" fill-opacity="0.22"/>
<path d="M17.261 165.014C16.1392 165.023 15.0449 165.392 14.1166 166.076C13.1884 166.76 12.4677 167.727 12.0458 168.856C11.6239 169.985 11.5197 171.224 11.7464 172.416C11.9731 173.609 12.5205 174.702 13.3194 175.557C14.1183 176.413 15.1328 176.991 16.2346 177.22C17.3364 177.449 18.476 177.319 19.5094 176.845C20.5427 176.37 21.4234 175.574 22.04 174.557C22.6566 173.539 22.9815 172.346 22.9735 171.128C22.97 170.319 22.8192 169.518 22.5299 168.773C22.2406 168.027 21.8184 167.35 21.2876 166.782C20.7568 166.214 20.1278 165.765 19.4368 165.462C18.7458 165.158 18.0063 165.006 17.261 165.014Z" fill="#1A191A" fill-opacity="0.22"/>
<path d="M17.4225 149.582C16.305 149.588 15.2142 149.952 14.2875 150.63C13.3607 151.308 12.6396 152.269 12.2151 153.391C11.7905 154.513 11.6815 155.747 11.9018 156.936C12.1221 158.126 12.6618 159.218 13.4529 160.075C14.244 160.932 15.251 161.515 16.3471 161.751C17.4431 161.988 18.5791 161.866 19.6117 161.403C20.6444 160.939 21.5275 160.154 22.1497 159.146C22.7719 158.138 23.1054 156.953 23.108 155.74C23.108 154.93 22.9609 154.128 22.675 153.38C22.3891 152.632 21.9701 151.952 21.442 151.38C20.9138 150.808 20.2869 150.355 19.5972 150.046C18.9075 149.738 18.1685 149.58 17.4225 149.582Z" fill="#1A191A" fill-opacity="0.22"/>
<path d="M17.3417 180.592C16.2438 180.587 15.1691 180.934 14.2533 181.592C13.3375 182.249 12.6219 183.187 12.1968 184.286C11.7718 185.385 11.6564 186.596 11.8654 187.766C12.0743 188.936 12.5982 190.013 13.3707 190.86C14.1432 191.706 15.1297 192.286 16.2054 192.524C17.2811 192.762 18.3977 192.649 19.4141 192.198C20.4304 191.747 21.3008 190.979 21.9151 189.991C22.5295 189.004 22.8602 187.84 22.8656 186.648C22.8727 185.856 22.7351 185.07 22.4607 184.335C22.1863 183.601 21.7805 182.933 21.2669 182.37C20.7532 181.806 20.1418 181.359 19.4681 181.054C18.7944 180.749 18.0716 180.592 17.3417 180.592Z" fill="#1A191A" fill-opacity="0.22"/>
<path d="M17.5303 146.261C18.6228 146.267 19.6923 145.921 20.6037 145.267C21.515 144.613 22.2272 143.68 22.6503 142.586C23.0733 141.493 23.188 140.287 22.9801 139.123C22.7722 137.958 22.2509 136.887 21.4822 136.044C20.7134 135.201 19.7317 134.625 18.6613 134.388C17.5908 134.151 16.4796 134.264 15.4682 134.712C14.4568 135.161 13.5907 135.925 12.9793 136.908C12.3678 137.891 12.0387 139.049 12.0333 140.235C12.0226 141.025 12.157 141.809 12.4287 142.541C12.7005 143.274 13.1041 143.94 13.616 144.501C14.1279 145.063 14.7377 145.507 15.4098 145.81C16.082 146.112 16.8028 146.265 17.5303 146.261Z" fill="#1A191A" fill-opacity="0.22"/>
<path d="M3.22213 211.398C2.14183 211.407 1.08824 211.764 0.194859 212.423C-0.698517 213.083 -1.39148 214.015 -1.79622 215.103C-2.20095 216.19 -2.29923 217.384 -2.07862 218.532C-1.85802 219.68 -1.32847 220.731 -0.557034 221.552C0.214399 222.374 1.19298 222.928 2.2547 223.144C3.31643 223.361 4.41352 223.231 5.40696 222.77C6.4004 222.309 7.24547 221.538 7.8351 220.555C8.42474 219.573 8.73239 218.422 8.71908 217.249C8.69086 215.687 8.09929 214.199 7.07145 213.105C6.04361 212.01 4.66153 211.398 3.22213 211.398Z" fill="#1A191A" fill-opacity="0.22"/>
<path d="M3.24905 115.47C4.3103 115.47 5.34787 115.13 6.23163 114.492C7.11539 113.854 7.80602 112.947 8.21689 111.885C8.62776 110.822 8.74059 109.652 8.54123 108.52C8.34188 107.388 7.83921 106.346 7.09626 105.523C6.35332 104.7 5.40315 104.134 4.36495 103.895C3.32675 103.656 2.24673 103.756 1.2603 104.181C0.273877 104.606 -0.575042 105.337 -1.17997 106.284C-1.7849 107.231 -2.11891 108.35 -2.14014 109.502C-2.13697 111.064 -1.57152 112.562 -0.564561 113.677C0.442396 114.792 1.81104 115.436 3.24905 115.47Z" fill="#1A191A" fill-opacity="0.22"/>
<path d="M17.3282 196.302C16.2783 196.299 15.2512 196.635 14.3767 197.266C13.5023 197.896 12.8198 198.795 12.4156 199.847C12.0114 200.899 11.9035 202.057 12.1057 203.176C12.3079 204.294 12.8111 205.322 13.5516 206.131C14.2921 206.939 15.2367 207.49 16.2659 207.715C17.2951 207.941 18.3627 207.829 19.3337 207.396C20.3047 206.962 21.1354 206.226 21.7209 205.28C22.3064 204.334 22.6204 203.22 22.6231 202.08C22.632 201.321 22.5014 200.568 22.2388 199.864C21.9763 199.161 21.587 198.521 21.0939 197.983C20.6008 197.445 20.0137 197.019 19.3671 196.731C18.7205 196.442 18.0273 196.296 17.3282 196.302Z" fill="#1A191A" fill-opacity="0.22"/>
<path d="M17.4226 130.771C18.4739 130.797 19.5085 130.483 20.3954 129.87C21.2822 129.256 21.9813 128.371 22.4039 127.325C22.8266 126.28 22.9537 125.122 22.7693 123.998C22.5848 122.874 22.097 121.835 21.3678 121.012C20.6386 120.19 19.7008 119.621 18.6734 119.378C17.646 119.135 16.5752 119.228 15.5969 119.647C14.6186 120.066 13.7769 120.79 13.1784 121.729C12.5799 122.668 12.2518 123.778 12.2355 124.92C12.2102 126.442 12.7422 127.913 13.7146 129.01C14.6871 130.107 16.0206 130.74 17.4226 130.771Z" fill="#1A191A" fill-opacity="0.22"/>
<path d="M31.5558 165.614C30.5409 165.608 29.5474 165.93 28.7013 166.538C27.8553 167.147 27.1949 168.015 26.8041 169.031C26.4132 170.048 26.3096 171.168 26.5063 172.249C26.7029 173.33 27.1911 174.323 27.9087 175.103C28.6263 175.882 29.5411 176.412 30.5367 176.625C31.5323 176.839 32.5639 176.726 33.5005 176.302C34.4371 175.878 35.2365 175.161 35.797 174.242C36.3575 173.323 36.6539 172.245 36.6486 171.143C36.6415 169.679 36.1027 168.277 35.1491 167.242C34.1955 166.206 32.9043 165.621 31.5558 165.614Z" fill="#1A191A" fill-opacity="0.22"/>
<path d="M31.6231 150.167C30.6122 150.15 29.6193 150.459 28.7703 151.054C27.9212 151.65 27.2542 152.507 26.8538 153.515C26.4534 154.522 26.3376 155.637 26.5211 156.716C26.7045 157.796 27.1791 158.792 27.8844 159.578C28.5898 160.364 29.4944 160.906 30.4834 161.133C31.4725 161.361 32.5015 161.265 33.4401 160.857C34.3787 160.449 35.1847 159.748 35.7559 158.842C36.3271 157.936 36.6377 156.867 36.6485 155.769C36.663 154.304 36.1424 152.892 35.2007 151.842C34.259 150.792 32.9727 150.19 31.6231 150.167Z" fill="#1A191A" fill-opacity="0.22"/>
<path d="M3.28944 227.284C2.2902 227.278 1.31183 227.594 0.478036 228.192C-0.35576 228.79 -1.00752 229.643 -1.39483 230.643C-1.78214 231.643 -1.88762 232.745 -1.6979 233.81C-1.50818 234.876 -1.0318 235.856 -0.328994 236.627C0.373809 237.398 1.27147 237.926 2.25048 238.143C3.22948 238.36 4.24586 238.258 5.17109 237.848C6.09631 237.438 6.88882 236.74 7.44841 235.841C8.008 234.942 8.30953 233.883 8.31488 232.798C8.31848 231.345 7.79188 229.949 6.85019 228.915C5.9085 227.882 4.62831 227.295 3.28944 227.284Z" fill="#1A191A" fill-opacity="0.22"/>
<path d="M17.4226 211.91C16.433 211.882 15.4578 212.172 14.6201 212.745C13.7824 213.317 13.1196 214.147 12.7154 215.128C12.3112 216.109 12.1837 217.198 12.3488 218.258C12.514 219.317 12.9646 220.3 13.6436 221.082C14.3226 221.864 15.1998 222.41 16.1644 222.652C17.129 222.893 18.1379 222.819 19.0638 222.439C19.9897 222.059 20.7911 221.389 21.367 220.515C21.9429 219.641 22.2675 218.601 22.2997 217.527C22.3231 216.809 22.2151 216.094 21.9819 215.422C21.7488 214.75 21.3951 214.135 20.9415 213.613C20.4879 213.09 19.9432 212.671 19.3392 212.379C18.7352 212.086 18.0837 211.927 17.4226 211.91Z" fill="#1A191A" fill-opacity="0.22"/>
<path d="M31.5691 181.192C30.5751 181.183 29.601 181.496 28.7709 182.09C27.9408 182.684 27.2922 183.532 26.9074 184.527C26.5227 185.523 26.4192 186.62 26.6102 187.679C26.8012 188.738 27.278 189.712 27.98 190.476C28.682 191.24 29.5775 191.76 30.5526 191.971C31.5277 192.181 32.5383 192.072 33.456 191.656C34.3737 191.241 35.157 190.539 35.7063 189.64C36.2555 188.74 36.546 187.684 36.5407 186.604C36.5407 185.171 36.0173 183.797 35.0854 182.782C34.1534 181.768 32.8889 181.196 31.5691 181.192Z" fill="#1A191A" fill-opacity="0.22"/>
<path d="M17.4899 114.958C18.4737 114.961 19.4362 114.647 20.2556 114.056C21.0749 113.464 21.7142 112.622 22.0925 111.636C22.4709 110.65 22.5713 109.565 22.381 108.517C22.1907 107.469 21.7182 106.506 21.0235 105.749C20.3288 104.993 19.4429 104.477 18.4782 104.268C17.5134 104.058 16.5132 104.165 15.6039 104.573C14.6947 104.981 13.9175 105.673 13.3706 106.56C12.8237 107.448 12.5318 108.493 12.5318 109.561C12.5246 110.27 12.6478 110.975 12.8943 111.632C13.1407 112.29 13.5055 112.887 13.9671 113.39C14.4288 113.892 14.9781 114.29 15.583 114.559C16.1878 114.828 16.8361 114.964 17.4899 114.958Z" fill="#1A191A" fill-opacity="0.22"/>
<path d="M3.24887 99.5116C4.23214 99.5145 5.19411 99.2007 6.01315 98.61C6.83219 98.0193 7.47151 97.1782 7.85025 96.1931C8.22899 95.2079 8.33015 94.1229 8.14094 93.0753C7.95173 92.0277 7.48064 91.0646 6.78725 90.3077C6.09386 89.5508 5.2093 89.0341 4.24544 88.823C3.28159 88.6119 2.2817 88.7158 1.37226 89.1217C0.462816 89.5276 -0.315355 90.2171 -0.863848 91.1031C-1.41234 91.9891 -1.70651 93.0318 -1.70918 94.0993C-1.71634 94.8098 -1.5932 95.5147 -1.3469 96.1729C-1.10061 96.8311 -0.736104 97.4296 -0.274632 97.9333C0.186841 98.4371 0.736055 98.836 1.34099 99.107C1.94593 99.378 2.59448 99.5155 3.24887 99.5116Z" fill="#1A191A" fill-opacity="0.22"/>
<path d="M31.5691 145.662C32.5524 145.656 33.5119 145.334 34.3265 144.736C35.1411 144.138 35.7741 143.291 36.1454 142.303C36.5168 141.314 36.6098 140.228 36.4128 139.182C36.2157 138.137 35.7374 137.178 35.0384 136.427C34.3394 135.676 33.451 135.167 32.4856 134.965C31.5202 134.762 30.5211 134.875 29.6147 135.289C28.7084 135.703 27.9354 136.399 27.3935 137.29C26.8517 138.181 26.5653 139.226 26.5706 140.293C26.5688 141.004 26.6972 141.708 26.9484 142.364C27.1996 143.02 27.5686 143.615 28.0339 144.115C28.4991 144.614 29.0513 145.008 29.6582 145.274C30.2652 145.54 30.9148 145.671 31.5691 145.662Z" fill="#1A191A" fill-opacity="0.22"/>
<path d="M31.6231 196.858C30.6746 196.841 29.7428 197.13 28.9454 197.687C28.148 198.245 27.5208 199.047 27.1431 199.992C26.7654 200.936 26.6543 201.982 26.8237 202.995C26.9931 204.008 27.4354 204.944 28.0947 205.685C28.7541 206.425 29.6008 206.936 30.5279 207.154C31.455 207.372 32.4208 207.287 33.3032 206.909C34.1856 206.531 34.9449 205.878 35.4852 205.031C36.0255 204.185 36.3225 203.183 36.3386 202.153C36.3566 201.468 36.2481 200.785 36.0195 200.145C35.7909 199.505 35.4469 198.921 35.0076 198.428C34.5682 197.935 34.0425 197.542 33.4613 197.272C32.8801 197.003 32.2551 196.862 31.6231 196.858Z" fill="#1A191A" fill-opacity="0.22"/>
<path d="M31.5828 130.215C32.532 130.209 33.4582 129.898 34.2443 129.32C35.0303 128.742 35.6408 127.924 35.9985 126.97C36.3562 126.015 36.4449 124.967 36.2535 123.958C36.0621 122.948 35.5992 122.023 34.9233 121.3C34.2474 120.576 33.389 120.086 32.4567 119.893C31.5244 119.699 30.5601 119.81 29.686 120.212C28.8119 120.614 28.0672 121.288 27.5463 122.149C27.0253 123.011 26.7515 124.021 26.7594 125.051C26.7576 125.736 26.8815 126.415 27.1241 127.047C27.3667 127.679 27.723 128.252 28.1721 128.733C28.6213 129.214 29.1543 129.593 29.7399 129.847C30.3256 130.102 30.9521 130.227 31.5828 130.215Z" fill="#1A191A" fill-opacity="0.22"/>
<path d="M17.3417 227.766C16.431 227.758 15.5384 228.042 14.7766 228.584C14.0148 229.126 13.4179 229.901 13.0615 230.811C12.705 231.721 12.6049 232.725 12.7738 233.696C12.9426 234.668 13.3729 235.564 14.0103 236.27C14.6477 236.976 15.4635 237.462 16.3549 237.665C17.2462 237.868 18.1729 237.78 19.0181 237.411C19.8633 237.043 20.589 236.411 21.1035 235.595C21.6181 234.779 21.8984 233.816 21.9091 232.827C21.9235 232.167 21.8159 231.51 21.5926 230.896C21.3694 230.282 21.035 229.722 20.6093 229.25C20.1835 228.779 19.6751 228.404 19.1138 228.149C18.5526 227.894 17.9501 227.764 17.3417 227.766Z" fill="#1A191A" fill-opacity="0.22"/>
<path d="M17.4225 99.0874C18.3295 99.0989 19.2193 98.8178 19.9791 98.2797C20.7389 97.7416 21.3344 96.9707 21.6901 96.0648C22.0459 95.1588 22.1459 94.1585 21.9774 93.1908C21.809 92.2231 21.3797 91.3314 20.7439 90.6289C20.1082 89.9263 19.2947 89.4445 18.4064 89.2445C17.5182 89.0446 16.5953 89.1354 15.7546 89.5056C14.914 89.8757 14.1935 90.5085 13.6845 91.3237C13.1755 92.1389 12.9009 93.0999 12.8955 94.0847C12.8866 94.737 12.997 95.3847 13.2204 95.9902C13.4437 96.5958 13.7755 97.1473 14.1966 97.6126C14.6177 98.0779 15.1196 98.4479 15.6734 98.701C16.2271 98.9542 16.8216 99.0855 17.4225 99.0874Z" fill="#1A191A" fill-opacity="0.22"/>
<path d="M31.6232 212.378C30.7215 212.361 29.8355 212.635 29.0773 213.165C28.3191 213.695 27.7229 214.457 27.3643 215.355C27.0057 216.254 26.9008 217.247 27.063 218.211C27.2252 219.174 27.647 220.063 28.2752 220.765C28.9033 221.468 29.7094 221.952 30.5912 222.156C31.4731 222.361 32.3911 222.277 33.2288 221.914C34.0665 221.552 34.7862 220.927 35.2966 220.12C35.8071 219.313 36.0854 218.36 36.0962 217.381C36.1036 216.077 35.639 214.822 34.8023 213.886C33.9657 212.95 32.824 212.409 31.6232 212.378Z" fill="#1A191A" fill-opacity="0.22"/>
<path d="M3.27583 243.286C2.37401 243.283 1.49172 243.571 0.740781 244.113C-0.0101602 244.656 -0.595933 245.428 -0.942274 246.332C-1.28861 247.236 -1.37994 248.231 -1.20466 249.191C-1.02938 250.152 -0.595383 251.034 0.0422971 251.726C0.679978 252.419 1.49263 252.89 2.37725 253.08C3.26187 253.27 4.17863 253.171 5.01129 252.795C5.84394 252.419 6.55502 251.783 7.05437 250.968C7.55373 250.153 7.81888 249.195 7.81622 248.216C7.81266 246.91 7.33317 245.658 6.48245 244.734C5.63173 243.811 4.47892 243.29 3.27583 243.286Z" fill="#1A191A" fill-opacity="0.22"/>
<path d="M31.5693 114.476C32.4634 114.47 33.336 114.177 34.0769 113.633C34.8178 113.09 35.3938 112.32 35.7323 111.421C36.0708 110.523 36.1567 109.536 35.9789 108.584C35.8012 107.633 35.368 106.76 34.7338 106.075C34.0997 105.391 33.293 104.926 32.4156 104.738C31.5382 104.551 30.6294 104.65 29.8038 105.023C28.9781 105.396 28.2727 106.026 27.7765 106.833C27.2802 107.641 27.0154 108.59 27.0154 109.561C27.026 110.866 27.5101 112.114 28.3626 113.034C29.215 113.954 30.3672 114.472 31.5693 114.476Z" fill="#1A191A" fill-opacity="0.22"/>
<path d="M45.7833 150.811C44.8885 150.808 44.013 151.093 43.2674 151.63C42.5218 152.167 41.9394 152.932 41.594 153.828C41.2485 154.724 41.1554 155.711 41.3263 156.665C41.4973 157.618 41.9247 158.495 42.5546 159.185C43.1845 159.875 43.9885 160.347 44.8652 160.541C45.742 160.735 46.652 160.643 47.4804 160.276C48.3089 159.909 49.0185 159.283 49.5198 158.479C50.021 157.674 50.2914 156.726 50.2967 155.755C50.2968 154.451 49.8225 153.2 48.9772 152.274C48.1319 151.348 46.984 150.822 45.7833 150.811Z" fill="#1A191A" fill-opacity="0.22"/>
<path d="M45.7158 166.257C44.8211 166.26 43.9472 166.551 43.2045 167.093C42.4618 167.635 41.8837 168.403 41.5431 169.301C41.2026 170.2 41.1148 171.188 41.291 172.14C41.4672 173.092 41.8994 173.967 42.533 174.653C43.1667 175.339 43.9733 175.805 44.8511 175.994C45.7289 176.182 46.6384 176.084 47.4648 175.712C48.2912 175.339 48.9974 174.709 49.4942 173.901C49.991 173.093 50.2562 172.144 50.2562 171.172C50.2491 169.869 49.768 168.621 48.9177 167.7C48.0674 166.78 46.9166 166.261 45.7158 166.257Z" fill="#1A191A" fill-opacity="0.22"/>
<path d="M3.27599 83.5821C4.17018 83.5792 5.04355 83.2889 5.78593 82.7477C6.52831 82.2065 7.10644 81.4388 7.4474 80.5413C7.78836 79.6438 7.87687 78.6568 7.70177 77.7048C7.52666 76.7528 7.0958 75.8784 6.46351 75.1919C5.83122 74.5054 5.02585 74.0376 4.14897 73.8475C3.27209 73.6574 2.36299 73.7535 1.53636 74.1237C0.709721 74.4939 0.00256848 75.1216 -0.495879 75.9276C-0.994326 76.7336 -1.26174 77.6818 -1.2644 78.6526C-1.25385 79.9564 -0.772116 81.2036 0.0770974 82.1256C0.926311 83.0476 2.07506 83.5706 3.27599 83.5821Z" fill="#1A191A" fill-opacity="0.22"/>
<path d="M45.7832 145.047C46.6517 145.044 47.5 144.763 48.2215 144.238C48.943 143.713 49.5056 142.969 49.8385 142.098C50.1714 141.227 50.2599 140.269 50.0927 139.343C49.9255 138.418 49.5101 137.567 48.8988 136.897C48.2875 136.227 47.5075 135.769 46.6569 135.579C45.8062 135.389 44.9228 135.476 44.1176 135.83C43.3125 136.183 42.6216 136.787 42.1317 137.566C41.6417 138.344 41.3747 139.263 41.3641 140.206C41.3514 140.841 41.4567 141.474 41.6738 142.064C41.8908 142.655 42.2152 143.192 42.6276 143.644C43.0399 144.096 43.5318 144.453 44.074 144.694C44.6161 144.935 45.1974 145.055 45.7832 145.047Z" fill="#1A191A" fill-opacity="0.22"/>
<path d="M45.8372 181.836C44.9647 181.824 44.1088 182.094 43.3779 182.611C42.6469 183.128 42.0738 183.87 41.7313 184.741C41.3888 185.612 41.2923 186.574 41.454 187.505C41.6157 188.436 42.0283 189.294 42.6395 189.97C43.2508 190.646 44.0331 191.109 44.8874 191.302C45.7416 191.494 46.6293 191.407 47.438 191.052C48.2466 190.696 48.9397 190.087 49.4294 189.304C49.9192 188.52 50.1835 187.595 50.1889 186.648C50.1997 186.02 50.0951 185.397 49.8812 184.813C49.6673 184.23 49.3484 183.698 48.9433 183.25C48.5381 182.802 48.0547 182.446 47.5214 182.204C46.9881 181.961 46.4155 181.836 45.8372 181.836Z" fill="#1A191A" fill-opacity="0.22"/>
<path d="M45.7159 197.473C44.8786 197.478 44.0617 197.754 43.3687 198.264C42.6757 198.774 42.1378 199.496 41.8229 200.338C41.5081 201.181 41.4305 202.106 41.6001 202.996C41.7697 203.886 42.1787 204.702 42.7755 205.339C43.3722 205.977 44.1299 206.408 44.9524 206.578C45.7749 206.748 46.6254 206.649 47.3961 206.293C48.1668 205.938 48.8231 205.343 49.2819 204.582C49.7407 203.822 49.9813 202.931 49.9733 202.022C49.9734 201.418 49.8629 200.821 49.6481 200.264C49.4333 199.707 49.1186 199.202 48.7224 198.779C48.3261 198.355 47.8562 198.022 47.34 197.798C46.8239 197.573 46.2718 197.463 45.7159 197.473Z" fill="#1A191A" fill-opacity="0.22"/>
<path d="M45.7159 129.586C46.5533 129.598 47.375 129.338 48.0761 128.841C48.7772 128.344 49.3261 127.631 49.6527 126.794C49.9794 125.956 50.0691 125.033 49.9103 124.14C49.7515 123.247 49.3515 122.426 48.7612 121.781C48.171 121.136 47.4172 120.696 46.5959 120.518C45.7747 120.34 44.9232 120.431 44.15 120.781C43.3767 121.13 42.7168 121.721 42.2543 122.479C41.7917 123.237 41.5475 124.127 41.5528 125.037C41.5528 126.238 41.9905 127.391 42.7705 128.243C43.5505 129.095 44.6093 129.578 45.7159 129.586Z" fill="#1A191A" fill-opacity="0.22"/>
<path d="M17.3283 243.667C16.5019 243.664 15.6932 243.926 15.0039 244.421C14.3146 244.916 13.7755 245.621 13.4544 246.448C13.1333 247.275 13.0446 248.186 13.1994 249.068C13.3542 249.949 13.7455 250.761 14.3242 251.401C14.903 252.042 15.6432 252.482 16.4519 252.667C17.2606 252.852 18.1015 252.773 18.869 252.441C19.6365 252.108 20.2962 251.536 20.7652 250.798C21.2343 250.059 21.4916 249.186 21.5049 248.289C21.5138 247.687 21.4125 247.088 21.2067 246.529C21.001 245.969 20.695 245.46 20.3064 245.03C19.9179 244.6 19.4545 244.258 18.9433 244.024C18.4321 243.79 17.8831 243.668 17.3283 243.667Z" fill="#1A191A" fill-opacity="0.22"/>
<path d="M31.5152 228.234C30.6886 228.24 29.8822 228.512 29.1981 229.016C28.5139 229.52 27.9829 230.233 27.6721 231.064C27.3613 231.896 27.2849 232.809 27.4524 233.688C27.6198 234.567 28.0238 235.372 28.613 236.001C29.2022 236.631 29.9502 237.056 30.7623 237.224C31.5743 237.391 32.414 237.293 33.1748 236.943C33.9357 236.592 34.5836 236.004 35.0364 235.253C35.4893 234.502 35.7268 233.623 35.7188 232.725C35.6942 231.53 35.2414 230.392 34.4565 229.554C33.6715 228.715 32.6164 228.242 31.5152 228.234Z" fill="#1A191A" fill-opacity="0.22"/>
<path d="M17.5572 83.1872C18.3756 83.1814 19.1742 82.913 19.8525 82.4157C20.5307 81.9184 21.0584 81.2145 21.3691 80.3925C21.6799 79.5705 21.7598 78.667 21.5988 77.7958C21.4378 76.9246 21.0432 76.1245 20.4645 75.4962C19.8857 74.8679 19.1488 74.4394 18.3464 74.2647C17.5439 74.0899 16.7118 74.1766 15.9547 74.514C15.1975 74.8514 14.5492 75.4243 14.0912 76.1607C13.6332 76.8971 13.3859 77.7641 13.3806 78.6526C13.3806 79.8552 13.8207 81.0086 14.6039 81.859C15.3872 82.7094 16.4495 83.1872 17.5572 83.1872Z" fill="#1A191A" fill-opacity="0.22"/>
<path d="M31.5557 98.6193C32.3741 98.6192 33.1742 98.3564 33.8554 97.8639C34.5366 97.3714 35.0685 96.6712 35.3841 95.8513C35.6997 95.0315 35.7849 94.1286 35.6291 93.2563C35.4733 92.384 35.0835 91.5812 34.5085 90.9489C33.9335 90.3165 33.1992 89.8829 32.3978 89.7025C31.5964 89.5221 30.7638 89.603 30.0047 89.9351C29.2455 90.2671 28.5938 90.8355 28.1314 91.5686C27.669 92.3018 27.4166 93.167 27.406 94.0555C27.4094 95.2546 27.846 96.4045 28.622 97.2579C29.3979 98.1113 30.4513 98.6001 31.5557 98.6193Z" fill="#1A191A" fill-opacity="0.22"/>
<path d="M3.30288 259.318C2.50073 259.304 1.71275 259.549 1.03926 260.022C0.365767 260.495 -0.16277 261.175 -0.479048 261.976C-0.795326 262.776 -0.885033 263.661 -0.736766 264.517C-0.588499 265.373 -0.208957 266.161 0.353539 266.783C0.916035 267.404 1.63602 267.829 2.42186 268.004C3.2077 268.18 4.02382 268.097 4.76632 267.767C5.50881 267.437 6.14409 266.875 6.59127 266.152C7.03845 265.429 7.27731 264.577 7.27742 263.706C7.27757 262.555 6.86098 261.45 6.11749 260.629C5.37399 259.808 4.36314 259.337 3.30288 259.318Z" fill="#1A191A" fill-opacity="0.22"/>
<path d="M45.7158 113.905C46.5199 113.931 47.313 113.696 47.9934 113.23C48.6739 112.764 49.2108 112.089 49.5353 111.289C49.8599 110.49 49.9575 109.604 49.8155 108.744C49.6735 107.885 49.2984 107.09 48.7383 106.463C48.1782 105.836 47.4584 105.405 46.6713 105.225C45.8841 105.045 45.0653 105.124 44.3196 105.452C43.574 105.779 42.9354 106.342 42.4857 107.066C42.036 107.79 41.7955 108.643 41.7952 109.517C41.7947 110.658 42.2039 111.755 42.9358 112.574C43.6678 113.393 44.665 113.871 45.7158 113.905Z" fill="#1A191A" fill-opacity="0.22"/>
<path d="M3.27603 67.7404C4.07545 67.7404 4.85691 67.483 5.5216 67.0008C6.18629 66.5187 6.70434 65.8333 7.01026 65.0314C7.31618 64.2296 7.39622 63.3473 7.24027 62.496C7.08431 61.6448 6.69936 60.8629 6.13409 60.2491C5.56882 59.6354 4.84861 59.2175 4.06456 59.0482C3.28051 58.8788 2.46782 58.9657 1.72926 59.2979C0.990695 59.63 0.359435 60.1925 -0.0846945 60.9141C-0.528824 61.6358 -0.765869 62.4842 -0.765869 63.3521C-0.765869 64.516 -0.34003 65.6321 0.417973 66.4551C1.17598 67.2781 2.20405 67.7404 3.27603 67.7404Z" fill="#1A191A" fill-opacity="0.22"/>
<path d="M45.8237 212.992C45.0201 212.969 44.2283 213.207 43.5496 213.674C42.8709 214.142 42.3361 214.819 42.0136 215.619C41.6911 216.418 41.5955 217.304 41.7391 218.163C41.8826 219.022 42.2588 219.814 42.8195 220.44C43.3803 221.065 44.1001 221.495 44.8869 221.674C45.6738 221.853 46.4919 221.773 47.2368 221.445C47.9816 221.117 48.6193 220.554 49.0684 219.83C49.5175 219.107 49.7575 218.254 49.7578 217.381C49.7582 216.237 49.3472 215.138 48.6123 214.318C47.8775 213.499 46.8769 213.023 45.8237 212.992Z" fill="#1A191A" fill-opacity="0.22"/>
<path d="M60.0377 166.974C59.2724 166.965 58.522 167.203 57.8814 167.658C57.2408 168.113 56.7389 168.764 56.4393 169.528C56.1397 170.293 56.0557 171.137 56.1982 171.953C56.3406 172.77 56.703 173.522 57.2394 174.114C57.7758 174.707 58.4622 175.114 59.2116 175.282C59.9609 175.451 60.7396 175.375 61.4489 175.063C62.1583 174.751 62.7664 174.218 63.1964 173.53C63.6263 172.843 63.8587 172.032 63.864 171.201C63.8748 170.649 63.7837 170.1 63.5961 169.587C63.4085 169.074 63.1281 168.606 62.7716 168.212C62.415 167.818 61.9894 167.506 61.5199 167.293C61.0504 167.08 60.5464 166.972 60.0377 166.974Z" fill="#1A191A" fill-opacity="0.22"/>
<path d="M60.0377 151.527C59.2724 151.519 58.522 151.757 57.8814 152.211C57.2408 152.666 56.7389 153.317 56.4393 154.082C56.1397 154.846 56.0557 155.69 56.1982 156.507C56.3406 157.323 56.703 158.075 57.2394 158.668C57.7758 159.26 58.4622 159.667 59.2116 159.836C59.9609 160.005 60.7396 159.928 61.4489 159.616C62.1583 159.304 62.7664 158.771 63.1964 158.084C63.6263 157.396 63.8587 156.586 63.864 155.755C63.8748 155.203 63.7837 154.654 63.5961 154.14C63.4085 153.627 63.1281 153.159 62.7716 152.765C62.415 152.371 61.9894 152.059 61.5199 151.846C61.0504 151.634 60.5464 151.525 60.0377 151.527Z" fill="#1A191A" fill-opacity="0.22"/>
<path d="M59.9836 182.465C59.2263 182.468 58.4868 182.714 57.8588 183.174C57.2307 183.634 56.7425 184.285 56.4557 185.046C56.169 185.807 56.0967 186.643 56.2481 187.449C56.3994 188.255 56.7676 188.994 57.3059 189.572C57.8443 190.15 58.5286 190.542 59.2723 190.698C60.0159 190.854 60.7854 190.766 61.4833 190.447C62.1812 190.128 62.7761 189.591 63.1926 188.904C63.6092 188.217 63.8288 187.412 63.8235 186.59C63.8128 185.492 63.4036 184.443 62.6846 183.67C61.9657 182.898 60.9951 182.465 59.9836 182.465Z" fill="#1A191A" fill-opacity="0.22"/>
<path d="M59.9972 144.389C60.7504 144.392 61.4873 144.152 62.1145 143.699C62.7416 143.246 63.2307 142.601 63.5195 141.846C63.8083 141.091 63.8839 140.259 63.7366 139.457C63.5894 138.656 63.2259 137.919 62.6924 137.342C62.1589 136.765 61.4794 136.373 60.7402 136.216C60.0011 136.059 59.2356 136.144 58.5411 136.46C57.8465 136.776 57.2542 137.31 56.8394 137.992C56.4246 138.675 56.2059 139.476 56.2113 140.293C56.2287 141.376 56.6336 142.409 57.3402 143.174C58.0468 143.938 58.9998 144.374 59.9972 144.389Z" fill="#1A191A" fill-opacity="0.22"/>
<path d="M31.7175 244.091C30.9753 244.056 30.2405 244.262 29.6063 244.682C28.9722 245.103 28.4675 245.718 28.1564 246.45C27.8452 247.183 27.7417 247.999 27.859 248.795C27.9762 249.592 28.309 250.332 28.8149 250.923C29.3208 251.514 29.9771 251.927 30.7002 252.112C31.4234 252.297 32.1807 252.244 32.876 251.96C33.5713 251.676 34.1732 251.174 34.6051 250.518C35.0369 249.861 35.2793 249.08 35.3013 248.274C35.3271 247.206 34.9662 246.17 34.2961 245.388C33.6261 244.606 32.7003 244.14 31.7175 244.091Z" fill="#1A191A" fill-opacity="0.22"/>
<path d="M31.5289 82.6752C32.2628 82.681 32.9818 82.45 33.5946 82.0115C34.2075 81.5731 34.6865 80.9469 34.9711 80.2124C35.2557 79.4779 35.3329 78.6682 35.193 77.8859C35.0531 77.1037 34.7024 76.3842 34.1853 75.8187C33.6682 75.2532 33.0081 74.8672 32.2886 74.7096C31.5692 74.552 30.8229 74.6299 30.1443 74.9335C29.4657 75.2371 28.8855 75.7526 28.4771 76.4148C28.0688 77.0769 27.8508 77.8558 27.8508 78.6526C27.8454 79.18 27.9367 79.7033 28.1193 80.1921C28.3019 80.6808 28.5722 81.1253 28.9145 81.4996C29.2567 81.8739 29.6641 82.1706 30.113 82.3724C30.5618 82.5742 31.0431 82.6772 31.5289 82.6752Z" fill="#1A191A" fill-opacity="0.22"/>
<path d="M60.0243 198.102C59.3016 198.096 58.5936 198.323 57.9899 198.754C57.3863 199.186 56.9141 199.802 56.6332 200.525C56.3523 201.248 56.2754 202.045 56.4121 202.816C56.5489 203.586 56.8931 204.295 57.4013 204.853C57.9095 205.411 58.5587 205.792 59.2668 205.949C59.9749 206.106 60.71 206.032 61.379 205.735C62.0479 205.438 62.6207 204.932 63.0247 204.282C63.4287 203.631 63.6458 202.865 63.6485 202.08C63.6521 201.031 63.2727 200.024 62.5934 199.278C61.9141 198.532 60.9903 198.109 60.0243 198.102Z" fill="#1A191A" fill-opacity="0.22"/>
<path d="M17.3282 259.713C16.6055 259.71 15.8983 259.94 15.2961 260.374C14.6939 260.808 14.2238 261.426 13.9454 262.15C13.667 262.874 13.5927 263.672 13.7321 264.441C13.8715 265.211 14.2181 265.919 14.7282 266.475C15.2383 267.031 15.8889 267.41 16.5975 267.564C17.3061 267.718 18.0409 267.64 18.7089 267.341C19.3768 267.041 19.9479 266.533 20.3497 265.881C20.7515 265.229 20.9659 264.462 20.9659 263.677C20.9677 263.157 20.8749 262.642 20.6929 262.161C20.5109 261.68 20.2432 261.243 19.9052 260.875C19.5673 260.507 19.1657 260.214 18.7234 260.015C18.2812 259.816 17.8071 259.713 17.3282 259.713Z" fill="#1A191A" fill-opacity="0.22"/>
<path d="M45.7158 228.805C44.9931 228.811 44.2883 229.049 43.6906 229.49C43.0929 229.931 42.6292 230.555 42.3582 231.283C42.0872 232.01 42.0211 232.808 42.1684 233.576C42.3156 234.345 42.6695 235.048 43.1852 235.598C43.7009 236.147 44.3553 236.519 45.0654 236.664C45.7755 236.81 46.5095 236.723 47.1744 236.416C47.8392 236.108 48.405 235.593 48.8001 234.936C49.1953 234.279 49.4019 233.51 49.3939 232.725C49.3832 231.676 48.9902 230.675 48.3008 229.94C47.6114 229.205 46.6818 228.797 45.7158 228.805Z" fill="#1A191A" fill-opacity="0.22"/>
<path d="M45.7159 98.0488C46.4309 98.0573 47.1322 97.8359 47.7316 97.4126C48.331 96.9893 48.8016 96.383 49.0843 95.6699C49.367 94.9568 49.4492 94.1689 49.3203 93.4053C49.1915 92.6417 48.8575 91.9365 48.3604 91.3785C47.8633 90.8205 47.2252 90.4347 46.5266 90.2695C45.8279 90.1043 45.0998 90.1672 44.434 90.4502C43.7682 90.7333 43.1944 91.2238 42.7848 91.8601C42.3752 92.4964 42.1481 93.2501 42.1321 94.0262C42.1212 95.074 42.4914 96.0841 43.1624 96.8372C43.8334 97.5904 44.751 98.0258 45.7159 98.0488Z" fill="#1A191A" fill-opacity="0.22"/>
<path d="M59.9973 128.942C60.7118 128.942 61.4103 128.713 62.0051 128.283C62.5999 127.853 63.0643 127.242 63.3402 126.526C63.616 125.811 63.6908 125.023 63.5553 124.261C63.4198 123.499 63.0799 122.798 62.5784 122.246C62.077 121.693 61.4362 121.314 60.7368 121.156C60.0374 120.997 59.3104 121.067 58.6473 121.356C57.9842 121.645 57.4145 122.14 57.0099 122.779C56.6052 123.418 56.3837 124.173 56.3731 124.949C56.3695 125.999 56.7484 127.008 57.4273 127.756C58.1062 128.504 59.0301 128.931 59.9973 128.942Z" fill="#1A191A" fill-opacity="0.22"/>
<path d="M17.5034 67.3455C18.2179 67.3425 18.9157 67.1104 19.509 66.6782C20.1023 66.246 20.5648 65.633 20.8382 64.9163C21.1116 64.1996 21.1838 63.4112 21.0456 62.6501C20.9075 61.889 20.5653 61.1892 20.0619 60.6386C19.5585 60.0881 18.9165 59.7113 18.2165 59.5558C17.5166 59.4002 16.7898 59.4727 16.1277 59.7643C15.4656 60.0558 14.8976 60.5533 14.4951 61.1943C14.0927 61.8352 13.8737 62.5911 13.8657 63.3668C13.8657 64.4169 14.2481 65.4245 14.9295 66.1698C15.611 66.9152 16.5362 67.3377 17.5034 67.3455Z" fill="#1A191A" fill-opacity="0.22"/>
<path d="M59.9567 213.621C59.2838 213.633 58.6291 213.861 58.0751 214.276C57.5212 214.69 57.0927 215.274 56.8438 215.953C56.5949 216.632 56.5366 217.375 56.6763 218.09C56.8161 218.805 57.1476 219.459 57.6291 219.969C58.1105 220.48 58.7204 220.824 59.3819 220.959C60.0433 221.094 60.7267 221.013 61.346 220.727C61.9652 220.441 62.4925 219.962 62.8615 219.351C63.2305 218.74 63.4246 218.024 63.4193 217.293C63.4051 216.309 63.0332 215.371 62.3846 214.683C61.736 213.995 60.8633 213.614 59.9567 213.621Z" fill="#1A191A" fill-opacity="0.22"/>
<path d="M3.34324 275.218C2.66643 275.201 2.00018 275.403 1.4294 275.798C0.858624 276.193 0.409183 276.764 0.13837 277.438C-0.132443 278.111 -0.212368 278.857 -0.0912028 279.58C0.0299625 280.304 0.346726 280.971 0.8187 281.498C1.29067 282.025 1.89648 282.387 2.55891 282.539C3.22133 282.691 3.91034 282.625 4.53814 282.35C5.16594 282.075 5.70408 281.603 6.08395 280.995C6.46381 280.386 6.6682 279.669 6.67107 278.934C6.66467 277.968 6.31489 277.042 5.69478 276.35C5.07467 275.658 4.23217 275.252 3.34324 275.218Z" fill="#1A191A" fill-opacity="0.22"/>
<path d="M3.3029 51.5915C3.96969 51.5824 4.61882 51.3576 5.16744 50.946C5.71605 50.5344 6.13923 49.9547 6.38296 49.2808C6.62668 48.6069 6.67989 47.8694 6.53578 47.1625C6.39168 46.4556 6.05682 45.8114 5.57393 45.3121C5.09104 44.8127 4.48203 44.481 3.82468 44.3592C3.16734 44.2374 2.49147 44.3311 1.88338 44.6282C1.27528 44.9254 0.762556 45.4125 0.410655 46.0275C0.0587539 46.6425 -0.116349 47.3574 -0.0922994 48.0809C-0.0818122 48.5535 0.0143377 49.0192 0.190663 49.4515C0.366988 49.8837 0.620041 50.274 0.93534 50.6C1.25064 50.926 1.62202 51.1814 2.02825 51.3515C2.43449 51.5216 2.86762 51.6032 3.3029 51.5915Z" fill="#1A191A" fill-opacity="0.22"/>
<path d="M60.0376 113.203C60.7011 113.197 61.3481 112.978 61.8968 112.573C62.4454 112.168 62.8712 111.595 63.1202 110.928C63.3691 110.26 63.4302 109.527 63.2955 108.822C63.1608 108.116 62.8365 107.47 62.3636 106.965C61.8907 106.46 61.2904 106.118 60.6386 105.983C59.9868 105.848 59.3129 105.926 58.7019 106.207C58.091 106.488 57.5705 106.959 57.2063 107.562C56.8421 108.164 56.6506 108.87 56.6559 109.59C56.6558 110.069 56.7436 110.544 56.9142 110.986C57.0848 111.428 57.3348 111.829 57.6495 112.166C57.9643 112.502 58.3375 112.767 58.7475 112.945C59.1575 113.123 59.5961 113.211 60.0376 113.203Z" fill="#1A191A" fill-opacity="0.22"/>
<path d="M74.3055 167.676C73.6672 167.659 73.0385 167.848 72.4994 168.219C71.9603 168.591 71.5351 169.128 71.2778 169.763C71.0205 170.397 70.9428 171.1 71.0546 171.783C71.1663 172.465 71.4624 173.096 71.9053 173.596C72.3482 174.095 72.9178 174.44 73.5418 174.588C74.1658 174.735 74.816 174.677 75.4097 174.422C76.0035 174.167 76.5139 173.726 76.8763 173.155C77.2386 172.584 77.4365 171.909 77.4447 171.216C77.4487 170.299 77.123 169.415 76.5368 168.754C75.9506 168.093 75.1502 167.707 74.3055 167.676Z" fill="#1A191A" fill-opacity="0.22"/>
<path d="M31.5693 260.181C31.1298 260.15 30.6892 260.217 30.2746 260.379C29.8601 260.54 29.4804 260.792 29.1591 261.119C28.8378 261.446 28.5816 261.841 28.4065 262.28C28.2314 262.719 28.1411 263.192 28.1411 263.67C28.1411 264.148 28.2314 264.621 28.4065 265.06C28.5816 265.498 28.8378 265.894 29.1591 266.22C29.4804 266.547 29.8601 266.799 30.2746 266.961C30.6892 267.122 31.1298 267.189 31.5693 267.158C32.3856 267.101 33.1511 266.709 33.7105 266.061C34.2699 265.413 34.5812 264.558 34.5812 263.67C34.5812 262.782 34.2699 261.927 33.7105 261.279C33.1511 260.631 32.3856 260.239 31.5693 260.181Z" fill="#1A191A" fill-opacity="0.22"/>
<path d="M74.2247 152.229C73.5861 152.229 72.9619 152.436 72.4316 152.822C71.9012 153.208 71.4886 153.757 71.2461 154.398C71.0036 155.039 70.9422 155.744 71.0698 156.424C71.1973 157.103 71.5081 157.726 71.9624 158.213C72.4168 158.7 72.9944 159.03 73.6216 159.16C74.2489 159.289 74.8976 159.214 75.4852 158.943C76.0728 158.671 76.5729 158.216 76.9218 157.636C77.2707 157.055 77.4527 156.375 77.4447 155.682C77.4306 154.763 77.0856 153.887 76.4836 153.242C75.8816 152.597 75.0707 152.233 74.2247 152.229Z" fill="#1A191A" fill-opacity="0.22"/>
<path d="M31.4615 66.9066C32.0997 66.9268 32.7291 66.7406 33.2696 66.3715C33.8101 66.0025 34.2373 65.4673 34.497 64.834C34.7567 64.2007 34.8371 63.4978 34.728 62.8148C34.6189 62.1318 34.3252 61.4994 33.8843 60.998C33.4434 60.4966 32.8751 60.1488 32.2517 59.9989C31.6283 59.8489 30.978 59.9036 30.3832 60.1559C29.7885 60.4083 29.2764 60.8468 28.9118 61.416C28.5472 61.9851 28.3467 62.659 28.3357 63.3521C28.3315 64.2687 28.6549 65.1513 29.2379 65.8142C29.8209 66.4772 30.618 66.8688 31.4615 66.9066Z" fill="#1A191A" fill-opacity="0.22"/>
<path d="M45.7159 244.734C45.0773 244.734 44.4532 244.941 43.9228 245.327C43.3924 245.713 42.9798 246.261 42.7373 246.903C42.4948 247.544 42.4334 248.249 42.561 248.929C42.6885 249.608 42.9993 250.231 43.4536 250.718C43.908 251.205 44.4856 251.535 45.1128 251.664C45.7401 251.794 46.3888 251.719 46.9764 251.447C47.564 251.176 48.0641 250.721 48.413 250.141C48.7619 249.56 48.9439 248.88 48.9359 248.186C48.9218 247.268 48.5768 246.392 47.9748 245.747C47.3728 245.102 46.5619 244.738 45.7159 244.734Z" fill="#1A191A" fill-opacity="0.22"/>
<path d="M45.7159 82.0901C46.3381 82.1042 46.9502 81.9181 47.4751 81.5552C48 81.1924 48.4143 80.6689 48.6657 80.0509C48.9172 79.4329 48.9945 78.7479 48.888 78.0822C48.7815 77.4166 48.496 76.8 48.0673 76.3102C47.6386 75.8204 47.0861 75.4793 46.4792 75.3299C45.8723 75.1805 45.2382 75.2294 44.6569 75.4704C44.0756 75.7115 43.5729 76.134 43.2123 76.6847C42.8518 77.2353 42.6494 77.8895 42.6306 78.5648C42.6125 79.0183 42.6787 79.471 42.8253 79.8961C42.9719 80.3211 43.1958 80.7097 43.4838 81.0388C43.7717 81.3678 44.1178 81.6304 44.5013 81.8111C44.8848 81.9917 45.2979 82.0866 45.7159 82.0901Z" fill="#1A191A" fill-opacity="0.22"/>
<path d="M74.2516 183.24C73.6361 183.237 73.0336 183.432 72.5204 183.801C72.0071 184.17 71.6061 184.696 71.3681 185.312C71.13 185.929 71.0657 186.608 71.1832 187.264C71.3007 187.92 71.5947 188.523 72.028 188.998C72.4614 189.472 73.0146 189.797 73.6178 189.93C74.221 190.063 74.8471 189.999 75.4168 189.746C75.9865 189.493 76.4742 189.062 76.8184 188.508C77.1626 187.954 77.3477 187.302 77.3504 186.634C77.3576 186.188 77.2826 185.746 77.1298 185.332C76.977 184.919 76.7494 184.543 76.4606 184.227C76.1717 183.911 75.8275 183.66 75.4481 183.491C75.0687 183.321 74.6619 183.236 74.2516 183.24Z" fill="#1A191A" fill-opacity="0.22"/>
<path d="M74.2381 143.819C74.8521 143.819 75.4523 143.62 75.9624 143.249C76.4726 142.878 76.8697 142.351 77.1034 141.735C77.3372 141.118 77.397 140.44 77.2752 139.787C77.1534 139.134 76.8556 138.534 76.4195 138.065C75.9834 137.596 75.4288 137.277 74.8259 137.151C74.223 137.025 73.5992 137.095 73.0334 137.354C72.4677 137.614 71.9856 138.049 71.6484 138.606C71.3111 139.164 71.1339 139.817 71.1393 140.483C71.1499 141.369 71.4806 142.216 72.0602 142.839C72.6398 143.463 73.4219 143.815 74.2381 143.819Z" fill="#1A191A" fill-opacity="0.22"/>
<path d="M60.0107 229.463C59.4069 229.463 58.8167 229.657 58.3143 230.021C57.812 230.384 57.42 230.901 57.1877 231.506C56.9555 232.111 56.8934 232.777 57.0092 233.421C57.1251 234.064 57.4137 234.656 57.8387 235.121C58.2637 235.587 58.8062 235.905 59.3976 236.037C59.9891 236.168 60.6032 236.106 61.1625 235.86C61.7218 235.613 62.2013 235.192 62.5405 234.65C62.8798 234.107 63.0637 233.468 63.069 232.813C63.0621 231.932 62.7385 231.089 62.1672 230.463C61.5959 229.837 60.8221 229.478 60.0107 229.463Z" fill="#1A191A" fill-opacity="0.22"/>
<path d="M17.3281 275.599C16.7244 275.596 16.1335 275.787 15.6297 276.148C15.1259 276.509 14.7318 277.024 14.4971 277.628C14.2624 278.232 14.1976 278.898 14.3109 279.542C14.4241 280.186 14.7104 280.779 15.1335 281.246C15.5566 281.714 16.0977 282.035 16.6887 282.169C17.2796 282.303 17.8939 282.245 18.4542 282.001C19.0145 281.756 19.4957 281.338 19.8371 280.797C20.1786 280.257 20.3651 279.618 20.373 278.963C20.3697 278.082 20.0495 277.237 19.4807 276.609C18.9119 275.98 18.1395 275.618 17.3281 275.599Z" fill="#1A191A" fill-opacity="0.22"/>
<path d="M59.9029 97.3613C60.4923 97.3808 61.0738 97.2108 61.5744 96.8725C62.0751 96.5343 62.4724 96.0429 62.7166 95.4602C62.9608 94.8775 63.0409 94.2294 62.9468 93.5974C62.8527 92.9654 62.5887 92.3777 62.1879 91.9082C61.7871 91.4386 61.2674 91.1082 60.6942 90.9583C60.1209 90.8085 59.5196 90.846 58.9659 91.0661C58.4122 91.2861 57.9307 91.679 57.5821 92.1953C57.2334 92.7115 57.033 93.3282 57.0062 93.9677C56.9825 94.3992 57.0395 94.8315 57.1738 95.2385C57.308 95.6454 57.5168 96.0187 57.7874 96.3357C58.058 96.6528 58.385 96.9071 58.7486 97.0834C59.1121 97.2596 59.5048 97.3542 59.9029 97.3613Z" fill="#1A191A" fill-opacity="0.22"/>
<path d="M17.3418 51.2112C17.7346 51.2295 18.1269 51.1635 18.4962 51.0172C18.8655 50.8709 19.2046 50.647 19.4943 50.3584C19.7839 50.0697 20.0183 49.722 20.1842 49.335C20.35 48.948 20.444 48.5293 20.4608 48.1029C20.4776 47.6764 20.4169 47.2505 20.2821 46.8496C20.1473 46.4486 19.9411 46.0804 19.6753 45.7659C19.4094 45.4515 19.0891 45.197 18.7327 45.0169C18.3762 44.8369 17.9906 44.7348 17.5978 44.7166C16.8046 44.6797 16.0303 44.9865 15.4454 45.5694C14.8604 46.1524 14.5128 46.9637 14.4788 47.8249C14.4449 48.6862 14.7274 49.5268 15.2643 50.1618C15.8013 50.7969 16.5486 51.1744 17.3418 51.2112Z" fill="#1A191A" fill-opacity="0.22"/>
<path d="M74.319 198.862C73.7341 198.842 73.1569 199.011 72.6607 199.348C72.1646 199.685 71.7719 200.174 71.5326 200.754C71.2933 201.334 71.2182 201.978 71.3169 202.604C71.4156 203.231 71.6836 203.811 72.0868 204.271C72.49 204.732 73.0102 205.052 73.5813 205.19C74.1524 205.329 74.7486 205.28 75.294 205.05C75.8395 204.82 76.3096 204.419 76.6446 203.898C76.9795 203.377 77.1643 202.759 77.1753 202.124C77.1878 201.706 77.1236 201.288 76.9864 200.897C76.8491 200.506 76.6416 200.148 76.3758 199.844C76.11 199.541 75.7913 199.298 75.4382 199.129C75.0851 198.96 74.7047 198.87 74.319 198.862Z" fill="#1A191A" fill-opacity="0.22"/>
<path d="M74.1574 128.182C74.7377 128.199 75.3096 128.029 75.8002 127.692C76.2909 127.355 76.6782 126.867 76.9126 126.291C77.1471 125.714 77.2182 125.075 77.1168 124.454C77.0155 123.834 76.7463 123.26 76.3435 122.806C75.9408 122.352 75.4227 122.039 74.8553 121.906C74.2879 121.773 73.6968 121.826 73.1575 122.059C72.6181 122.292 72.1548 122.694 71.8266 123.214C71.4984 123.734 71.3202 124.348 71.3146 124.978C71.3072 125.81 71.601 126.612 72.1327 127.211C72.6644 127.81 73.3914 128.159 74.1574 128.182Z" fill="#1A191A" fill-opacity="0.22"/>
<path d="M3.26248 291.396C2.72954 291.396 2.20856 291.568 1.76543 291.889C1.32231 292.211 0.976938 292.668 0.77299 293.202C0.569042 293.737 0.515675 294.325 0.619647 294.893C0.723619 295.46 0.980263 295.981 1.35711 296.391C1.73396 296.8 2.21409 297.078 2.73679 297.191C3.25949 297.304 3.80128 297.246 4.29366 297.025C4.78603 296.803 5.20686 296.428 5.50295 295.947C5.79903 295.466 5.95708 294.901 5.95708 294.322C5.95708 293.546 5.67318 292.802 5.16785 292.253C4.66251 291.705 3.97713 291.396 3.26248 291.396Z" fill="#1A191A" fill-opacity="0.22"/>
<path d="M74.2517 214.382C73.7188 214.382 73.1978 214.554 72.7547 214.875C72.3116 215.197 71.9662 215.654 71.7622 216.188C71.5583 216.723 71.5049 217.311 71.6089 217.878C71.7129 218.446 71.9695 218.967 72.3464 219.376C72.7232 219.785 73.2033 220.064 73.726 220.177C74.2487 220.29 74.7905 220.232 75.2829 220.01C75.7753 219.789 76.1961 219.414 76.4922 218.933C76.7883 218.452 76.9463 217.886 76.9463 217.308C76.9463 216.532 76.6624 215.788 76.1571 215.239C75.6517 214.69 74.9664 214.382 74.2517 214.382Z" fill="#1A191A" fill-opacity="0.22"/>
<path d="M45.7158 260.722C45.1829 260.722 44.6619 260.894 44.2188 261.215C43.7757 261.537 43.4303 261.994 43.2263 262.528C43.0224 263.063 42.969 263.651 43.073 264.219C43.177 264.786 43.4336 265.307 43.8105 265.716C44.1873 266.126 44.6674 266.404 45.1901 266.517C45.7128 266.63 46.2546 266.572 46.747 266.351C47.2394 266.129 47.6602 265.754 47.9563 265.273C48.2524 264.792 48.4104 264.226 48.4104 263.648C48.3933 262.878 48.104 262.144 47.6023 261.6C47.1006 261.055 46.4251 260.741 45.7158 260.722Z" fill="#1A191A" fill-opacity="0.22"/>
<path d="M3.2759 35.3842C3.80884 35.3842 4.32982 35.2126 4.77294 34.8911C5.21607 34.5697 5.56144 34.1128 5.76539 33.5782C5.96933 33.0436 6.02268 32.4554 5.91871 31.8879C5.81474 31.3204 5.55811 30.7991 5.18127 30.39C4.80442 29.9808 4.32429 29.7022 3.80159 29.5893C3.27889 29.4765 2.73709 29.5344 2.24472 29.7558C1.75235 29.9772 1.33151 30.3522 1.03543 30.8333C0.739342 31.3144 0.581299 31.88 0.581299 32.4586C0.581299 33.2345 0.865191 33.9787 1.37053 34.5273C1.87586 35.0759 2.56124 35.3842 3.2759 35.3842Z" fill="#1A191A" fill-opacity="0.22"/>
<path d="M74.1977 112.442C74.7338 112.46 75.2625 112.303 75.7162 111.993C76.1698 111.682 76.5277 111.231 76.7441 110.699C76.9605 110.166 77.0255 109.575 76.9309 109.002C76.8362 108.429 76.5862 107.899 76.2128 107.481C75.8393 107.063 75.3595 106.776 74.8347 106.656C74.3099 106.535 73.7641 106.588 73.267 106.807C72.7699 107.025 72.3442 107.4 72.0443 107.883C71.7445 108.366 71.5842 108.935 71.584 109.517C71.5837 110.278 71.8564 111.009 72.3444 111.555C72.8324 112.101 73.4972 112.42 74.1977 112.442Z" fill="#1A191A" fill-opacity="0.22"/>
<path d="M45.7158 66.2923C46.2552 66.3096 46.7871 66.1506 47.2424 65.836C47.6977 65.5213 48.0555 65.0654 48.2694 64.5274C48.4833 63.9894 48.5434 63.3941 48.442 62.8185C48.3406 62.243 48.0824 61.7137 47.7008 61.2994C47.3191 60.885 46.8317 60.6047 46.3016 60.4946C45.7714 60.3845 45.2231 60.4498 44.7275 60.6821C44.232 60.9143 43.8121 61.3027 43.5223 61.797C43.2325 62.2914 43.0861 62.8688 43.102 63.4545C43.1223 64.2002 43.4042 64.9092 43.8901 65.4367C44.3759 65.9642 45.029 66.2702 45.7158 66.2923Z" fill="#1A191A" fill-opacity="0.22"/>
<path d="M31.6232 276.052C31.0858 276.026 30.5534 276.175 30.0946 276.48C29.6358 276.785 29.2717 277.232 29.049 277.764C28.8263 278.296 28.7554 278.887 28.8452 279.463C28.9351 280.039 29.1817 280.573 29.5533 280.995C29.9248 281.418 30.4043 281.71 30.9301 281.834C31.4558 281.957 32.0037 281.908 32.5032 281.691C33.0026 281.474 33.4308 281.099 33.7326 280.616C34.0344 280.132 34.196 279.562 34.1965 278.978C34.1972 278.224 33.9301 277.499 33.4507 276.954C32.9713 276.409 32.3166 276.086 31.6232 276.052Z" fill="#1A191A" fill-opacity="0.22"/>
<path d="M59.9567 81.4757C60.4658 81.4868 60.9666 81.3344 61.3963 81.0378C61.826 80.7411 62.1655 80.3134 62.3723 79.8082C62.579 79.303 62.6439 78.7427 62.5587 78.1977C62.4734 77.6527 62.2419 77.147 61.8931 76.7442C61.5444 76.3414 61.0939 76.0593 60.5981 75.9333C60.1023 75.8072 59.5832 75.8428 59.106 76.0357C58.6288 76.2285 58.2146 76.57 57.9153 77.0173C57.6161 77.4646 57.4451 77.9978 57.4238 78.5502C57.4036 78.9253 57.4541 79.301 57.5722 79.6542C57.6903 80.0075 57.8734 80.3308 58.1105 80.6046C58.3475 80.8784 58.6335 81.0969 58.9509 81.2467C59.2684 81.3964 59.6106 81.4744 59.9567 81.4757Z" fill="#1A191A" fill-opacity="0.22"/>
<path d="M59.9837 245.407C59.4721 245.41 58.9728 245.578 58.5488 245.889C58.1249 246.2 57.7955 246.64 57.6022 247.154C57.4089 247.669 57.3603 248.234 57.4628 248.778C57.5652 249.322 57.814 249.821 58.1776 250.212C58.5413 250.603 59.0035 250.867 59.5058 250.973C60.0081 251.079 60.5279 251.02 60.9996 250.805C61.4712 250.59 61.8735 250.227 62.1555 249.764C62.4376 249.3 62.5867 248.757 62.584 248.201C62.5877 247.831 62.5228 247.463 62.3931 247.12C62.2633 246.778 62.0715 246.467 61.8289 246.206C61.5864 245.946 61.298 245.741 60.9811 245.603C60.6641 245.466 60.3249 245.399 59.9837 245.407Z" fill="#1A191A" fill-opacity="0.22"/>
<path d="M31.5826 50.7724C32.0969 50.7632 32.597 50.5877 33.019 50.2684C33.441 49.9491 33.7658 49.5004 33.9518 48.9797C34.1377 48.4591 34.1765 47.89 34.0631 47.3453C33.9498 46.8005 33.6894 46.3049 33.3153 45.9216C32.9411 45.5383 32.4703 45.2848 31.9628 45.1936C31.4553 45.1023 30.9343 45.1773 30.4663 45.4091C29.9984 45.6409 29.6046 46.0189 29.3355 46.4948C29.0663 46.9707 28.934 47.5229 28.9554 48.0809C28.9765 48.8155 29.2648 49.5112 29.7572 50.0156C30.2495 50.52 30.9059 50.7921 31.5826 50.7724Z" fill="#1A191A" fill-opacity="0.22"/>
<path d="M88.2905 168.51C87.8044 168.507 87.3284 168.661 86.9231 168.953C86.5178 169.244 86.2014 169.66 86.0142 170.147C85.8269 170.634 85.7772 171.17 85.8714 171.688C85.9656 172.206 86.1994 172.681 86.5432 173.055C86.8869 173.428 87.325 173.682 87.8019 173.784C88.2788 173.886 88.773 173.832 89.2216 173.629C89.6702 173.426 90.053 173.082 90.3214 172.642C90.5898 172.202 90.7317 171.685 90.7291 171.158C90.7308 170.809 90.669 170.464 90.5471 170.142C90.4251 169.82 90.2456 169.527 90.0188 169.281C89.792 169.035 89.5224 168.84 89.2258 168.708C88.9291 168.575 88.6112 168.508 88.2905 168.51Z" fill="#1A191A" fill-opacity="0.22"/>
<path d="M88.3309 158.315C88.8034 158.306 89.263 158.146 89.6521 157.855C90.0411 157.563 90.3422 157.154 90.5175 156.677C90.6928 156.201 90.7346 155.679 90.6375 155.176C90.5405 154.674 90.309 154.215 89.972 153.855C89.6351 153.495 89.2077 153.251 88.7437 153.154C88.2796 153.057 87.7995 153.111 87.3636 153.31C86.9277 153.508 86.5556 153.842 86.2938 154.269C86.032 154.696 85.8923 155.198 85.8923 155.711C85.8885 156.058 85.9493 156.402 86.071 156.722C86.1928 157.043 86.3729 157.334 86.6007 157.577C86.8284 157.82 87.0991 158.011 87.3964 158.137C87.6937 158.264 88.0116 158.324 88.3309 158.315Z" fill="#1A191A" fill-opacity="0.22"/>
<path d="M17.4227 291.777C16.9494 291.768 16.4844 291.912 16.087 292.192C15.6895 292.471 15.3776 292.872 15.1909 293.344C15.0042 293.816 14.9512 294.338 15.0386 294.843C15.126 295.349 15.3498 295.814 15.6817 296.18C16.0135 296.547 16.4383 296.798 16.902 296.901C17.3656 297.005 17.8472 296.956 18.2853 296.762C18.7234 296.567 19.0982 296.235 19.3621 295.809C19.626 295.382 19.7669 294.88 19.767 294.366C19.7724 294.028 19.7157 293.692 19.6003 293.378C19.4849 293.064 19.313 292.779 19.0948 292.538C18.8766 292.297 18.6163 292.105 18.3292 291.975C18.0422 291.844 17.734 291.777 17.4227 291.777Z" fill="#1A191A" fill-opacity="0.22"/>
<path d="M74.2786 230.209C73.8106 230.2 73.3508 230.343 72.9578 230.619C72.5648 230.895 72.2563 231.292 72.0717 231.759C71.887 232.226 71.8345 232.742 71.9209 233.241C72.0072 233.74 72.2285 234.201 72.5566 234.563C72.8847 234.925 73.3047 235.174 73.7631 235.276C74.2215 235.378 74.6977 235.33 75.1308 235.138C75.564 234.945 75.9347 234.617 76.1956 234.196C76.4565 233.774 76.5958 233.277 76.5959 232.769C76.5892 232.1 76.3441 231.46 75.9121 230.982C75.4801 230.505 74.8946 230.228 74.2786 230.209Z" fill="#1A191A" fill-opacity="0.22"/>
<path d="M88.2636 143.014C88.7327 143.02 89.1927 142.873 89.5849 142.594C89.977 142.314 90.2833 141.914 90.4647 141.444C90.646 140.974 90.6942 140.456 90.6029 139.957C90.5117 139.457 90.2852 138.998 89.9525 138.639C89.6198 138.28 89.196 138.037 88.7352 137.941C88.2745 137.844 87.7978 137.9 87.3661 138.099C86.9345 138.299 86.5675 138.634 86.3122 139.061C86.0568 139.488 85.9247 139.989 85.9327 140.498C85.9466 141.163 86.197 141.797 86.6315 142.266C87.066 142.735 87.6509 143.003 88.2636 143.014Z" fill="#1A191A" fill-opacity="0.22"/>
<path d="M88.2634 184.118C87.7983 184.12 87.3443 184.273 86.9586 184.555C86.573 184.837 86.2729 185.237 86.0961 185.705C85.9193 186.172 85.8738 186.685 85.9652 187.18C86.0566 187.676 86.2808 188.13 86.6098 188.487C86.9387 188.845 87.3576 189.088 87.8137 189.187C88.2698 189.287 88.7427 189.237 89.173 189.045C89.6033 188.853 89.9716 188.527 90.2317 188.109C90.4918 187.69 90.632 187.197 90.6347 186.692C90.6311 186.01 90.3802 185.358 89.9363 184.876C89.4923 184.394 88.8912 184.121 88.2634 184.118Z" fill="#1A191A" fill-opacity="0.22"/>
<path d="M17.49 35.0038C17.9485 35.0066 18.3973 34.8608 18.7791 34.5851C19.1608 34.3093 19.4581 33.9162 19.6328 33.4559C19.8076 32.9957 19.8519 32.4893 19.7601 32.0016C19.6682 31.5139 19.4445 31.067 19.1174 30.7182C18.7903 30.3693 18.3748 30.1344 17.924 30.0434C17.4732 29.9524 17.0077 30.0095 16.587 30.2074C16.1662 30.4053 15.8095 30.735 15.5623 31.1543C15.3152 31.5736 15.1889 32.0634 15.1996 32.561C15.217 33.2105 15.4651 33.8275 15.892 34.2829C16.3189 34.7382 16.8916 34.9966 17.49 35.0038Z" fill="#1A191A" fill-opacity="0.22"/>
<path d="M74.2382 96.6153C74.6921 96.6152 75.1359 96.4696 75.5139 96.1966C75.8918 95.9236 76.1871 95.5355 76.3626 95.081C76.5381 94.6265 76.586 94.1259 76.5003 93.6419C76.4147 93.1579 76.1992 92.7122 75.8811 92.3607C75.5629 92.0092 75.1562 91.7676 74.712 91.6662C74.2678 91.5648 73.8058 91.6081 73.3842 91.7907C72.9626 91.9733 72.6001 92.2871 72.3421 92.6926C72.0842 93.0981 71.9423 93.5773 71.9344 94.0701C71.9308 94.7387 72.171 95.3817 72.6027 95.8586C73.0344 96.3355 73.6224 96.6076 74.2382 96.6153Z" fill="#1A191A" fill-opacity="0.22"/>
<path d="M88.2771 127.377C88.7082 127.377 89.1297 127.239 89.4883 126.979C89.8469 126.719 90.1267 126.35 90.2923 125.918C90.4579 125.486 90.5019 125.01 90.4187 124.551C90.3356 124.091 90.129 123.669 89.8251 123.337C89.5212 123.005 89.1336 122.778 88.7111 122.685C88.2886 122.592 87.8502 122.637 87.4511 122.814C87.0521 122.991 86.7103 123.293 86.4688 123.68C86.2274 124.068 86.0971 124.525 86.0945 124.993C86.098 125.622 86.3286 126.224 86.7368 126.669C87.145 127.115 87.6981 127.37 88.2771 127.377Z" fill="#1A191A" fill-opacity="0.22"/>
<path d="M88.2501 199.696C87.8196 199.705 87.4011 199.851 87.0473 200.118C86.6934 200.384 86.42 200.758 86.2614 201.192C86.1028 201.627 86.0661 202.103 86.1559 202.56C86.2458 203.017 86.4581 203.435 86.7662 203.761C87.0744 204.088 87.4645 204.308 87.8876 204.394C88.3108 204.48 88.7479 204.429 89.1441 204.246C89.5404 204.063 89.8779 203.757 90.1144 203.367C90.3509 202.976 90.4757 202.518 90.4731 202.051C90.4625 201.42 90.2231 200.819 89.807 200.378C89.3909 199.937 88.8315 199.692 88.2501 199.696Z" fill="#1A191A" fill-opacity="0.22"/>
<path d="M60.078 261.454C59.6745 261.437 59.2756 261.55 58.9312 261.779C58.5869 262.008 58.3125 262.342 58.1425 262.739C57.9725 263.137 57.9146 263.58 57.9759 264.013C58.0373 264.447 58.2152 264.85 58.4873 265.174C58.7594 265.498 59.1136 265.727 59.5053 265.833C59.897 265.939 60.3089 265.917 60.689 265.769C61.0692 265.622 61.4007 265.356 61.642 265.004C61.8832 264.653 62.0235 264.232 62.045 263.794C62.0652 263.498 62.0296 263.201 61.9403 262.921C61.8511 262.641 61.7101 262.383 61.5259 262.164C61.3418 261.945 61.1184 261.769 60.8694 261.647C60.6204 261.525 60.3511 261.459 60.078 261.454Z" fill="#1A191A" fill-opacity="0.22"/>
<path d="M59.93 65.634C60.3369 65.6515 60.7394 65.5367 61.086 65.3046C61.4326 65.0724 61.7075 64.7333 61.8757 64.3306C62.0439 63.9279 62.0977 63.4799 62.0302 63.0439C61.9627 62.6078 61.777 62.2035 61.4968 61.8827C61.2166 61.5618 60.8546 61.3389 60.4572 61.2425C60.0597 61.1461 59.6448 61.1805 59.2655 61.3414C58.8861 61.5023 58.5596 61.7823 58.3276 62.1457C58.0955 62.509 57.9686 62.9393 57.9629 63.3814C57.9557 63.6696 58.0009 63.9564 58.0959 64.2256C58.1909 64.4948 58.3338 64.7411 58.5165 64.9503C58.6992 65.1595 58.918 65.3275 59.1606 65.4448C59.4031 65.5622 59.6645 65.6265 59.93 65.634Z" fill="#1A191A" fill-opacity="0.22"/>
<path d="M45.7833 276.9C45.3801 276.898 44.985 277.024 44.6477 277.264C44.3105 277.504 44.046 277.847 43.8875 278.25C43.729 278.652 43.6835 279.097 43.7567 279.527C43.8299 279.958 44.0186 280.356 44.2991 280.67C44.5796 280.985 44.9394 281.202 45.3333 281.296C45.7273 281.389 46.138 281.354 46.5138 281.196C46.8896 281.037 47.2138 280.761 47.4458 280.403C47.6777 280.045 47.8071 279.62 47.8178 279.182C47.8327 278.885 47.7908 278.587 47.6947 278.307C47.5986 278.028 47.4504 277.773 47.2594 277.559C47.0684 277.345 46.8387 277.176 46.5847 277.062C46.3307 276.949 46.0579 276.894 45.7833 276.9Z" fill="#1A191A" fill-opacity="0.22"/>
<path d="M45.7158 50.1873C46.1196 50.1929 46.5159 50.0688 46.8549 49.8305C47.1939 49.5922 47.4605 49.2504 47.621 48.8481C47.7816 48.4458 47.8291 48.0009 47.7574 47.5694C47.6857 47.1379 47.4981 46.7391 47.2182 46.423C46.9383 46.107 46.5785 45.8878 46.1842 45.7931C45.7899 45.6985 45.3786 45.7325 45.002 45.8909C44.6255 46.0493 44.3005 46.3251 44.0679 46.6835C43.8353 47.042 43.7055 47.4671 43.6948 47.9054C43.682 48.2013 43.7249 48.497 43.8209 48.7744C43.9168 49.0517 44.0639 49.3049 44.253 49.5185C44.4422 49.7321 44.6694 49.9015 44.9209 50.0165C45.1724 50.1315 45.4429 50.1896 45.7158 50.1873Z" fill="#1A191A" fill-opacity="0.22"/>
<path d="M3.26245 307.706C2.77407 307.75 2.31882 307.992 1.98698 308.384C1.65514 308.775 1.47095 309.288 1.47095 309.82C1.47095 310.352 1.65514 310.865 1.98698 311.256C2.31882 311.648 2.77407 311.889 3.26245 311.934C3.53173 311.958 3.80272 311.921 4.05831 311.826C4.31391 311.731 4.54855 311.579 4.74738 311.381C4.94622 311.182 5.10493 310.941 5.2135 310.672C5.32206 310.403 5.37813 310.113 5.37813 309.82C5.37813 309.526 5.32206 309.236 5.2135 308.968C5.10493 308.699 4.94622 308.458 4.74738 308.259C4.54855 308.06 4.31391 307.909 4.05831 307.814C3.80272 307.718 3.53173 307.682 3.26245 307.706Z" fill="#1A191A" fill-opacity="0.22"/>
<path d="M31.5826 292.259C31.1935 292.248 30.8101 292.363 30.4816 292.589C30.153 292.816 29.8942 293.144 29.7385 293.531C29.5827 293.918 29.537 294.347 29.6073 294.763C29.6776 295.178 29.8606 295.562 30.1329 295.864C30.4052 296.165 30.7544 296.372 31.1356 296.457C31.5169 296.542 31.9128 296.502 32.2727 296.341C32.6326 296.18 32.94 295.906 33.1555 295.554C33.371 295.202 33.4848 294.788 33.4823 294.366C33.4756 293.817 33.2746 293.292 32.9209 292.9C32.5672 292.508 32.0879 292.278 31.5826 292.259Z" fill="#1A191A" fill-opacity="0.22"/>
<path d="M74.1707 80.6712C74.5399 80.6857 74.9046 80.5805 75.2185 80.3689C75.5323 80.1574 75.781 79.8492 75.9328 79.4836C76.0847 79.118 76.1328 78.7116 76.071 78.3162C76.0092 77.9208 75.8403 77.5544 75.5858 77.2636C75.3314 76.9728 75.003 76.7709 74.6425 76.6837C74.2819 76.5964 73.9056 76.6277 73.5615 76.7736C73.2174 76.9195 72.9211 77.1733 72.7105 77.5028C72.4998 77.8322 72.3844 78.2223 72.3788 78.6233C72.3679 78.8868 72.4061 79.1499 72.4911 79.397C72.5761 79.6441 72.7061 79.87 72.8734 80.0612C73.0408 80.2524 73.2419 80.405 73.4648 80.5098C73.6877 80.6146 73.9278 80.6695 74.1707 80.6712Z" fill="#1A191A" fill-opacity="0.22"/>
<path d="M3.32992 19.0744C3.69517 19.0629 4.04921 18.9348 4.3478 18.7061C4.64638 18.4774 4.87628 18.1583 5.00878 17.7886C5.14128 17.4189 5.17049 17.015 5.09278 16.6273C5.01507 16.2397 4.83386 15.8855 4.57182 15.609C4.30978 15.3325 3.97852 15.146 3.6194 15.0727C3.26029 14.9995 2.88925 15.0427 2.55264 15.1971C2.21603 15.3514 1.92878 15.6101 1.72676 15.9406C1.52475 16.2712 1.41692 16.6591 1.41677 17.0558C1.41086 17.3276 1.45674 17.5979 1.5515 17.8496C1.64627 18.1013 1.78789 18.329 1.9675 18.5185C2.1471 18.708 2.36082 18.8552 2.59526 18.9509C2.8297 19.0465 3.07981 19.0886 3.32992 19.0744Z" fill="#1A191A" fill-opacity="0.22"/>
<path d="M88.277 111.579C88.5204 111.585 88.7624 111.538 88.9887 111.44C89.2149 111.343 89.4208 111.197 89.5942 111.012C89.7676 110.826 89.9049 110.605 89.998 110.36C90.0912 110.116 90.1382 109.854 90.1363 109.59C90.1417 109.19 90.0372 108.796 89.8361 108.461C89.6351 108.125 89.3467 107.862 89.0074 107.704C88.6682 107.547 88.2935 107.503 87.9311 107.577C87.5687 107.652 87.2349 107.842 86.9722 108.123C86.7094 108.404 86.5297 108.764 86.4557 109.156C86.3818 109.548 86.417 109.956 86.5569 110.326C86.6968 110.697 86.935 111.014 87.2413 111.237C87.5477 111.46 87.9082 111.579 88.277 111.579Z" fill="#1A191A" fill-opacity="0.22"/>
<path d="M74.2786 246.212C73.9093 246.2 73.5452 246.308 73.2328 246.522C72.9204 246.736 72.6737 247.046 72.5243 247.413C72.3749 247.78 72.3295 248.187 72.394 248.582C72.4585 248.977 72.6298 249.342 72.8862 249.631C73.1426 249.919 73.4724 250.119 73.8335 250.203C74.1946 250.287 74.5708 250.253 74.9139 250.104C75.257 249.956 75.5515 249.699 75.7599 249.368C75.9683 249.037 76.0811 248.646 76.0839 248.245C76.093 247.981 76.053 247.719 75.9663 247.472C75.8797 247.226 75.7481 247.001 75.5796 246.811C75.411 246.622 75.2089 246.471 74.9854 246.368C74.7618 246.265 74.5214 246.212 74.2786 246.212Z" fill="#1A191A" fill-opacity="0.22"/>
<path d="M88.2904 215.304C87.9216 215.301 87.5602 215.417 87.2524 215.638C86.9446 215.858 86.7042 216.174 86.5618 216.543C86.4194 216.912 86.3815 217.32 86.4528 217.712C86.5241 218.105 86.7015 218.466 86.9623 218.75C87.2231 219.033 87.5557 219.225 87.9176 219.303C88.2795 219.38 88.6544 219.339 88.9947 219.184C89.335 219.03 89.6252 218.769 89.8285 218.435C90.0318 218.1 90.1389 217.708 90.1362 217.308C90.1399 217.043 90.0946 216.781 90.0031 216.536C89.9117 216.291 89.7758 216.069 89.6037 215.882C89.4316 215.695 89.2267 215.547 89.0011 215.448C88.7755 215.349 88.5338 215.3 88.2904 215.304Z" fill="#1A191A" fill-opacity="0.22"/>
<path d="M31.4479 34.5211C31.8165 34.5441 32.1831 34.4473 32.501 34.2432C32.8188 34.0391 33.0734 33.7368 33.2324 33.375C33.3914 33.0132 33.4476 32.6081 33.3937 32.2115C33.3399 31.8149 33.1785 31.4446 32.9301 31.148C32.6817 30.8513 32.3575 30.6417 31.999 30.5458C31.6404 30.4499 31.2637 30.4721 30.9168 30.6096C30.57 30.747 30.2686 30.9935 30.0513 31.3176C29.8339 31.6417 29.7104 32.0288 29.6964 32.4294C29.6819 32.6923 29.7159 32.9558 29.7966 33.2042C29.8773 33.4527 30.0029 33.6811 30.1661 33.876C30.3293 34.0709 30.5268 34.2284 30.7469 34.3392C30.9671 34.45 31.2054 34.5119 31.4479 34.5211Z" fill="#1A191A" fill-opacity="0.22"/>
<path d="M17.4225 308.087C17.0079 308.093 16.6104 308.267 16.3086 308.576C16.0068 308.885 15.8226 309.305 15.7923 309.754C15.7815 310.212 15.9388 310.655 16.2293 310.987C16.5199 311.319 16.92 311.512 17.3417 311.524C17.7633 311.536 18.1719 311.365 18.4777 311.049C18.7834 310.734 18.9612 310.3 18.9719 309.842C18.9657 309.391 18.8026 308.959 18.5151 308.633C18.2276 308.308 17.8373 308.112 17.4225 308.087Z" fill="#1A191A" fill-opacity="0.22"/>
<path d="M88.2098 95.723C88.5066 95.7524 88.8046 95.684 89.065 95.5266C89.3254 95.3693 89.5361 95.1303 89.6695 94.841C89.803 94.5517 89.853 94.2254 89.813 93.9048C89.773 93.5841 89.6449 93.284 89.4455 93.0436C89.246 92.8033 88.9844 92.6337 88.6948 92.5572C88.4052 92.4807 88.1011 92.5008 87.8222 92.6148C87.5433 92.7288 87.3026 92.9314 87.1313 93.1962C86.9601 93.4611 86.8664 93.7758 86.8625 94.0993C86.8511 94.5063 86.9848 94.9024 87.2358 95.2049C87.4868 95.5074 87.8358 95.693 88.2098 95.723Z" fill="#1A191A" fill-opacity="0.22"/>
<path d="M102.491 157.32C102.783 157.325 103.071 157.237 103.317 157.066C103.563 156.894 103.757 156.648 103.875 156.357C103.992 156.066 104.028 155.744 103.977 155.431C103.926 155.118 103.791 154.829 103.589 154.599C103.387 154.37 103.126 154.21 102.841 154.141C102.556 154.072 102.258 154.095 101.985 154.21C101.712 154.324 101.476 154.523 101.307 154.782C101.138 155.042 101.044 155.349 101.036 155.667C101.023 155.881 101.051 156.097 101.118 156.299C101.186 156.501 101.292 156.686 101.428 156.841C101.565 156.996 101.73 157.119 101.913 157.202C102.096 157.284 102.293 157.324 102.491 157.32Z" fill="#1A191A" fill-opacity="0.22"/>
<path d="M88.3849 231.16C87.9918 231.139 87.607 231.288 87.3152 231.574C87.0234 231.861 86.8484 232.262 86.8288 232.689C86.8091 233.115 86.9464 233.533 87.2104 233.85C87.4745 234.167 87.8436 234.357 88.2367 234.378C88.4313 234.389 88.6259 234.357 88.8094 234.286C88.993 234.215 89.1618 234.106 89.3063 233.964C89.4508 233.822 89.5681 233.65 89.6516 233.459C89.7351 233.268 89.783 233.061 89.7928 232.849C89.8025 232.638 89.7738 232.427 89.7083 232.228C89.6428 232.028 89.5418 231.845 89.4111 231.688C89.2804 231.531 89.1224 231.404 88.9464 231.313C88.7703 231.223 88.5795 231.171 88.3849 231.16Z" fill="#1A191A" fill-opacity="0.22"/>
<path d="M17.4226 18.6648C17.6197 18.6769 17.817 18.6448 18.0023 18.5706C18.1876 18.4964 18.3568 18.3817 18.4996 18.2336C18.6423 18.0855 18.7555 17.9071 18.8321 17.7095C18.9088 17.512 18.9472 17.2994 18.945 17.085C18.9634 16.6761 18.832 16.2759 18.5796 15.9717C18.3272 15.6675 17.9743 15.4841 17.5977 15.4614C17.3948 15.4323 17.1884 15.4491 16.9917 15.5109C16.7951 15.5727 16.6123 15.6781 16.455 15.8204C16.2977 15.9627 16.1693 16.1388 16.0778 16.3377C15.9863 16.5365 15.9338 16.7538 15.9235 16.9758C15.9132 17.1978 15.9454 17.4198 16.0181 17.6276C16.0908 17.8354 16.2023 18.0246 16.3457 18.1833C16.4891 18.342 16.6612 18.4667 16.8512 18.5496C17.0411 18.6325 17.2449 18.6717 17.4495 18.6648H17.4226Z" fill="#1A191A" fill-opacity="0.22"/>
<path d="M102.451 169.563C102.261 169.565 102.073 169.608 101.899 169.689C101.724 169.771 101.567 169.889 101.435 170.038C101.303 170.186 101.2 170.362 101.132 170.554C101.063 170.746 101.031 170.952 101.036 171.158C101.034 171.479 101.12 171.795 101.285 172.063C101.449 172.331 101.684 172.539 101.958 172.66C102.233 172.782 102.534 172.811 102.824 172.745C103.115 172.678 103.38 172.519 103.585 172.287C103.791 172.055 103.928 171.761 103.978 171.444C104.029 171.127 103.99 170.801 103.868 170.507C103.746 170.214 103.546 169.967 103.293 169.799C103.04 169.631 102.747 169.549 102.451 169.563Z" fill="#1A191A" fill-opacity="0.22"/>
<path d="M60.0108 277.573C59.7272 277.556 59.4452 277.631 59.201 277.788C58.9568 277.946 58.7615 278.179 58.6399 278.458C58.5183 278.736 58.476 279.048 58.5185 279.353C58.5609 279.658 58.6862 279.942 58.8782 280.17C59.0703 280.397 59.3204 280.557 59.5965 280.629C59.8727 280.701 60.1624 280.682 60.4286 280.575C60.6949 280.467 60.9255 280.276 61.0911 280.025C61.2566 279.774 61.3496 279.476 61.3581 279.168C61.3593 278.767 61.2214 278.38 60.9717 278.084C60.722 277.789 60.3789 277.606 60.0108 277.573Z" fill="#1A191A" fill-opacity="0.22"/>
<path d="M102.464 142.005C102.82 141.982 103.155 141.816 103.403 141.539C103.652 141.263 103.797 140.895 103.808 140.508C103.82 140.122 103.699 139.744 103.467 139.45C103.236 139.156 102.912 138.966 102.558 138.918C102.203 138.941 101.868 139.107 101.619 139.384C101.37 139.66 101.226 140.028 101.214 140.415C101.202 140.801 101.324 141.179 101.555 141.473C101.787 141.767 102.111 141.957 102.464 142.005Z" fill="#1A191A" fill-opacity="0.22"/>
<path d="M59.9433 49.5437C60.3159 49.5523 60.6773 49.4054 60.953 49.1332C61.2288 48.861 61.3978 48.4844 61.4253 48.0809C61.4412 47.7736 61.3724 47.4682 61.2278 47.2035C61.0832 46.9388 60.8694 46.7268 60.6134 46.5944C60.3575 46.4621 60.0711 46.4155 59.7907 46.4605C59.5103 46.5055 59.2485 46.64 59.0388 46.8471C58.829 47.0541 58.6808 47.3242 58.6129 47.623C58.545 47.9218 58.5605 48.2358 58.6575 48.5249C58.7545 48.8141 58.9286 49.0654 59.1575 49.2468C59.3865 49.4283 59.6601 49.5316 59.9433 49.5437Z" fill="#1A191A" fill-opacity="0.22"/>
<path d="M102.531 185.068C102.249 185.051 101.968 185.126 101.725 185.282C101.481 185.439 101.286 185.67 101.164 185.947C101.042 186.224 100.998 186.534 101.039 186.838C101.079 187.142 101.202 187.426 101.391 187.654C101.581 187.883 101.828 188.045 102.102 188.12C102.377 188.195 102.665 188.18 102.932 188.077C103.198 187.974 103.43 187.787 103.599 187.541C103.768 187.294 103.865 186.999 103.879 186.692C103.887 186.286 103.752 185.892 103.502 185.59C103.251 185.288 102.904 185.102 102.531 185.068Z" fill="#1A191A" fill-opacity="0.22"/>
<path d="M45.7158 292.962C45.5453 292.945 45.3736 292.968 45.2115 293.027C45.0493 293.087 44.9003 293.182 44.7737 293.307C44.6472 293.432 44.5458 293.584 44.4761 293.754C44.4063 293.923 44.3697 294.107 44.3685 294.293C44.3441 294.586 44.4019 294.881 44.5343 295.138C44.6667 295.395 44.8676 295.603 45.1106 295.734C45.3537 295.865 45.6275 295.914 45.8963 295.873C46.1651 295.832 46.4163 295.705 46.6171 295.506C46.8178 295.308 46.9587 295.048 47.0213 294.762C47.0839 294.475 47.0652 294.174 46.9678 293.899C46.8704 293.624 46.6987 293.388 46.4753 293.22C46.2519 293.053 45.9872 292.963 45.7158 292.962Z" fill="#1A191A" fill-opacity="0.22"/>
<path d="M74.1843 64.8295C74.454 64.8501 74.7231 64.7821 74.9567 64.6343C75.1903 64.4866 75.3776 64.266 75.4942 64.0011C75.6107 63.7363 75.6513 63.4395 75.6104 63.1494C75.5696 62.8592 75.4493 62.5891 75.2652 62.3742C75.0811 62.1593 74.8416 62.0094 74.5781 61.9442C74.3145 61.8789 74.0389 61.9013 73.7872 62.0084C73.5355 62.1154 73.3192 62.3022 73.1666 62.5445C73.0139 62.7867 72.932 63.0732 72.9313 63.3668C72.9203 63.5533 72.9445 63.7404 73.0023 63.9165C73.0602 64.0926 73.1505 64.2541 73.2678 64.391C73.3851 64.5279 73.5268 64.6374 73.6844 64.7128C73.842 64.7882 74.0121 64.8279 74.1843 64.8295Z" fill="#1A191A" fill-opacity="0.22"/>
<path d="M74.0091 262.258C73.7237 262.342 73.4717 262.526 73.2921 262.781C73.1125 263.036 73.0151 263.349 73.0151 263.67C73.0151 263.991 73.1125 264.303 73.2921 264.558C73.4717 264.813 73.7237 264.997 74.0091 265.081C74.2089 265.14 74.4186 265.148 74.6217 265.105C74.8249 265.062 75.0162 264.968 75.1807 264.832C75.3452 264.695 75.4785 264.519 75.5702 264.318C75.662 264.116 75.7097 263.895 75.7097 263.67C75.7097 263.445 75.662 263.223 75.5702 263.022C75.4785 262.82 75.3452 262.644 75.1807 262.508C75.0162 262.371 74.8249 262.278 74.6217 262.234C74.4186 262.191 74.2089 262.199 74.0091 262.258Z" fill="#1A191A" fill-opacity="0.22"/>
<path d="M45.7158 33.9214C45.9127 33.9894 46.1214 34.0073 46.3256 33.9738C46.5299 33.9402 46.7244 33.8561 46.8939 33.728C47.0635 33.5998 47.2037 33.431 47.3035 33.2347C47.4034 33.0383 47.4604 32.8197 47.47 32.5956C47.4796 32.3715 47.4417 32.148 47.359 31.9425C47.2764 31.7369 47.1513 31.5547 46.9935 31.4099C46.8357 31.2652 46.6493 31.1618 46.4487 31.1078C46.2482 31.0537 46.0389 31.0505 45.8371 31.0983C45.5472 31.1669 45.2863 31.3375 45.0948 31.5836C44.9034 31.8297 44.7921 32.1375 44.7783 32.4593C44.7645 32.7811 44.8489 33.0988 45.0184 33.3632C45.1879 33.6275 45.4331 33.8238 45.7158 33.9214Z" fill="#1A191A" fill-opacity="0.22"/>
<path d="M102.504 200.735C102.261 200.738 102.024 200.819 101.823 200.969C101.622 201.119 101.467 201.331 101.378 201.577C101.289 201.823 101.269 202.092 101.321 202.351C101.373 202.609 101.495 202.845 101.671 203.027C101.847 203.21 102.069 203.332 102.309 203.377C102.549 203.422 102.796 203.389 103.019 203.281C103.241 203.173 103.429 202.996 103.558 202.771C103.687 202.547 103.752 202.286 103.744 202.022C103.724 201.678 103.585 201.354 103.355 201.116C103.126 200.877 102.822 200.741 102.504 200.735Z" fill="#1A191A" fill-opacity="0.22"/>
<path d="M102.504 126.353C102.745 126.355 102.982 126.281 103.184 126.139C103.387 125.997 103.547 125.795 103.645 125.556C103.743 125.317 103.775 125.052 103.737 124.794C103.699 124.536 103.592 124.295 103.43 124.102C103.268 123.908 103.057 123.77 102.824 123.705C102.591 123.639 102.345 123.649 102.117 123.732C101.888 123.816 101.688 123.97 101.539 124.176C101.39 124.382 101.299 124.63 101.278 124.89C101.269 125.074 101.294 125.258 101.351 125.431C101.408 125.605 101.496 125.764 101.61 125.9C101.724 126.036 101.862 126.146 102.015 126.224C102.169 126.302 102.335 126.346 102.504 126.353Z" fill="#1A191A" fill-opacity="0.22"/>
<path d="M88.3308 247.016C88.1792 247.001 88.0264 247.022 87.8829 247.077C87.7394 247.132 87.6087 247.221 87.4998 247.336C87.3909 247.451 87.3064 247.591 87.2521 247.746C87.1979 247.9 87.1752 248.065 87.1856 248.23C87.1837 248.388 87.2111 248.544 87.2661 248.69C87.3212 248.835 87.4027 248.967 87.5059 249.078C87.609 249.188 87.7316 249.275 87.8664 249.333C88.0012 249.391 88.1454 249.419 88.2903 249.415C88.9505 249.327 89.3682 248.962 89.3816 248.23C89.3973 248.073 89.3815 247.914 89.3352 247.764C89.2889 247.614 89.2132 247.476 89.1134 247.361C89.0136 247.246 88.8919 247.155 88.7568 247.096C88.6217 247.036 88.4764 247.009 88.3308 247.016Z" fill="#1A191A" fill-opacity="0.22"/>
<path d="M31.5962 308.628C31.4519 308.609 31.3056 308.624 31.1671 308.671C31.0285 308.719 30.9008 308.798 30.7925 308.903C30.6841 309.008 30.5977 309.137 30.5388 309.281C30.4799 309.425 30.45 309.582 30.451 309.739C30.4358 309.902 30.4524 310.066 30.4999 310.221C30.5474 310.376 30.6246 310.519 30.7264 310.639C30.8283 310.759 30.9525 310.854 31.0908 310.919C31.2291 310.983 31.3784 311.015 31.5289 311.012C31.8034 311.032 32.0743 310.935 32.2833 310.741C32.4924 310.547 32.623 310.271 32.6471 309.973C32.6638 309.809 32.6495 309.643 32.605 309.485C32.5606 309.327 32.4869 309.181 32.3885 309.055C32.2902 308.929 32.1692 308.826 32.0329 308.753C31.8967 308.679 31.7481 308.637 31.5962 308.628Z" fill="#1A191A" fill-opacity="0.22"/>
<path d="M2.29248 325.245C2.29248 325.903 2.64277 326.386 3.23559 326.298C3.8284 326.21 4.00355 325.801 4.3808 325.537C4.3808 325.376 4.3808 325.215 4.3808 325.069C4.01703 324.777 3.66673 324.338 3.26254 324.25C2.85835 324.162 2.30595 324.543 2.29248 325.245Z" fill="#1A191A" fill-opacity="0.22"/>
<path d="M102.518 110.585C102.922 110.585 103.272 110.073 103.636 109.795V109.327C103.259 109.049 102.909 108.61 102.504 108.537C102.1 108.464 101.548 108.902 101.548 109.575C101.548 110.248 101.925 110.702 102.518 110.585Z" fill="#1A191A" fill-opacity="0.22"/>
<path d="M88.1962 79.8813H88.6274C88.8968 79.4864 89.328 79.1207 89.4088 78.6819C89.4897 78.243 89.1259 77.6287 88.5061 77.5994C87.8863 77.5702 87.4552 77.9505 87.5226 78.5941C87.5899 79.2377 87.9672 79.4571 88.1962 79.8813Z" fill="#1A191A" fill-opacity="0.22"/>
<path d="M102.747 216.094H102.302C102.046 216.503 101.629 216.869 101.561 217.308C101.494 217.746 101.871 218.361 102.491 218.375C103.111 218.39 103.529 217.98 103.448 217.337C103.367 216.693 102.99 216.518 102.747 216.094Z" fill="#1A191A" fill-opacity="0.22"/>
<path d="M31.5289 18.109C32.1352 18.109 32.5798 17.7287 32.4854 17.085C32.3911 16.4414 32.0274 16.2513 31.7714 15.8417H31.3402C31.0843 16.2366 30.6801 16.617 30.5992 17.0558C30.5184 17.4946 30.8956 18.109 31.5289 18.109Z" fill="#1A191A" fill-opacity="0.22"/>
<path d="M3.24893 2.73536C3.89563 2.73536 4.32678 2.29654 4.20552 1.62367C4.12468 1.19947 3.6666 0.863027 3.38367 0.48271H2.97947C2.75043 0.863027 2.37318 1.24334 2.31929 1.65292C2.22498 2.23802 2.60222 2.6476 3.24893 2.73536Z" fill="#1A191A" fill-opacity="0.22"/>
</g>
<defs>
<clipPath id="clip0_136_72">
<rect width="301" height="327" fill="white" transform="translate(-197)"/>
</clipPath>
</defs>
</svg>
