<svg width="136" height="136" viewBox="0 0 136 136" fill="none" xmlns="http://www.w3.org/2000/svg">
<g filter="url(#filter0_d_171_1572)">
<circle r="30" transform="matrix(-1 0 0 1 68 64)" fill="#BB3232"/>
<path d="M78.25 49.3446L52 64.5L78.25 79.6554L78.25 49.3446Z" stroke="#BEBEBE"/>
<path d="M80.4612 84.5085L76.4915 85.4612L75.5388 81.4915L79.5085 80.5388L80.4612 84.5085ZM77.7387 83.4263L46.7387 64.4263L47.2613 63.5737L78.2613 82.5737L77.7387 83.4263Z" fill="#676767"/>
<path d="M80.4964 44.5505L79.4495 48.4964L75.5036 47.4495L76.5505 43.5036L80.4964 44.5505ZM78.2511 46.4324L47.2511 64.4324L46.7489 63.5676L77.7489 45.5676L78.2511 46.4324Z" fill="#676767"/>
</g>
<defs>
<filter id="filter0_d_171_1572" x="0" y="0" width="136" height="136" filterUnits="userSpaceOnUse" color-interpolation-filters="sRGB">
<feFlood flood-opacity="0" result="BackgroundImageFix"/>
<feColorMatrix in="SourceAlpha" type="matrix" values="0 0 0 0 0 0 0 0 0 0 0 0 0 0 0 0 0 0 127 0" result="hardAlpha"/>
<feOffset dy="4"/>
<feGaussianBlur stdDeviation="19"/>
<feComposite in2="hardAlpha" operator="out"/>
<feColorMatrix type="matrix" values="0 0 0 0 0 0 0 0 0 0 0 0 0 0 0 0 0 0 0.25 0"/>
<feBlend mode="normal" in2="BackgroundImageFix" result="effect1_dropShadow_171_1572"/>
<feBlend mode="normal" in="SourceGraphic" in2="effect1_dropShadow_171_1572" result="shape"/>
</filter>
</defs>
</svg>
