<svg width="250" height="79" viewBox="0 0 250 79" fill="none" xmlns="http://www.w3.org/2000/svg">
<path d="M19.5664 78.7031C16.0801 78.7031 12.9014 78.0293 10.0303 76.6816C7.15918 75.334 4.87402 73.3418 3.1748 70.7051C1.50488 68.0391 0.669922 64.7725 0.669922 60.9053V41.5254H15.9629V59.9824C15.9629 61.3301 16.2266 62.4141 16.7539 63.2344C17.3105 64.0547 18.1895 64.4648 19.3906 64.4648C21.7051 64.4648 22.8623 63.0439 22.8623 60.2021V0.65625H38.4629V58.6641C38.4629 62.7656 37.6572 66.3252 36.0459 69.3428C34.4346 72.3311 32.208 74.6455 29.3662 76.2861C26.5244 77.8975 23.2578 78.7031 19.5664 78.7031ZM62.3252 78.7031C55.8799 78.7031 51.1338 76.9014 48.0869 73.2979C45.04 69.665 43.5166 64.333 43.5166 57.3018V0.65625H58.5459V56.6865C58.5459 57.9756 58.6191 59.2207 58.7656 60.4219C58.9121 61.5938 59.249 62.5605 59.7764 63.3223C60.3037 64.084 61.1533 64.4648 62.3252 64.4648C63.5264 64.4648 64.3906 64.0986 64.918 63.3662C65.4453 62.6045 65.7676 61.623 65.8848 60.4219C66.0312 59.2207 66.1045 57.9756 66.1045 56.6865V0.65625H81.1338V57.3018C81.1338 64.333 79.6104 69.665 76.5635 73.2979C73.5166 76.9014 68.7705 78.7031 62.3252 78.7031ZM87.0664 78V0.65625H102.975L110.094 37.7021V0.65625H125.035V78H109.918L102.184 39.3281V78H87.0664ZM131.891 78V0.65625H147.184V31.6377L154.391 0.65625H169.947L161.29 36.0762L171.749 78H155.709L147.271 40.5586V78H131.891ZM174.43 78V0.65625H205.367V15.5977H190.162V30.6709H204.752V45.2168H190.162V62.9268H206.378V78H174.43ZM211.52 78V0.65625H235.25C239.205 0.65625 242.193 1.56445 244.215 3.38086C246.236 5.16797 247.584 7.6875 248.258 10.9395C248.961 14.1621 249.312 17.9561 249.312 22.3213C249.312 26.54 248.771 29.9092 247.687 32.4287C246.632 34.9482 244.625 36.6914 241.666 37.6582C244.098 38.1562 245.797 39.3721 246.764 41.3057C247.76 43.21 248.258 45.6855 248.258 48.7324V78H233.009V47.7217C233.009 45.4658 232.54 44.0742 231.603 43.5469C230.694 42.9902 229.215 42.7119 227.164 42.7119V78H211.52ZM227.252 29.3086H230.987C233.126 29.3086 234.195 26.9795 234.195 22.3213C234.195 19.3037 233.961 17.3262 233.492 16.3887C233.023 15.4512 232.145 14.9824 230.855 14.9824H227.252V29.3086Z" fill="#BB3232"/>
</svg>
