<svg width="416" height="105" viewBox="0 0 416 105" fill="none" xmlns="http://www.w3.org/2000/svg">
<path d="M50.949 13L22 92H198.268L224 13H50.949Z" fill="#BB3232" fill-opacity="0.55"/>
<path d="M90.3781 65L92.8684 39.2188H101.613L104.06 65H99.1818L98.8156 60.8398H95.7102L95.3879 65H90.3781ZM96.0764 56.7236H98.4201L97.2922 43.6133H97.0578L96.0764 56.7236ZM104.742 65V39.2188H112.652C113.97 39.2188 114.966 39.5215 115.64 40.127C116.314 40.7227 116.763 41.5625 116.988 42.6465C117.222 43.7207 117.339 44.9854 117.339 46.4404C117.339 47.8467 117.159 48.9697 116.797 49.8096C116.446 50.6494 115.777 51.2305 114.791 51.5527C115.601 51.7188 116.168 52.124 116.49 52.7686C116.822 53.4033 116.988 54.2285 116.988 55.2441V65H111.905V54.9072C111.905 54.1553 111.749 53.6914 111.436 53.5156C111.133 53.3301 110.64 53.2373 109.957 53.2373V65H104.742ZM109.986 48.7695H111.231C111.944 48.7695 112.3 47.9932 112.3 46.4404C112.3 45.4346 112.222 44.7754 112.066 44.4629C111.91 44.1504 111.617 43.9941 111.187 43.9941H109.986V48.7695ZM118.139 65V39.2188H128.451V44.1992H123.383V49.2236H128.246V54.0723H123.383V59.9756H128.788V65H118.139ZM129.602 65V39.2188H134.905L137.278 51.5674V39.2188H142.258V65H137.219L134.641 52.1094V65H129.602ZM142.94 65L145.43 39.2188H154.176L156.622 65H151.744L151.378 60.8398H148.272L147.95 65H142.94ZM148.638 56.7236H150.982L149.854 43.6133H149.62L148.638 56.7236Z" fill="white"/>
<path d="M31 25.5L1 104.5H176" stroke="black"/>
<path d="M223.949 13L195 92H371.268L397 13H223.949Z" fill="#BB3232"/>
<path d="M243 3H414.5L389 84.5" stroke="black"/>
<path d="M262.066 50V24.2188H269.054C270.929 24.2188 272.291 24.6777 273.14 25.5957C274 26.5039 274.429 28.0078 274.429 30.1074V31.2354C274.429 32.4463 274.21 33.4277 273.77 34.1797C273.341 34.9316 272.681 35.4248 271.793 35.6592C272.955 35.9521 273.731 36.6406 274.122 37.7246C274.522 38.7988 274.722 40.1123 274.722 41.665C274.722 43.335 274.566 44.7949 274.254 46.0449C273.941 47.2949 273.375 48.2666 272.554 48.96C271.734 49.6533 270.567 50 269.054 50H262.066ZM267.105 33.9307H268.16C268.638 33.9307 268.946 33.7451 269.083 33.374C269.22 33.0029 269.288 32.5586 269.288 32.041V29.4482C269.288 28.6182 268.922 28.2031 268.189 28.2031H267.105V33.9307ZM267.618 45.459C268.956 45.459 269.625 44.8242 269.625 43.5547V40.332C269.625 39.5996 269.513 39.0234 269.288 38.6035C269.073 38.1738 268.663 37.959 268.057 37.959H267.105V45.4297C267.32 45.4492 267.491 45.459 267.618 45.459ZM274.819 50L277.309 24.2188H286.054L288.5 50H283.622L283.256 45.8398H280.151L279.828 50H274.819ZM280.517 41.7236H282.861L281.733 28.6133H281.498L280.517 41.7236ZM291.013 50V29.1699H287.952V24.2188H299.231V29.1699H296.17V50H291.013ZM301.979 50V29.1699H298.917V24.2188H310.196V29.1699H307.135V50H301.979ZM310.732 50V24.2188H315.888V45.6055H321.191V50H310.732ZM321.756 50V24.2188H332.068V29.1992H327V34.2236H331.863V39.0723H327V44.9756H332.405V50H321.756ZM259.683 80V54.2188H267.593C268.911 54.2188 269.907 54.5215 270.581 55.127C271.255 55.7227 271.704 56.5625 271.929 57.6465C272.163 58.7207 272.28 59.9854 272.28 61.4404C272.28 62.8467 272.1 63.9697 271.738 64.8096C271.387 65.6494 270.718 66.2305 269.731 66.5527C270.542 66.7188 271.108 67.124 271.431 67.7686C271.763 68.4033 271.929 69.2285 271.929 70.2441V80H266.846V69.9072C266.846 69.1553 266.689 68.6914 266.377 68.5156C266.074 68.3301 265.581 68.2373 264.897 68.2373V80H259.683ZM264.927 63.7695H266.172C266.885 63.7695 267.241 62.9932 267.241 61.4404C267.241 60.4346 267.163 59.7754 267.007 59.4629C266.851 59.1504 266.558 58.9941 266.128 58.9941H264.927V63.7695ZM279.232 80.2344C277.171 80.2344 275.594 79.6143 274.5 78.374C273.416 77.124 272.874 75.3223 272.874 72.9688V60.7227C272.874 58.5156 273.412 56.8408 274.486 55.6982C275.57 54.5557 277.152 53.9844 279.232 53.9844C281.312 53.9844 282.889 54.5557 283.963 55.6982C285.047 56.8408 285.589 58.5156 285.589 60.7227V72.9688C285.589 75.3223 285.042 77.124 283.949 78.374C282.865 79.6143 281.292 80.2344 279.232 80.2344ZM279.276 75.4883C280.057 75.4883 280.448 74.7314 280.448 73.2178V60.6348C280.448 59.3652 280.067 58.7305 279.305 58.7305C278.446 58.7305 278.016 59.3799 278.016 60.6787V73.2471C278.016 74.0479 278.114 74.624 278.309 74.9756C278.504 75.3174 278.827 75.4883 279.276 75.4883ZM289.889 80V71.5186L285.773 54.2188H290.886L292.321 62.9492L293.757 54.2188H298.854L294.753 71.5186V80H289.889ZM297.852 80L300.342 54.2188H309.087L311.533 80H306.655L306.289 75.8398H303.184L302.862 80H297.852ZM303.55 71.7236H305.894L304.766 58.6133H304.531L303.55 71.7236ZM312.215 80V54.2188H317.372V75.6055H322.674V80H312.215ZM323.239 80V54.2188H333.552V59.1992H328.483V64.2236H333.347V69.0723H328.483V74.9756H333.889V80H323.239Z" fill="white"/>
</svg>
