<svg width="346" height="80" viewBox="0 0 346 80" fill="none" xmlns="http://www.w3.org/2000/svg">
<path d="M0.427734 79V1.65625H16.3359L23.4551 38.7021V1.65625H38.3965V79H23.2793L15.5449 40.3281V79H0.427734ZM44.5488 79V1.65625H59.4902V79H44.5488ZM81.5947 79.7031C70.5498 79.7031 65.0273 71.793 65.0273 55.9727V22.6182C65.0273 8.1748 71.3555 0.953125 84.0117 0.953125C89.2266 0.953125 93.2256 2.00781 96.0088 4.11719C98.792 6.19727 100.711 9.24414 101.766 13.2578C102.82 17.2715 103.348 22.1641 103.348 27.9355H88.2305V21.0801C88.2305 19.4102 87.9961 18.0186 87.5273 16.9053C87.0879 15.7627 86.1504 15.1914 84.7148 15.1914C82.9277 15.1914 81.7412 15.792 81.1553 16.9932C80.5986 18.1943 80.3203 19.5127 80.3203 20.9482V58.4336C80.3203 60.5137 80.584 62.2129 81.1113 63.5312C81.668 64.8203 82.7373 65.4648 84.3193 65.4648C85.96 65.4648 87.0439 64.8203 87.5713 63.5312C88.1279 62.2129 88.4062 60.4844 88.4062 58.3457V47.3154H84.2754V33.9561H103.172V79H96.9756L94.3389 72.4961C91.6436 77.3008 87.3955 79.7031 81.5947 79.7031ZM109.324 79V1.65625H124.705V29.2979H132V1.65625H147.381V79H132V43.9316H124.705V79H109.324ZM160.872 79V16.5098H151.688V1.65625H185.525V16.5098H176.341V79H160.872ZM228.943 79.7031C223.348 79.7031 218.836 77.96 215.408 74.4736C212.01 70.9873 210.311 66.1094 210.311 59.8398V24.1562C210.311 16.6562 211.79 10.9141 214.749 6.92969C217.737 2.94531 222.586 0.953125 229.295 0.953125C232.957 0.953125 236.209 1.62695 239.051 2.97461C241.922 4.32227 244.178 6.34375 245.818 9.03906C247.459 11.7051 248.279 15.0742 248.279 19.1465V32.5059H232.898V21.0801C232.898 18.7656 232.605 17.2129 232.02 16.4219C231.434 15.6016 230.525 15.1914 229.295 15.1914C227.859 15.1914 226.893 15.7188 226.395 16.7734C225.896 17.7988 225.647 19.1758 225.647 20.9043V59.6201C225.647 61.7588 225.955 63.2676 226.57 64.1465C227.215 65.0254 228.123 65.4648 229.295 65.4648C230.613 65.4648 231.536 64.9229 232.063 63.8389C232.62 62.7549 232.898 61.3486 232.898 59.6201V45.6895H248.455V60.3232C248.455 67.1201 246.741 72.0566 243.313 75.1328C239.886 78.1797 235.096 79.7031 228.943 79.7031ZM252.938 79V1.65625H267.879V79H252.938ZM280.667 79V16.5098H271.482V1.65625H305.32V16.5098H296.136V79H280.667ZM318.987 79V53.5557L306.639 1.65625H321.976L326.282 27.8477L330.589 1.65625H345.882L333.577 53.5557V79H318.987Z" fill="#BB3232"/>
</svg>
