<svg width="288" height="78" viewBox="0 0 288 78" fill="none" xmlns="http://www.w3.org/2000/svg">
<path d="M0.40625 78V63.9375L18.1162 14.8945H2.12012V0.65625H34.4199V14.1914L16.4023 63.7617H33.6729V78H0.40625ZM37.2324 78L44.7031 0.65625H70.9385L78.2773 78H63.6436L62.5449 65.5195H53.2285L52.2617 78H37.2324ZM54.3271 53.1709H61.3584L57.9746 13.8398H57.2715L54.3271 53.1709ZM81.002 78V63.9375L98.7119 14.8945H82.7158V0.65625H115.016V14.1914L96.998 63.7617H114.269V78H81.002ZM117.828 78L125.299 0.65625H151.534L158.873 78H144.239L143.141 65.5195H133.824L132.857 78H117.828ZM134.923 53.1709H141.954L138.57 13.8398H137.867L134.923 53.1709ZM163.619 78V0.65625H178.912V31.6377L186.119 0.65625H201.676L193.019 36.0762L203.478 78H187.438L179 40.5586V78H163.619ZM204.049 78L211.52 0.65625H237.755L245.094 78H230.46L229.361 65.5195H220.045L219.078 78H204.049ZM221.144 53.1709H228.175L224.791 13.8398H224.088L221.144 53.1709ZM249.84 78V0.65625H265.748L272.867 37.7021V0.65625H287.809V78H272.691L264.957 39.3281V78H249.84Z" fill="#BB3232"/>
</svg>
